<?xml version="1.0" encoding="utf-8"?>
<!-- Generator: Adobe Illustrator 14.0.0, SVG Export Plug-In . SVG Version: 6.00 Build 43363)  -->
<!DOCTYPE svg PUBLIC "-//W3C//DTD SVG 1.1//EN" "http://www.w3.org/Graphics/SVG/1.1/DTD/svg11.dtd">
<svg version="1.1" id="Layer_1" xmlns="http://www.w3.org/2000/svg" xmlns:xlink="http://www.w3.org/1999/xlink" x="0px" y="0px"
	 width="310.922px" height="134.407px" viewBox="6.755 4.315 310.922 134.407" enable-background="new 6.755 4.315 310.922 134.407"
	 xml:space="preserve">
<g>
	<path d="M277.719,4.315c0.322,1.391,0.291,2.902,0.48,4.32c-0.008-0.048,0.396,0.111,0.238,0.24c-0.23,0.186-0.16,0.793,0,1.68
		c0.047,0.266,0.196,0.52,0.237,0.96c0.076,0.853,0.154,1.599,0.24,2.399c0.021,0.21-0.351,0.529-0.24,0.961
		c0.025,0.117,0.438,0.152,0.479,0.24c0.229,0.504-0.084,2.197,0,3.119c0.021,0.209,0.187,0.575,0.238,0.961
		c0.031,0.222-0.062,0.506,0,0.72c0.146,0.485,0.049,0.95,0,2.159c-0.039,0.992-0.133,2.283,0.238,3.121
		c0.051,0.11,0.229-0.02,0.24,0.239c0.012,0.199,0.34,0.386,0.238,0.72c-0.06,1.043-0.281,1.635,0,2.641
		c0.021,0.081-0.062,0.432,0,0.48c0.137,0.109,0.421,0.691,0.479,1.199c0.076,0.639-0.248,1.2-0.237,1.92
		c0-0.053,0.231,0.108,0.237,0.24c0.05,0.932-0.041,1.992,0.24,3.12c0.135,0.538,0.106,0.127,0,0.96
		c-0.207,1.568,0.765,3.093,0.479,5.04c-0.068,0.487-0.074,1.019-0.238,1.92c-0.043,0.231-0.229,0.362-0.237,0.72
		c-0.024,0.731,0.188,1.494,0.237,2.16c0.054,0.667-0.174,1.366,0,2.16c0.041,0.195,0.24,0.238,0.238,0.48
		c0.002-0.059-0.229,0.111-0.238,0.24c-0.028,0.588,0.021,1.317,0,2.159c0.621,0.552,1.588-0.009,2.158-0.239
		c1.076-0.097,1.887,0.133,2.644,0c1.028-0.184,1.646-1.113,2.642-1.201c0.489-0.513,0.948,0.067,1.438,0.24
		c0.625-0.096,0.727-0.716,1.438-0.72c0.916,0.12,1.5,0.138,2.4,0c0.842-0.129,1.354-0.417,2.159-0.72
		c0.084-0.032,0.429,0.064,0.479,0c0.271-0.328,0.953-0.1,1.921-0.24c0.612-0.089,1.438-0.521,2.159-0.721
		c0.147-0.04,0.33,0.039,0.479,0c0.701-0.174,2.941-0.398,4.078-0.719c0.08-0.023,0.435,0.059,0.479,0
		c0.18-0.219,0.436-0.373,0.719-0.48c0.088-0.032,0.43,0.064,0.48,0c0.254-0.309,1.766-0.352,2.641-0.48
		c0.014-0.002,0.061-0.229,0.24-0.24c0.09-0.004,0.67,0.062,0.719,0c0.295-0.357,0.274,0.146,1.201,0
		c0.51-0.08,0.969-0.364,1.438-0.479c0.304-0.073,0.66,0.079,0.961,0c0.062-0.017,0.021-0.229,0.24-0.239
		c0.219-0.013,1.904,0.198,2.396,0.479c0.471,0.267,0.58,0.604,0.961,1.2c0.395,0.617-0.123,1.43-0.723,2.16
		c-0.474,0.576-0.992,1.475-1.683,2.16c-0.11,0.111-0.366,0.397-0.479,0.479c-0.086,0.062-0.413-0.08-0.479,0
		c-0.021,0.028,0.029,0.226,0,0.239c-0.088,0.043-0.424-0.069-0.479,0c-0.08,0.102-0.521,0.479-0.961,0.721
		c-0.547,0.115-1.228,0.477-1.682,0c-0.916,0.443-1.49,1.229-3.119,0.96c-0.64-0.207-0.429,0.452-0.961,0.479
		c-0.142,0.008-0.982,0.25-1.199,0.48c-0.73,0.173-0.875-0.246-1.438-0.24c-1.545,0.829-3.416,0.674-5.276,1.2
		c-0.08,0.022-0.435-0.06-0.479,0c-0.322,0.396-0.688-0.058-1.681,0c-0.188,0.011-0.405,0.207-0.723,0.24
		c-0.229,0.024-0.494-0.05-0.721,0c-0.711,0.157-1.197,0.705-1.92,0.96c-0.357,0.126-1.016,0.134-1.438,0.24
		c-0.811,0.199-1.656,0.123-2.643,0.479c-0.093,0.034,0.004,0.228-0.24,0.24c-0.389,0.021-0.406,0.178-0.721,0.239
		c-0.527,0.105-1.285-0.108-1.92,0c0.031-0.004-0.131,0.213-0.24,0.24c-0.146,0.037-0.332-0.043-0.479,0
		c-0.682,0.205-2.364,0.34-3.84,0.24c-0.791,0.885-0.467,2.208-0.479,3.84c-0.017,1.433,0.062,2.875,0,4.32
		c-0.121,2.751-0.562,5.682-0.24,8.399c0.074,0.619,0.425,1.278,0.479,1.92c0.216,2.371-0.219,4.847,0,7.195
		c0.06,0.637,0.354,1.082,0.479,1.687c0.08,0.383-0.066,0.811,0,1.198c0.043,0.228,0.211,0.373,0.24,0.722
		c0.031,0.358,0.32,3.576,0,3.84c-0.016,0.012-0.238-0.012-0.24,0c-0.021,0.514,0.244,0.627,0.24,0.959
		c-0.014,1.656-0.223,3.312,0,4.801c0.139,0.936,0.688,1.746,0.721,2.643c0.035,0.855-0.463,1.781-0.479,2.641
		c-0.021,0.904,0.437,1.369,0.479,2.4c0.033,0.76,0.205,0.609,0.24,1.438c0.025,0.656,0.029,0.748,0.238,1.439
		c0.072,0.242,0.352,0.521,0.238,0.961c-0.021,0.096-0.238,0.312-0.238,0.236c0,0.191,0.231,0.242,0.238,0.48
		c0.024,1.188,0.012,2.598,0.239,3.84c0.246,1.342,1.009,2.416,0,3.84c0.365,0.752,0.367,1.557,0.479,2.881
		c0.014,0.15-0.035,0.334,0,0.479c0.035,0.146,0.24,0.242,0.24,0.24c0.377,2.578,0.479,5.68,0.479,9.121
		c0,1.904,0.236,3.871,0,5.275c-0.002,0.021-0.229,0.053-0.238,0.24c-0.006,0.09,0.062,0.67,0,0.719
		c-0.494,0.404-0.719,2.189-1.682,2.4c-0.951,0.143-1.084-0.562-1.439-1.199c-0.068-0.127-0.225,0.031-0.238-0.24
		c-0.004-0.055,0.023-0.188,0-0.236c-0.084-0.158-0.401-0.348-0.479-0.48c-0.049-0.088,0.074-0.42,0-0.479
		c-0.426-0.354-0.059-1.496-0.479-2.16c-0.147-0.234-0.153-0.377-0.239-0.723c-0.056-0.219-0.205-0.146-0.24-0.236
		c-0.174-0.482,0.006-1.154-0.479-1.439c0.486-0.788,0.058-1.604,0-2.395c-0.006-0.068,0.045-0.441,0-0.48
		c-0.43-0.35,0.283-0.26,0-1.199c-0.131-0.424-0.377-1.85-0.479-2.881c-0.064-0.67-0.438-1.479,0-2.16
		c-0.438-1.01-1.229-2.619-0.719-4.559c0.016-0.062,0.229-0.021,0.236-0.24c0.041-0.791-0.791-2.35-0.959-3.359
		c-0.08-0.471,0.061-1.072,0-1.682c-0.027-0.303-0.244-0.863-0.24-1.199c0.008-0.504,0.271-1.105,0.24-1.68
		c-0.068-1.293-0.349-2.555-0.479-3.84c-0.006-0.066-0.334-0.234-0.24-0.48c0.039-0.1,0.234,0.016,0.24-0.236
		c0.004-0.145,0.035-0.348,0-0.479c-0.026-0.106-0.242-0.287-0.24-0.238c-0.098-1.979-0.059-4.075-0.235-6.237
		c-0.189-2.279-0.922-5.148-0.479-8.158c0.039-0.271,0.269-0.492,0.239-0.961c-0.051-0.812-0.442-1.582-0.479-2.4
		c-0.062-1.373,0.312-2.908,0.239-4.318c-0.039-0.752-0.381-1.395-0.479-2.158c-0.104-0.824,0.033-1.809,0-2.643
		c-0.021-0.5-0.222-0.627-0.236-0.96c-0.029-0.511,0.252-0.634,0.236-0.96c0.002,0.059-0.648-1.509-0.236-1.92
		c0.213-0.214,0.072-0.104,0-0.96c-0.16-1.79,0.523-4.13,0.236-6.479c-0.053-0.422-0.226-0.514-0.236-0.961
		c-0.021-0.51,0.492-0.836,0.236-1.68c-0.092-0.299-0.418-1.654-0.236-2.64c-1.742-0.343-2.867,0.475-4.08,0.96
		c-0.086,0.033-0.43-0.066-0.479,0c-0.279,0.343-1.496,0.305-2.398,0.48c-0.637,0.123-1.278,0.996-1.92,0.239
		c-0.844-0.054-0.748,0.787-1.438,0.96c-0.63,0.157-0.973,0.306-1.682,0c-0.543-0.232-1.402-0.539-1.682-1.199
		c-0.059-0.135,0.035-0.339,0-0.48c-0.117-0.469-0.213-0.35,0-1.2c-0.004,0.009,0.221-0.703,0.236-0.72
		c0.158-0.129,0.547-0.531,0.961-0.961c0.258-0.264,0.537-0.584,0.723-0.719c0.354-0.264,0.738-0.246,1.199-0.48
		c0.119-0.062-0.025-0.227,0.238-0.24c0.062-0.003,0.567-0.17,0.723-0.24c0.689-0.322,1.4-0.613,1.92-0.959
		c0.213-0.34,1.203-0.721,1.683-0.721c0.045,0,0.237,0.352,0.237,0c0.582-0.339,1.002-0.909,1.683-1.2
		c0.198-0.086,0.511,0.064,0.72,0c0.584-0.176,2.071-0.888,3.36-0.72c0-0.561,0-1.12,0-1.68c0.198-0.172,0.151-0.418,0.237-0.721
		c0.021-0.08-0.062-0.432,0-0.479c0.334-0.274-0.131-1.009-0.237-1.92c-0.235-1.98-0.229-5.688,0-7.921
		c0.09-0.881,0.469-1.596,0.479-2.399c0.002-0.144,0.094-0.868,0-0.96c-0.021-0.02-0.231,0.023-0.238,0
		c-0.062-0.211,0.087-0.52,0-0.72c-0.045-0.103-0.211,0.003-0.239-0.24c-0.021-0.174-0.051-0.554,0-0.72
		c0.067-0.227,0.367-0.538,0.239-0.961c-0.084-0.271-0.442-1.715-0.479-2.399c-0.039-0.717,0.43-0.681,0.239-1.44
		c-0.021-0.086-0.235-0.322-0.239-0.239c0.022-0.763,0.282-1.306,0.239-1.921c-0.013-0.156,0.103-0.857,0-0.959
		c-0.271-0.271-0.36-0.119-0.479-0.961c-0.149-1.096,0.188-2.646,0-4.08c-0.101-0.769-0.274-0.676,0-1.68
		c0.244-0.883,0.024-2.01,0-3.6c-0.004-0.275,0.289-0.464,0.24-1.2c0.002,0.026-0.229-0.088-0.24-0.239
		c-0.043-0.851,0.108-1.693,0.24-2.641c0.043-0.307-0.07-0.659,0-0.96c0.045-0.19,0.25-0.243,0.239-0.479
		c-0.022-0.658-0.487-1.304-0.479-1.92c0.013-0.692,0.326-1.736,0.479-2.641c0.209-1.214,0.146-2.1,0.479-2.641
		c0.104-0.17,0.783-0.566,0.961-0.719C277.398,4.315,277.559,4.315,277.719,4.315z"/>
	<path d="M84.759,18.475c1.138,0.062,0.586,1.814,0.72,2.881c0.041,0.5,0.403,0.928,0.48,1.439c0.127,0.844-0.061,1.764,0,2.64
		c0.066,0.979,0.369,1.849,0.48,2.88c0.133,1.25,0.12,2.521,0.239,3.84c0.106,1.192,0.112,2.475,0.24,3.601
		c0.088,0.776,0.452,1.606,0.479,2.399c0.043,1.235-0.297,2.14,0,3.601c0.043,0.205,0.172,0.413,0.24,0.72
		c0.034,0.152-0.038,0.329,0,0.48c0.152,0.606,0.629,2.354,0.721,3.359c0.094,1.041-0.08,2.047,0,3.12
		c0.094,1.281,0.627,2.548,0.719,3.841c0.102,1.409-0.282,2.889-0.239,4.319c0.052,1.71,0.929,4.009,0.479,6.479
		c-0.041,0.23-0.224,0.365-0.24,0.721c-0.02,0.432,0.272,0.504,0.24,0.96c-0.016,0.22-0.277,0.362-0.24,0.72
		c0.022,0.205,0.207,0.396,0.24,0.721c0.064,0.611,0.412,1.098,0.48,1.682c0.125,1.07-0.102,2.264,0,3.357
		c0.079,0.854,0.411,1.584,0.48,2.396c0.319,3.785-0.224,7.711,0.72,11.521c0.085,0.34,0.423,0.02,0.479-0.236
		c-0.047-0.543,0.745-0.541,0.961-0.723c0.332-0.275,0.51-0.631,0.719-0.961c1.269-0.189,2.457-0.918,3.36-1.682
		c0.202-0.17,0.224-0.32,0.48-0.479c0.634-0.396,1.817-0.953,2.64-1.439c0.219-0.129,0.146-0.4,0.48-0.479
		c0.188-0.046,0.552,0.094,0.72,0c0.36-0.197,0.242-0.718,0.72-0.724c0.086-0.636,1.223-0.218,1.44-0.72
		c0.558-0.162,0.643-0.801,1.2-0.961c0.88-0.287,1.775-0.522,2.88-0.959c0.144-0.059,0.334-0.146,0.479-0.24
		c0.025-0.016,0.307-0.258,0.24-0.237c0.812-0.226,1.659-0.034,2.4-0.237c0.322-0.091,0.892-0.354,1.199-0.479
		c0.346-0.146,0.719-0.235,0.961-0.479c0.428,0.021,0.508,0.225,0.959,0.238c0.195,0.008,0.237-0.271,0.48-0.238
		c0.148,0.021,0.271,0.238,0.24,0.238c0.607-0.008,1.156-0.55,1.68,0c0.717-0.004,0.816-0.623,1.439-0.721
		c0.442-0.109,0.867,0.145,1.44,0c0.118-0.027,0.278-0.243,0.24-0.24c0.392-0.023,0.414,0.262,0.72,0.24
		c0.444-0.027,0.334-0.646,1.2-0.479c0.188,0.036,0.245,0.26,0.479,0.237c0.479-0.041,0.817-0.44,1.201-0.479
		c0.512-0.049,0.946,0.246,1.439,0.24c0.391-0.007,0.561-0.154,0.96-0.24c-0.04,0.01,0.108-0.402,0.24-0.238
		c0.437,0.546,0.522-0.104,1.44,0c0.223,0.023,0.36,0.285,0.719,0.238c0.441-0.056,0.721-0.34,1.201-0.479
		c0.414-0.119,1.057-0.199,1.439-0.238c0.35-0.035,0.854-0.062,1.2,0c0.233,0.043,0.356,0.246,0.72,0.238
		c0.635-0.01,1.035-0.396,1.68-0.479c0.396-0.056,0.407,0.238,0.721,0.238c0.207,0,0.369-0.294,0.72-0.238
		c0.392,0.061,0.817,0.358,1.2,0.479c1.635-0.639,3.513-0.648,5.279-0.479c0.742,0.069,1.438,0.254,2.16,0.479
		c-0.029-0.009,0.105,0.408,0.24,0.24c0.26-0.324,0.379-0.129,0.721,0c0.084,0.031,0.426-0.062,0.479,0
		c0.296,0.359,0.274-0.15,1.2,0c0.168,0.086,0.336,0.393,0.479,0.479c0.14,0.086,0.578,0.113,0.72,0.238
		c0.323,0.283,0.394,0.895,0.721,1.199c0.347,0.328,0.876,0.436,1.199,0.723c0.156,0.139,0.08,0.576,0.24,0.723
		c0.187,0.16,0.568,0.049,0.721,0.236c0.211,1.494,1.515,2.086,2.16,2.881c0.066,0.084-0.082,0.412,0,0.479
		c0.08,0.064,0.426,0.16,0.479,0.24c0.058,0.088-0.078,0.416,0,0.48c0.456,0.371,1.153,0.938,1.44,1.684
		c0.033,0.084-0.065,0.426,0,0.479c0.69,0.563,0.068,2.2,0.24,3.604c0.096,0.789,0.684,1.686,0.719,2.641
		c0.041,1.072-0.832,2.521-0.479,4.318c-0.647,0.717-0.961,1.617-1.44,2.397c-0.076,0.125-0.362,0.336-0.479,0.479
		c-0.333,0.405-0.582,1.143-0.96,1.92c-0.462,0.338-0.966,0.635-1.68,0.721c-0.233,0.729-0.635,1.285-0.721,2.16
		c-0.572,0.389-1.259,0.66-1.439,1.438c-0.284,0.465-0.873,0.311-1.2,0.479c-0.815,0.435-1.358,1.873-2.88,1.921
		c-0.355,0.202-0.348,0.772-0.48,1.2c-0.443,0.306-0.814,0.572-1.199,0.959c-0.537,0.541-0.838,1.009-1.681,1.439
		c-0.237,0.123-0.432,0.467-0.72,0.479c-0.219,0.013-0.426,0.281-0.48,0.479c-0.861,0.197-1.16-0.541-1.68,0
		c-0.801,0.315-1.15,1.091-1.68,1.683c-0.4,0-0.801,0-1.2,0c-0.617,0.021-0.343,0.938-0.96,0.961
		c-0.329,0.396-0.807,0.072-1.2,0.238c-0.112,0.047-0.149,0.438-0.239,0.479c-0.344,0.156-0.609,0.074-0.961,0.24
		c-0.115,0.055,0.023,0.227-0.24,0.24c-0.101,0.006-0.379,0.396-0.479,0.479c-0.297,0.234-0.638,0.145-1.44,0.479
		c-0.106,0.045,0.016,0.229-0.24,0.238c-0.063,0.004-0.18-0.021-0.239,0c-0.381,0.15-1.417,0.104-2.399,0.238
		c-0.771,0.109-1.402,0.971-2.16,0.48c-0.229,0.254-0.549,0.514-0.961,0.721c-0.088,0.043-0.422-0.072-0.479,0
		c-0.022,0.026,0.03,0.225,0,0.24c-0.087,0.041-0.423-0.07-0.479,0c-0.316,0.385-2.242,0.315-2.881,0.959
		c-0.041-0.025-1.186-0.498-1.199-0.48c-0.062,0.078-0.492,0.66-0.961,0.48c-0.09-0.035-0.006-0.214-0.24-0.24
		c-0.637-0.074-1.357,0.062-1.92,0.24c-0.112,0.034-0.199,0.311-0.479,0.235c-0.044-0.013-0.392-0.19-0.239-0.235
		c-0.703,0.209-0.902,0.604-1.44,0.721c-0.382,0.078-0.812-0.049-1.2,0c-0.688,0.084-1.796,0.6-2.641-0.24
		c-1.547,0.439-3.562-0.332-5.279-0.479c-0.061-0.695-0.301-0.482-0.48-1.201c-0.065-0.267-0.145-0.479-0.24-1.199
		c-0.045-0.348-0.24-0.443-0.239-0.721c0.002-0.394,0.185-0.408,0.239-0.72c0.098-0.557-0.045-0.772,0.24-1.2
		c0.248-0.371,0.705-1.506,1.2-1.92c1.146,0.082,2.129-0.373,3.12,0c0.084,0.026,0.428-0.064,0.48,0
		c0.178,0.219,0.433,0.373,0.72,0.479c0.085,0.031,0.427-0.062,0.479,0c0.019,0.021-0.021,0.232,0,0.24
		c0.793,0.248,1.885-0.275,2.16,0.719c0.498-0.461,1.163-0.756,1.68-1.197c0.615,0.221,1.36,0.391,1.681-0.238
		c0.478,0.014,0.911,0.406,1.44,0.479c0.154,0.021,0.414-0.254,0.719-0.238c0.217,0.013,0.365,0.281,0.721,0.238
		c0.462-0.058,1.075-0.517,1.68-0.722c0.795-0.27,1.717-0.282,2.4-0.721c0.273-0.178,0.775,0.033,1.439-0.238
		c0.113-0.049,0.149-0.438,0.24-0.479c0.127-0.059,0.36,0.068,0.48,0c0.104-0.062,0.4-0.455,0.479-0.48
		c0.365-0.112,0.835,0.113,1.2,0c0.079-0.022,0.45-0.479,0.48-0.479c0.463-0.043,0.766,0.361,1.199,0.238
		c-0.031,0.01,0.949-0.225,0.961-0.238c0.191-0.234,0.211-0.311,0.479-0.479c0.272-0.176,0.5-0.271,0.72-0.479
		c0.111-0.104,0.827-0.209,0.961-0.724c1.915-0.024,2.997-1.024,4.559-1.92c0.41-0.229,0.305-0.313,0.961-0.479
		c0.209-0.053,0.583-0.271,0.96-0.48c0.126-0.069-0.032-0.229,0.239-0.239c0.545-0.024,1.117-0.644,1.44-1.197
		c0.237-0.59,1.63-0.502,1.681-1.438c0.023-0.463,0.439-0.271,0.719-0.479c0.283-0.213,0.363-0.976,0.721-1.438
		c0.572-0.311,1.3-0.461,1.439-1.201c0.645-0.311,1.275-0.645,1.92-0.959c0.447,0.072,0.041-0.797,0.24-0.961
		c0.211-0.172,0.28-0.696,0.721-0.721c0.481-0.022,0.785-1.213,1.199-1.682c0.853-0.961,2.098-1.605,2.641-2.881
		c-0.168-1.512-0.16-3.199-0.48-4.561c-0.109-1.015-1.173-1.066-1.68-1.683c-0.371-1.789-1.895-2.429-2.641-3.842
		c-1.52-0.318-2.338-1.343-3.359-2.158c-0.977,0.209-1.79,0.215-2.88,0c-0.481-0.097-0.461,0.021-0.72-0.237
		c-0.119-0.119-1.211,0.27-1.68,0.237c-0.519-0.035-0.602-0.164-0.961-0.237c-0.367-0.078-0.924,0.155-0.96-0.24
		c-0.448,0.19-0.879,0.399-1.44,0.479c-0.238-0.756-1.301-0.198-1.92-0.237c-0.275-0.021-0.484-0.203-1.199-0.24
		c-0.455-0.023-1.549-0.242-2.16,0c-0.205,0.08-0.148,0.436-0.48,0.479c-0.513,0.07-0.752-0.354-1.68-0.237
		c0.057-0.008-0.146,0.217-0.24,0.237c-0.447,0.108-0.676,0.002-0.959,0.238c-0.689,0.051-1.22-0.062-1.441-0.479
		c-0.752-0.113-0.633,0.646-1.199,0.721c-0.432-0.01-0.506-0.239-0.96-0.239c-0.544,0-1.142,0.426-2.16,0.239
		c-0.226-0.041-0.362-0.289-0.72-0.239c-0.719,0.103-1.19,0.534-1.68,0.722c-1.537,0.112-2.5-0.144-3.121,0.479
		c-0.621-0.444-2.092-0.139-2.399,0.48c-1.55-0.156-2.185,0.44-3.601,0.725c-0.191,0.037-0.241,0.254-0.479,0.238
		c-0.062-0.007-0.235-0.324-0.479-0.238c-0.082,0.025-0.414,0.172-0.48,0.238c-0.075,0.071-0.161,0.436-0.24,0.479
		c-0.341,0.199-1.265-0.352-0.96,0.48c-0.469,0.409-1.343,0.416-1.92,0.721c-0.616,0.182-0.485,0.604-0.96,0.961
		c-0.324,0.244-0.835,0.262-1.2,0.479c-0.161,0.1-0.335,0.395-0.479,0.48c-0.225,0.139-0.432,0.104-0.721,0.24
		c-0.369,0.174-0.854,0.293-1.199,0.479c-0.344,0.188-0.641,0.502-0.961,0.721c-0.176,0.121-0.522,0.096-0.719,0.24
		c-0.104,0.076-0.142,0.42-0.24,0.479c-0.252,0.15-0.488,0.109-0.721,0.238c-0.126,0.068,0.032,0.229-0.24,0.238
		c-0.518,0.027-1.187,0.635-1.68,0.961c-0.134,0.09,0.038,0.229-0.24,0.238c-0.609,0.033-1.071,0.605-1.439,1.201
		c-0.088,0.143-0.132,0.338-0.24,0.479c-0.061,0.078-0.417-0.076-0.48,0c-0.158,0.193,0.178,0.791-0.239,0.723
		c0.131,1.482,0.543,2.846,0.239,4.562c-0.041,0.231-0.238,0.356-0.239,0.721c-0.002,1.125,0.348,2.457,0.239,4.08
		c-0.03,0.47-0.25,0.99-0.239,1.438c0.013,0.623,0.249,1.273,0.239,1.92c-0.01,0.822-0.157,1.546-0.239,2.396
		c-0.042,0.438,0.073,0.938,0,1.439c-0.04,0.271-0.25,0.496-0.24,0.959c0.011,0.527,0.146,0.6,0.24,0.961
		c0.125,0.473-0.026,0.453,0.239,0.721c0.162,0.16-0.232,1.365-0.239,1.92c-0.015,1.158,0.325,2.396,0.239,3.604
		c-0.08,1.134-0.287,2.259-0.239,3.841c0.012,0.381,0.239,0.418,0.239,0.721c0,0.209-0.286,0.369-0.239,0.724
		c0.101,0.738,0.58,1.406,0.72,2.158c0.059,0.311-0.041,0.646,0,0.961c0.094,0.707,0.109,0.789,0,1.682
		c-0.048,0.391,0.014,0.807,0,1.199c0.002-0.068,0.389,0.119,0.24,0.238c-0.327,0.264-0.198,0.643-0.24,1.438
		c-0.07,1.312,0.126,2.639-0.72,3.602c-0.663,0.035-1.132-0.021-1.681-0.238c-0.48-0.19-0.549-0.379-0.959-0.721
		c-0.176-0.146-0.6-0.301-0.721-0.48c-0.083-0.125-0.326-1.295-0.48-1.682c-0.033-0.086,0.066-0.428,0-0.479
		c-0.35-0.285-0.09-1.146-0.239-2.16c-0.069-0.474-0.396-0.914-0.479-1.438c-0.097-0.604,0.097-1.352,0-1.922
		c-0.185-1.072-0.66-2.148-0.721-2.881c-0.061-0.703,0.227-1.422,0.24-2.158c0.011-0.586-0.201-1.297-0.24-1.922
		c-0.052-0.826-0.091-1.562-0.24-2.156c-0.134-0.537,0.272-0.44,0.24-1.199c0.004,0.099-0.224-0.178-0.24-0.239
		c-0.061-0.242-0.146-1.772,0-2.397c0.06-0.248,0.353-0.519,0.24-0.961c-0.023-0.097-0.24-0.312-0.24-0.236
		c0-0.197,0.25-0.236,0.24-0.48c-0.025-0.6-0.244-1.344-0.24-1.92c0.006-0.576,0.193-1.082,0.24-1.68
		c0.053-0.658-0.041-1.289,0-1.92c0.021-0.318,0.418-0.486,0.24-1.201c-0.021-0.088-0.238-0.32-0.24-0.238
		c0.018-0.654,0.246-1.102,0.24-1.682c-0.008-0.775-0.182-1.561-0.24-2.398c-0.013-0.184,0.24-0.248,0.24-0.479
		c0-0.16-0.2-0.285-0.24-0.479c-0.099-0.48,0.02-0.462-0.24-0.724c-0.106-0.104,0.219-1.729,0.24-2.158
		c0.028-0.565,0.206-1.479,0-2.159c-0.145-0.478-0.097-0.408,0-1.199c0.131-1.066-0.251-2.183-0.24-3.357
		c0.012-1.254,0.33-2.314,0-3.604c-0.121-0.476,0.026-0.453-0.24-0.722c-0.262-0.262,0.289-1.354,0.24-1.92
		c-0.035-0.422-0.189-0.521-0.24-0.961c-0.034-0.312,0.056-0.647,0-0.959c-0.004-0.024-0.229-0.05-0.239-0.237
		c-0.013-0.23,0.043-0.494,0-0.724c-0.154-0.813-0.198-1.856,0-3.356c0.089-0.677,0.298-0.619,0-1.438
		c-0.317-0.874-0.17-2.981-0.24-4.562c-0.032-0.735-0.2-1.396-0.239-2.163c-0.033-0.646,0.051-1.428,0-2.159
		c0.002,0.024-0.232-0.086-0.24-0.239c-0.022-0.427,0.05-1.002,0-1.681c-0.135-1.834-0.413-4.688-0.24-7.199
		c0.035-0.5,0.26-0.982,0.24-1.44c-0.025-0.578-0.397-1.071-0.48-1.68c-0.12-0.88,0.068-1.946,0-2.88
		c-0.076-1.062-0.318-2.045-0.48-3.12c-0.045-0.308,0.072-0.658,0-0.96c-0.223-0.947-0.736-3.098-0.479-5.04
		c0.093-0.707,0.242-0.656,0-1.681c-0.358-1.521-0.426-5.123-0.239-7.68c0.153-2.124,0.172-5.773,0.479-8.16
		c0.103-0.795,0.217-1.766,0.479-2.16c0.155-0.231,0.155-0.377,0.24-0.72c0.061-0.245,0.322-0.524,0.48-0.96
		C84.44,18.475,84.599,18.475,84.759,18.475z"/>
	<path d="M247,35.994c0.203-0.043,0.227,0.095,0.236,0.24c0.193,0.045,0.238,0.241,0.479,0.24c0.141,0.348,0.068,0.618,0.238,0.96
		c0.094,0.183,0.438,0.369,0.479,0.479c0.111,0.277-0.086,0.675,0,0.961c0.037,0.121,0.457,0.395,0.479,0.479
		c0.104,0.373,0.128,0.945,0.239,1.44c0.093,0.398,0.154,0.801,0.238,1.199c-0.015-0.065-0.255,0.342-0.238,0.48
		c0.061,0.586,0.973,0.919,0.723,1.92c-0.029,0.117-0.244,0.279-0.24,0.24c-0.025,0.375,0.285,0.438,0.24,0.721
		c-0.068,0.413-0.449,0.909-0.479,1.439c-0.029,0.499,0.232,1.125,0.238,1.68c0.006,0.564-0.252,1.184-0.238,1.68
		c0.021,0.771,0.271,1.449,0.238,2.16c-0.045,0.971-0.39,1.854-0.479,2.881c-0.104,1.213,0.058,2.334,0,3.6
		c-0.065,1.527-0.303,2.954-0.237,4.561c0.063,1.744,0.345,3.488,0.237,5.279c-0.01,0.156,0.103,0.859,0,0.959
		c-0.021,0.021-0.231-0.021-0.237,0c-0.062,0.212,0.086,0.521,0,0.721c-0.046,0.104-0.214-0.005-0.24,0.24
		c-0.021,0.168,0.253,0.57,0.24,0.96c-0.019,0.425-0.203,0.517-0.24,0.96c-0.034,0.396,0.035,0.805,0,1.199
		c-0.062,0.686-0.092,1.141-0.239,2.16c-0.056,0.371-0.188,0.416-0.237,0.721c-0.114,0.707-0.119,1.494-0.239,2.16
		c-0.115,0.637-0.402,1.082-0.479,1.68c-0.199,1.559,0.141,3.289-0.24,4.801c-0.059,0.232-0.399,0.521-0.479,0.959
		c-0.271,1.541,0.241,2.771-0.72,3.844c-0.071,0.699,0.092,1.5,0,2.156c-0.088,0.604-0.469,1.246-0.726,1.924
		c-0.028,0.084,0.064,0.428,0,0.479c-0.02,0.021-0.229-0.021-0.237,0c-0.168,0.646-0.103,1.455-0.238,2.159
		c-0.188,0.939-0.387,1.853-0.721,2.882c-0.024,0.082-0.229,0.004-0.238,0.239c-0.036,0.677,0.062,1.787-0.723,2.158
		c-0.229,0.188,0.301,1.193,0,1.438c-0.021,0.021-0.231-0.021-0.238,0c-0.139,0.521-0.213,1.039-0.479,1.44
		c-0.127,0.188-0.256,0.574-0.479,0.959c-0.091,0.15-0.404,0.344-0.479,0.48c-0.051,0.088,0.072,0.42,0,0.479
		c-0.188,0.152-0.438,0.607-0.721,1.199c-0.049,0.1-0.187,0.021-0.238,0.236c-0.076,0.305-0.068,0.697-0.238,0.961
		c-0.188,0.283-0.846,0.758-1.198,1.199c-0.438,0.543-0.737,0.85-0.961,1.439c-0.448,0.188-0.88,0.396-1.438,0.479
		c-0.032,0.314-0.367,0.5-0.722,0.723c-0.088,0.057-0.418-0.074-0.479,0c-0.161,0.195-0.273,0.695-0.719,0.723
		c-0.438,0.021-1.065,0.58-1.681,0.72c-0.381,0.086-0.813-0.056-1.2,0c-0.712,0.104-1.955,0.502-2.4-0.72
		c-0.771-0.055-1.016,0.424-1.92,0.238c-0.354-0.273-0.864-0.816-1.438-1.199c-0.518-0.285-1.343-0.26-1.684-0.723
		c-0.227-0.299-0.489-0.398-0.721-0.721c-0.062-0.086,0.08-0.416,0-0.479c-0.47-0.388-1.16-0.994-1.681-1.687
		c-0.104-0.136-0.228,0.041-0.239-0.233c-0.018-0.312-0.377-0.302-0.479-0.48c-0.175-0.311-0.056-0.646-0.235-0.961
		c-0.076-0.129-0.229,0.035-0.24-0.238c-0.019-0.316-0.463-0.375-0.479-0.721c-0.02-0.318-0.463-0.375-0.479-0.721
		c-0.021-0.349-0.457-0.521-0.479-0.959c-0.011-0.187-0.468-1.523-0.722-1.92c-0.144-0.23-0.504-0.679-0.719-1.201
		c-0.248-0.604-0.55-1.515-0.961-2.16c-0.188-0.289-0.459-1.576-0.723-2.398c-0.204-0.648-0.586-1.303-0.721-1.92
		c-0.219-0.996-0.062-2.088-0.24-3.121c-0.137-0.807-0.592-1.57-0.721-2.396c-0.186-1.188-0.055-2.354-0.24-3.604
		c-0.123-0.83-0.305-1.521-0.479-2.396c-0.019-0.076,0.057-0.438,0-0.479c-0.279-0.23-0.179-0.488-0.238-0.959
		c-0.092-0.688-0.59-2.119-0.721-3.121c-0.043-0.312,0.038-0.646,0-0.959c-0.104-0.799-0.384-1.482-0.238-2.643
		c0.049-0.408,0.27-0.521,0.238-0.959c-0.041-0.619-0.479-1.266-0.479-1.92c-0.002-0.938,0.286-1.938,0.479-2.881
		c-0.005-0.717-0.625-0.815-0.722-1.439c0.237-1.154-0.051-2.699,0-4.32c0.017-0.517,0.19-1.091,0.235-1.68
		c0.08-1.034,0.156-1.604,0.24-2.4c0.021-0.211-0.065-0.52,0-0.72c0.152-0.452,0.394-0.659,0.719-0.96
		c1.109,0.082,0.921,1.447,1.201,2.4c0.123,0.418,0.554,1.846,0.24,2.88c-0.164,0.542-0.055,0.397,0,1.44
		c0.021,0.394-0.053,0.81,0,1.199c0.082,0.609,0.422,1.291,0.479,1.918c0.12,1.345-0.062,2.75,0,4.08
		c0.069,1.401,0.271,2.912,0.479,4.319c0.1,0.662,0.371,1.252,0.479,1.92c0.104,0.638,0.123,1.279,0.237,1.921
		c0.086,0.476,0.021,0.94,0.24,1.682c0.043,0.146,0.238,0.229,0.24,0.238c0.143,0.668,0.127,1.293,0.238,1.92
		c-0.008-0.041,0.4,0.108,0.24,0.239c-0.332,0.267-0.119,0.57,0,1.439c0,0.008,0.229,0.061,0.237,0.238
		c0.044,0.826-0.022,1.734,0.24,2.643c0.008,0.025,0.197,0.082,0.235,0.24c0.218,0.854,0.438,1.979,0.724,3.117
		c0.054,0.211,0.164,0.41,0.238,0.723c0.062,0.244,0.319,0.521,0.479,0.959c0.214,0.584,0.181,0.996,0.479,1.68
		c0.062,0.146,0.431,0.363,0.479,0.48c0.059,0.133-0.033,0.34,0,0.479c0.059,0.228,0.203,0.144,0.24,0.24
		c0.248,0.646,0.168,1.449,0.479,1.92c0.127,0.188,0.278,0.562,0.479,0.959c0.479,0.543,0.461,1.275,0.722,1.92
		c0.041,0.105,0.229-0.012,0.239,0.24c0.019,0.353,0.688,0.797,0.479,1.68c0.51,0.058,0.459,0.66,0.723,0.961
		c0.246,0.285,0.703,0.441,0.959,0.724c0.502,0.547,0.938,1.138,1.438,1.683c0.547,0.332,1.15,0.192,1.92,0.479
		c0.099,0.035-0.004,0.229,0.24,0.24c0.24,0.014,0.762,0.439,1.201,0.48c0.533,0.049,0.602-0.189,0.959-0.24
		c1.221-0.181,2.389,0.104,2.881-1.201c0.609-0.271,1.17-0.59,1.68-0.959c0.537-0.668,0.566-1.512,0.961-2.16
		c0.104-0.172,0.938-0.459,0.959-0.961c0.021-0.383,0.16-0.416,0.24-0.719c0.185-0.144,0.32-0.32,0.48-0.48
		c0.395-0.396,0.498-1.191,0.959-1.92c0.021-0.031,0.256-0.293,0.24-0.238c0.215-0.701,0.062-1.537,0.479-2.158
		c0.059-0.09,0.156-0.649,0.24-0.723c0.027-0.021,0.225,0.031,0.24,0c0.045-0.088-0.072-0.422,0-0.479
		c0.023-0.021,0.227,0.026,0.238,0c0.041-0.088-0.068-0.424,0-0.479c0.459-0.375,0.225-1.067,0.479-1.92
		c0.107-0.369,0.486-1.576,0.719-2.397c0.184-0.65,0.258-1.545,0.479-2.16c0.032-0.096,0.229,0.006,0.237-0.24
		c0.021-0.346,0.457-0.518,0.48-0.959c0.002-0.062-0.023-0.182,0-0.24c0.178-0.447,0.1-1.682,0.24-2.881
		c0,0.004,0.229-0.068,0.238-0.238c0.021-0.385,0.223-0.412,0.235-0.721c0.031-0.479-0.276-0.676-0.235-0.961
		c0.022-0.186,0.188-0.26,0.235-0.479c0.108-0.5,0.146-1.097,0.24-1.685c0.271-1.586,0.129-2.953,0.961-4.078
		c-0.203-3.073,0.771-6.035,0.479-8.881c-0.052-0.5-0.076-1.156-0.238-1.68c-0.039-0.126-0.453-0.391-0.479-0.48
		c-0.161-0.537,0.072-1.704,0.24-2.398c0.104-0.443,0.188-0.869,0.479-1.2c-0.262-0.886-0.652-1.751-0.723-2.64
		c-0.061-0.777,0.213-1.543,0.24-2.4c0.023-0.846-0.447-2.449,0-3.12c0.318-0.481-0.244-0.967-0.24-1.92
		c0.002-0.501,0.229-0.826,0.24-1.44c-0.002,0.067-0.234-0.119-0.24-0.24c-0.023-0.486,0.502-1.916,0.24-3.119
		c-0.115-0.524-0.104-0.624,0-1.44c0.047-0.394-0.029-0.805,0-1.2c0.02-0.252,0.266-0.505,0.238-0.959
		c0,0.024-0.607-1.139-0.238-1.44c0.025-0.023,0.225,0.03,0.238,0c0.039-0.087-0.068-0.423,0-0.48
		c0.322-0.266,0.255-0.497,0.479-1.2c0.024-0.08,0.229-0.004,0.24-0.24c0.01-0.176,0.198-0.42,0.239-0.719
		c0.086-0.625-0.063-0.983,0.238-1.44c0.07-0.109,0.198-0.177,0.236-0.24C246.5,37.08,246.592,36.399,247,35.994z"/>
	<path d="M71.8,113.995c-0.566,0.166-2.146,0.555-2.641,0c-0.453-0.021-0.676-0.338-1.199-0.48c-0.399-0.104-0.893,0.105-1.2-0.238
		c-0.728,0.072-0.675,0.928-1.44,0.959c-0.301-0.178-0.398,0.229-0.479,0.24c-0.655,0.104-0.353-0.387-0.96,0
		c-0.012,0.008-0.331,0.26-0.24,0.24c-1.081,0.229-2.314,0.109-3.359,0.479c-0.056,0.021-0.062,0.195-0.24,0.24
		c-0.605,0.15-2.09,0.129-2.641,0.48c-0.295,0.188-0.376,0.246-0.96,0.479c-0.399,0.16-0.653,0.113-0.96,0.24
		c-0.076,0.031-0.043,0.188-0.24,0.24c-0.147,0.037-0.336-0.052-0.479,0c-1.036,0.344-2.149,0.521-2.88,1.196
		c-0.896,0.259-0.684-0.598-1.44-0.479c-0.665,0.135-0.774,0.826-1.44,0.961c-0.56,0-1.119,0-1.68,0
		c-0.494,0-0.92,0.525-1.439,0.721c-0.195,0.072-0.82-0.141-0.96,0c-0.46,0.461-1.647,0.572-2.88,0.723
		c-0.604,0.07-1.437,0.353-1.92,0c-0.424,0.217-0.701,0.578-1.2,0.721c-0.734,0.175-0.706-0.414-1.44-0.239
		c-0.929-0.129-0.988,0.61-1.68,0.721c-0.284-0.229-0.651-0.021-1.2,0c-1.099,0.041-2.325-0.051-2.88,0.724
		c-1.223-0.146-2.165-0.148-3.84,0c-0.312,0.024-0.905,0.248-1.2,0.235c-0.463-0.014-0.615-0.379-1.2-0.479
		c0.049,0.009-0.326,0.255-0.48,0.24c-0.199-0.021-0.233-0.254-0.479-0.24c-0.462,0.023-0.776,0.271-1.2,0.24
		c-0.859-0.062-2.001-0.209-2.88-0.479c-0.688-0.213-1.933-0.258-2.399-0.961c-0.955-0.154-0.965,0.637-1.92,0.479
		c-0.869-0.729-2.408-0.793-2.881-1.92c-0.303-0.062-0.662,0.082-0.959,0c-0.371-0.104-0.668-0.477-1.201-0.723
		c-0.094-0.045-0.027-0.188-0.239-0.238c-0.111-0.027-0.392,0.064-0.48,0c-0.079-0.062,0.076-0.418,0-0.48
		c-0.541-0.44-1.415-1.346-2.159-1.92c0.139-0.938-0.447-1.596-0.721-2.397c-0.138-0.403-0.066-0.885-0.24-1.438
		c-0.023-0.078-0.228-0.01-0.24-0.239c-0.01-0.193-0.217-0.396-0.239-0.722c-0.123-1.807,0.778-3.52,1.2-5.278
		c0.168-0.701,0.088-1.5,0.24-1.92c0.032-0.093,0.227,0.004,0.239-0.238c0.001-0.032,0.177-0.606,0.24-0.724
		c0.058-0.1,0.442-0.153,0.479-0.237c0.293-0.646,0.321-1.312,0.721-2.16c0.051-0.104,0.439-0.147,0.479-0.235
		c0.187-0.414,0.232-0.715,0.72-1.201c0.27-0.271,0.52-0.533,0.721-0.723c0.078-0.07,0.414,0.082,0.48,0
		c0.163-0.197,0.051-0.556,0.239-0.72c0.272-0.237,0.754-0.312,0.96-0.479c0.355-0.849,0.946-1.453,1.439-2.16
		c0.773-0.105,1.301-0.459,2.16-0.479c0.181-0.141,0.32-0.315,0.48-0.479c0.3-0.301,0.486-0.602,0.96-0.961
		c0.157-0.118,0.349-0.395,0.479-0.479c0.226-0.145,0.703-0.004,1.201-0.238c0.108-0.053,0.15-0.438,0.239-0.479
		c0.082-0.035,1.3-0.067,1.44-0.237c0.191-0.232,0.211-0.312,0.479-0.48c0.229-0.145,0.708-0.293,1.44-0.479
		c0.773-0.197,1.873,0.016,3.119-0.24c0.461-0.094,0.98-0.285,1.44-0.479c0.308-0.131,0.47-0.084,0.72-0.24
		c0.111-0.066,0.39-0.447,0.48-0.479c0.182-0.064,1.255,0.227,1.439,0c0.186-0.229,0.176-0.357,0.48-0.479
		c0.085-0.035,0.426,0.062,0.48,0c0.238-0.291,0.412-0.125,1.199-0.24c0.354-0.054,0.435-0.228,0.721-0.238
		c0.184-0.012,0.251,0.301,0.48,0.238c0.073-0.021-0.008-0.265,0.239-0.238c0.34,0.029,0.459,0.264,0.72,0.238
		c0.603-0.054,1.344-1.039,2.4-0.238c0.373-0.35,1.12-0.318,1.439-0.723c0.713,0.309,1.444,0.207,2.16,0.239
		c0.178,0.009,0.26,0.3,0.48,0.24c0.056-0.019,0.027-0.228,0.24-0.24c0.797-0.062,1.537-0.141,2.16,0.479
		c0.943-0.225,1.776-0.326,2.879,0c0.418,0.123,0.551,0.279,0.961,0.479c0.291,0.142,0.935,0.062,0.959,0.479
		c1.229-0.439,2.656,0.004,3.601,0.236c0.142,0.037,0.347-0.058,0.479,0c0.143,0.062,0.367,0.438,0.48,0.479
		c0.135,0.058,0.337-0.035,0.48,0c-0.01-0.002,0.703,0.221,0.72,0.239c0.325,0.396,1.092,0.088,1.68,0.479
		c0.232,0.154,0.378,0.154,0.72,0.24c0.25,0.062,0.11,0.178,0.24,0.239c0.396,0.191,0.795,0.302,1.2,0.479
		c0.088,0.039,0.034,0.188,0.24,0.24c0.407,0.103,0.666,0.026,1.2,0.239c0.197,0.078,0.17,0.404,0.479,0.479
		c0.651,0.152,1.041,0.257,1.681,0.724c0.307,0.225,0.525,0.729,0.959,0.721c0.139,0.502,0.596,0.688,0.48,1.439
		c0.538,0.266,1.203,0.396,1.68,0.723c-0.039,0.76,0.639,0.803,0.48,1.682c0.189,0.529,0.839,0.6,1.199,0.959
		c0.242,0.799,0.433,1.646,0.721,2.4c0.68-0.758,0.295-1.928,0.24-3.121c-0.055-1.166,0.061-2.332,0.24-3.359
		c0.064-0.371-0.149-0.92,0.239-0.959c-0.235-0.41-0.075-1.275-0.479-1.682c-0.096-0.098,0.166-1.52,0.24-2.158
		c0.125-1.072,0.123-2.312,0.239-3.842c0.031-0.41,0.232-1.029,0.24-1.439c0.012-0.67-0.438-1.24-0.24-2.16
		c0.04-0.184,0.261-0.248,0.24-0.479c-0.043-0.467-0.407-0.867-0.479-1.439c-0.066-0.521,0.084-1.229,0-1.68
		c-0.129-0.684-0.617-1.441-0.721-2.16c-0.206-1.426,0.151-2.773-0.24-4.08c-0.021-0.07-0.228-0.012-0.24-0.238
		c-0.004-0.092,0.062-0.668,0-0.723c-0.484-0.396-0.248-1.871-0.479-2.64c-0.063-0.209-0.262-0.589-0.479-0.96
		c-0.075-0.131-0.227,0.033-0.24-0.24c0-0.009-0.186-0.642-0.24-0.72c-0.27-0.391-0.613-0.682-0.96-0.961
		c-0.239-0.133-0.104-0.467-0.239-0.719c-0.084-0.158-0.406-0.345-0.48-0.48c-0.148-0.27-0.106-0.479-0.24-0.721
		c-0.07-0.125-0.227,0.033-0.24-0.239c-0.005-0.091-0.527-0.95-0.72-0.96c-0.356-0.02-0.588-0.65-0.96-0.96
		c-0.029-0.691,0.131-1.571-0.24-1.921c-0.623-1.215-2.52-1.159-2.88-2.639c-0.219-0.148-1.04,0.195-1.2,0
		c-0.227-0.277-0.721-0.002-0.96-0.24c-0.02-0.021,0.023-0.233,0-0.24c-0.396-0.112-1.584-0.145-1.92-0.48
		c-0.315-0.314-0.036,0.07-0.96,0c-0.365-0.027-0.431-0.242-0.72-0.24c-1.05,0.013-2.315,0.511-3.36-0.479
		c-0.387,0.333-1.236,0.203-1.439,0.72c-1.448-0.582-3.2,0.434-5.041,0.24c-0.875,0.004-1.077,0.682-1.68,0.96
		c-0.572-0.12-1.141,0.062-1.68,0.24c-0.126,0.041-0.389,0.452-0.48,0.479c-0.285,0.086-0.685-0.111-0.959,0
		c-0.429,0.174-0.756,0.465-1.201,0.721c-0.207,0.119-0.461,0.101-0.719,0.24c-0.137,0.072-0.367,0.431-0.48,0.479
		c-0.198,0.085-0.814-0.146-0.96,0c-0.177,0.177-0.175,0.164-0.479,0.239c-0.242,0.061-1.095,0.506-1.681,0.721
		c-0.14,0.051-0.338,0.148-0.479,0.24c-0.235,0.15-0.377,0.154-0.721,0.24c-0.791,0.197-2.486,0.644-3.359,1.199
		c-0.299,0.19-0.522,0.108-0.961,0.24c-0.231,0.07-0.526,0.509-0.959,0.721c-0.324,0.157-0.262,0.029-0.48,0.24
		c-0.807,0.771-3.383,0.715-3.84,2.159c-0.4,0-0.801,0-1.2,0c-0.291,0.034-0.274,0.624-0.479,0.72c-0.256,0.121-0.715-0.137-0.961,0
		c-0.435,0.244-0.791,0.545-0.959,0.961c-0.418-0.041-0.812-0.151-1.201,0c-0.117,0.045-0.146,0.437-0.239,0.478
		c-0.195,0.094-0.527-0.096-0.72,0c-0.584,0.291-1.012,0.635-1.44,0.961c-0.267,0.253-0.769,0.414-1.2,0.721
		c-0.189,0.133-0.242,0.334-0.48,0.479c-0.18,0.111-0.782,0.938-1.199,0.961c-0.055,0.002-0.194-0.024-0.24,0
		c-0.105,0.06-0.398,0.455-0.48,0.479c-0.219,0.065-0.496-0.053-0.719,0c-0.065-0.506-0.682-0.854-0.721-1.438
		c-0.064-0.978,0.956-1.773,1.92-2.639c0.227-0.202,0.512-0.264,0.721-0.479c0.385-0.399,0.65-0.752,1.199-1.2
		c0.151-0.123,0.348-0.39,0.48-0.479c0.303-0.207,1.027-0.24,1.439-0.48c0.268-0.156,0.28-0.279,0.48-0.479
		c0.408-0.408,1.074-0.574,1.92-0.96c0.115-0.053,0.395-0.454,0.48-0.479c0.201-0.062,0.531,0.093,0.719,0
		c0.27-0.135,0.283-0.328,0.48-0.48c0.217-0.166,0.588-0.387,0.96-0.48c0.441-0.109,0.507-0.176,0.96-0.479
		c0.155-0.104,0.338-0.391,0.48-0.479c0.394-0.246,1.214-0.543,1.439-1.2c1,0.12,1.06-0.702,2.16-0.48
		c0.389,0.007,0.499-0.538,0.721-0.72c0.217-0.178,0.64-0.164,0.72-0.48c0.663,0.113,1.075-0.051,1.68-0.24
		c0.036-0.012,0.076-0.198,0.24-0.239c0.435-0.108,1.194-0.166,1.68-0.479c0.134-0.086-0.037-0.227,0.24-0.24
		c0.346-0.02,0.519-0.457,0.96-0.48c-0.198,0.012,1.168-0.201,1.199-0.24c0.078-0.095,0.419-0.509,0.721-0.72
		c0.678-0.198,0.622,0.338,1.2,0.24c0.438,0.044,0.757-0.697,1.2-0.72c0.594-0.031,0.658-0.387,1.199-0.721
		c0.159-0.098,0.311-0.132,0.48-0.24c0.225-0.143,0.838-0.297,1.68-0.479c1.11-0.241,2.188-0.33,2.881-1.2
		c2.094-0.146,4.099-0.381,5.76-0.96c0.547-0.067,0.902,0.058,0.959,0.479c0.938-0.861,1.857-0.299,3.361-0.239
		c-0.062-0.002,0.106-0.24,0.239-0.24c0.218,0,0.21,0.239,0.24,0.24c0.239,0.009,0.483-0.24,0.479-0.24
		c0.467,0.058,0.768,0.446,1.2,0.479c0.522,0.041,0.62-0.239,0.96-0.239c0.193,0,0.57,0.215,0.96,0.239
		c0.396,0.025,0.808-0.047,1.2,0c0.418,0.052,0.516,0.242,0.96,0.24c1.322-0.004,1.74-0.392,3.12,0.24
		c0.208,0.096,0.16,0.404,0.48,0.48c0.615,0.145,0.943,0.154,1.439,0.72c0.227,0.258,0.559,0.646,0.48,0.96
		c0.451,0.43,0.902,0.857,1.439,1.2c0.16,0.627,0.24,1.149,0.48,1.68c0.058,0.127,0.127,0.571,0.24,0.72
		c0.148,0.199,0.715,0.371,0.959,0.721c0.061,0.086-0.078,0.416,0,0.48c0.03,0.023,0.225-0.033,0.24,0
		c0.172,0.329,0.077,1.023,0.24,1.439c-0.018-0.046,0.221,0.212,0.24,0.24c0.058,0.086,0.156,0.65,0.24,0.72
		c0.217,0.178,0.371,0.433,0.479,0.72c0.032,0.085-0.065,0.428,0,0.48c0.026,0.021,0.228-0.028,0.239,0
		c0.039,0.086-0.067,0.424,0,0.479c0.029,0.023,0.227-0.03,0.24,0c0.043,0.087-0.069,0.423,0,0.479c0.029,0.022,0.226-0.031,0.24,0
		c0.172,0.348,0.324,0.86,0.48,1.2c0.053,0.115,0.453,0.394,0.48,0.479c0.18,0.599,0.205,1.265,0.479,1.92
		c0.153,0.365,0.419,0.663,0.479,0.959c0.221,1.08-0.056,2.229,0.24,3.358c0.094,0.36,0.419,0.81,0.48,1.2
		c0.076,0.482-0.116,1.146,0,1.681c0.147,0.683,0.633,1.274,0.72,1.921c0.133,0.983-0.306,2.782,0,4.079
		c0.046,0.193,0.239,0.238,0.239,0.479c0,0.563-0.26,1.111-0.239,1.682c0.028,0.781,0.171,1.627,0.239,2.396
		c0.228,2.561-0.01,5.697,0,9.121c0.002,0.233,0.207,0.985,0.24,0.959c-0.414,0.332-0.115,1.672-0.24,2.643
		c-0.053,0.414-0.252,0.521-0.239,0.961c0.024,0.891,0.405,1.604,0.479,2.396c0.049,0.521-0.254,0.629-0.24,0.961
		c-0.004-0.099,0.225,0.176,0.24,0.24c0.182,0.723-0.394,1.67-0.72,2.397c-0.046,1.438,0.062,2.967,0,4.315
		c-0.021,0.459-0.21,0.769-0.239,1.199C72.19,111.693,72.551,113.068,71.8,113.995z M66.759,106.314
		c-0.388-0.604-0.457-1.465-0.72-1.681c-0.07-0.059,0.041-0.393,0-0.479c-0.014-0.024-0.213,0.022-0.24,0
		c-0.076-0.062,0.054-0.394,0-0.479c-0.129-0.213-0.59-0.528-0.721-0.721c-0.215-0.311-0.276-0.707-0.479-0.959
		c-0.487-0.609-1.097-0.916-1.44-1.44c-0.209-0.318-0.287-0.599-0.479-0.959c-0.614-0.188-0.979-0.83-1.44-1.199
		c-0.152-0.123,0.008-0.144-0.24-0.239c-0.561-0.226-1.051-0.443-1.199-0.962c-1.174,0.06-1.674-0.562-2.16-1.194
		c-1.688,0.146-1.561-1.025-3.12-0.479c-0.545-0.647-0.927-0.75-1.92-0.479c-0.162-0.722-1.604-0.156-1.68-0.959
		c-0.38,0.071-1.484,0.436-1.681,0.235c-0.258-0.258-0.237-0.146-0.72-0.235c-1.748-0.347-3.817-0.396-4.56-1.201
		c-0.539,0.781-1.446-0.184-1.68-0.24c-0.834-0.207-1.74,0.199-2.4,0.24c-0.305,0.02-0.657,0.033-0.96,0
		c-0.183-0.021-0.218-0.234-0.24-0.24c-0.18-0.035-0.269,0.238-0.239,0.24c-0.787-0.045-1.302-0.146-1.921-0.24
		c-0.565-0.084-0.825,0.424-1.2,0.48c-0.312,0.049-0.646-0.041-0.959,0c-0.338,0.045-0.5,0.194-0.721,0.237
		c-0.625,0.117-1.314,0.104-1.92,0.238c-0.339,0.075-0.402,0.396-0.721,0.479c-0.371,0.1-0.831-0.109-1.199,0
		c-0.075,0.021-0.382,0.42-0.48,0.479c-0.445,0.277-1.33,0.373-1.68,0.48c-0.891,0.271-1.572,0.336-2.4,0
		c-0.66,0.766-1.857,0.352-2.16,0.721c-0.057,0.07-0.393-0.041-0.479,0c-0.03,0.014,0.022,0.211,0,0.24
		c-0.053,0.061-0.396-0.033-0.479,0c-1.271,0.485-2.234,1.078-3.36,1.438c-0.185,0.936-1.151,1.201-1.681,1.439
		c-0.176,0.08-0.172,0.465-0.479,0.479c-0.272,0.017-0.116,0.101-0.239,0.237c-0.289,0.332-0.347,0.699-0.721,0.722
		c-0.533,0.026-0.669,0.688-0.96,0.961c-0.417,0.388-1.067,0.729-1.44,1.197c-0.145,0.188-0.125,0.553-0.24,0.723
		c-0.055,0.082-0.396,0.175-0.479,0.238c-0.075,0.062,0.056,0.396,0,0.479c-0.089,0.146-0.384,0.314-0.479,0.479
		c-0.178,0.303-0.041,0.698-0.48,0.723c0.076,2.074-0.924,3.076-0.96,5.039c0.026,0.453,0.793,0.166,0.72,0.724
		c0.094,0.867,0.656,1.016,0.961,1.438c0.347,0.482,0.56,1.037,0.959,1.439c0.4,0,0.801,0,1.201,0
		c0.213,0.555,0.928,0.68,1.439,0.961c0.113,0.062,0.035,0.158,0.24,0.24c0.498,0.196,1.146,0.192,1.199,0.719
		c0.758,0.117,0.848-0.434,1.68-0.24c0.414,0.709,1.896,0.348,2.4,0.961c0.204-0.354,0.604-0.516,1.2-0.479
		c0.724,0.639,1.306,0.328,2.399,0.235c0.785,0.854,1.729,0.322,2.881,0.238c0.714-0.052,1.447,0.073,2.16,0
		c1.283-0.132,2.576-0.396,3.359-0.72c0.565-0.006,0.707,0.412,1.44,0.238c0.851,0.131,0.59-0.854,1.44-0.723
		c1.408,0.209,2.156-0.24,2.879-0.721c0.582,0.459,1.166-0.262,1.92,0.24c0.834-0.688,1.994-1.047,3.601-0.959
		c0.052-0.23,0.204-0.23,0.479-0.24c0.254-0.014,0.137-0.197,0.24-0.24c0.93-0.381,1.848-0.094,2.881-0.238
		c0.213-0.029,0.65-0.416,0.959-0.479c0.851-0.174,1.17,0.09,1.44-0.24c0.017-0.021,0.729-0.242,0.72-0.238
		c0.148-0.037,0.334,0.049,0.48,0c0.945-0.299,1.689-0.67,2.88-0.479c0.083-0.465,0.621-0.277,0.96-0.479
		c0.1-0.062,0.137-0.401,0.24-0.479c0.146-0.107,0.596-0.187,0.72-0.238c0.166-0.074,0.537,0.01,0.72,0
		c0.254-0.016,0.135-0.195,0.24-0.24c0.319-0.133,0.7-0.414,0.96-0.479c1.353-0.342,3.015-0.146,4.32-0.479
		c0.663-0.17,1.073-0.592,1.68-0.721c0.875,0.071,1.562-0.037,2.16-0.24C66.675,107.088,67.019,106.721,66.759,106.314z"/>
	<path d="M194.92,72.715c0.232,0.324,0.639,0.479,0.959,0.72c0.244,0.315,0.234,0.886,0.479,1.2c0.646,0.314,1.277,0.645,1.92,0.959
		c-0.047,0.811,0.802,0.908,1.201,1.441c0.291,0.383,0.438,1.02,0.724,1.438c0.269,0.398,0.7,0.598,0.959,0.959
		c0.562,0.805,0.819,1.863,1.682,2.4c0.298,1.062,0.554,2.168,1.438,2.641c0.17,1.191,0.777,1.941,1.439,2.643
		c-0.111,0.562,0.115,1.1,0.24,1.682c0.188,0.884,0.508,1.814,0.719,2.879c0.158,0.793,0.334,1.519,0.24,2.644
		c-0.027,0.337,0.077,0.685-0.24,0.724c0.328,0.922,1.117,1.772,0.723,3.356c-0.137,0.537-0.106,0.127,0,0.959
		c0.039,0.302,0.019,0.656,0,0.961c-0.021,0.459-0.231,0.974-0.238,1.438c-0.008,0.424,0.218,0.746,0.238,1.201
		c0.021,0.41-0.205,0.522-0.238,0.959c-0.004,0.021,0.32,0.262,0.238,0.479c-0.035,0.093-0.213,0.009-0.238,0.237
		c-0.178,1.509-0.256,3.464-0.723,5.041c-0.24,0.814-0.152,2.294-0.479,3.359c-0.012,0.029-0.198,0.076-0.239,0.236
		c-0.111,0.455,0.012,0.617-0.238,1.199c-0.062,0.154-0.42,0.355-0.479,0.48c-0.144,0.293-0.099,0.471-0.239,0.721
		c-0.248,0.432-1.05,0.949-0.959,1.92c-0.427,0.215-0.701,0.578-1.201,0.721c-0.117,0.441-0.183,0.977-0.479,1.439
		c-0.177,0.271-0.271,0.5-0.479,0.719c-0.088,0.094-0.469,0.453-0.479,0.961c-1.553,0.529-2.557,1.605-3.602,2.643
		c-0.564-0.008-0.707,0.412-1.438,0.238c-0.662,0.537-1.599,0.807-2.16,1.439c-1.215-0.174-1.815,0.264-2.399,0.719
		c-0.562,0-1.121,0-1.68,0c-0.893,0.15-1.406,0.676-2.16,0.961c-1.147,0.053-2.037-0.33-3.36,0c-0.3,0.074-0.688,0.779-1.681,0.48
		c-0.082-0.025-0.312-0.244-0.24-0.24c-0.42-0.016-0.521,0.322-0.959,0.24c-0.631-0.121-0.961-0.25-1.438-0.724
		c-0.756-0.112-0.545,0.733-1.439,0.479c-0.77-0.672-1.617-1.265-2.396-1.92c-0.73-0.271-1.535-0.207-2.16-0.479
		c-0.162-0.067-0.246-0.373-0.479-0.479c-0.217-0.103-0.479,0.059-0.479-0.24c-0.641-0.082-0.812-0.629-0.962-1.199
		c-1.336,0.139-1.563-0.836-2.159-1.438c-0.423-0.142-1.41,0.289-1.438-0.24c-0.877-0.062-1.157-0.984-1.681-1.439
		c-0.52-0.451-1.176-0.729-1.681-1.197c-0.444-0.678-0.442-1.801-1.44-1.92c-0.104-0.467-0.258-0.887-0.479-1.439
		c-0.062-0.161-0.013-0.26-0.24-0.239c-1.228-1.172-1.463-3.336-2.639-4.562c0.044-1.172-0.404-2.237-0.723-3.358
		c-0.021-0.08,0.062-0.433,0-0.479c-0.709-0.58-0.729-4.848-0.479-6.723c0.021-0.15-0.037-0.33,0-0.48
		c0.049-0.192,0.46-0.557,0.479-0.959c0.008-0.141-0.204-0.453-0.238-0.725c-0.137-1.021-0.006-2.811,0.238-3.84
		c0.105-0.438,0.147-0.854,0.24-1.197c0.018-0.062,0.229-0.021,0.24-0.238c0.006-0.092-0.062-0.67,0-0.725
		c0.66-0.537,0.399-2.604,0.721-3.84c0.015-0.059,0.229-0.021,0.24-0.236c0.027-0.559,0.068-1.262,0.239-1.924
		c0.015-0.059,0.229-0.021,0.238-0.236c0.028-0.524,0.018-1.272,0.239-1.92c0.03-0.09,0.229,0.002,0.24-0.24
		c0.004-0.061-0.021-0.182,0-0.239c0.121-0.302,0.354-0.401,0.479-0.72c0.032-0.086-0.063-0.428,0-0.479
		c0.024-0.021,0.229,0.025,0.239,0c0.131-0.318,0.056-0.664,0.24-0.961c0.06-0.094,0.441-0.156,0.479-0.236
		c0.146-0.313,0.146-0.594,0.479-0.961c0.504-0.561,1.006-0.838,1.438-1.684c0.157-0.311,0.618-0.896,0.726-1.438
		c0.752-0.308,1.321-0.931,1.92-1.44c0.6-0.521,1.266-0.979,1.68-1.681c0.563,0.006,0.707-0.414,1.438-0.24
		c0.425-0.217,0.74-0.536,0.961-0.959c0.156-0.229,0.972,0.039,1.195-0.24c0.021-0.023-0.024-0.229,0-0.238
		c0.089-0.037,0.428,0.066,0.479,0c0.021-0.025-0.031-0.228,0-0.238c0.086-0.041,0.422,0.07,0.479,0
		c0.229-0.279,0.354-0.066,0.724-0.239c0.104-0.052,0.146-0.438,0.237-0.479c0.354-0.16,0.845-0.104,1.197-0.238
		c0.354-0.137,0.77-0.321,1.2-0.479c0.084-0.029,0.429,0.062,0.48,0c0.02-0.027-0.031-0.227,0-0.238
		c0.086-0.043,0.422,0.067,0.479,0c0.281-0.346,0.5-0.041,1.439-0.24c0.041-0.01,0.035-0.229,0.238-0.239
		c0.391-0.021,0.404-0.202,0.723-0.24c1.09-0.134,2.256,0.099,3.6,0c0.716,0.004,0.816,0.625,1.439,0.722
		c1.137-0.099,1.65,0.43,2.881,0.239c0.01,0.628,0.844,0.312,1.199,0.72c0.115,0.135,0.186,0.289,0.238,0.479
		c1.104,0.176,2.084,0.479,2.398,1.438C193.76,73.316,193.818,72.493,194.92,72.715z M189.639,74.635
		c-0.385-0.075-0.811,0.05-1.199,0c-0.241-0.031-0.276-0.195-0.479-0.24c-1.236-0.27-2.334,0.377-2.643,0
		c-0.125-0.148-0.99,0.062-1.197,0c-0.436-0.125-0.492-0.643-0.961-0.479c-0.389,0.744-2.479,0.638-2.883,0
		c-0.238,0.51-0.707,0.692-1.197,0.719c-0.271,0.016-0.115,0.176-0.24,0.24c-0.871,0.461-1.57,0.582-2.639,0.721
		c-0.232,0.193-0.711,0.707-0.963,0.721c-0.371,0.021-0.715,0.365-0.961,0.479c-0.131,0.062-0.365,0.234-0.479,0.24
		c-0.265,0.014-0.123,0.184-0.239,0.24c-0.647,0.311-0.877-0.07-1.199,0.236c-0.219,0.209-0.15,0.082-0.479,0.24
		c-0.127,0.062-0.334,0.401-0.479,0.479c-0.318,0.164-0.678,0.041-0.961,0.238c-0.197,0.145-0.433,0.457-0.721,0.721
		c-0.604,0.555-0.992,0.99-1.439,1.439c-0.465,0.467-0.564,0.861-0.721,1.201c-0.033,0.076-0.422,0.147-0.479,0.239
		c-0.073,0.104,0.056,0.354,0,0.479c-0.036,0.078-0.422,0.148-0.479,0.24c-0.268,0.412-0.229,1.33-0.961,1.438
		c0.174,0.387-0.144,0.811-0.238,1.199c-0.104,0.418-0.133,1.061-0.235,1.441c-0.011,0.02-0.224-0.021-0.24,0
		c-0.021,0.014-0.247,0.979-0.239,0.959c-0.188,0.618-0.285,1.276-0.479,1.438c-0.019,0.016-0.25,0.99-0.239,0.959
		c-0.438,1.535-0.242,2.945-0.479,4.562c-0.102,0.67-0.404,1.256-0.479,1.92c-0.071,0.641,0.089,1.396,0,2.16
		c-0.188,1.604-0.546,4.387-0.239,6c0.114,0.604,0.554,1,0.72,1.68c0,0.562,0,1.121,0,1.68c0.694,0.906,1.604,1.6,1.685,3.121
		c0.428,0.279,0.702,0.512,0.959,0.723c0.08,0.062-0.062,0.395,0,0.479c0.108,0.152,0.354,0.32,0.479,0.479
		c0.188,0.242,0.296,0.479,0.479,0.724c0.636,0.807,1.691,1.473,1.921,2.639c1,0.121,1.396,0.842,2.396,0.961
		c0.217,0.426,0.579,0.701,0.725,1.199c1.625,0.135,2.334,1.188,3.117,2.16c1.017-0.234,1.812,0.342,2.158,0.479
		c0.498,0.196,1.146,0.194,1.198,0.724c0.957-0.131,0.726-0.131,1.683,0c0.373,0.348,1.119,0.317,1.438,0.721
		c0.931,0.129,0.988-0.611,1.681-0.721c0.034,0.438,0.812,0.145,0.959,0.479c0.354-0.459,0.896-0.346,1.44-0.479
		c1.154-0.285,2.246-0.646,3.601-0.48c0.545-0.213,0.745-0.695,0.959-0.959c0.188-0.229,1.229-0.096,1.44-0.24
		c0.42-0.277,0.195-0.668,0.719-0.721c1.75-0.488,3.602-0.883,4.562-2.16c0.219-0.42,0.445-0.834,1.199-0.719
		c0.129-0.465,0.426-1.062,0.721-1.439c0.332-0.424,0.604-0.807,1.201-0.961c0.104-0.502,0.451-1.012,0.719-1.438
		c0.248-0.396,0.512-0.984,0.961-1.201c-0.113-1.025,0.447-2.027,0.719-3.119c0.129-0.516,0.105-1.09,0.24-1.68
		c0.105-0.445,0.426-0.938,0.48-1.439c0.176-1.617,0-3.625,0-5.521c0-1.897,0.17-3.92,0-5.52c-0.037-0.359-0.404-0.754-0.48-1.197
		c-0.152-0.918,0.08-1.422-0.24-1.686c-0.062-0.053,0.033-0.395,0-0.479c-0.162-0.437-0.418-0.72-0.479-0.961
		c-0.158-0.64,0.119-0.947-0.24-1.199c-0.188-0.529-1.127-0.312-1.199-0.959c-0.271-0.527-0.619-0.979-0.479-1.92
		c-0.875-0.002-1.057-0.9-1.441-1.441c-0.18-0.252-0.246-0.289-0.479-0.479c-0.078-0.064,0.062-0.396,0-0.48
		c-0.176-0.244-0.555-0.488-0.721-0.719c-0.371-0.514-0.783-1.166-1.199-1.683c-0.424-0.522-1.291-0.813-1.199-1.684
		c-0.559,0.077-0.922-0.037-1.199-0.238c0.064-0.862-0.949-0.647-0.961-1.438c-0.168-0.635-1.092-0.51-1.199-1.199
		c-0.274-0.28-0.271-0.85-0.24-1.438C190.869,75.275,190.295,74.763,189.639,74.635z"/>
</g>
<path d="M56.5,115.5"/>
</svg>
