<?xml version="1.0" encoding="utf-8"?>
<!-- Generator: Adobe Illustrator 14.0.0, SVG Export Plug-In . SVG Version: 6.00 Build 43363)  -->
<!DOCTYPE svg PUBLIC "-//W3C//DTD SVG 1.1//EN" "http://www.w3.org/Graphics/SVG/1.1/DTD/svg11.dtd">
<svg version="1.1" id="Layer_1" xmlns="http://www.w3.org/2000/svg" xmlns:xlink="http://www.w3.org/1999/xlink" x="0px" y="0px"
	 width="344.396px" height="125.761px" viewBox="228.879 238.281 344.396 125.761"
	 enable-background="new 228.879 238.281 344.396 125.761" xml:space="preserve">
<g>
	<path d="M394.96,289.641c0.493,0.152,0.974-0.117,1.44-0.24c0.476-0.127,0.8-0.164,1.199-0.24c0.873-0.167,1.614-0.334,2.4-0.48
		c0.79-0.146,1.604-0.371,2.4-0.479c-0.082,0.011,0.128,0.379,0.237,0.239c0.281-0.352,0.847-0.832,1.683-0.239
		c0.765-0.657,1.504-0.47,2.88-0.72c0.229-0.043,0.364-0.225,0.72-0.24c0.525-0.023,0.729,0.184,1.2,0.24
		c0.181,0.021,0.247-0.254,0.479-0.24c-0.028-0.002,0.094,0.232,0.24,0.24c0.711,0.037,1.499-0.301,2.4-0.48
		c0.076-0.016,0.436,0.055,0.479,0c0.132-0.16,0.371-0.316,0.723-0.24c0.514,0.112,0.47,0.133,1.438,0
		c0.008-0.001,0.062-0.23,0.24-0.24c1.194-0.062,2.384-0.166,4.08-0.239c0.386-0.017,0.819,0.069,1.2,0
		c0.186-0.034,0.804-0.541,1.438-0.24c0.056,0.026,0.216,0.476,0.24,0.479c0.402,0.068,0.812-0.262,1.2-0.239
		c0.315,0.018,0.804,0.25,1.198,0.239c0.538-0.013,0.906-0.51,1.439,0c0.293,0.28,0.925-0.035,1.2,0.24
		c0.022,0.024-0.029,0.229,0,0.24c0.486,0.197,1.326,0.021,1.438,0.721c-0.076,0.913-1.055,0.977-1.68,1.199
		c-0.733,0.262-1.614,0.357-2.399,0.48c-0.072,0.012-0.438-0.051-0.479,0c-0.014,0.017,0.016,0.238,0,0.24
		c-0.313,0.049-0.412-0.246-0.48-0.24c-0.188,0.013-1.541,0.07-1.68,0.24c-0.351,0.428-0.261-0.285-1.2,0
		c-1.805,0.545-5.011,0.575-7.438,0.959c0.045-0.006-0.111,0.401-0.24,0.24c-0.482-0.604-1.266,0.143-2.16,0.24
		c-0.508,0.057-0.998-0.044-1.438,0c-0.473,0.046-0.652,0.227-0.96,0.24c-0.188,0.008-0.245-0.24-0.48-0.24
		c-0.177,0-1.016,0.559-1.438,0c-0.641-0.207-0.43,0.452-0.963,0.48c0.198-0.011-1.168,0.201-1.197,0.239
		c-0.423,0.517-2.359,0.054-3.36,0.72c-0.462,0.309-0.788-0.012-1.68,0.24c-0.081,0.023-0.434-0.059-0.48,0
		c-0.366,0.448-1.023-0.201-1.92,0c-0.571,0.129-0.93,1.164-1.68,0.721c0.444,0.41-0.571,2.652,0,3.119
		c0.418,0.342,0.265,1.172,0.479,2.16c0.043,0.202,0.211,0.237,0.24,0.48c0.102,0.874-0.062,1.746,0,2.64
		c0.112,1.628,0.629,3.087,0.48,5.28c-0.047,0.677-0.258,1.24-0.24,1.92c0.025,0.99,0.376,1.923,0.479,2.88
		c0.088,0.807-0.223,1.695,0,2.64c0.049,0.201,0.22,0.236,0.24,0.48c0.054,0.603-0.062,1.111,0,1.68
		c0.092,0.815,0.585,2.612,0.24,4.08c-0.046,0.195-0.239,0.238-0.24,0.48c-0.001,0.182,0.299,0.255,0.24,0.479
		c-0.021,0.074-0.278-0.01-0.24,0.24c-0.006-0.044,0.214,0.137,0.24,0.24c0.162,0.646-0.109,2.33,0,3.357
		c0.022,0.229,0.226,0.171,0.24,0.24c0.05,0.25-0.241,0.194-0.24,0.24c0.004,0.209,0.264,0.371,0.24,0.72
		c0.006-0.085-0.223,0.166-0.24,0.24c-0.082,0.328,0.125,1.354,0.24,1.92c0.007,0.037,0.229,0.039,0.238,0.24
		c0.071,1.345,0.179,3.517,0.48,4.8c0.195,0.827-0.088,2.204,0.24,3.6c0.112,0.483,0.396,1.494-0.24,2.16
		c0.273,0.824,1.155,2.171,0.72,3.603c-0.037,0.123-0.455,0.394-0.479,0.479c-0.062,0.215-0.296,0.372-0.24,0.72
		c0.012,0.074,0.338,0.23,0.24,0.48c-0.202,0.515-0.178,1.125-0.48,1.438c-0.113,0.118-0.58,0.17-0.72,0.24
		c-0.43,0.222-1.334,0.337-1.92-0.24c-0.245-0.238-0.635-1.096-0.721-1.438c-0.133-0.535-0.607-1.549-0.72-2.16
		c-0.116-0.641,0.066-1.393,0-2.16c-0.114-1.324-0.646-2.153-0.479-3.84c0.02-0.193-0.075-0.543,0-0.72
		c0.044-0.104,0.275,0.027,0.24-0.24c-0.112-0.882-0.811-1.703-0.959-2.64c-0.151-0.953,0.058-2.174,0-3.36
		c-0.07-1.429-0.492-2.976-0.48-4.32c0.007-0.808,0.254-1.591,0.24-2.397c-0.021-1.217-0.453-2.52-0.48-3.84
		c-0.008-0.389-0.047-0.817,0-1.2c0.051-0.408,0.27-0.526,0.24-0.96c-0.033-0.473-0.414-1.014-0.48-1.44
		c-0.084-0.547,0.063-1.146,0-1.68c-0.004-0.036-0.285-0.014-0.24-0.24c0.013-0.058,0.281,0.001,0.24-0.24
		c-0.004-0.021-0.229-0.051-0.24-0.237c-0.039-0.763,0.016-2.455,0-3.603c0,0.001-0.279-0.04-0.239-0.239
		c0.003-0.018,0.217-0.067,0.239-0.238c0.072-0.545-0.072-1.538,0-2.4c0.058-0.662,0.434-1.148,0.24-1.92
		c-0.053-0.212-0.162-0.411-0.24-0.72c-0.045-0.187-0.422-1.207-0.479-1.681c-0.17-1.408,0.095-3,0-4.32
		c-0.093-1.297-0.459-2.305-0.479-3.36c-1.035,0.086-2.051,0.188-2.641,0.72c-0.63-0.369-1.16,0.438-1.68,0.24
		c-0.09-0.033,0.021-0.292-0.24-0.24c-0.035,0.008-0.04,0.229-0.24,0.24c-0.063,0.003-0.181-0.023-0.24,0
		c-0.334,0.135-0.756,0.434-1.199,0.48c-0.557,0.06-1.204-0.26-1.92-0.24c-0.604,0.016-1.194,0.302-1.68,0.24
		c-0.539-0.069-0.896-0.262-1.44-0.48c-0.161-0.064-0.261-0.01-0.24-0.24c-0.38-0.02-0.915,0.115-0.96-0.24
		c-0.261-0.059-0.163-0.477-0.48-0.479c0.027-0.63,0.301-0.769,0.48-0.96c0.055-0.057,0.186-0.454,0.24-0.48
		c0.193-0.09,0.514,0.063,0.72,0c0.165-0.051,0.915-0.246,1.2-0.239c0.418,0.01,0.521,0.303,0.96,0.239
		c0.469-0.066,0.926-0.34,1.44-0.479c0.791-0.214,1.338-0.035,2.16-0.239c0.432-0.109,1.562-1.191,2.399-0.48
		c0.843,0.043,0.789-0.811,1.44-0.96c0.903,0.185,1.146-0.292,1.92-0.24c-0.104-2.054,0.188-4.707-0.48-6.479
		c-0.032-0.086,0.064-0.428,0-0.48c-0.402-0.33,0.146-1.123-0.24-1.439c-0.018-0.016-0.406-0.346-0.24-0.48
		c0.314-0.258-0.051-0.104,0-0.48c0.002-0.006,0.231-0.062,0.24-0.24c0.049-0.944-0.156-2.201-0.24-3.6
		c-0.033-0.562,0.059-1.171,0-1.68c-0.076-0.684-0.375-1.284-0.239-2.4c0.051-0.419,0.235-0.514,0.239-0.96
		c0.006-0.521-0.207-0.983-0.239-1.92c-0.013-0.388-0.039-0.813,0-1.2c0.019-0.193,0.269-0.24,0.239-0.479
		c-0.016-0.132-0.235-0.296-0.239-0.24c0.058-0.903,0.507-1.746,0.239-2.88c-0.047-0.2-0.223-0.236-0.239-0.48
		c-0.027-0.391,0.259-0.414,0.239-0.72c-0.013-0.198-0.232-0.235-0.239-0.479c-0.021-0.744-0.138-1.537,0-2.4
		c-0.007,0.045,0.401-0.111,0.239-0.24c-0.465-0.371-0.065-1.898,0-2.88c0.021-0.302-0.068-0.666,0-0.96
		c0.127-0.536,0.145-0.297,0-0.96c-0.145-0.666,0.178-1.63,0.24-2.399c0.201-2.461,0.143-5.148,0-7.44
		c-0.105-1.716-0.168-3.562,0.24-5.521c-0.003,0.016,0.209-0.115,0.24-0.24c0.074-0.301-0.075-0.658,0-0.959
		c0.07-0.28,0.406-1.062,0.72-1.681c0.354-0.125,0.604-0.354,0.96-0.479c0.194,0.046,0.239,0.24,0.48,0.24
		c-0.187,0.416,0.176,0.58,0.24,0.72c0.039,0.087-0.07,0.423,0,0.479c0.428,0.35-0.033,1.918,0.239,2.881
		c0.022,0.08-0.06,0.432,0,0.479c0.522,0.427,0.354,1.492,0.479,2.64c0.072,0.653,0.435,1.334,0.24,2.4
		c-0.041,0.232-0.232,0.359-0.24,0.72c-0.006,0.39,0.188,0.718,0.24,1.2c0.043,0.396-0.035,0.805,0,1.2
		c0.133,1.495-0.033,3.122,0.24,5.04c0.012,0.072-0.05,0.439,0,0.48c0.219,0.178,0.049,0.254,0,0.719
		c-0.062,0.595-0.23,1.137-0.24,1.92c-0.01,0.885,0.647,2.496,0.24,3.841c-0.117,0.39-0.205,0.233,0,0.96
		c0.023,0.081-0.059,0.432,0,0.48c0.281,0.229,0.752,1.553,0.48,2.64c-0.025,0.101-0.241,0.303-0.24,0.239
		c-0.012,0.606,0.286,1.16,0.24,1.681c-0.045,0.517-0.146,0.599-0.24,0.96c-0.125,0.472,0.025,0.454-0.24,0.72
		c0.065-0.065,0.131,1.897,0.24,2.399c0.042,0.197,0.24,0.238,0.24,0.48c-0.002,0.553-0.268,1.129-0.24,1.68
		c0.029,0.605,0.163,1.322,0.24,1.92c0.173,1.348,0.093,3.347,0.24,5.281C394.633,284.7,395.404,287.15,394.96,289.641z"/>
	<path d="M532.96,291.08c-0.318-1.498-0.892-2.95-0.96-4.561c-0.036-0.851,0.227-1.795,0.24-2.64c0.012-0.723-0.189-1.433-0.24-2.16
		c-0.085-1.204,0.055-2.585,0-3.84c-0.023-0.532-0.197-1.147-0.24-1.68c-0.104-1.308,0.057-2.236-0.24-3.601
		c-0.097-0.451-0.413-0.801-0.479-1.199c-0.07-0.436,0.056-0.936,0-1.44c-0.084-0.769-0.379-1.263-0.24-2.399
		c0.087-0.707,0.271-1.006,0-1.92c-0.222-0.752-0.065-2.236,0-3.841c-0.001,0.024,0.24-0.077,0.24-0.239
		c0-0.262-0.407-0.91-0.24-1.681c0.043-0.196,0.237-0.237,0.24-0.479c0.009-0.767-0.224-1.479-0.24-2.16
		c-0.011-0.432,0.251-0.506,0.24-0.961c-0.006-0.24-0.282-0.51-0.24-0.959c0.031-0.33,0.14-0.934,0.24-1.44
		c0.008-0.037,0.229-0.039,0.24-0.239c0.038-0.738,0.034-1.326,0.237-2.16c0.016-0.056,0.229-0.025,0.24-0.24
		c0.018-0.285-0.083-0.689,0-0.961c0.023-0.075,0.229-0.008,0.24-0.239c0.055-1.042,0.947-2.95,2.64-2.64
		c-0.012,0.424,0.018,0.996,0,1.439c-0.007,0.199-0.254,0.234-0.237,0.48c-0.002-0.03,0.229,0.091,0.237,0.24
		c0.005,0.08,0.056,0.676,0,0.719c-0.017,0.015-0.235-0.014-0.237,0c-0.058,0.353,0.232,0.363,0.237,0.48
		c0.043,1.025-0.195,2.35,0,3.6c-0.007-0.045,0.401,0.111,0.24,0.24c-0.596,0.478,0.015,1.723,0,2.641
		c-0.011,0.668-0.306,1.468-0.24,2.16c0.089,0.934,0.636,1.711,0.723,2.64c0.084,0.903,0.04,1.705-0.24,2.64
		c-0.062,0.86,0.721,0.879,0.72,1.68c-0.014,1.315-0.051,2.233,0.24,3.36c0.016,0.06,0.229,0.022,0.24,0.24
		c0.011,0.213-0.062,0.517,0,0.72c0.095,0.327,0.355,0.6,0.479,0.961c0.071,0.209-0.087,0.516,0,0.719
		c0.045,0.105,0.214-0.006,0.24,0.24c0.077,0.728-0.268,1.678-0.24,2.4c0.023,0.619,0.397,1.32,0.48,1.92
		c0.105,0.783-0.054,1.529,0,2.4c0.104,1.764,0.629,3.182,0.479,5.279c-0.016,0.228,0.049,0.498,0,0.721
		c-0.041,0.188-0.254,0.244-0.24,0.479c0.036,0.584,0.364,1.328,0.48,1.92c0.142,0.722,0.285,1.228,0.24,1.921
		c2.104,0.264,3.281-0.396,4.56-0.961c0.68-0.25,1-0.25,1.682,0c0.489-0.229,0.948-0.49,1.438-0.72c0.8,0,1.6,0,2.4,0
		c0.735-0.062,1.078-0.521,1.68-0.72c1.41,0.41,2.947-0.854,4.561-0.24c0.915,0.036,1.155-0.604,1.921-0.721
		c0.393,0.102,0.558,0.121,0.961,0.24c0.651,0.193,0.638,0.228,1.438,0c0.081-0.022,0.432,0.06,0.48,0
		c0.254-0.31,0.487-0.115,0.96-0.24c0.061-0.016,0.021-0.228,0.238-0.239c0.494-0.026,1.545-0.194,2.159,0.479
		c0.539-0.42,1.807-0.114,2.4-0.479c0.844-0.167,0.7,0.438,1.438,0.479c0.274,0.017,0.693,0.066,0.959,0
		c0.117-0.028,0.279-0.242,0.24-0.239c0.675-0.048,0.38,0.387,0.96,0c0.368-0.245,1.243-0.343,2.16-0.24
		c0.08,0.009,0.22,0.306,0.479,0.24c0.057-0.015,0.369-0.216,0.238-0.24c0.721,0.13,1.085,0.455,1.683,0.72
		c-0.166,1.094-0.946,1.284-1.683,1.68c-0.105,0.059-0.396,0.457-0.479,0.48c-0.505,0.152-1.255-0.01-1.92,0.24
		c-0.285,0.107-0.442,0.33-0.722,0.48c-0.52,0.279-1.474,0.324-1.92,0.959c-0.496,0.074-1.004,0.121-1.438,0.24
		c-0.733,0.2-1.069,0.48-1.92,0.721c-0.081,0.022-0.434-0.06-0.48,0c-0.019,0.022,0.024,0.23,0,0.239
		c-0.405,0.144-0.971,0.083-1.199,0.48c-1.132-0.126-1.506-0.228-2.159,0.479c-0.733,0.174-0.705-0.414-1.439-0.24
		c-0.801,0-0.818,0.781-1.68,0.721c-0.295,0.324-0.6-0.034-0.96,0c-0.503,0.046-1.119,0.268-1.683,0.48
		c-0.084,0.031-0.427-0.065-0.479,0c-0.18,0.217-0.436,0.371-0.721,0.479c-0.085,0.032-0.429-0.065-0.479,0
		c-0.019,0.021,0.021,0.233,0,0.239c-0.479,0.142-1.062,0.095-1.68,0.24c-0.314,0.074-0.57,0.084-1.2,0.24
		c-0.255,0.064-0.45,0.32-1.2,0.24c-0.229-0.023-0.17-0.227-0.24-0.24c-0.032-0.007-1.129,0.398-1.68,0.48
		c-0.467,0.068-1.006,0.17-1.438,0.24c-0.5,0.08-0.732,0.25-1.199,0c-0.373,0.346-1.12,0.319-1.44,0.719
		c-0.815-0.416-1.407,0.186-2.64,0c-0.143,0.275-0.46,0.955-0.24,1.681c0.026,0.088,0.243,0.306,0.24,0.24
		c0.037,0.722-0.104,1.671,0,2.399c0.09,0.644,0.411,1.274,0.479,1.92c0.1,0.916-0.186,1.828,0,2.881
		c0.041,0.231,0.242,0.357,0.24,0.721c-0.003,0.504-0.271,1.106-0.24,1.68c0.032,0.574,0.166,1.282,0.24,1.92
		c0.047,0.403,0.281,0.199,0,0.48c-0.037,0.036,0.265,0.354,0.24,0.479c-0.013,0.061-0.277,0.001-0.24,0.24
		c0.029,0.188,0.191,0.258,0.24,0.48c0.05,0.229-0.052,0.488,0,0.72c0.01,0.044,0.229,0.033,0.239,0.24
		c0.041,0.777,0.394,1.699,0.479,2.64c0.138,1.478-0.113,3.067,0,4.56c0.066,0.881,0.396,1.741,0.479,2.643
		c0.141,1.521,0.073,4.021-0.239,5.279c-0.16,0.64,0.254,1.731,0.479,2.641c0.017,0.056,0.229,0.022,0.24,0.24
		c0.052,0.971,0.346,1.936,0.479,3.118c0.023,0.221-0.062,0.512,0,0.722c0.128,0.423,0.116,1.81,0.238,2.88
		c0.104,0.883,0.438,1.737,0.48,2.64c0.031,0.704-0.229,1.483-0.24,2.16c-0.018,1.144,0.396,2.338,0.479,3.602
		c0.141,2.045-0.092,4.18,0.238,6c0.065,0.358,0.104,0.795,0.24,1.198c0.108,0.322,0.422,0.615,0.479,0.96
		c0.105,0.632-0.062,1.439,0,2.16c0.021,0.231,0.21,0.541,0.239,0.96c0.074,1.041-0.09,2.076-0.479,3.12
		c-0.467,0.462,0.252,0.966,0.239,1.68c-0.423,0.221-0.438,0.844-0.722,1.2c-0.104,0.457-0.517,0.604-0.479,1.2
		c-0.308-0.039-0.521-0.087-0.721-0.24c-0.271-0.208-0.35-0.432-0.479-0.96c0.002,0.01-0.22-0.703-0.24-0.72
		c-0.169-0.139-0.426-0.688-0.72-1.2c-0.089-0.152-0.404-0.344-0.479-0.479c-0.049-0.088,0.073-0.42,0-0.48
		c-0.34-0.275-0.721-1.775-0.96-2.398c-0.307-0.793-0.55-1.479-0.96-2.159c0.146-0.574-0.302-1.741,0.239-1.92
		c-0.112-0.168-0.157-0.273-0.239-0.48c-0.033-0.085,0.065-0.426,0-0.479c-0.232-0.19-0.192-0.326-0.239-0.722
		c-0.01-0.069,0.05-0.438,0-0.479c-0.233-0.191-0.192-0.326-0.239-0.721c-0.01-0.071,0.049-0.439,0-0.479
		c-0.466-0.381-0.387-1.347-0.48-2.4c-0.043-0.489-0.207-0.628-0.238-0.96c-0.057-0.561,0.253-1.429-0.239-1.92
		c0.266-0.454,0.306-1.134,0.479-1.68c-0.145-0.734-0.509-1.251-0.72-1.92c0.143-1.821,0.256-2.802-0.479-4.08
		c-0.036-0.658,0.241-1.263,0.238-1.92c-0.002-0.797-0.396-1.702-0.479-2.641c-0.119-1.366,0.02-2.7-0.24-3.842
		c-0.137-0.601-0.396-1.042-0.24-1.92c0.041-0.23,0.256-0.354,0.24-0.72c-0.019-0.41-0.407-0.909-0.479-1.44
		c-0.075-0.551,0.062-1.184,0-1.68c-0.204-1.59-0.367-2.726-0.479-4.8c-0.018-0.312,0.054-0.655,0-0.96
		c-0.041-0.232-0.261-0.356-0.24-0.721c0.033-0.556,0.495-1.323,0.48-1.922c-0.025-1.033-0.698-2.386-0.721-3.84
		c-0.021-1.375,0.401-2.423,0-3.84c-0.104-0.357-0.418-0.811-0.479-1.199c-0.388-2.44,0.131-4.841,0-7.439
		c-0.995-0.268-1.956,0.344-2.88,0.48c-0.925,0.137-1.795,0.041-2.641,0.239c-0.078,0.019-0.436-0.056-0.479,0
		c-0.021,0.026-0.08,0.399-0.24,0.24c-0.273-0.276-0.261-0.21-0.479,0c-0.116,0.11-0.744,0.153-0.96,0.479
		c-0.703,0.062-0.737-0.543-1.44-0.479c-0.062,0.257-0.56,0.08-0.72,0.239c-0.434,0.433-0.168-0.112-0.96,0
		c-0.395,0.057-0.825,0.431-1.2,0.48c-0.217,0.029-0.934-0.566-1.2-0.24c-0.271,0.332-0.473,0.51-1.2,0.24
		c-0.302-0.111-0.41-0.523-0.96-0.48c-0.354-1.84,0.892-2.73,1.683-3.6c0.257-0.283,0.414-0.501,0.72-0.72
		c0.573-0.411,1.583-0.415,1.92-1.2c1.197,0.029,2.044-0.829,3.12-1.199c0.215-0.074,0.502,0.065,0.72,0
		c0.229-0.07,0.396-0.314,0.96-0.48c0.52-0.151,1.202,0.013,1.682-0.48c0.777-0.139,1.116,0.164,1.681,0.24
		C531.646,291.686,532.112,291.191,532.96,291.08z"/>
	<path d="M363.04,271.641c0.388-0.068,0.413,0.227,0.72,0.239c0.538,1.917,0.59,3.996,1.2,5.761c0.019,0.051,0.196,0.062,0.24,0.239
		c0.116,0.47,0.044,0.897,0.239,1.681c0.062,0.244,0.184,0.115,0.24,0.239c0.096,0.207,0.115,0.454,0.24,0.72
		c0.055,0.115,0.454,0.395,0.48,0.48c0.065,0.221-0.068,0.501,0,0.721c0.295,0.941,0.453,1.875,0.72,2.879
		c0.116,0.437,0.342,0.979,0.479,1.44c0.433,1.444,0.523,3.292,0.961,5.04c0.078,0.311-0.164,1.27,0,1.92
		c0.03,0.126,0.242,0.268,0.239,0.24c0.027,0.285-0.243,0.438-0.239,0.48c0.082,1,0.369,2.072,0.479,3.119
		c0.062,0.579-0.062,1.23,0,1.92c0.069,0.782,0.446,1.504,0.239,2.641c-0.092,0.51-0.266,0.731,0,1.438
		c0.033,0.085-0.063,0.429,0,0.479c0.457,0.373,0.121,1.791,0.24,2.881c0.043,0.383,0.24,0.829,0.24,1.2
		c0,0.797-0.281,1.593-0.24,2.397c0.041,0.761,0.392,1.404,0.48,2.16c0.161,1.373,0.167,3.039,0,4.562
		c-0.109,0.995-0.324,1.868,0,3.358c0.044,0.201,0.223,0.235,0.24,0.48c0.039,0.519-0.238,1.106-0.24,1.68
		c-0.001,0.323,0.208,0.793,0.24,1.2c0.031,0.393-0.061,0.811,0,1.2c0.002,0.015,0.23,0.056,0.24,0.237
		c0.049,0.938,0.551,2.408,0.239,3.841c-0.104,0.479-0.181,0.767,0,1.682c0.073,0.369,0.181,0.738,0.24,1.2
		c-0.004-0.031-0.257,0.312-0.24,0.479c0.022,0.229,0.427,1.085,0.48,1.681c0.075,0.852-0.064,1.703,0,2.642
		c0.063,0.923,0.409,1.962,0.479,2.88c0.115,1.5-0.055,2.987,0.24,4.32c0.282,1.271,0.297,2.141-0.48,3.357
		c0.27,0.73,0.521,2.497-0.239,2.88c0.295,1.098-1.623-0.021-1.681,0.723c-1.656,0.482-2.972,0.179-4.319-0.723
		c-0.218-0.145-0.302-0.344-0.48-0.479c-0.137-0.104-0.593-0.11-0.72-0.24c-0.15-0.15-0.113-0.554-0.24-0.72
		c-0.144-0.188-0.328-0.25-0.48-0.48c-0.114-0.174-0.094-0.525-0.239-0.72c-0.083-0.11-0.412-0.135-0.479-0.24
		c-0.16-0.245-0.076-0.505-0.24-0.72c-0.153-0.2-0.33-0.225-0.48-0.479c-0.121-0.204-0.462-0.613-0.48-0.96
		c-0.047-0.891-1.758-2.063-2.399-2.881c-0.61-0.772-1.038-1.633-1.681-2.64c-0.166-0.263-0.307-0.45-0.479-0.72
		c-0.173-0.272-0.269-0.5-0.479-0.723c-0.207-0.216-0.4-1.178-0.721-1.68c-0.064-0.102-0.214-0.191-0.24-0.24
		c-0.166-0.302-0.045-0.669-0.239-0.96c-0.132-0.195-0.603-0.285-0.72-0.479c-0.188-0.312-0.076-0.623-0.24-0.96
		c-0.059-0.118-0.227,0.022-0.24-0.24c-0.016-0.279-0.316-0.551-0.48-0.96c-0.033-0.086,0.066-0.426,0-0.48
		c-0.234-0.19-0.309-0.211-0.479-0.479c-0.153-0.24-0.456-0.533-0.72-0.96c-0.1-0.159-0.133-0.312-0.24-0.48
		c-0.167-0.263-0.309-0.448-0.48-0.72c-0.053-0.083-0.229-0.217-0.24-0.24c-0.158-0.325-0.06-0.634-0.239-0.96
		c-0.07-0.126-0.226,0.031-0.24-0.238c-0.017-0.318-0.462-0.375-0.479-0.722c-0.014-0.254-0.698-1.258-0.721-1.68
		c-0.004-0.078-0.183-0.391-0.24-0.48c-0.059-0.092-0.443-0.158-0.479-0.237c-0.055-0.123,0.074-0.37,0-0.48
		c-0.06-0.089-0.444-0.162-0.479-0.24c-0.271-0.6-0.312-1.04-0.721-1.68c-0.174-0.271-0.27-0.5-0.479-0.72
		c-0.203-0.212-0.318-0.467-0.48-0.722c-0.336-0.525-0.675-2.066-1.2-2.881c-0.086-0.133-0.226,0.038-0.24-0.237
		c-0.012-0.262-0.314-0.812-0.479-1.2c-0.562-1.333-1.08-2.772-1.68-4.08c-0.052-0.114-0.228,0.021-0.24-0.24
		c-0.021-0.398-0.481-1.118-0.72-1.68c-0.085-0.201,0.093-0.523,0-0.721c-0.057-0.12-0.428-0.142-0.48-0.239
		c-0.047-0.088,0.072-0.421,0-0.48c-0.027-0.021-0.226,0.03-0.24,0c-0.041-0.087,0.07-0.423,0-0.479
		c-0.023-0.021-0.229,0.023-0.239,0c-0.287-0.756-0.244-1.671-0.48-2.4c-0.026-0.081-0.228-0.005-0.239-0.239
		c-0.02-0.362-0.129-0.443-0.24-0.721c-0.133-0.331-0.157-0.705-0.48-0.96c-0.572,0.069-0.05,1.054-0.24,1.681
		c-0.061,0.201-0.352,0.676-0.24,1.439c0.041,0.271,0.275,0.491,0.24,0.96c-0.047,0.646-0.389,1.236-0.479,1.92
		c-0.119,0.893,0.06,1.945,0,2.88c-0.106,1.671-0.729,2.867-0.479,4.8c0.015,0.119,0.558,1.182,0.239,1.44
		c-0.312,0.256,0.048,0.103,0,0.479c0,0.005-0.229,0.066-0.239,0.24c-0.043,0.825-0.266,1.188-0.24,2.16
		c0.009,0.354,0.274,0.921,0.24,1.2c0,0.002-0.231,0.063-0.24,0.24c-0.032,0.618-0.207,0.624-0.24,1.197
		c-0.027,0.479-0.051,0.664-0.24,0.96c-0.068,0.107-0.184,0.751-0.48,0.96c0.523,1.414,0.106,2.949,0,4.32
		c-0.03,0.397,0.037,0.803,0,1.2c-0.06,0.667-0.426,1.132-0.239,2.16c0.041,0.227,0.284,0.357,0.239,0.72c0,0-0.23,0.067-0.239,0.24
		c-0.003,0.062,0.022,0.181,0,0.24c-0.125,0.312-0.068,0.48-0.24,1.197c-0.12,0.503-0.417,0.955-0.479,1.44
		c-0.107,0.826,0.187,2.062,0,3.12c-0.041,0.23-0.262,0.354-0.24,0.72c0.047,0.816,0.453,1.586,0.48,2.4
		c0.035,1.12,0.168,2.357-0.48,3.12c0.861,1.173,0.216,2.894-0.48,3.84c-1.462,0.075-2.438-0.45-3.119-1.44
		c-0.218-0.313-0.594-0.925-0.721-1.438c-0.092-0.375,0.057-0.817,0-1.2c-0.105-0.729-0.24-0.885,0-1.92
		c0.02-0.078-0.056-0.437,0-0.48c0.018-0.014,0.238,0.018,0.24,0c0.048-0.306-0.245-0.422-0.24-0.479
		c0.123-1.37,0.385-2.637,0.24-4.32c-0.045-0.527-0.27-1.023-0.24-1.44c-0.001,0.026,0.232-0.087,0.24-0.237
		c0.05-0.956,0.076-2.097,0.72-2.88c0.199-0.66-0.45-1.193-0.239-2.16c0.043-0.201,0.221-0.235,0.239-0.48
		c0.069-0.953-0.171-2.048,0.479-2.64c-0.791-1.345,0.216-2.467,0.48-3.84c0.098-0.507-0.092-1.363,0-1.92
		c0.081-0.49,0.46-0.876,0.48-1.2c0.044-0.705-0.262-1.285-0.24-2.4c0.012-0.591,0.12-1.304,0.24-1.92
		c0.096-0.493,0.1-0.606,0.24-0.96c0.574-1.448,0.194-4.962,0.479-6.96c0.011-0.073-0.051-0.438,0-0.48
		c0.403-0.327-0.147-1.121,0.24-1.438c0.018-0.015,0.235,0.017,0.239,0c0.28-1.426,0.059-4.073,0.48-5.761
		c0.037-0.146,0.24-0.238,0.24-0.239c0.156-1.023,0.021-1.67,0.24-2.641c0.263-1.172,0.33-3.233,0.72-4.56
		c0.038-0.128,0.157-0.35,0.239-0.479c0.324-0.508-0.049-1.202,0.24-2.16c0.055-0.184,0.219-0.178,0.24-0.24
		c0.098-0.3,0.061-0.7,0.24-0.96c0.299-0.433,0.83-0.481,1.199-0.96c1.244,0.562,0.803,1.891,1.201,2.88
		c0.045,0.113,0.137,0.583,0.239,0.72c0.236,0.315,0.349,0.194,0.48,0.721c0.065,0.267,0.339,0.469,0.479,0.72
		c0.088,0.155,0.404,0.343,0.48,0.479c0.049,0.088-0.074,0.42,0,0.48c0.218,0.178,0.372,0.434,0.48,0.721
		c0.031,0.084-0.065,0.426,0,0.479c0.027,0.022,0.226-0.03,0.239,0c0.356,0.751,0.614,1.627,0.96,2.399
		c0.073,0.162,0.404,0.344,0.48,0.479c0.049,0.088-0.074,0.42,0,0.479c0.375,0.308,0.604,1.647,0.959,2.398
		c0.063,0.134,0.125,0.564,0.24,0.721c0.062,0.084,0.444,0.163,0.48,0.239c0.249,0.526,0.468,1.253,0.72,1.92
		c0.032,0.085-0.065,0.427,0,0.48c0.028,0.021,0.226-0.03,0.24,0c0.187,0.394,0.274,0.802,0.479,1.197
		c0.082,0.16,0.404,0.346,0.48,0.48c0.049,0.088-0.074,0.42,0,0.479c0.196,0.161,0.166,0.186,0.24,0.48
		c-0.002-0.009,0.219,0.703,0.24,0.72c0.027,0.023,0.226-0.027,0.24,0c0.041,0.087-0.07,0.423,0,0.48
		c0.027,0.021,0.226-0.03,0.239,0c0.042,0.087-0.069,0.423,0,0.479c0.022,0.021,0.231-0.021,0.24,0
		c0.192,0.58,0.032,1.374,0.239,1.92c0.266,0.695,0.787,1.444,1.201,2.16c0.424,0.734,0.801,1.562,1.199,2.16
		c0.354,0.527,0.82,0.958,1.2,1.44c0.382,0.481,0.651,0.936,0.96,1.438c0.081,0.132,0.227-0.035,0.24,0.24
		c0.011,0.211,0.273,0.637,0.48,0.96c0.187,0.292,0.365,1.124,0.719,1.68c0.076,0.12,0.701,1.058,0.721,1.44
		c0.018,0.332,0.449,0.761,0.72,1.2c0.099,0.156,0.132,0.31,0.24,0.479c0.223,0.353,0.793,1.07,1.2,1.68
		c0.104,0.159,0.13,0.311,0.24,0.48c0.135,0.213,0.459,0.52,0.72,0.96c0.601,1.017,1.1,2.142,1.68,3.12
		c0.229,0.388,0.401,0.699,0.72,1.2c0.168,0.263,0.309,0.449,0.48,0.72c0.173,0.271,0.27,0.5,0.48,0.72
		c0.194,0.204,0.287,0.521,0.479,0.723c0.005,0.005,0.256,0.269,0.239,0.237c0.168,0.307,0.049,0.664,0.24,0.96
		c0.06,0.093,0.444,0.161,0.48,0.24c0.051,0.113-0.076,0.386,0,0.48c0.158,0.194,0.579,0.277,0.72,0.479
		c0.661,0.939,1.062,2.103,1.921,2.88c0.188-0.582-0.24-0.859-0.24-1.438c0-0.392,0.267-0.862,0.24-1.2
		c-0.054-0.659-0.402-1.276-0.48-1.92c-0.215-1.75-0.044-3.67-0.24-5.521c-0.087-0.821-0.359-1.556-0.48-2.397
		c-0.049-0.354,0.233-0.357,0.24-0.48c0.012-0.188-0.438-1.109-0.479-1.68c-0.062-0.821,0.045-1.62,0-2.4
		c-0.062-1.039-0.429-1.821-0.24-3.12c0.125-0.858,0.026-1.214,0-2.64c-0.019-1.034,0.214-2.184,0-3.36
		c-0.042-0.231-0.246-0.354-0.24-0.72c-0.001,0.051,0.233-0.104,0.24-0.24c0.013-0.23-0.037-0.488,0-0.72
		c0.011-0.064,0.407-0.554,0.24-0.72c-0.441-0.441,0.059-1.082,0-1.92c-0.058-0.809-0.438-1.602-0.48-2.4
		c-0.104-1.944,0.322-4.115,0.24-6.238c-0.024-0.634-0.168-1.205-0.24-1.92c-0.04-0.396,0.058-0.81,0-1.201
		c-0.049-0.334-0.249-0.459-0.239-0.721c0.035-1.021,0.862-2.092,0.479-3.359c-0.101-0.33-0.558-1.172-0.72-1.92
		c-0.033-0.152,0.037-0.33,0-0.48c-0.036-0.143-0.241-0.244-0.24-0.24c-0.059-0.402,0.249-0.882,0.24-1.439
		c-0.006-0.37-0.232-0.844-0.24-1.2c-0.021-0.945,0.082-1.882,0-2.88c-0.073-0.894-0.336-1.961-0.48-2.881
		c-0.08-0.513,0.108-1.241,0-1.68c-0.014-0.055-0.229-0.025-0.24-0.24c-0.008-0.178-0.199-0.418-0.239-0.72
		c-0.063-0.485,0.008-0.472-0.24-0.72c0.046,0.046,0.232-0.577,0.24-0.721c0.037-0.648-0.423-1.461-0.479-2.159
		c-0.158-1.929-0.037-4.419,0.239-5.761C362.927,272.167,363.05,271.971,363.04,271.641z"/>
	<path d="M467.92,326.36c-1.894-0.227-2.488-1.938-3.6-3.12c-0.322-0.344-1.078-0.571-0.96-1.2c-1.627-0.693-2.904-1.736-3.603-3.36
		c-0.063-0.494-0.894-0.226-0.96-0.72c-0.103-0.457-0.517-0.603-0.479-1.2c-0.587-0.525-1.158,0.042-1.683-0.479
		c-0.06-0.062-0.179-0.451-0.237-0.48c-0.61-0.293-1.278-0.586-2.16-0.72c-0.194-0.175-0.278-0.562-0.48-0.72
		c-0.158-0.124-0.56-0.097-0.72-0.24c-0.077-0.07,0.08-0.415,0-0.48c-0.234-0.189-0.815-0.184-0.96-0.72
		c-0.812-0.173-1.679,0.229-2.64,0c-0.197-0.046-0.238-0.235-0.48-0.24c-0.868-0.016-1.685,0.698-2.4-0.237
		c-0.307,0.333-1.133,0.146-1.438,0.479c-0.68-0.04-1-0.438-1.68-0.479c-0.582-0.339-0.721,0.352-0.96,0.479
		c-0.324,0.172-0.823,0.021-0.963,0.48c-0.561-0.485-1.135,0.138-1.68,0.237c-1.062,0.198-1.969,0.12-2.88,0.48
		c-0.071,0.028-0.048,0.189-0.24,0.24c-0.733,0.184-0.913,0.365-1.438,0.96c-0.224,0.249-0.454,0.745-0.723,0.96
		c-0.083,0.065-0.412-0.081-0.479,0c-0.241,0.295-0.782,0.896-1.44,0.96c-0.73,1.347-1.896,2.264-3.118,3.12
		c-0.396,2.363-0.936,4.229,0.479,5.76c0.146,0.158,0.575,0.074,0.72,0.24c0.163,0.186,0.052,0.567,0.24,0.72
		c0.084,0.064,0.414-0.08,0.48,0c0.3,0.367,0.753,0.711,1.438,0.96c0.452,0.429,1.111,0.647,1.44,1.2
		c1.213-0.174,1.813,0.264,2.397,0.72c0.583-0.044,0.682-0.153,1.2,0c0.082,0.024,0.431-0.06,0.48,0
		c0.159,0.197,0.172,0.424,0.479,0.48c0.714,0.131,1.73,0.152,2.64,0.237c-0.073-0.007,0.128-0.383,0.24-0.237
		c0.196,0.242,0.326,0.175,0.723,0.237c0.356,0.062,0.863,0.237,1.197,0.24c0.606,0.006,1.104-0.274,1.683-0.24
		c0.555,0.033,1.052,0.138,1.92,0.24c0.069,0.009,0.438-0.049,0.479,0c0.307,0.372,1.57-0.03,2.16,0.72
		c1.12-0.344,2.469-0.271,3.12,0.48c0.633-0.167,0.508-1.093,1.2-1.2c1.185,0.226,1.628-0.292,2.16-0.72
		c3.025-0.148,5.345,0.415,7.92,0.72c0.223,1.087-0.899,1.514-1.44,2.16c-0.162,0.193-0.049,0.562-0.24,0.72
		c-0.082,0.068-0.414-0.08-0.479,0c-0.156,0.191-0.396,0.906-0.72,1.2c-0.394,0.353-1.367,0.211-1.44,1.2
		c-1.193,0.246-2.206,0.674-2.88,1.438c-1.284-0.336-2.159,0.466-3.12,0.723c-0.223,0.059-0.5-0.067-0.72,0
		c-0.119,0.033-0.262,0.241-0.24,0.237c-0.462,0.067-0.976-0.235-1.44-0.237c-0.39-0.003-0.84,0.169-1.197,0.237
		c-0.359,0.071-0.787,0.1-1.2,0.24c0.222-0.658-0.945,0.072-1.2-0.24c-0.329-0.4-1.123,0.147-1.438-0.237
		c-0.013-0.016,0.011-0.24,0-0.24c-0.347-0.017-0.809,0.286-1.199,0.24c-0.688-0.081-1.438-0.464-2.16-0.48
		c-1.443-0.035-2.677,0.345-4.08,0.24c-0.582-0.043-1.354-0.118-1.92-0.24c-0.354-0.076-0.725-0.305-1.2-0.479
		c-0.094-0.035,0.005-0.229-0.24-0.24c-0.256-0.015-0.728,0.1-0.96,0c-0.106-0.047,0.019-0.229-0.238-0.24
		c-0.312-0.017-0.301-0.384-0.479-0.479c-0.378-0.2-0.848-0.066-1.2-0.24c-0.119-0.061,0.025-0.229-0.239-0.24
		c-0.311-0.017-0.301-0.392-0.479-0.479c-0.433-0.215-0.983-0.103-1.2-0.24c-0.215-0.142-0.297-0.537-0.479-0.722
		c-0.463-0.463-1.611-0.849-1.921-1.681c-1.808-0.673-3.217-1.744-3.602-3.84c-0.439-0.167-0.567-0.356-0.72-0.96
		c-0.058-0.227-0.132-0.602-0.24-0.96c-0.117-0.388-0.174-1.461-0.24-2.64c-0.098-1.735-0.335-2.97,0-4.803
		c0.041-0.225,0.204-0.377,0.24-0.72c0.06-0.545-0.009-0.859,0.24-1.438c0.056-0.132,0.442-0.38,0.479-0.479
		c0.196-0.55,0.136-1.248,0.24-1.44c0.059-0.101,0.441-0.152,0.48-0.237c0.05-0.111-0.076-0.391,0-0.48
		c0.805-0.976,1.984-1.493,2.397-2.397c0.703,0.062,0.737-0.543,1.44-0.48c0.653-0.704,1.122-1.598,2.397-1.68
		c0.561-1.093,1.729-2.411,3.12-1.92c0.394-0.522,1.287-0.521,1.92-0.723c0.342-0.106,0.812-0.095,1.2-0.237
		c0.095-0.035-0.006-0.229,0.24-0.24c0.175-0.01,0.269-0.2,0.479-0.24c0.382-0.072,1.146,0.027,1.683,0
		c0.199-0.01,0.232-0.24,0.479-0.24c0.194,0,0.24,0.279,0.48,0.24c0.533-0.087,1.039-0.5,1.438-0.479
		c0.841,0.043,1.665,0.446,2.4,0.722c0.864,0.062,1.156-0.443,1.92-0.48c0.649,0.951,3.009,0.191,3.36,1.44
		c0.595-0.13,1.039-0.172,1.68,0c0.062,0.017,0.02,0.229,0.24,0.24c0.127,0.007,0.328,0.181,0.479,0.237
		c0.318,0.125,0.669,0.058,0.96,0.24c0.354,0.227,0.662,0.906,0.96,1.2c0.42,0.413,1.001,0.391,0.96,0.96
		c1.146,0.051,1.065,0.611,2.16,0.24c0.386,0.732,1.058,1.183,1.92,1.438c0.671,1.812,2.538,2.422,3.12,4.32
		c1.568,0.352,2.127,1.714,3.36,2.4c0.338-1.626,0.498-3.294,0.96-5.04c0.061-0.23,0.129-0.601,0.238-0.96
		c0.175-0.563,0.609-1.103,0.722-1.683c0.173-0.915-0.029-2.209,0.239-3.12c0.298-1.008,0.113-3.253,0.238-5.04
		c0.047-0.662,0.257-1.34,0.24-1.92c-0.021-0.793-0.349-1.402-0.479-2.16c-0.031-0.181,0.302-0.248,0.238-0.479
		c-0.009-0.033-0.208-0.063-0.238-0.24c-0.143-0.787-0.342-1.758-0.239-3.12c0.078-0.506-0.296-0.56-0.48-0.96
		c-0.247-0.536-0.243-1.155-0.479-1.92c-0.064-0.207-0.11-0.646-0.24-0.96c-0.124-0.298-0.287-0.047-0.479-0.24
		c-0.074-0.074,0.08-0.414,0-0.479c-0.031-0.026-0.222,0.034-0.239,0c-0.172-0.298-0.046-0.671-0.24-0.96
		c-0.381-0.569-1.297-0.819-1.2-1.68c-0.507-0.213-0.709-0.73-1.438-0.721c-0.218-0.505-0.373-1.066-0.723-1.439
		c-0.664,0.422-0.971-0.455-1.438-0.48c-0.363-0.02-0.444-0.129-0.72-0.24c-0.686-0.272-1.248-0.414-1.922-0.72
		c-0.756-0.114-0.938,0.343-1.438,0.479c-1.207-0.387-2.201-0.172-3.602,0c-0.308,0.039-0.658-0.069-0.96,0
		c-0.272,0.064-0.477,0.397-1.198,0.24c-0.196-0.041-0.238-0.242-0.48-0.24c0.057,0-0.109,0.233-0.239,0.24
		c-0.289,0.016-0.685-0.08-0.961,0c-0.541,0.157-0.729,0.393-1.197,0.721c-0.193,0.135-0.32,0.369-0.48,0.479
		c-0.087,0.062-0.416-0.077-0.479,0c-0.326,0.4-1.719,0.61-2.398,0.96c-0.451,0.23-1.026,0.649-1.439,0.96
		c-0.079,0.06-0.169,0.447-0.238,0.48c-0.123,0.055-0.37-0.074-0.48,0c-0.089,0.059-0.162,0.444-0.239,0.479
		c-0.119,0.055-0.375-0.074-0.479,0c-0.201,0.143-0.281,0.588-0.479,0.721c-0.281,0.188-0.676,0.045-0.961,0.24
		c-0.388,0.266-0.617,0.975-1.199,0.959c-0.61,0.348-0.606,1.312-1.92,0.961c-0.007-0.233-0.295-0.187-0.479-0.24
		c-0.288-0.641-0.394-1.45-0.24-2.16c0.01-0.042,0.229-0.035,0.24-0.24c0.006-0.111,0.179-0.35,0.24-0.48
		c0.224-0.484,0.323-0.861,0.96-1.439c0.079-0.072,0.413,0.081,0.479,0c0.039-0.048-0.039-0.191,0-0.24
		c0.322-0.404,0.959-0.982,1.44-1.439c0.387-0.369,0.831-0.859,1.198-1.2c0.208-0.192,0.521-0.28,0.722-0.479
		c0.174-0.175,0.285-0.585,0.479-0.721c0.284-0.199,0.638-0.082,0.96-0.24c0.118-0.058-0.022-0.226,0.24-0.24
		c0.319-0.017,0.376-0.461,0.721-0.479c0.225-0.013,0.922-0.416,1.199-0.72c0.68-0.199,0.622,0.338,1.2,0.24
		c0.53,0.002,0.886-0.5,1.2-0.721c0.353-0.247,0.674-0.389,0.96-0.72c1.223,0.103,2.134-0.106,2.64-0.72
		c0.598-0.037,0.996,0.123,1.2,0.479c0.754-1.106,2.538-0.362,4.561-0.72c0.232-0.041,0.356-0.254,0.722-0.24
		c0.554,0.021,1.112,0.396,1.68,0.48c0.688,0.102,1.336-0.092,1.681,0c0.715,0.188,1.274,0.502,1.682,0.959
		c0.762-0.029,1.411,0.011,1.92,0.24c0.109,0.051,0.149,0.44,0.239,0.48c0.107,0.049,0.392-0.076,0.479,0
		c0.521,0.445,0.774,1.305,0.96,1.92c0.339,0.461,1.166,0.436,1.681,0.721c0.009,0.605,0.405,0.946,0.722,1.439
		c0.052,0.081,0.16,0.654,0.238,0.72c0.027,0.022,0.228-0.03,0.239,0c0.041,0.087-0.068,0.423,0,0.479
		c0.235,0.193,0.311,0.212,0.48,0.48c0.04,0.062,0.242,0.245,0.239,0.24c0.25,0.598,0.103,1.697,0.479,2.4
		c0.053,0.098,0.462,0.412,0.479,0.479c0.043,0.164-0.21,1.269,0,1.44c0.458,0.375,0.345,1.447,0.479,2.399
		c0.011,0.073-0.051,0.438,0,0.48c0.02,0.015,0.236-0.017,0.24,0c0.097,0.491,0.226,1.128,0.24,1.44
		c-0.004-0.07-0.39,0.121-0.24,0.239c0.49,0.394-0.095,0.457,0,1.44c0.058,0.601,0.457,1.337,0.479,1.92
		c0.027,0.693-0.187,1.398-0.237,2.16c-0.229,3.271-0.237,6.757-0.48,10.08c-0.083,1.14-0.298,2.274-0.479,3.357
		c-0.098,0.571-0.115,1.118-0.239,1.682c-0.115,0.518-0.406,0.95-0.48,1.438c-0.2,1.325,0.002,2.604-0.239,3.84
		c-0.496-0.065-0.173,0.709-0.479,0.96c-0.191,0.157-0.462-0.102-0.479,0.24c-0.001,0.021-0.182,0.628-0.238,0.72
		C468.955,325.315,468.65,326.052,467.92,326.36z"/>
	<path d="M521.92,336.92c-0.532,0.508-0.506,1.574-1.68,1.44c-0.185,0.938-1.1,1.143-1.2,2.157c-1.638-0.274-2.073,0.647-2.88,1.2
		c-1.705-0.284-2.666,1.251-4.08,0.48c-0.543,0.177-0.525,0.915-1.2,0.96c-0.745,0.081-1.345-0.215-2.16-0.24
		c-1.219-0.038-2.651,0.693-3.357-0.24c-0.427,0.218-0.701,0.58-1.2,0.723c-1.086-0.21-2.072-0.329-3.12-0.723
		c-0.062-0.021-0.055-0.191-0.24-0.237c-0.375-0.097-0.715,0.013-1.2-0.24c-0.123-0.064,0.029-0.228-0.237-0.24
		c-0.393-0.021-0.634-0.93-1.2-0.96c-0.111-0.006-0.351-0.18-0.48-0.24c-0.246-0.111-0.586-0.46-0.96-0.479
		c-0.076-0.004-0.393-0.186-0.479-0.24c-0.355-0.229-0.673-0.415-1.2-0.72c-0.479-0.278-1.053-0.98-1.68-1.44
		c-0.086-0.062-0.415,0.079-0.48,0c-0.353-0.432-0.828-0.938-1.438-1.438c-0.425-0.347-1.196-0.642-1.683-1.2
		c-0.164-0.191-0.075-0.501-0.239-0.721c-0.072-0.1-0.428-0.146-0.479-0.239c-0.104-0.186,0.091-0.529,0-0.722
		c-0.062-0.13-0.414-0.133-0.48-0.238c-0.149-0.249-0.109-0.49-0.237-0.722c-0.07-0.127-0.228,0.031-0.24-0.238
		c-0.017-0.311-0.349-0.308-0.48-0.48c-0.062-0.085,0.08-0.415,0-0.479c-0.32-0.267-0.479-0.701-0.72-1.2
		c-0.042-0.088,0.07-0.423,0-0.48c-0.234-0.19-0.321-0.193-0.479-0.479c-0.086-0.154-0.111-0.548-0.24-0.721
		c-0.086-0.113-0.407-0.133-0.48-0.239c-0.059-0.087,0.078-0.416,0-0.48c-0.223-0.183-0.364-0.173-0.479-0.479
		c-0.505-1.365-0.191-2.793-0.72-4.08c-0.044-0.104-0.229,0.014-0.24-0.24c-0.004-0.062,0.021-0.182,0-0.24
		c-0.285-0.712-0.402-2.489-0.48-3.84c-0.01-0.176-0.297-0.261-0.238-0.479c0.019-0.07,0.243-0.004,0.238-0.24
		c-0.047-2.398-0.203-5.011,0.48-6.72c0.034-0.086-0.066-0.429,0-0.48c0.017-0.014,0.236,0.017,0.24,0
		c0.059-0.378-0.218-0.324-0.24-0.479c-0.059-0.357,0.229-0.354,0.24-0.479c0.022-0.39-0.067-0.815,0-1.2
		c0.084-0.483,0.339-0.889,0.479-1.438c0.111-0.437,0.12-1.021,0.24-1.44c0.722-2.516,2.15-4.988,3.12-7.439
		c0.931-0.43,1.408-1.311,1.68-2.4c1.051-0.932,2.491-2.283,3.84-3.6c0.132-0.129-0.037-0.227,0.24-0.24
		c0.09-0.004,0.95-0.527,0.96-0.721c0.017-0.314,0.546-0.613,0.96-0.959c0.59-0.493,1.092-0.733,1.92-1.2
		c0.238-0.134,0.297-0.353,0.48-0.479c0.086-0.061,0.415,0.078,0.479,0c0.197-0.242,0.495-0.271,0.72-0.48
		c0.186-0.172,0.371-0.717,0.723-0.96c0.086-0.06,0.415,0.079,0.479,0c0.11-0.134,0.462-0.245,1.2-0.48
		c0.369-0.116,0.895-0.448,1.44-0.479c0.476-0.027,0.796-0.45,1.197-0.48c0.618-0.046,1.692,0.405,2.4,0.48
		c0.821,0.086,1.614,0.062,2.16,0.72c0.437-0.367,1.062-0.44,1.68-0.479c0.396-0.025,0.405,0.229,0.72,0.239
		c0.188,0.007,0.55-0.224,0.48-0.239c0.738,0.179,0.999,0.58,1.2,0.959c0.702,0.062,0.735-0.543,1.438-0.479
		c-0.25,0.659,0.724,0.188,0.96,0.479c0.025,0.031-0.03,0.223,0,0.24c0.088,0.049,0.42-0.072,0.48,0
		c0.362,0.443,0.767,0.539,1.438,0.961c0.252,0.156,0.446,0.812,0.96,0.479c0.146,0.896,1.104,0.977,1.2,1.92
		c0.358,0.489,1.273,0.79,1.44,1.68c0.147,0.802-0.066,1.49-0.48,2.16c-0.159,0-0.317,0-0.479,0c-1.078-0.362-1.942-0.938-2.4-1.92
		c-1.55,0.242-1.62-0.772-2.88-0.24c-0.716-0.004-0.814-0.624-1.439-0.72c-0.916,0.203-1.799,0.389-2.158-0.48
		c-0.494,0.627-2.409-0.168-2.88,0.48c-0.531-0.041-0.915-0.406-1.44-0.48c-0.423-0.059-0.841,0.256-1.44,0.24
		c0.105,0.003-0.18-0.225-0.237-0.24c-0.354-0.088-0.833,0.01-1.2,0c-0.186-0.004-0.253,0.301-0.48,0.24
		c-0.07-0.02,0.014-0.285-0.237-0.24c-0.342,0.062-0.472,0.096-0.723,0.24c-0.169,0.098-0.367,0.43-0.479,0.48
		c-0.483,0.219-1.044,0.07-1.44,0.24c-0.101,0.043-0.333,0.381-0.479,0.479c-0.445,0.296-1.02,0.776-1.44,1.2
		c-0.403,0.402-0.696,1.074-1.2,1.439c-0.275,0.201-0.646,0.069-0.96,0.24c-0.102,0.057-0.152,0.441-0.237,0.48
		c-0.109,0.049-0.395-0.076-0.48,0c-1.124,0.968-1.496,2.763-2.88,3.119c0.186,0.418-0.175,0.58-0.24,0.721
		c-0.178,0.383-0.366,0.767-0.72,1.201c-0.38,0.465-0.621,1.252-0.96,2.16c-0.084,0.225-0.101,0.637-0.24,0.959
		c-0.051,0.115-0.455,0.396-0.479,0.479c-0.107,0.362-0.133,0.968-0.24,1.438c-0.173,0.746-0.164,1.698-0.48,2.642
		c-0.026,0.085-0.228,0.001-0.238,0.238c-0.021,0.391-0.19,0.406-0.239,0.722c-0.104,0.663,0.089,1.586,0,2.398
		c-0.075,0.682-0.47,1.337-0.48,1.92c-0.01,0.529,0.188,0.602,0.24,0.96c0.177,1.214,0.128,2.911,0.479,4.319
		c0.065,0.269,0.146,0.48,0.238,1.2c0.065,0.493,0.12,1.679,0.24,2.64c0.019,0.14,0.145,0.688,0.24,0.961
		c0.246,0.7,0.793,1.164,1.2,1.682c0.212,1.867,1.588,2.57,2.157,4.08c0.641-0.207,0.43,0.45,0.96,0.479
		c0.349,0.021,0.521,0.457,0.96,0.48c0.556,0.027,0.428,0.272,0.723,0.479c0.086,0.062,0.416-0.078,0.479,0
		c0.023,0.028-0.027,0.228,0,0.24c0.393,0.187,0.968,0.098,1.2,0.24c0.209,0.127,0.284,0.583,0.48,0.72
		c0.229,0.162,0.514,0.074,0.72,0.24c0.268,0.214,0.314,0.45,0.72,0.72c0.121,0.081,0.29-0.002,0.24,0.24
		c1.203,0.077,2.169,0.391,2.88,0.96c0.88-0.354,1.83,0.206,2.88,0.24c0.584,0.019,1.049-0.206,1.68-0.24
		c0.279-0.017,0.689-0.063,0.963,0c0.194,0.046,0.235,0.234,0.479,0.24c0.647,0.011,1.211-0.447,2.16-0.24
		c0.398,0.087,1.102,0.361,1.68-0.24c0.6-0.037,0.743,0.377,1.2,0.48c0.312-0.323,0.756-0.153,1.2-0.24
		c0.393-0.078,0.536-0.253,0.96-0.24c0.631,0.021,1.445,0.45,2.16,0.72c0.084,0.032,0.427-0.062,0.479,0
		c0.02,0.021-0.021,0.234,0,0.24c0.622,0.184,1.345,0.031,1.92,0.24C521.323,336.419,521.421,336.62,521.92,336.92z"/>
	<path d="M276.4,293.48c-0.51,0.412-0.569,0.459-1.2,0.479c-0.444,0.015-0.818-0.272-1.2-0.239c-0.201,0.016-0.234,0.239-0.48,0.239
		c-0.186,0-0.25-0.294-0.479-0.239c-0.05,0.012-0.029,0.229-0.24,0.239c-0.188,0.011-0.405,0.209-0.72,0.24
		c-0.775,0.075-1.664-0.132-2.4,0c-0.795,0.141-1.674,0.325-2.16,0.96c-0.625-0.119-0.949,0.061-1.439,0.24
		c-0.084,0.031-0.428-0.064-0.48,0c-0.17,0.207-0.17,0.401-0.479,0.479c-0.404,0.103-1.224,0.158-1.681,0.24
		c-0.473,0.084-1.281-0.263-1.439,0.479c-0.655,0.176-0.482-0.477-0.96-0.479c-0.554-0.074-0.267,0.692-0.72,0.72
		c-1.154,0.463-2.282,1.067-3.36,1.68c-0.128,0.073,0.033,0.227-0.24,0.24c-0.211,0.012-0.637,0.274-0.96,0.48
		c-0.271,0.173-0.5,0.269-0.72,0.48c-0.111,0.105-0.827,0.207-0.96,0.719c-0.4,0-0.801,0-1.2,0c-0.414,0.107-0.458,0.44-0.72,0.721
		c-0.268,0.285-0.401,0.466-0.721,0.72c-0.853,0.147-1.57,0.479-2.16,0.96c-0.133,0.109-0.365,0.41-0.479,0.48
		c-0.087,0.054-0.417-0.076-0.479,0c-0.268,0.326-0.434,0.4-0.961,0.72c-0.383,0.231-0.86,0.47-1.199,0.72
		c-0.995,0.735-1.693,1.873-2.881,2.4c-0.153,0.205-0.049,0.805-0.239,0.96c-0.198,0.162-0.697,0.279-0.72,0.72
		c-0.012,0.24-0.84,1.193-1.44,1.2c-0.267,0.786-0.745,1.512-1.2,2.16c-0.117,0.166-0.367,0.326-0.479,0.479
		c-0.134,0.185-0.468,0.477-0.48,0.723c-0.012,0.219-0.284,0.425-0.479,0.479c0.074,0.954-0.555,1.206-0.48,2.16
		c-0.701,0.179-0.464,1.296-1.439,1.2c-0.033,0.561-0.055,1.078-0.24,1.68c-0.039,0.127-0.453,0.389-0.48,0.48
		c-0.086,0.285,0.108,0.681,0,0.96c-0.037,0.099-0.227-0.012-0.24,0.237c-0.006,0.112-0.178,0.351-0.239,0.48
		c-0.095,0.206-0.116,0.454-0.24,0.72c-0.065,0.144-0.43,0.363-0.479,0.48c-0.058,0.133,0.035,0.339,0,0.479
		c-0.043,0.166-0.234,0.213-0.24,0.24c-0.164,0.793,0.072,1.869,0,2.88c-0.09,1.229-0.541,2.602-0.48,3.603
		c0.065,1.091,0.521,2.185,0.961,3.117c0.088,0.19,0.111,0.482,0.239,0.723c0.091,0.17,0.384,0.333,0.479,0.479
		c0.274,0.421,0.471,0.886,0.721,1.2c0.331,0.417,0.85,0.585,1.199,0.96c0.318,0.34,0.391,0.91,0.721,1.2
		c0.837,0.078,1.202,0.784,1.92,1.2c0.26,0.148,1.167,0.344,1.2,0.96c0.034,0.667,1.505,1.212,1.92,1.92c0.479,0,0.96,0,1.44,0
		c0.607,0.512,1.396,0.845,1.92,1.438c1.11-0.148,1.731,0.188,2.16,0.723c0.703,0.062,0.736-0.543,1.439-0.48
		c0.262,0.538,1.178,0.422,1.439,0.96c0.598,0.037,0.744-0.377,1.201-0.479c0.362-0.001,0.444,0.139,0.719,0.237
		c0.106,0.04,0.259,0.244,0.24,0.24c0.221,0.044,0.235-0.24,0.24-0.24c0.975,0.142,1.449,0.209,2.4,0
		c0.062-0.014-0.006-0.287,0.24-0.237c0.049,0.01,0.004,0.319,0.239,0.237c0.472-0.162,0.826-0.503,1.2-0.72
		c0.688,0.226,1.293,0.312,2.16,0c0.091-0.032-0.003-0.228,0.24-0.24c0.063-0.003,0.182,0.023,0.24,0
		c0.631-0.253,0.377,0.189,1.439,0c0.47-0.083,0.855-0.664,1.439-0.479c0.396-0.087,0.476-0.48,0.721-0.72
		c0.244-0.239,0.662-0.299,0.72-0.723c0.349-0.229,0.815-0.012,1.2-0.239c0.208-0.122,0.285-0.589,0.48-0.721
		c0.506-0.341,1.067-0.479,1.439-0.96c0.4,0,0.8,0,1.2,0c0.278,0.061,0.343-0.425,0.479-0.479c0.186-0.074,0.555,0.104,0.721,0
		c0.369-0.238,0.326-0.594,0.72-0.723c0.759-0.243,1.67-0.11,2.64-0.237c0.186,0.416-0.175,0.579-0.24,0.72
		c-0.039,0.087,0.069,0.423,0,0.479c-0.344,0.282,0.039,0.783-0.239,1.44c-0.017,0.039-0.526,0.42-0.72,0.72
		c-0.104,0.159-0.131,0.311-0.24,0.48c-0.031,0.048-0.942,0.869-0.961,1.2c-0.032,0.626-1.484,0.866-1.68,1.68
		c-0.578-0.1-0.521,0.438-1.199,0.24c-0.594,0.285-0.938,0.819-1.2,1.438c-0.739,0.168-0.462,0.168-1.2,0
		c-0.332,0.324-0.449,0.634-0.96,0.96c-0.235,0.15-0.377,0.154-0.72,0.24c0.009-0.002-0.703,0.22-0.721,0.24
		c-0.019,0.021,0.023,0.23,0,0.239c-0.584,0.19-1.205,0.015-1.68,0.238c-0.532-0.132-0.342,0.459-0.72,0.48
		c-0.06,0.261-0.478,0.163-0.48,0.479c-1.217-0.177-1.485,0.597-2.159,0.96c-0.373,0.087-0.836-0.112-1.201,0
		c-0.098,0.031-0.424,0.472-0.479,0.48c-0.231,0.04-0.925-0.576-1.2-0.24c-0.014,0.019,0.018,0.237,0,0.24
		c-0.373,0.066-0.93,0.225-1.199,0.239c-0.565,0.03-1.037-0.434-1.92-0.239c-0.195,0.042-0.24,0.243-0.48,0.239
		c-0.6-0.009-1.344-0.369-2.4-0.239c-0.404,0.05-0.529,0.273-0.96,0.239c0.019,0.001-0.082-0.231-0.239-0.239
		c-0.168-0.01-0.435-0.192-0.721-0.24c-0.658-0.11-1.343,0.056-1.92,0c0.012,0.001-0.077-0.23-0.24-0.24
		c-0.24-0.013-0.48,0.012-0.72,0c-0.224-0.387-0.688-0.4-0.96-0.72c-0.07-0.081,0.081-0.414,0-0.479
		c-0.18-0.146-0.455-0.181-0.48-0.479c-0.623-0.146-1.123-0.267-1.68-0.479c-0.225-0.088-0.341-0.427-0.48-0.479
		c-0.264-0.104-0.711,0.134-0.959,0c-0.125-0.067,0.031-0.227-0.24-0.24c-0.424-0.021-0.819-1.167-1.439-1.2
		c-0.347-0.018-0.52-0.456-0.961-0.479c-0.357-0.021-0.82-0.678-1.199-0.96c-0.156-0.116-0.307-0.129-0.48-0.24
		c-0.359-0.229-1.135-0.768-1.92-0.96c-0.16-0.273-0.324-0.431-0.48-0.72c-0.199-0.367-0.373-0.776-0.72-1.2
		c-0.131-0.161-0.376-0.336-0.479-0.479c-0.379-0.523-0.728-1.103-1.201-1.681c-0.268-0.329-0.327-0.352-0.479-0.96
		c-0.057-0.229-0.288-0.552-0.479-0.96c-0.088-0.188-0.112-0.481-0.24-0.72c-0.057-0.104-0.458-0.404-0.48-0.48
		c-0.197-0.691-0.027-1.955-0.24-3.12c-0.041-0.229-0.215-0.368-0.239-0.72c-0.073-1.02,0.073-1.896,0-2.88
		c-0.039-0.52-0.261-1.171-0.24-1.68c0.028-0.707,0.444-1.46,0.479-2.16c0.041-0.777-0.321-1.489-0.239-2.16
		c0.297-2.427,2.251-4.122,2.399-6.24c0.703-0.179,0.465-1.295,1.44-1.2c0.381-2.338,2.401-3.037,2.88-5.277
		c0.566-0.074,0.447-0.834,1.2-0.723c0.146-0.333,0.062-0.634,0.239-0.96c0.057-0.102,0.443-0.152,0.48-0.237
		c0.053-0.118-0.074-0.38,0-0.48c0.156-0.211,0.688-0.446,0.961-0.72c0.574-0.575,0.992-0.993,1.68-1.68
		c0.276-0.277,0.508-0.797,0.72-0.961c0.084-0.064,0.415,0.08,0.479,0c0.369-0.451,1.411-1.058,2.16-1.439
		c0.416-0.385,0.703-0.896,0.961-1.439c0.278,0.039,0.426-0.054,0.479-0.24c0.307-0.334,1.133-0.146,1.44-0.479
		c0.643-0.156,0.912-0.688,1.439-0.96c0.322-0.354,0.836-0.278,1.199-0.479c0.158-0.088,0.277-0.355,0.48-0.48
		c0.311-0.189,0.504-0.439,0.961-0.721c0.215-0.131,0.668-0.188,0.959-0.479c0.232-0.231,0.391-0.562,0.961-0.72
		c0.148-0.041,0.33,0.038,0.479,0c0.276-0.069,0.76-0.641,1.2-0.96c0.564,0.005,0.707-0.414,1.439-0.24
		c0.129-0.28,0.5-0.29,0.721-0.479c0.375-0.324,0.651-0.791,1.199-1.2c0.318-0.239,0.777-0.546,1.44-0.72
		c0.469-0.125,0.616-0.1,0.96-0.24c0.104-0.043-0.014-0.227,0.24-0.24c0.244-0.014,0.758-0.389,1.199-0.48
		c0.766-0.156,1.576-0.11,2.4,0c0.749-0.027,1.115-0.644,1.92-0.959c0.463-0.183,1.188-0.422,1.68-0.48
		c0.23-0.028,0.494,0.05,0.721,0c0.4-0.088,0.662-0.417,0.96-0.48c1.1-0.234,1.942,0.082,3.12,0.24
		c0.006,0.001,0.062,0.23,0.24,0.24c0.197,0.01,0.377-0.318,0.719-0.24c0.048,0.012,0.031,0.229,0.24,0.24
		c0.377,0.02,0.426,0.146,0.721,0.24c0.412,0.132,1.054,0.146,1.199,0.24C276.15,292.014,276.628,292.539,276.4,293.48z"/>
	<path d="M300.16,297.8c0.027-0.46,0.804,0.282,1.439,0c0.48,1.28,2.36,1.16,3.121,2.16c0.202,0.356,0.771,0.347,1.199,0.479
		c0.232,1.047,1.301,1.26,1.92,1.92c0.562,0.076,0.537,0.742,0.96,0.961c1.233,0.688,1.683,2.158,2.64,3.119
		c0.509-0.062,0.373,0.363,0.721,0.479c-0.059-0.02,0.324-0.3,0.48-0.24c0.028,0.014,0.037,0.375,0.239,0.24
		c0.343,1.275,1.581,2.004,1.92,3.36c0.036,0.144-0.053,0.342,0,0.479c0.132,0.34,0.697,0.678,0.48,1.2
		c0.085,0.315,0.423,0.378,0.479,0.72c0.248,0.001,0.168,0.301,0.24,0.48c0.107,0.271,0.137,0.475,0.24,1.2
		c0.01,0.071-0.051,0.438,0,0.479c0.746,0.61,0.665,2.552,0.96,3.84c0.097,0.429,0.337,0.773,0.479,1.2
		c0.242,0.728,0.256,1.369,0.48,2.16c0.021,0.081-0.061,0.432,0,0.479c0.109,0.093,0.55,0.678,0.72,1.2
		c0.07,0.216-0.048,0.498,0,0.723c0.082,0.376,0.187,1.069,0.24,2.157c0.015,0.302-0.067,0.67,0,0.96
		c0.046,0.196,0.235,0.238,0.239,0.48c0.007,0.417-0.689,2.271-0.239,2.64c0.183,0.15,0.118,0.369,0,1.2
		c-0.05,0.349-0.158,0.878-0.24,1.2c-0.104,0.417-0.509,1.224-0.72,1.68c-0.178,0.384-0.366,0.77-0.721,1.2
		c-0.112,0.139-0.394,0.343-0.479,0.48c-0.055,0.087,0.077,0.417,0,0.479c-0.325,0.267-0.401,0.435-0.72,0.96
		c-0.09,0.148-0.409,0.348-0.48,0.48c-0.148,0.273-0.072,0.488-0.24,0.72c-0.058,0.079-0.408-0.071-0.479,0
		c-0.2,0.2-0.12,0.681-0.24,0.96c-0.577-0.099-0.521,0.438-1.2,0.24c-0.267,0.625-0.541,0.968-0.959,1.438
		c-0.158,0.18-0.293,0.589-0.48,0.722c-0.227,0.157-0.54,0.051-0.721,0.238c-0.328,0.349-0.649,0.833-0.959,1.2
		c-0.82,0.971-1.332,1.415-3.121,1.92c-0.08,0.023-0.432-0.059-0.479,0c-0.019,0.023,0.025,0.231,0,0.24
		c-0.624,0.224-1.442,0.449-2.159,0.72c-0.086,0.032-0.428-0.062-0.48,0c-0.368,0.45-0.168-0.027-0.96,0
		c0.042-0.001-0.099,0.232-0.24,0.24c-0.651,0.034-0.847-0.298-1.681-0.24c0.025-0.002-0.086,0.232-0.239,0.24
		c-1.25,0.064-2.907-0.384-4.32-0.72c-0.692-0.165-1.034-0.459-1.44-0.48c-0.312-0.017-0.299-0.369-0.479-0.479
		c-0.088-0.056-0.418,0.074-0.479,0c-0.023-0.028,0.029-0.229,0-0.24c-0.088-0.041-0.422,0.069-0.48,0
		c-0.266-0.324-1.286-0.683-2.16-0.72c-0.177-0.116-0.322-0.354-0.48-0.48c-0.184-0.149-0.313-0.341-0.479-0.479
		c-0.147-0.125-0.346-0.39-0.479-0.48c-0.086-0.061-0.416,0.078-0.48,0c-0.025-0.032,0.034-0.221,0-0.24
		c-0.654-0.372-1.719-0.354-2.4-0.72c-0.207-0.111-0.289-0.593-0.479-0.72c-0.269-0.181-0.708-0.038-0.96-0.24
		c-0.047-0.038-1.184-1.105-1.2-1.44c-0.022-0.421-1.047-1.029-1.44-1.438c-0.863-0.897-1.582-1.914-2.64-2.641
		c-0.036-0.765-0.544-1.058-0.479-1.922c-0.194-0.175-0.278-0.562-0.48-0.72c-0.124-0.097-0.611-0.12-0.72-0.24
		c-0.146-0.157-0.132-0.546-0.24-0.72c-0.088-0.142-0.416-0.354-0.479-0.479c-0.322-0.637-0.5-1.95-0.721-2.883
		c-0.113-0.477,0.023-0.455-0.24-0.72c-0.062-0.062,0.185-1.943,0.24-2.64c0.192-2.365,0.133-5.812,0.721-8.16
		c0.053-0.212,0.162-0.411,0.24-0.72c0.06-0.241,0.309-0.534,0.479-0.96c0.213-0.531,0.592-1.171,0.72-1.683
		c0.117-0.465,0.264-0.455,0.48-0.96c0.285-0.661,0.304-1.439,0.72-2.16c0.095-0.162,0.435-0.374,0.479-0.479
		c0.205-0.47,0.082-1.147,0.24-1.44c0.055-0.103,0.441-0.152,0.48-0.237c0.051-0.113-0.076-0.388,0-0.48
		c0.146-0.183,0.605-0.288,0.72-0.479c0.185-0.312,0.114-0.604,0.24-0.961c0.019-0.055,0.194-0.062,0.239-0.238
		c0.039-0.15-0.028-0.327,0-0.479c0.842-0.68,1.694-1.347,2.16-2.399c0.979-0.463,1.508-1.371,2.16-2.159
		c0.457-0.104,0.604-0.519,1.2-0.479c0.28-0.127,0.29-0.5,0.479-0.721c0.185-0.212,0.516-0.287,0.721-0.48
		c0.061-0.057,0.181-0.453,0.24-0.479c0.113-0.052,0.386,0.075,0.479,0c0.188-0.149,0.285-0.599,0.479-0.72
		c0.307-0.192,0.699-0.088,0.961-0.24c0.115-0.066,0.386-0.447,0.479-0.48c0.206-0.072,0.89,0.156,1.44,0
		c0.068-0.02,0.015-0.228,0.24-0.24c0.18-0.008,0.262-0.203,0.479-0.239c0.233-0.039,0.86,0.302,1.2,0.239
		c0.027-0.004,0.046-0.229,0.24-0.239c0.209-0.011,0.375-0.244,0.72-0.24c0.478,0.005,1.319,0.128,1.68,0.24
		c0.372,0.116,0.259,0.026,0.48,0.239C299.292,297.409,299.652,297.789,300.16,297.8z M310.96,308.84
		c-0.065-0.081-0.397,0.068-0.479,0c-0.432-0.354-1.008-0.845-1.44-1.2c-0.411-0.337-0.796-0.864-1.2-1.198
		c-0.48-0.396-1.191-0.569-1.439-1.199c-1.521,0.16-1.781-0.939-2.881-1.2c-0.479,0-0.959,0-1.439,0
		c0.016-0.646-0.486-0.25-0.96-0.479c-0.03-0.016,0.022-0.211,0-0.238c-0.069-0.086-0.634-0.184-0.72-0.24
		c-0.422-0.281-0.646-0.167-1.2-0.24c-0.335-0.044-0.503-0.201-0.72-0.24c-1.475-0.259-2.389-0.162-3.601,0
		c-0.354-0.123-0.604-0.354-0.96-0.479c-0.003,0.316-0.42,0.22-0.48,0.479c-0.488,0.071-0.471,0.649-0.959,0.722
		c-0.279,0.2-0.645,0.315-1.201,0.239c-0.469,1.033-1.649,1.352-2.399,2.16c-0.185,0.199-0.086,0.469-0.239,0.721
		c-0.043,0.069-0.408,0.182-0.48,0.238c-0.08,0.065,0.064,0.396,0,0.48c-0.275,0.354-0.926,0.604-1.2,0.96
		c-0.161,0.208-0.079,0.488-0.24,0.72c-0.139,0.199-0.579,0.274-0.72,0.48c-0.195,0.284-0.053,0.678-0.24,0.96
		c-0.125,0.188-0.617,0.271-0.72,0.479c-0.136,0.271-0.181,0.777-0.24,0.96c-0.069,0.21-0.233,0.61-0.239,0.723
		c-0.013,0.229-0.217,0.163-0.24,0.237c-0.178,0.574-0.037,1.314-0.24,1.92c-0.028,0.083-0.188,0.03-0.24,0.24
		c-0.08,0.32-0.053,0.525-0.24,0.72c-0.355,0.372-0.211,0.909-0.24,1.44c-0.01,0.204-0.23,0.198-0.239,0.24
		c-0.05,0.229,0.05,0.49,0,0.72c-0.05,0.224-0.209,0.291-0.24,0.48c-0.271,1.664-0.11,3.294,0,4.56
		c0.128,1.457-0.083,2.95-0.239,4.56c0.435,0.766,1.158,1.618,1.199,2.4c0.014,0.271,0.176,0.116,0.24,0.24
		c0.684,1.291,1.62,1.747,2.88,2.397c0.271,0.611,0.589,1.173,0.96,1.683c0.416,0.302,0.747,0.273,1.2,0.479
		c0.083,0.038,0.142,0.423,0.239,0.48c0.315,0.185,0.647,0.065,0.961,0.24c0.061,0.031,0.188,0.416,0.24,0.479
		c0.062,0.076,0.393-0.055,0.479,0c0.196,0.124,0.278,0.586,0.479,0.72c0.291,0.194,0.668,0.061,0.961,0.24
		c0.404,0.252,0.588,0.561,0.72,0.72c0.065,0.08,0.396-0.062,0.479,0c0.116,0.087,0.104,0.406,0.24,0.48
		c0.491,0.264,1.311,0.421,1.92,0.72c0.772,0.378,1.309,0.85,1.92,0.96c1.192,0.219,1.151,0.111,2.16-0.24
		c0.613,0.589,2.508-0.104,3.12,0.48c0.142-0.498,0.462-0.818,0.96-0.96c1.779,0.259,1.643-1.398,3.6-0.96
		c0.258-1.184,1.422-1.458,2.4-1.92c0.352-0.255,0.327-0.786,0.48-0.96c0.106-0.122,0.602,0.114,0.72,0
		c0.282-0.274,0.203-0.615,0.479-0.96c0.2-0.25,0.515-0.491,0.721-0.723c0.225-0.251,0.486-0.476,0.72-0.72
		c0.253-0.265,0.491-0.401,0.72-0.72c0.146-0.575,0.346-1.095,0.24-1.92c0.305-0.087,0.318-0.495,0.48-0.72
		c0.148-0.21,0.604-0.229,0.479-0.723c0.005-0.563-0.414-0.706-0.239-1.438c0.524-1.879,0.709-3.851,0.479-5.763
		c-0.043-0.357-0.321-1.068-0.479-1.197c-0.06-0.051,0.022-0.399,0-0.48c-0.197-0.698-0.07-1.438-0.24-2.16
		c-0.105-0.444-0.42-0.716-0.48-0.96c-0.077-0.309-0.188-0.508-0.24-0.72c-0.273-1.098-0.154-1.944-0.24-3.12
		c-0.062-0.865-0.391-2.522-0.479-2.88c-0.153-0.612,0-1.06-0.479-1.2c0.062,0.782-0.285,1.155-0.961,1.2
		C311.455,309.504,311.176,309.104,310.96,308.84z"/>
</g>
</svg>
