<?xml version="1.0" encoding="utf-8"?>
<!-- Generator: Adobe Illustrator 14.0.0, SVG Export Plug-In . SVG Version: 6.00 Build 43363)  -->
<!DOCTYPE svg PUBLIC "-//W3C//DTD SVG 1.1//EN" "http://www.w3.org/Graphics/SVG/1.1/DTD/svg11.dtd">
<svg version="1.1" id="Layer_1" xmlns="http://www.w3.org/2000/svg" xmlns:xlink="http://www.w3.org/1999/xlink" x="0px" y="0px"
	 width="350.007px" height="241.231px" viewBox="229.993 180.448 350.007 241.231"
	 enable-background="new 229.993 180.448 350.007 241.231" xml:space="preserve">
<g>
	<path d="M485.92,421.68c-0.915-1.25-1.514-3.049-1.92-4.56c-0.114-0.425,0.126-1.06,0-1.44c-0.265-0.802-0.96-1.537-1.2-2.397
		c-0.22-0.791-0.043-1.723-0.24-2.643c-0.191-0.903-0.814-1.753-0.96-2.64c-0.337-2.081,0.192-4.754,0-7.44
		c-0.103-1.433-0.604-2.882-0.72-4.317c-0.136-1.682,0.143-3.587,0-5.28c-0.212-2.542-0.647-5.216-0.96-7.68
		c-0.461-3.66-1.72-6.507-0.72-9.84c-1.543-4.745-2.12-12.135-2.88-18c-0.744-5.748-1.056-11.794-1.683-17.521
		c-0.465-4.249-1.439-8.04-1.438-12.72c0-1.069,0.345-2.112,0.24-3.12c-0.106-1.021-0.726-1.662-0.96-2.64
		c-0.164-0.677,0.177-1.583,0-2.4c-0.122-0.559-0.646-0.98-0.723-1.44c-0.167-1.006-0.103-2.319-0.24-3.357
		c-0.508-3.856,0.104-7.927,0-12.72c-1.327,2.467-1.761,5.174-2.88,8.159c-0.628,1.68-1.122,3.085-1.68,5.521
		c-0.432,1.884-0.874,3.698-1.44,5.76c-0.222,0.811-0.769,1.562-0.96,2.4c-0.213,0.934,0.008,1.962-0.237,2.88
		c-0.661,2.474-2.285,4.676-2.88,7.2c-0.216,0.901-0.032,1.762-0.24,2.64c-0.239,1.007-0.937,2.083-1.2,3.12
		c-0.882,3.452-0.998,7.456-2.88,9.84c-0.534,3.233-1.977,5.788-3.12,8.4c-1.126,2.565-2.833,4.81-3.6,7.68
		c-1.747,0.506-2.19,3.341-3.843,3.6c-1.136,0.181-2.526-0.835-3.357-1.92c-0.837-1.093-0.939-2.654-1.44-3.84
		c-0.555-1.312-1.226-2.389-1.68-3.6c-0.501-1.337-0.893-2.8-1.44-3.841c-0.963-1.826-2.26-3.508-3.357-5.521
		c-0.514-0.938-1.478-1.74-1.92-2.64c-0.496-1.003-0.485-2.188-0.96-3.36c-0.561-1.38-1.621-2.388-2.4-3.84
		c-0.911-1.697-1.313-3.859-2.16-5.76c-0.465-1.049-1.146-2.073-1.68-3.12c-0.562-1.104-0.927-2.242-1.44-3.36
		c-0.418-0.909-1.265-1.705-1.68-2.64c-0.354-0.797-0.369-1.733-0.72-2.643c-0.273-0.705-0.932-1.423-1.2-2.157
		c-0.613-1.67-0.639-3.562-1.2-5.28c-0.517-1.581-1.166-3.227-1.68-4.8c-0.544-1.667-1.051-3.385-1.683-4.803
		c-0.743-1.68-2.229-3.035-2.157-5.039c0.331,1.857-0.542,4.008-0.48,5.76c0.032,0.912,0.59,1.674,0.72,2.64
		c0.683,5.026-0.334,10.54,0,15.36c0.158,2.273,0.612,4.644,0.723,6.96c0.048,1.026,0.21,2.049,0.237,3.12
		c0.071,2.515,0.449,4.423,0.96,6.96c0.275,1.361,0.229,2.775,0.48,4.08c0.258,1.339,1.042,2.493,1.2,3.84
		c0.093,0.792-0.302,1.585-0.24,2.397c0.099,1.299,0.972,2.693,1.2,4.08c0.396,2.412,0.79,4.754,0,6.96
		c1.746,3.528,0.354,7.241,0.96,11.28c0.146,0.984,0.706,2.069,0.96,3.12c0.271,1.121,0.286,2.17,0.479,3.358
		c0.63,3.859,2.206,7.656,0.96,11.762c-2.225,1.726-5.408,2.062-7.68,0.238c-1.386-1.111-2.729-3.607-3.12-5.521
		c-0.396-1.947,0.198-4.075,0-6c-0.203-1.979-1.104-4.085-1.2-6.479c-0.056-1.405,0.257-2.888,0.24-4.318
		c-0.015-1.444-0.562-2.799-0.72-4.32c-0.651-6.312-0.19-13.045-1.2-19.438c-0.355-2.266-0.967-4.442-1.2-6.723
		c-0.29-2.832,0.128-5.775,0-8.64c-0.101-2.261-0.688-4.538-0.72-6.72c-0.021-1.439-0.048-2.912,0-4.32
		c0.027-0.801,0.477-1.634,0.48-2.4c0.003-0.882-0.447-1.748-0.48-2.64c-0.081-2.184-0.054-4.655,0-6.722
		c0.023-0.881,0.424-1.651,0.48-2.641c0.193-3.453-0.765-7.341-0.48-10.8c0.261-3.188,0.811-6.337,2.16-8.64
		c1.492-0.327,2.203-0.297,4.08-0.961c2.099,1.021,2.438,3.802,4.317,5.041c-0.234,2.01,1.578,3.16,2.4,4.8
		c0.845,1.682,1.279,4.198,2.16,6.239c0.589,1.367,1.662,2.226,1.92,3.36c0.188,0.828-0.15,1.821,0,2.642
		c0.239,1.306,1.479,3.19,2.16,4.801c0.492,1.167,1.172,2.253,1.68,3.358c0.211,0.459,0.082,1.108,0.24,1.439
		c1.251,2.615,3.203,4.804,3.6,7.68c3.695,4.468,5.247,12.136,8.4,17.521c0.456,0.777,1.041,1.357,1.438,2.16
		c0.389,0.773,0.525,1.638,0.961,2.397c0.48,0.841,1.203,1.572,1.682,2.4c0.909,1.579,1.373,3.506,2.397,5.04
		c1.17-2.979,2.342-6.713,3.842-9.84c0.486-1.019,1.271-1.855,1.681-2.882c0.562-1.408,0.515-3.11,0.96-4.561
		c0.416-1.354,1.386-2.481,1.68-3.84c0.27-1.231-0.034-2.644,0.24-3.84c0.165-0.723,0.721-1.391,0.96-2.16
		c0.507-1.634,1.088-3.262,1.44-4.8c0.384-1.682,0.492-3.142,0.96-4.562c0.468-1.428,0.704-3.462,1.197-5.279
		c0.505-1.854,1.637-3.462,2.16-5.278c0.754-2.607,0.833-5.049,1.92-7.44c1.184-2.598,2.98-7,3.36-10.8
		c0.095-0.941-0.149-1.946,0-2.88c0.189-1.191,0.952-2.308,1.2-3.601c0.239-1.263-0.038-2.653,0.238-3.84
		c0.39-1.654,2.979-6.5,4.319-7.439c0.524-0.368,2.039-0.938,2.4-0.961c1.178-0.069,3.67,1.017,4.08,1.921
		c0.574,1.27-0.372,2.819-0.48,4.079c-0.318,3.709,0.924,7.883,1.2,12c0.161,2.402-0.208,4.875,0,7.201
		c0.445,4.979,1.053,9.404,2.16,13.68c-0.035,2.529,0.109,5.175,0.479,7.68c0.116,0.786,0.568,1.351,0.723,2.16
		c0.317,1.706-0.116,3.657,0,5.521c0.104,1.705,0.549,3.569,0.72,5.279c0.17,1.703,0.118,3.371,0.24,5.04
		c0.158,2.19,1.046,4.369,1.198,6.48c0.358,4.927-0.018,9.808,0.479,15.358c0.113,1.264,0.646,2.386,0.72,3.602
		c0.247,4.129-0.345,8.361-0.239,12.479c0.053,2.018,0.575,3.966,0.722,6c0.127,1.796-0.057,3.719,0,5.521
		c0.079,2.646,1.32,5.087,0.238,7.68c0.828,2.016,0.308,4.315,0.479,6.721c0.089,1.234,0.629,2.548,0.72,3.841
		c0.141,1.949-0.321,3.893-0.239,5.761c0.072,1.629,0.65,2.957,0.479,4.56c-0.136,1.276-0.966,2.44-1.2,3.603
		C487.07,416.866,487.413,419.602,485.92,421.68z"/>
	<path d="M580,308.4c0,0.96,0,1.92,0,2.88c-1.822,2.954-3.392,5.987-6.72,7.438c-2.077,0.905-4.538,1.244-6.96,1.683
		c-2.455,0.439-4.817,1.306-7.2,1.438c-0.454,1.296-2.507,0.3-3.36,0.72c-0.954,1.146-2.304,0.903-3.6,0.96
		c-0.485,0.021-0.995,0.412-1.44,0.48c-1.872,0.286-3.743,0.264-5.52,0.96c-0.854-0.772-1.916,0.055-2.88,0
		c-1.267-0.072-2.016-0.152-3.12-0.72c-5.146,1.811-10.272,0.421-15.84,1.92c-2.858-1.187-5.544,0.281-9.603,0
		c-0.422,1.535,0.345,2.912,0.48,4.56c0.146,1.812-0.275,3.719,0,5.521c0.164,1.073,0.812,1.991,0.96,3.12
		c0.094,0.722-0.021,1.448,0,2.157c0.083,2.738,0.929,5.592,1.92,7.923c1.258,2.954,2.074,6.853,3.358,9.357
		c0.972,1.895,3.309,3.958,5.039,5.28c0.656,0.501,1.446,1.451,1.922,1.68c0.896,0.436,2.444,0.372,3.601,0.96
		c0.742,0.378,0.851,0.997,1.2,1.2c0.72,0.418,0.768,0.128,1.68,0.24c0.918,0.11,2.473,0.387,3.12-0.24
		c0.667-0.613,1.73-0.827,3.12-0.72c0.399-1.25,1.998,0.065,2.397-0.96c0.835-0.815,2.085-0.272,3.36-0.24
		c1.239-1.461,3.408-1.379,5.04-2.16c1.337-0.64,2.241-1.974,3.84-1.92c2.121-2.972,5.613-4.664,7.92-7.438
		c1.996-2.401,3.212-5.323,5.761-7.199c0.431-0.847,1.204-2.376,2.399-1.683c0.863,2.742-0.565,4.282-1.439,5.763
		c-1.098,1.854-1.436,3.907-2.398,5.52c-1.296,2.162-3.451,3.993-5.04,6c-1.727,2.179-3.466,4.245-5.521,5.76
		c-0.059,2.422-2.82,2.141-3.119,4.32c-2.227,0.095-2.839,1.803-4.079,2.88c-1.253-0.32-2.531,0.378-3.842,0.96
		c-1.225,0.545-2.477,0.969-3.841,1.44c-3.632,1.254-9.106,3.295-11.278,0.479c-1.562,0.201-2.322-0.396-3.119-0.96
		c-2.33-0.39-3.771-1.67-5.762-2.397c-3.245-2.076-6.021-4.853-8.158-8.643c-0.962-1.703-1.511-3.877-2.4-6
		c-0.181-0.43-0.563-0.788-0.72-1.2c-0.645-1.685-1.325-3.27-1.682-4.8c-0.407-1.76-0.238-3.733-0.721-5.52
		c-0.34-1.267-1.09-2.336-1.438-3.603c-1.195-4.316-1.837-8.896-1.921-13.197c-0.017-0.84,0.155-1.36,0-2.16
		c-0.163-0.84-0.465-1.301-0.479-2.16c-0.013-0.733,0.399-1.107,0.479-1.92c0.225-2.28-0.393-5.163,0-7.44
		c0.198-1.151,1.027-2.353,1.439-3.84c0.43-1.552,0.441-3.238,0.96-4.56c0.253-0.646,0.632-1.056,0.96-1.683
		c0.358-0.683,0.413-1.431,0.721-2.159c1.258-2.983,2.293-4.468,3.841-6.721c1.518-2.209,2.72-3.915,4.318-5.76
		c2.046-2.358,2.717-2.658,5.521-4.08c1.135-0.576,2.233-1.484,3.119-1.68c0.572-0.127,1.177,0.281,1.921,0.24
		c0.549-0.031,1.17-0.442,1.68-0.48c1.622-0.119,2.35,0.264,3.601,0.24c0.494-0.01,1.103-0.438,1.682-0.48
		c2.562-0.188,3.987,0.825,6,0.24c2.044,1.083,4.979,1.417,7.68,1.199c2.558,1.283,5.867,1.813,8.642,2.881
		c1.082,1.316,2.918,1.881,3.358,3.84c3.087-0.047,4.913,1.167,6,3.12c3.514,0.647,5.26,3.062,7.439,5.04
		C575.764,305.275,578.558,306.162,580,308.4z M526,295.439c-4.191,0.67-5.705,3.242-7.92,6.48c-0.544,0.795-1.047,1.812-1.44,2.641
		c-0.483,1.021-0.533,2.025-0.96,3.119c-0.562,1.446-1.585,2.504-1.92,3.84c-0.138,0.552,0.085,1.327,0,1.923
		c-0.344,2.399-1.188,5.418-0.72,8.397c1.029-0.111,1.984,0.323,3.12,0c0.599-0.17,1.009-0.827,1.68-0.96
		c0.586-0.116,1.321-0.003,1.92,0c1.182,0.007,2.296-0.252,3.603-0.24c0.354,0.004,0.798,0.45,1.197,0.48
		c3.182,0.236,6.516-1.622,9.603-0.96c2.426-2.373,7.46-0.68,10.32-2.641c0.276,0.2,0.643,0.315,1.197,0.238
		c1.207-0.88,3.405-1.755,5.28-1.2c0.756-0.362,1.171-1.066,2.16-1.197c3.834,0.137,6.797-2.414,10.8-2.88
		c0.075-1.598-0.939-2.102-2.16-2.4c-0.37-0.99-1.336-1.384-2.16-1.92c-0.076-0.562-0.286-0.991-0.479-1.44
		c-1.446-0.394-2.408-1.271-3.84-1.68c-2.122-2.438-5.487-3.633-8.4-5.28c-0.479,0-0.96,0-1.438,0
		c-0.808-0.634-1.656-1.224-2.643-1.68c-2.323,0.407-4.252-1.453-7.2-1.2c-0.675-0.284-0.893-1.026-1.438-1.44
		C531.12,295.95,528.28,295.076,526,295.439z"/>
	<path d="M364.721,293.76c1.99,4.08-2.894,5.615-6.24,5.04c-1.513,1.527-3.426,1.677-5.76,2.642
		c-0.642,0.265-1.242,0.883-1.921,1.199c-0.709,0.332-1.487,0.39-2.159,0.721c-0.871,0.43-1.804,1.064-2.641,1.681
		c-3.506,2.57-6.494,6.421-9.84,9.6c-0.055,1.308-0.852,1.869-1.44,2.643c-0.368,1.202-0.038,2.478-0.479,3.84
		c-0.274,0.845-1.108,1.515-1.44,2.399c-0.312,0.83-0.188,1.779-0.479,2.641c-0.278,0.819-0.961,1.309-1.2,2.16
		c-0.388,1.379-0.36,2.996-0.72,4.56c-0.306,1.325-0.953,2.749-1.201,4.08c-0.485,2.62,0.142,5.541-1.199,8.16
		c1.088,3.671,1.806,7.802,3.6,10.8c0.774,1.295,2.004,3.042,3.36,3.84c1.979,1.164,4.312,1.104,6.239,2.88
		c1.605-0.165,2.604,0.276,3.361,0.96c1.598-0.42,3.162,0.304,5.039,0.24c2.58-0.084,5.663-1.494,8.641-0.24
		c2.057-2.044,5.216-0.897,7.439-2.157c0.346-0.196,0.738-0.735,1.2-0.96c0.665-0.324,1.421-0.198,1.92-0.48
		c0.449-0.254,0.878-1.077,1.44-1.439c0.933-0.603,2.188-0.674,2.88-1.198c2.151-1.641,3.239-5.263,4.8-7.683
		c0.723-5.752,2.371-11.061,1.439-17.52c-0.598-4.149-1.592-8.329-3.6-11.04c-1.842-2.487-4.4-3.17-6.24-5.521
		c-3.283-0.718-5.297-2.701-7.92-4.08c-0.143-1.298-0.837-2.043-1.439-2.881c-0.711-3.787,2.898-5.875,5.039-3.357
		c2.31-0.545,3.845,1.533,6.721,1.199c1.018,1.303,3.27,1.371,3.84,3.119c3.717,0.953,5.775,4.393,7.68,7.92
		c0.59,1.092,0.887,1.881,1.44,3.359c0.442,1.186,1.229,1.96,1.44,3.12c0.479,2.658-0.312,5.202,0.479,7.92
		c0.065,0.843,0.894-0.603,0.96,0.24c0.758,3.038,0.215,5.886,0.24,9.12c0.02,2.426-1.312,4.578-1.68,6.96
		c-0.241,1.557,0.021,3.102-0.24,4.317c-0.135,0.634-0.762,1.219-0.96,1.923c-0.278,0.984-0.192,2.004-0.479,2.88
		c-0.488,1.482-1.478,2.581-1.921,3.84c-0.483,1.376-0.221,2.262-1.2,3.12c-0.846,0.739-1.521,1.381-1.92,2.64
		c-2.123,1.157-3.457,3.104-6,3.84c-0.846,1.477-2.701,1.939-4.08,2.88c-0.744,0.024-1.146-0.293-1.68-0.479
		c-1.498,1.674-3.945,1.007-5.76,2.16c-0.598-0.442-1.912-0.169-2.16-0.96c-0.78,1.03-2.02,0.604-3.359,0.96
		c-0.664,0.174-1.031,0.661-1.44,0.72c-0.53,0.075-1.021-0.241-1.681-0.24c-1.043,0.002-2.205,0.536-3.119,0.48
		c-0.933-0.06-1.947-0.593-2.881-0.723c-2.217-0.306-4.502,0.114-6.72-0.479c-1.418-1.382-3.771-1.829-5.28-3.12
		c-0.98-0.235-0.97,0.026-2.16,0c-1.252-1.174-3.267-1.745-4.56-3.12c-0.698-0.743-1.096-2.194-1.92-3.12
		c-0.786-0.882-2.081-1.365-2.64-2.159c-0.629-0.893-1.293-3.523-2.16-5.761c-0.975-2.508-2.111-4.536-2.4-7.2
		c-0.307-2.823-0.675-7.425,0-9.84c0.285-1.019,1.141-1.872,1.44-2.88c1.205-4.051,0.884-8.78,3.36-11.52
		c0.234-2.888,1.317-4.923,2.879-6.48c-0.058-1.801,1.293-2.996,2.16-4.56c0.822-1.483,1.168-3.321,2.16-4.562
		c0.482-0.602,1.387-0.996,2.16-1.68c1.77-1.562,3.533-3.581,5.52-5.28c2.72-2.323,5.17-5.124,7.92-6.479
		c0.738-0.364,1.828-0.358,2.641-0.721c1.471-0.654,3.176-1.918,5.76-1.68C357.617,293.723,361.988,292,364.721,293.76z"/>
	<path d="M297.279,411.84c0.498,0.134-0.322,0.929-0.959,0.72C295.936,411.615,297.355,412.477,297.279,411.84z"/>
	<path d="M232.721,210.96c0.079,0,0.159,0,0.239,0c-0.042-2.922-0.698-6.506-0.239-10.56c0.166-1.463,0.911-2.82,0.959-4.32
		c0.028-0.896-0.43-1.753-0.479-2.641c-0.103-1.795,0.323-4.242,0.239-6.239c-0.149-3.568-0.664-7.126,3.84-6.72
		c0.992,3.869,0.714,9.31,1.201,13.92c0.391,3.691,0.234,7.627,0.479,11.76c0.108,1.848-0.349,3.561,0.479,5.04
		c-0.07,6.139-0.239,13.608-0.239,20.64c0,3.993,0.583,7.928,0.239,11.76c-0.155,1.745-0.207,3.174-0.239,5.28
		c-0.021,1.259-0.513,2.431-0.479,3.601c0.033,1.207,0.59,2.34,0.719,3.6c0.179,1.732-0.232,3.473-0.239,5.279
		c-0.022,5.398,0.175,10.797,0.239,16.32c0.025,2.127,0.183,4.358-0.719,6c0.334,3.627,1.264,8.791,0.239,12.721
		c1.019,2.303,0.138,4.791,0,7.439c-0.149,2.905,0.494,5.96,0.24,8.88c-0.081,0.935-0.46,1.984-0.479,2.88
		c-0.023,1.058,0.442,2.073,0.479,3.12c0.03,0.884-0.479,1.775-0.479,2.643c-0.002,1.063,0.436,2.191,0.479,3.357
		c0.106,2.867-0.562,6.255-0.479,9.36c0.063,2.466,0.733,5.005,0.239,7.68c1.366-0.692,0.522-2.374,0.72-3.6
		c0.163-1.016,0.815-1.877,0.961-2.88c0.164-1.149-0.185-2.249,0-3.36c0.158-0.959,0.93-1.801,1.199-2.88
		c0.561-2.25,0.139-4.489,1.68-5.76c0.459-2.501,1.064-4.856,2.4-6.48c0.787-5.702,4.373-10.392,6.48-15.358
		c0.358-0.848,0.627-1.811,0.959-2.642c0.354-0.884,0.89-1.577,1.201-2.399c0.478-1.264,0.396-2.82,0.959-4.08
		c0.613-1.369,1.811-2.668,2.641-4.08c1.628-2.77,3.156-5.667,4.8-8.641c1.243-2.248,1.769-4.078,3.12-6
		c0.365-0.519,0.643-1.303,0.96-1.68c0.574-0.682,1.592-1,2.16-1.68c0.917-1.098,1.216-2.646,2.159-3.6
		c2.272-0.707,4.225-3.017,6.48-3.841c0.381-0.139,2.665-0.589,3.36-0.479c1.983,0.312,2.868,2.474,5.28,2.64
		c0.906,1.509,1.381,3.29,2.399,5.04c0.886,1.523,1.613,1.992,2.399,4.08c1.671,4.434,2.133,10.668,2.641,17.04
		c0.223,2.796,0.217,5.7,0.24,8.399c0.031,3.721,0.206,7.51-0.48,11.04c1.221,2.716-0.084,6.894,0,9.603
		c0.032,1.013,0.438,1.885,0.48,2.88c0.07,1.654-0.229,3.343-0.24,5.04c-0.011,1.549,0.426,3.023,0.48,4.56
		c0.272,7.812,0.231,15.638,0.959,23.521c0.188,2.021,0.67,4.021,0.721,6c0.038,1.485-0.284,3.083-0.24,4.56
		c0.049,1.606,0.781,3.188,0.96,4.802c0.802,7.215,0.499,15.691,1.2,22.801c0.102,1.018-0.072,2.06,0,3.12
		c0.292,4.237,2.6,9.138-0.24,12.237c-1.798,0.198-1.994-1.205-2.88-1.92c-0.802-0.893-1.758-1.416-2.159-2.397
		c-0.379-0.929-0.187-2.195-0.48-3.36c-0.577-2.282-1.897-5.221-2.4-7.68c-0.607-2.97-0.475-6.075-0.72-9.36
		c-0.104-1.407-0.658-2.854-0.96-4.32c-0.846-4.102-0.266-9.552-0.96-14.157c-0.14-0.919-0.618-1.932-0.72-2.881
		c-0.449-4.163,0.252-8.325,0-12.479c-0.344-5.641-1.601-11.08-1.92-16.561c-0.343-5.864,0.709-11.745,0.479-17.279
		c-0.04-0.966-0.425-1.948-0.479-2.88c-0.361-6.171,0.633-13.041,0.239-20.16c-0.196-3.55-0.684-7.212-1.2-10.32
		c-0.209-1.258-0.007-2.638-0.24-3.36c-0.652-2.024-3.008-3.118-4.079-5.52c-1.729,0.412-2.804,1.975-4.08,3.36
		c-1.783,1.934-3.315,3.112-4.56,5.76c-0.644,1.367-1.105,2.853-1.92,4.319c-0.348,0.625-1.084,1.062-1.44,1.681
		c-0.759,1.317-1.294,2.729-2.16,4.08c-0.789,1.229-1.958,2.562-2.399,3.601c-1.113,2.613-1.16,5.822-3.361,7.918
		c-0.137,3.077-2.291,5.217-3.359,7.44c-1.375,2.862-1.73,6.08-3.12,8.88c-1.385,2.793-2.719,5.319-3.84,8.16
		c0.388,2.113-1.022,3.771-1.44,5.76c-0.238,1.138,0.059,2.398-0.24,3.602c-0.223,0.898-0.945,1.737-1.199,2.641
		c-0.26,0.923-0.243,2.013-0.48,3.12c-0.768,3.588-1.271,7.865-1.92,12.479c-0.164,1.173-0.613,2.266-0.72,3.36
		c-0.188,1.955,0.08,3.983,0,6c-0.168,4.213-1.649,7.999-0.72,12.72c0.002,1.391-0.965-0.681-1.2,0.24
		c-0.146,3.48-0.159,8.402,0,13.439c0.108,3.445,0.886,6.358,0,9.358c0.894,3.017,1.499,8.138-1.2,9.36
		c-0.736,0.333-2.718,0.36-3.359,0.239c-1.982-0.381-3.463-2.701-5.28-2.642c0.31-7.801,0.034-16.248,0-24.96
		c-0.013-3.298-0.91-6.532-0.96-9.84c-0.081-5.413,0.484-10.825,0.24-16.08c-0.209-4.462-1.01-8.946-0.24-12.96
		c0.131-0.688,0.424-1.533,0.48-2.16c0.321-3.617-0.785-7.214-0.48-10.319c0.098-1.003,0.631-1.92,0.72-2.881
		c0.112-1.217-0.401-2.602-0.479-3.84c-0.227-3.604-0.055-7.898,0-12c0.049-3.693-0.037-7.344,0.24-10.56
		c0.078-0.914,0.44-1.98,0.479-2.882c0.12-2.767-0.563-5.635-0.479-8.398c0.049-1.656,0.441-3.191,0.479-4.8
		c0.196-8.218-0.025-17.427,0-25.2c0.012-3.521-0.38-7.083-0.24-10.561c0.056-1.381,0.644-2.691,0.72-4.08
		c0.356-6.479-0.496-13.107-0.479-19.92c0.015-5.73,1.26-11.455,0.72-17.279l0.439,0.12L232.721,210.96z"/>
	<g>
		<path fill="none" stroke="#000000" stroke-width="0.6788" stroke-linecap="round" d="M232.439,211.32
			c-0.058-0.16-0.129-0.32-0.199-0.48"/>
	</g>
</g>
</svg>
