<?xml version="1.0" encoding="utf-8"?>
<!-- Generator: Adobe Illustrator 14.0.0, SVG Export Plug-In . SVG Version: 6.00 Build 43363)  -->
<!DOCTYPE svg PUBLIC "-//W3C//DTD SVG 1.1//EN" "http://www.w3.org/Graphics/SVG/1.1/DTD/svg11.dtd">
<svg version="1.1" id="Layer_1" xmlns="http://www.w3.org/2000/svg" xmlns:xlink="http://www.w3.org/1999/xlink" x="0px" y="0px"
	 width="345.873px" height="338.042px" viewBox="228.067 131.459 345.873 338.042"
	 enable-background="new 228.067 131.459 345.873 338.042" xml:space="preserve">
<g>
	<g id="XMLID_1_">
		<g>
			<path fill="#FFB703" d="M249.04,328.52c-0.72-0.05-1.271,0.593-1.92,0.24c-1.649-0.46-3.3-1.438-4.8-2.397
				c-0.541-0.343-1.301-0.36-1.92-0.723c-1.041-0.6-2.051-1.479-3.121-2.157c-1.67-1.062-3.239-1.91-4.799-3.12
				c-0.961-0.75-3.621-3.12-4.08-4.562c-1.15-3.58,1.06-8.357,0.959-12c2.341-4.78,6.48-7.76,9.361-12
				c1.09-0.01,2.479-0.149,3.6-0.72c1.14-1.1,2.08-2.359,3.359-3.359c0.66-0.511,1.541-0.65,2.16-1.201
				c0.57-0.51,0.801-1.399,1.439-1.92c0.75-0.609,1.9-0.899,2.881-1.439c0.859-0.48,1.71-1.6,2.88-1.2
				c2.101-1.5,3.34-3.86,6.72-4.08c1.4-1.47,3.43-2.37,5.52-3.36c3.311-1.569,7.591-3.25,11.761-3.6
				c2.819-2.62,7.101-3.779,10.56-5.76c0.82-0.11,1.351,0.09,1.92,0.24c1.61-0.48,3.371-2.211,5.041-2.881
				c0.64-0.25,1.459-0.05,2.16-0.24c1.729-0.479,3.569-2.049,5.52-3.119c5.449-3,13.26-3.44,17.52-7.44
				c4.37-0.11,4.74-4.22,9.36-4.079c1.64-0.591,2.55-2.32,4.56-3.361c1.6-0.819,5.461-1.789,6.24-3.119
				c0.3-0.51,0.05-2.45,0.24-4.08c0.29-2.48,0.939-5.66,0.72-8.88c-0.11-1.681-0.55-3.45-0.479-5.04c0.09-2.09,0.97-3.93,1.199-6
				c0.4-3.561-0.609-7.18-0.24-10.801c0.11-1.09,0.451-2.42,0.721-3.6c0.24-1.02,0.859-2.119,0.96-3.119
				c0.26-2.65-0.229-5.341,0-7.921c0.09-0.979,0.601-1.92,0.72-2.88c0.35-2.85-0.1-5.62,0.48-8.4c0.14-0.67,0.609-1.45,0.72-2.16
				c0.28-1.88-0.06-3.85,0.24-5.76c0.17-1.1,0.79-2.24,0.96-3.36c0.279-1.83-0.03-3.85,0.96-5.52c-0.22-1.27-0.66-2.53-0.479-4.08
				c0.1-0.81,0.77-1.45,0.959-2.4c0.271-1.33-0.229-3.06,0-4.56c0.351-2.23,2.141-5,2.881-7.68c0.56-2.05,0.359-4.23,0.959-5.52
				c0.24-0.52,1.201-1.34,2.16-2.4c0.66-0.73,1.33-1.9,1.92-2.4c0.42-0.35,1.621-0.68,2.4-1.2c0.88-0.59,1.6-1.57,1.92-1.68
				c0.43-0.14,2.04,0.15,3.36,0c0.94-0.11,1.51-0.33,1.92-0.24c2.12,0.47,2.12,3.03,4.8,3.36c0.34,1.1,1.01,1.87,2.16,2.16
				c1.98,4.02,5.35,6.65,8.64,9.36c1.601,3.77,5.78,4.82,7.681,8.4c0.459,1.62,1.369,2.79,1.68,4.56c1.63,3.09,4.22,5.22,6,8.16
				c3.27,1.69,4.54,5.38,7.2,7.68c0.34,1.58,1.527,2.31,1.92,3.84c1.31,0.91,1.729,2.359,2.64,3.6c0.69,0.93,1.75,1.461,2.4,2.4
				c0.24,0.35,0.397,1.15,0.72,1.68c0.68,1.11,0.92,2.271,1.68,3.84c0.41,0.84,1.28,1.561,1.92,2.4c0.65,0.85,1.08,1.9,1.683,2.641
				c0.74,0.92,1.93,1.449,2.64,2.399c0.72,0.95,0.82,2.17,1.44,3.12c1.62,2.449,4.817,4.66,5.76,7.92c1.5,0.939,2.28,2.22,3.6,3.84
				c0.61,0.74,1.5,1.49,1.92,2.16c0.95,1.52,1.271,3.29,2.4,4.8c1.03,1.38,2.1,2.601,3.84,3.36c2.432-0.881,5.96-0.93,9.12-0.96
				c2.42-0.021,4.89,0.22,6.96,0.479c0.61-0.399,1.18-0.37,1.92-0.72c0.49-0.23,0.971-0.82,1.44-0.96c0.817-0.24,1.8,0.04,2.64-0.24
				c0.852-0.28,1.57-1.1,2.4-1.44c1.68-0.689,3.93-0.77,5.76-1.439c1.17-0.43,2.09-1.35,3.12-1.68c1.647-0.53,4.01-0.311,6-0.48
				c2.1-0.18,3.55-0.359,5.76,0.24c1.99,0.54,4.25,1.75,7.2,1.68c4.229-0.109,6.09-4.72,10.32-5.279
				c2.697-0.36,5.289,0.99,7.197-0.48c1.86,0.7,4.19-0.141,6.48,0c2.16,0.13,5.859,0.88,7.92-0.24c0.95,0.09,1.74,0.34,2.4,0.721
				c2.1-0.94,4.39-0.49,6.72-0.48c3.3,0.01,6.45-1.13,9.6-0.72c2.88,0.37,5.2,1.989,7.92,1.68c1.19-0.13,2.45-1.19,3.603-1.2
				c1.68-0.02,3.42,1.771,5.04,1.2c0.947,0.41,1.897,0.82,2.64,1.44c3.45-0.37,4.75,2.31,8.64,2.16
				c0.353,1.489,1.143,2.539,2.16,3.359c1.74,4.53,1.41,9.49-0.479,13.92c-0.473,1.1-0.771,2.36-1.2,3.36
				c-0.42,0.979-1.312,1.71-1.68,2.64c-0.843,2.12-0.922,4.84-1.683,6.24c-0.8,1.48-3.2,2.71-4.08,4.561
				c-0.39,0.81-0.26,1.83-0.72,2.879c-0.21,0.48-1.47,2.4-2.16,3.121c-2.93,3.049-8.38,4.949-11.52,8.879
				c-1.24,1.561-1.67,3.4-2.643,5.041c-0.92,1.539-2.56,2.85-3.84,4.319c-1.35,1.56-2.24,3.4-3.357,4.56
				c-2.673,2.75-7.013,4.621-8.16,7.92c-2.933,2.351-7.12,3.441-8.643,7.201c-0.729-0.17-0.87,0.25-1.438,0.24
				c-0.86,1.779-2.92,2.359-3.603,4.319c-2.59,0.46-4.09,2.33-5.76,4.08c-0.75,0.79-1.82,1.72-1.92,2.88
				c-0.45,0.189-0.88,0.398-1.438,0.479c-0.399,1.762-2.909,3.229-3.119,5.279c-0.12,1.143,0.938,4.54,1.438,6
				c0.66,1.92,1.61,3.73,2.4,5.762c1.76,4.511,3.88,9.528,5.76,14.398c1.29,3.34,2.68,7.95,4.08,11.521
				c1.13,2.89,2.38,5.8,3.12,8.64c0.25,0.96,0.2,1.979,0.479,2.88c0.32,1.01,1.24,1.96,1.683,3.12c0.737,1.93,1.05,4.03,1.92,5.76
				c0.64,1.28,1.74,2.3,2.16,3.36c0.34,0.857,0.39,2.229,0.72,3.357c0.3,1.021,0.96,1.95,1.2,2.883
				c0.188,0.729,0.027,1.64,0.237,2.397c0.48,1.71,1.69,3.63,2.16,5.28c0.511,1.78,0.66,3.33,1.2,5.04c1.87,5.87,5.4,12.438,6,19.2
				c0.09,0.979-0.11,2.14,0,3.119c0.1,0.881,0.54,1.818,0.72,2.881c0.17,0.979,0.051,2.158,0.24,3.119
				c0.271,1.381,1.24,2.811,1.68,4.318c0.98,3.38,1.32,5.44,0.48,8.643c-0.22,0.84-0.46,2.06-0.72,2.64
				c-0.342,0.76-1.271,1.29-2.16,2.399c-0.69,0.858-1.051,2.101-1.682,2.641c-0.5,0.43-1.771,0.78-2.641,1.2
				c-1.148,0.55-2.109,1.14-2.64,1.199c-1.801,0.21-3.4-1.069-5.28-0.479c-1.72-0.76-3.47-1.49-4.8-2.64
				c-7.13-1.83-13.521-4.4-17.762-9.12c-7.818-3.28-14.648-7.88-20.88-12.96c-6.301-5.13-13.931-8.33-19.681-14.16
				c-3.439-1.04-5.59-3.67-8.399-5.76c-1.818-1.353-4.471-2.171-6.721-3.603c-1.72-1.09-3.06-3.17-4.8-4.318
				c-0.72-0.472-1.67-0.729-2.399-1.199c-1.648-1.062-3.721-1.98-5.761-3.12c-1.26-0.7-2.64-1.75-3.6-1.92
				c-1.841-0.32-2.12,1.1-3.36,0c-4.16,4.239-6.42,10.38-10.8,14.397c-0.05,5.473-2.83,8.21-5.521,11.04
				c-0.318,1.841-1.409,2.91-2.641,3.841c-1.021,3.382-2.96,5.842-5.521,7.682c-0.551,2.41-2.642,3.279-3.602,5.279
				c-0.739,0.618-1.8,0.921-2.88,1.198c-0.14,0.9-0.18,1.812-0.479,2.643c-0.439,1.229-1.561,2.3-1.92,3.357
				c-0.3,0.893-0.15,1.61-0.479,2.4c-1.16,2.77-4.14,4.438-4.56,7.68c-2.99,2.771-4.771,6.75-8.4,8.88
				c-0.08,0.881-0.59,1.33-0.721,2.16c-1.649,0.46-2.1,2.41-3.359,3.603c-0.57,0.54-1.53,0.657-2.16,1.197
				c-1.51,1.312-3.029,3.7-4.8,5.04c-0.86,0.65-2.511,1.353-3.841,2.16c-3.549,2.15-6.529,3.393-12.479,2.4
				c-3.28-0.54-5.021-2.05-6.96-4.32c-0.47-0.55-0.73-1.35-1.199-1.92c-0.48-0.58-1.271-0.9-1.681-1.439
				c-1.22-1.608-2.54-3.938-3.601-6c-1.17-2.271-2.069-4.979-2.399-7.198c-0.54-3.61-1-7.79-1.2-11.763
				c-0.26-5.078,0.061-10.857-0.72-15.6c-0.38-2.311,0.13-5.189,0-7.92c-0.08-1.66-0.649-3.101-0.72-4.562
				c-0.121-2.448,0.42-5.398,0.24-8.158c-0.07-1.013-0.631-1.853-0.721-2.881c-0.07-0.802,0.25-1.609,0.24-2.399
				c-0.02-2.271-0.82-4.8-0.96-7.2c-0.091-1.66,0.13-3.27,0-4.8c-0.14-1.69-0.261-3.19-0.24-5.28c0.011-1.77-0.64-3.607-0.72-5.52
				c-0.08-1.87,0.34-3.73,0.24-5.762c-0.17-3.479-0.801-7.351-0.961-10.801c-0.18-3.979,0.711-6.92-1.439-9.12
				c-8.35-1.647-19.141-0.85-25.2-4.8c-3.271,0.33-6.021-0.357-8.16,0.24c-1.21-0.34-2.729-1.89-4.56-2.4
				c-1.16-0.317-2.85-0.1-4.32-0.479c-2.04-0.521-3.699-1.94-5.52,0c-3.23-1.062-7.74-1.5-11.28-2.88
				c-3.71-1.762-7.58-2.49-10.8-4.32c-2.11,0.062-5.69-0.13-6.961-1.68c-1.59,0.479-3.02-0.853-4.559-1.2
				c-0.351-0.08-0.941,0.31-1.441,0.24C249.529,329.17,249.35,328.54,249.04,328.52z"/>
		</g>
	</g>
</g>
</svg>
