<?xml version="1.0" encoding="utf-8"?>
<!-- Generator: Adobe Illustrator 14.0.0, SVG Export Plug-In . SVG Version: 6.00 Build 43363)  -->
<!DOCTYPE svg PUBLIC "-//W3C//DTD SVG 1.1//EN" "http://www.w3.org/Graphics/SVG/1.1/DTD/svg11.dtd">
<svg version="1.1" id="Layer_1" xmlns="http://www.w3.org/2000/svg" xmlns:xlink="http://www.w3.org/1999/xlink" x="0px" y="0px"
	 width="334.111px" height="297.733px" viewBox="236.559 144.697 334.111 297.733"
	 enable-background="new 236.559 144.697 334.111 297.733" xml:space="preserve">
<g>
	<g id="XMLID_1_">
		<g>
			<path fill="#FFBD1A" d="M570.16,328.56c0.09,1.133,0.647,1.79,0.479,2.643c-0.34,1.647-4.397,4.53-6,5.28
				c-3.17,1.479-6.92,0.96-9.84,2.397c-2.938,1.45-5.26,3.47-7.92,4.562c-1.28,0.527-2.54,0.5-3.84,1.197
				c1.72,4,3.27,10.353,2.64,17.28c-0.13,1.46-0.607,3.24-0.239,5.28c0.479,2.66,2.149,5.06,1.922,9.357
				c-0.103,1.75-0.4,4.12-0.96,5.04c-0.603,0.98-1.843,1.19-2.883,1.683c-1.1,0.52-2.027,1.12-3.117,1.2
				c-1.78,0.117-3.343-0.853-4.803-1.923c-3.22-2.35-4.25-4.857-6.96-7.92c-1.29-1.46-2.857-2.68-3.84-4.08
				c-1.359-1.938-2.05-4.327-3.84-5.52c-1.99,0.38-2.729,2.37-4.32,3.6c-0.688,0.53-1.77,0.86-2.64,1.44
				c-0.73,0.479-1.45,1.3-2.16,1.68c-1.81,0.98-3.99,1.44-5.521,2.88c-2.17,2.053-3.38,4.79-5.761,6.24
				c-1.107,0.68-4.52,2.33-6.239,2.16c-1.221-0.12-1.891-1.01-2.88-1.68c-1.061-0.723-2.131-1.053-2.641-1.92
				c-1.43-2.44-0.67-7.21,0.24-10.08c0.42-1.32,1.488-2.5,1.92-3.843c1.21-3.72,1.38-7.72,3.358-9.6
				c0.842-2.229,0.842-4.78,1.439-6.96c0.67-2.42,2.3-3.92,3.601-5.52c-2.601-1.223-4.891-1.933-7.198-3.36
				c-1-0.62-1.722-1.76-2.882-2.4c-2.148-1.18-5.221-1.067-7.92-1.92c-2.141-0.67-7.5-3.88-7.92-6.24
				c-0.108-0.617,0.359-1.38,0.479-2.397c0.14-1.19-0.15-2.39,0-2.88c0.66-2.25,5.061-4.5,9.6-5.28
				c1.33-0.229,2.682,0.021,4.08-0.24c2.08-0.38,4.2-1.46,6.24-1.68c1.33-0.14,2.648,0.14,3.84,0c3.801-0.45,6.54-3.16,11.04-1.92
				c2.82-2.46,2.561-7.07,4.561-11.28c0.512-1.068,1.04-1.857,1.439-2.88c1.09-2.78,2.261-6.75,3.84-8.88
				c0.66-0.891,3.221-3.18,4.32-3.12c0.59,0.03,1.64,0.39,2.64,0.479c1.12,0.101,1.881-0.289,2.643,0
				c1.659,0.631,4.198,5.761,4.56,8.881c0.34,2.949-0.29,5.8,0.479,8.16c0.898,2.738,2.721,5.58,3.358,8.881
				c0.921,0.26,2.48-0.183,4.08,0.238c0.82,0.211,1.62,1.069,2.642,1.439c2.101,0.75,3.761,0.64,6.721,0.96
				c1.949,0.21,4.188,1.351,6.72,1.92c3.25,0.73,7.312,1.01,9.602,2.16c1.511,0.76,3.488,2.62,3.841,3.6
				C570.43,326.43,570.06,327.3,570.16,328.56z"/>
			<path fill="#FFBD1A" d="M442,430.8c-1.64,0.92-3.24,1.05-4.56,2.16c-0.99,0.28-0.94-0.5-1.683-0.479
				c-1.31,0.85-3.13,1.188-4.317,2.157c-2.883-0.26-6.143,1.44-9.12,2.4c-0.57,0.18-1.303,0.04-1.92,0.24
				c-0.61,0.199-1.08,0.79-1.683,0.96c-1,0.29-2.58,0.14-3.357,0.479c-1.353,0.603-3.973,0.54-5.521,1.44
				c-2.03-0.34-4.479-0.221-6.72,0.24c-0.853,0.17-1.54,0.647-2.4,0.72c-1.568,0.12-3.26-0.55-4.8-0.48
				c-2.521,0.11-4.93,1.16-7.44,1.2c-2.5,0.04-5.18-0.07-8.16,0c-0.789,0.021-1.35,0.41-2.159,0.48
				c-4.03,0.35-8.41-0.19-12.72-0.723c-0.51-0.06-0.971-0.447-1.44-0.479c-0.79-0.05-1.61,0.27-2.399,0.24
				c-2.07-0.08-4.32-0.672-6.24-1.2c-1.92-0.53-3.68-1.762-5.76-1.92c-0.881-0.07-1.971,0.357-2.881,0.238
				c-2.26-0.278-4.88-2.091-7.439-2.641c-1.041-0.22-2.221,0.01-3.12-0.24c-0.91-0.26-1.46-1.067-2.4-1.438
				c-3.21-1.271-7.01-1.74-10.319-3.12c-0.67-0.28-1.381-0.852-2.16-1.2c-1.641-0.729-2.791-1.59-4.32-2.399
				c-1.93-1.028-3.641-1.698-5.04-3.358c-1.97-0.11-2.51-1.65-4.8-1.44c-1.78-1.42-3.54-2.857-6-3.6
				c-0.62-1.49-2.221-2.18-3.36-3.12c-3.31-2.729-6.95-5.42-10.319-8.4c-3.33-2.938-6.541-5.777-9.84-8.88
				c-1.11-1.04-1.86-2.27-2.881-3.357c-1.15-1.23-2.72-2.09-3.84-3.36c-2.04-2.31-3.52-5.08-6.24-6.72
				c-0.449-1.15-1.16-2.04-1.92-2.88c-1.73-3.87-3.609-7.591-6.48-10.32c-1.479-4.23-4.719-7.73-6.479-12.24
				c-1.61-4.12-2.53-8.96-4.319-13.2c-0.881-2.09-1.51-3.447-2.4-6c-0.21-0.617-0.6-1.18-0.721-1.68
				c-0.26-1.08-0.01-2.27-0.239-3.359c-0.479-2.271-1.71-4.068-2.16-6.238c-0.19-0.91,0.14-1.893,0-2.88
				c-0.12-0.87-0.61-1.69-0.72-2.643c-0.2-1.817,0.1-3.54-0.24-5.277c-0.49-2.521-1.68-6.933-1.92-10.08
				c-0.391-5.12,0.12-11.28,0-15.36c-0.061-2.09,0.12-3.8,0-6.48c-0.051-1.129-0.49-2.229-0.48-3.359
				c0.01-0.91,0.42-1.76,0.48-2.641c0.061-1.01-0.25-2.109-0.24-3.119c0.03-2.73,0.42-5.541,0.721-8.16
				c0.549-4.91,1.5-9.94,3.119-14.4c0.48-1.31,1.471-2.439,1.92-3.84c0.62-1.92,0.7-4.12,1.2-6c0.47-1.75,0.979-3.67,1.681-5.279
				c0.34-0.781,1.14-1.361,1.439-2.16c0.439-1.181,0.51-2.59,0.96-3.84c0.44-1.221,0.681-2.58,1.2-3.601
				c0.38-0.729,1.3-1.24,1.68-1.92c0.391-0.71,0.381-1.71,0.721-2.4c0.25-0.51,0.85-1.1,1.199-1.68c0.74-1.25,1.34-2.36,2.16-3.601
				c1.66-2.51,3.68-5.72,6-7.92c-0.16-0.879,0.52-0.92,0.48-1.68c3.479-3,5-7.96,8.64-10.8c2.851-5.39,7.87-8.61,12-12.72
				c0.681-0.041,1-0.44,1.681-0.48c1.859-2.939,5.029-4.58,7.92-6.96c0.56-0.46,1.189-0.79,1.68-1.2
				c3.109-2.63,4.609-6.05,8.64-6.96c1.44-0.63,2.44-2.27,3.841-3.12c1.35-0.82,3.119-0.93,4.559-1.68
				c2.091-1.08,4.631-4.1,7.921-3.6c1.45-1.87,3.739-2.11,6.479-3.12c0.92-0.341,1.791-0.89,2.641-1.2
				c2.279-0.82,4.68-0.99,6.479-2.4c2.97,0.24,4.91-1.77,7.2-2.4c1.141-0.31,2.45-0.14,3.6-0.48c0.41-0.12,0.791-0.56,1.201-0.72
				c1.1-0.43,1.92-0.62,2.879-0.96c1.33-0.47,2.291-0.53,3.36-1.44c1.41-0.04,2.41-0.18,4.08-0.48c0.399-0.07,0.92,0.08,1.2,0
				c1.06-0.29,2.08-1.36,3.119-1.68c2.9-0.89,6.041-0.47,8.641-2.16c0.95,0.17,1.939,0.3,2.641,0.72
				c3.959-1.42,7.729-1.56,12.719-1.92c1.971-0.14,4.24-0.32,7.201-0.48c3.39-0.18,6.59,0.62,10.319,0.48
				c2.07-0.08,4.102,0.5,6,0.48c0.75-0.01,1.65-0.26,2.4-0.24c1.68,0.05,3.239,0.65,5.04,0.96c1.08,0.19,2.317,0.02,3.357,0.24
				c0.9,0.19,1.92,0.94,2.88,1.2c1.093,0.29,2.15,0.2,3.12,0.48c0.96,0.28,1.763,0.92,2.643,1.2c1.37,0.43,2.949,0.33,4.317,0.72
				c0.513,0.14,1.103,0.61,1.683,0.72c0.68,0.13,1.229,0.37,1.92,0c2.21,1.48,4.12,1.11,6.72,1.92c0.9,2.06,4.102,1.82,4.8,4.08
				c0.643,0,1.28,0,1.92,0c1.08,1,2.41,1.46,3.603,2.16c6.46,3.82,11.14,9.529,16.317,14.641c0.2,2.029,2.132,3.829,0.723,6
				c-2.12-0.121-3.21-1.271-4.32-2.4c-1.41-0.141-2.79-1.15-4.32-1.92c-1.448-0.73-3.21-1.051-4.317-2.16
				c-1.98,0.279-3.521-0.381-5.521-0.96c-0.56-0.16-1.02-0.62-1.438-0.72c-0.44-0.101-1.04,0.35-1.683,0.239
				c-0.18-0.03-0.39-0.409-1.198-0.479c-1.79-0.15-3.619,0.34-5.279-0.721c-1.221,0.391-2.8,0.32-4.562,0.24
				c-3.92-0.18-8.51,0.01-11.52,0.24c-1.05-0.25-0.79,0.811-1.681,0.721c-0.869-0.101-1.779-0.08-2.642,0
				c-0.31,0.029-0.59,0.42-0.96,0.479c-0.438,0.069-0.83-0.31-1.2-0.24c-1.647,0.319-3.277,0.88-5.04,1.44
				c-1.35,0.43-3.35,0.89-5.277,1.439c-2.65,0.75-5.54,1.641-8.4,2.4c-1.608,0.43-3.68,0.52-4.8,1.92c-1.5-0.49-1.79,0.27-2.64,0.96
				c-0.881-0.05-0.92-0.33-1.68,0c-2.07,1.63-4.73,2.46-6.961,4.08c-0.51,0.37-0.859,1.09-1.439,1.44
				c-0.641,0.389-1.461,0.34-2.16,0.719c-0.96,0.521-1.62,1.44-2.641,1.92c-1.09,0.511-2.399,0.621-3.359,1.201
				c-1.18,0.709-2.28,1.84-3.36,2.64c-1.19,0.88-2.399,1.58-3.12,2.88c-1.18,0.34-2.13,0.91-3.119,1.439
				c-4.58,3.82-8.181,8.621-12.48,12.721c-0.3,0.58-0.59,1.17-0.721,1.92c-2.719,1.29-3.049,4.65-4.56,6.96
				c-0.43,0.66-1.149,1.06-1.68,1.681c-0.25,0.289-0.2,0.909-0.479,1.199c-0.261,0.27-0.761,0.2-0.961,0.48
				c-0.899,1.24-1.02,2.77-2.64,3.359c-1.22,2.12-2.22,3.881-3.36,6.48c-0.209,0.479-0.57,0.699-0.72,1.199
				c-0.14,0.44-0.069,1.08-0.239,1.44c-0.23,0.5-0.961,0.74-1.201,1.2c-0.289,0.57-0.189,1.439-0.479,2.16
				c-0.44,1.1-1.521,1.91-1.2,3.84c-1.16,2.41-2.76,4.85-3.6,7.68c-0.66,2.221-0.881,4.65-1.44,6.96
				c-0.37,1.53-1.271,3.05-1.68,4.56c-1.33,4.9-2.41,9.951-3.841,14.4c0.33,1.34,0.24,2.301-0.479,3.12
				c0.13,5.62-0.03,11.29-0.239,16.8c-0.041,0.95-0.471,1.93-0.48,2.881c-0.01,0.68,0.42,1.18,0.48,1.92
				c0.069,0.869-0.34,1.68-0.24,2.399c0.189,1.421,1,2.671,1.199,4.08c0.15,1.04-0.09,2.13,0,3.12c0.211,2.35,0.791,4.88,1.44,6.96
				c0.649,2.09,1.479,3.12,1.92,6c0.14,0.91,0.761,1.63,0.96,2.4c0.16,0.6,0.11,1.327,0.24,1.92c0.3,1.34,0.91,3.02,1.439,4.317
				c1.07,2.65,2.391,5.29,3.36,8.16c0.92,2.74,2.21,5.25,3.36,7.92c1.14,2.66,2.08,5.521,3.6,7.92c0.811,1.28,1.551,2.33,2.16,3.603
				c0.609,1.27,1.029,2.6,1.68,3.84c0.711,1.359,1.87,2.188,2.641,3.359c0.59,0.891,0.82,1.971,1.439,2.881
				c3.37,4.93,7.2,9.56,11.76,12.72c0.851,2.03,3.09,2.67,4.08,4.56c3.61,1.592,6.2,4.2,9.121,6.48c2.75,2.37,6.979,3.26,9.6,5.76
				c0.89-0.17,1.029,0.41,1.92,0.24c0.65,0.71,1.46,1.26,2.16,1.92c0.42,0.14,1.41-0.29,1.439,0.24c1.85,1.27,4.48,1.76,6,3.357
				c2.642,0.74,5.38,2.021,8.88,3.12c2.07,0.65,5.15,1.04,8.16,1.44c0.97,0.13,2.16,0.24,3.12,0.479c0.84,0.21,1.56,0.83,2.399,0.96
				c1.398,0.223,2.601-0.21,3.841,0c1.13-0.17,0.949,0.973,1.68,1.2c2.32-0.17,4.24,1.28,6,0.24c1.05-0.25,0.79,0.81,1.68,0.72
				c2.643-0.87,5.78-0.18,7.92,0.24c3.53-0.85,6.842-0.79,11.04-1.2c0.802,0.08,0.91-0.53,1.44-0.72
				c0.689,0.359,1.67,0.57,1.92,0.72c1-0.77,2.17-0.29,3.36-0.479c0.46-0.07,0.93-0.61,1.438-0.723c0.54-0.118,1.16,0.12,1.682,0
				c0.591-0.13,1.068-0.31,1.681-0.479c0.569-0.16,1-0.61,1.438-0.72c0.49-0.12,1.132,0.38,1.683,0.237
				c0.43-0.107,0.59-0.647,0.96-0.72c0.89-0.16,1.62,0,2.397-0.24c0.96-0.29,3.91-1.647,4.802-2.397
				c0.438-0.37,0.398-1.03,0.961-1.2c1.51-0.21,2.76-0.312,3.84,0c0.278,2.28-0.521,3.479-0.96,5.04
				c-1.551,3.647-5.603,4.8-7.683,7.92c-1.35-0.312-1.05,1.03-2.397,0.72c-4.681,5-12.11,7.25-18,11.04
				C444.54,428.22,443.53,429.95,442,430.8z"/>
		</g>
	</g>
</g>
<g>
	<path fill="#262626" d="M481.56,238.6c0.39-0.067,0.414,0.228,0.723,0.24c1.549,2.283,0.978,5.27,1.2,7.92
		c0.131,1.571,1.268,3.102,0.237,5.28c0.873,1.233,0.54,2.854,0.723,5.04c0.271,3.327,0.89,6.761,1.197,10.08
		c0.12,1.285,0.074,2.322,0.24,3.6c0.729,5.588,0.885,11.471,0.24,17.52c-1.212,1.464-2.999,2.037-5.04,0.961
		c-0.891-1.352-1.722-2.758-3.36-3.36c-2.353-4.047-4.47-8.33-6.237-12.96c-0.248,1.314-0.209,3.18-0.24,4.801
		c-0.079,4.036,1.285,9.928-2.643,10.319c-1.938-2.015-1.168-5.224-1.197-8.64c-0.042-4.385,1.324-8.592,0.72-12.961
		c0.767-0.787,1.596-1.5,2.397-1.439c1.698,0.128,1.782,2.759,3.36,3.12c2.062,4.417,4.594,8.366,6.72,12.72
		C481.021,267.035,479.414,253.075,481.56,238.6z"/>
	<path fill="#262626" d="M449.64,246.279c0.604,1.252,0.269,2.781,0.24,4.32c-0.029,1.778,0.314,3.607,0.24,5.28
		c-0.035,0.78-0.493,1.47-0.48,2.16c0.047,2.53,0.733,4.97,0.48,7.44c-0.055,0.535-0.483,1.356-0.48,1.92
		c0.012,1.771,0.655,4.096,0.723,6.24c0.027,0.957-0.232,1.899-0.24,3.119c-0.021,2.985,0.853,6.617,0.72,9.36
		c-0.081,1.688-0.85,4.269-2.16,4.319c-3.562,0.139-2.179-11.988-2.397-15.359c-0.054-0.798-0.468-1.54-0.48-2.16
		c-0.111-5.541-0.154-12.906,0.48-18.24c0.104-0.888,0.611-1.768,0.72-2.64c0.32-2.633-0.318-4.894,1.68-6
		C448.894,246.227,449.222,246.298,449.64,246.279z"/>
	<path fill="#262626" d="M436.2,247.48c2.041,6.774,1.801,12.117,1.92,19.439c1.116,0.533,2.048,0.309,3.36,0.24
		c3.2,2.345,1.231,7.15-3.36,6.24c-0.534,2.053-0.086,5.129-0.24,8.64c-0.229,5.21,1.379,11.669-2.16,12.96
		c-1.552-0.743-0.873-2.268-0.96-3.84c-0.093-1.684-0.778-3.749-0.72-5.52c0.022-0.664,0.487-1.49,0.479-2.16
		c-0.03-2.688-0.973-6.529-0.239-9.84c-2.198-0.023-4.404,1.036-5.521-1.201c0.368-2.832,2.452-3.948,5.28-4.319
		c0.618-6.583-0.077-13.67,0.479-19.92c0.087-0.315,0.425-0.378,0.48-0.72C435.4,247.48,435.8,247.48,436.2,247.48z"/>
	<path fill="#262626" d="M366.6,249.4c0.951,0.936,0.512,2.375,0.721,3.6c0.146,0.865,0.617,1.594,0.72,2.4
		c0.155,1.229-0.147,2.604,0,3.84c0.396,3.308,0.979,7.333,0.479,11.76c2.194-1.406,2.959-4.241,5.521-5.279
		c1.308-2.054,2.812-3.91,5.28-4.801c1.191-1.929,2.691-3.548,4.56-4.8c0.71-1.53,0.86-3.62,3.12-3.601
		c0.579,0.951,0.409,1.85,0.24,2.881c-0.708,4.324-4.75,8.17-7.44,11.039c-1.878,2.004-3.704,3.988-5.28,6
		c1.668,0.584,4.34-0.313,6.24,0.961c2.828-1.069,6.051,0.43,9.12-0.24c1.841,1.295,2.921,4.578,2.64,7.199
		c-2.727-1.37-6.074,0.683-8.64-0.959c-2.21,1.515-4.714-0.264-7.2-0.24c-1.31,0.013-2.412,0.766-3.6,0.72
		c-0.453-0.018-0.482-0.262-1.2-0.479c-0.96-0.293-2.435-0.125-2.88-1.44c-0.969,2.144,0.27,5.253,0.24,8.16
		c-0.031,3.132,0.627,7.647-1.44,9.84c-3.015,0.29-4.831-1.343-5.28-4.319c-0.41-2.717,0.498-6.218,0.48-9.121
		c-0.032-5.646,0.472-15.695,0.48-21.119c0.006-4.567-0.758-10.377,1.92-12.24C366.078,248.962,366.021,249.498,366.6,249.4z"/>
	<path fill="#262626" d="M464.04,254.439c-0.738,3.263-3.026,4.975-6.24,5.761C452.67,256.854,461.051,249.71,464.04,254.439z"/>
	<path fill="#262626" d="M426.84,256.84c0.275,0.995-0.505,0.936-0.479,1.68c-2.856,1.498-4.283,4.18-7.92,4.32
		c-2.104-1.604-0.16-4.533,0.96-5.76c1.09-0.145,1.697-0.062,2.397-0.96C423.731,256.295,424.839,256.419,426.84,256.84z"/>
	<path fill="#262626" d="M460.44,261.641c1.726,0.848,0.835,2.604,0.96,4.319c0.042,0.582,0.397,1.306,0.479,1.92
		c0.513,3.91,0.119,8.979,0.24,12.96c0.061,1.989,0.738,3.893-0.72,5.04c-4.402,0.449-3.149-3.495-3.36-7.2
		c-0.038-0.662-0.47-1.216-0.48-1.92c-0.031-2.347,0.496-4.955,0.48-6.96c-0.021-2.606-0.138-5.506,1.2-7.44
		c0.134-0.346,0.374-0.584,0.72-0.719C460.12,261.641,460.28,261.641,460.44,261.641z"/>
	<path fill="#262626" d="M423.24,265c1.856,4.87,1.222,11.686,1.68,17.279c0.187,2.259,1.042,4.553,0.96,6.24
		c-0.06,1.219-0.854,3.957-2.397,4.08c-2.679,0.213-2.086-3.49-2.4-6.479c-0.082-0.779-0.452-1.529-0.48-2.16
		c-0.06-1.358,0.328-3.164,0.24-4.319c-0.053-0.697-0.393-1.253-0.479-1.921c-0.226-1.709,0.411-3.233,0.479-5.04
		c0.101-2.6-1.002-5.586,0.72-7.439C422.393,265.434,422.482,264.882,423.24,265z"/>
	<path fill="#262626" d="M415.08,288.279c-0.897,0.018-1.374-0.385-1.68-0.959c-1.238,0.533-1.653,1.943-2.883,2.64
		c-0.705,0.401-1.938-0.019-2.397,0.96c-4.129-0.658-8.198,0.928-10.08-2.4c-0.679-2.976-0.315-4.933,1.2-6.72
		c1.859,0.073,2.396-1.884,3.84-2.399c1.833-0.655,3.659,0.463,5.76-0.24c0.809,0.152,1.568,1.22,2.16,0.24
		c0.955,0.164,1.049,1.19,1.92,1.439c0.578-1.224-0.686-2.669-0.479-4.32c-2.474-2.703-3.907-7.539-10.081-5.76
		c-0.646,0.635-0.443,2.117-1.199,2.641c-1.835-0.95-2.213-3.566-1.2-5.041c0.438-0.635,1.983-1.894,2.88-2.159
		c1.377-0.41,2.838,0.354,3.84-0.24c1.625,0.375,2.248,1.752,4.08,1.92c0.371,0.511,0.691,1.07,0.96,1.681
		c1.831,2.021,4.514,5.502,5.04,9.6c0.113,0.876-0.108,1.785,0,2.64C417.033,283.911,417.587,286.96,415.08,288.279z M407.4,285.88
		c0.701-1.468,3.021-0.516,3.84-0.479c-2.146-2.151-6.995-1.545-9.602,0C403.682,285.846,405.521,285.061,407.4,285.88z"/>
	<path fill="#262626" d="M553.56,305.32c1.364,3.172,1.533,7.225,0.96,10.8c-0.259,1.62,0.432,2.879,0.48,4.56
		c0.02,0.642-0.398,1.192-0.48,1.92c-0.136,1.219,0.298,2.601,0.24,3.843c-0.111,2.554-0.586,5.279-0.479,8.157
		c0.197,5.332,0.896,11.232,0.237,15.36c-0.223,1.403-0.745,2.483-1.68,3.6c-3.426,0.154-3.111-5.456-3.12-9.117
		c-0.004-1.803,0.442-3.45,0-4.803c-1.015-0.084-1.839,1.244-3.357,1.44c-1.927,0.248-3.854-0.964-5.28-0.96
		c-1.788-2.427-3.875-5.589-3.36-9.36c0.102-0.729,0.867-2.183,1.44-3.357c0.492-1.013,1.021-2.562,1.438-3.12
		c0.778-1.043,3.979-2.614,6-2.4c1.146,0.121,1.897,1.029,3.12,1.44c0.941-2.132,0.196-4.787,0.48-7.683
		c0.066-0.693,0.467-1.304,0.479-1.92c0.062-2.969-0.618-6.364,1.2-8.64C552.659,304.941,552.996,305.244,553.56,305.32z
		 M549.24,327.88c-4.698-3.868-10.01,3.717-6,7.68c2.295,0.399,4.025-0.074,6.24,0.24
		C549.716,332.824,550.188,330.496,549.24,327.88z"/>
	<path fill="#262626" d="M448.68,320.44c-1.179-0.503-1.845-1.518-2.64-2.4c-2.14,0.38-2.964-0.556-4.08-1.2
		c-2.208,0.694-4.337-1.063-6,0.48c-2.865-0.388-3.62,1.34-5.76,1.68c-0.908,0.611-1.021,2.021-2.643,1.92
		c-0.521,1.317-1.128,2.552-2.397,3.12c-0.489,3.371-2.146,5.635-1.92,8.88c0.342,4.906,4.648,7.25,7.2,10.08
		c2.213-0.054,3.271,1.048,4.8,1.68c1.105-0.558,2.44-0.099,3.12,0.48c1.358-0.879,4.142-0.338,4.8-1.92
		c3.581-0.646,4.493-2.938,8.16-3.12c1.4,1.38,0.127,3.612-0.48,5.04c-2.143,1.616-4.213,3.307-6.72,4.56
		c-1.056,0.228-2.405,0.155-2.88,0.96c-1.312-0.507-3.587,1.089-4.562-0.479c-4.724,0.942-8.796-2.651-11.277-5.521
		c-0.779,0.142-1.117-0.163-1.683-0.237c-0.865-2.318-3.482-3.761-4.317-6.48c-2.063-6.718,1.133-14.245,3.357-18.479
		c1.385-0.696,2.146-2.02,2.88-3.36c1.693-0.787,2.91-2.05,4.802-2.64c0.771-1.23,2.455-2.158,4.078-1.2
		c1.056-0.21,2.089-0.741,4.08-0.48c0.938,0.122,2.291,0.156,3.603,0.48c0.667,0.165,0.968,0.669,1.68,0.96
		c1.064,0.436,2.243,0.348,2.88,0.72C448.535,314.996,450.808,318.533,448.68,320.44z"/>
	<path fill="#262626" d="M481.08,314.68c1.281,4.133,0.329,8.593,1.2,13.683c0.357,2.104,0.812,4.521,1.2,6.479
		c0.086,0.438,0.552,1.077,0.72,1.681c0.896,3.222,1.432,9.527-0.96,9.842c-3.453-1.107-4.896-4.228-7.44-6.24
		c-1.1-2.9-2.422-5.577-4.08-7.92c-0.22,4.622,3.076,10.646,0.723,15.12c-0.734-0.175-0.706,0.414-1.44,0.237
		c-2.177-1.789-1.392-5.335-1.68-8.64c-0.125-1.428-1.026-3.653-0.96-6c0.059-2.102,0.396-4.038,1.92-5.28
		c1.188,0.093,1.311,1.249,1.2,2.643c0.347,0.636,0.533-0.882,1.438-0.48c2.896,3.269,4.829,7.491,8.16,10.32
		c-0.706-2.279-0.727-5.977-1.44-9.84c-0.409-2.229-1.356-4.235-1.438-6.48C478.082,320.568,477.797,314.155,481.08,314.68z"/>
	<path fill="#262626" d="M522.36,336.28c1.979,1.342,7.283-0.379,9.6,1.2c2.19,1.491,0.606,3.708-1.44,4.8
		c-2.236-0.743-3.051-0.691-5.277,0c-2.047-1.221-4.167,0.371-6.24-0.96c-0.006,1.834,0.207,3.887-0.96,4.56
		c-2.764,0.166-2.887-3.03-3.36-5.76c-0.301-1.738-1.036-3.377-1.197-4.8c-0.238-2.065,0.008-4.186-1.44-5.28
		c-0.41-2.345,1.101-4.518,2.4-5.28c1.804-1.058,5.22-1.385,6.72-0.24c1.248,0.953,2.022,2.826,3.12,3.603
		C525.303,331.491,524.483,334.745,522.36,336.28z M520.2,333.88c2.912-3.139,0.272-7.967-4.08-6.72
		c-0.021,3.301,0.977,5.583,1.68,8.16C518.515,335.051,519.636,334.487,520.2,333.88z"/>
	<path fill="#262626" d="M460.2,338.68c-1.978-0.265-3.476-1.006-5.04-1.68c-0.437-1.325-1.351-2.172-2.4-2.88
		c-0.123-1.402-0.532-2.658-0.479-3.84c0.116-2.632,1.745-4.107,2.88-5.763c1.372-0.165,2.403-0.688,3.84,0.24
		c0.939,0.142,1.394-0.206,1.92-0.479c1.706,0.645,3.873,1.795,4.562,3.6c1.073,2.826-0.679,5.521-1.44,7.92
		C462.773,336.773,461.552,337.791,460.2,338.68z M458.76,327.4c-1.876-0.037-3.455,1.997-2.88,4.08
		c0.341,1.231,1.924,1.766,3.603,2.157c1.287-1.028,2.572-2.062,2.397-4.56C460.578,328.78,460.108,327.426,458.76,327.4z"/>
	<path fill="#262626" d="M504.36,334.84c-0.964-3.274-4.113-4.367-6.24-6.479c-2.787-0.427-4.328,0.113-6-1.683
		c0.006-1.192,0.739-1.66,1.2-2.397c2.371-0.608,3.479,0.416,5.76,0.479c1.8,1.722,4.378,2.662,6,4.562
		c1.491,3.36,4.691,7.578,2.88,12c-0.92,0.52-1.64,1.238-2.16,2.16c-3.614,1.391-7.336,1.092-10.8,0.96
		c-0.771,0.21-0.498-0.623-0.96-0.723c-0.64,0-1.28,0-1.92,0c-1.15-1.226-2.667-2.345-2.88-4.08
		c-0.515-4.165,3.268-7.711,7.438-7.92c0.907,0.945,2.07,0.158,2.88,1.2c0.733,0.174,0.875-0.245,1.44-0.24
		C501.398,334.122,503.444,333.916,504.36,334.84z M494.28,335.8c-0.418,1.263-1.946,1.414-2.16,2.88
		c3.503,3.136,8.163,1.311,12.72,1.683C502.821,337.386,499.035,335.283,494.28,335.8z"/>
</g>
</svg>
