<?xml version="1.0" encoding="utf-8"?>
<!-- Generator: Adobe Illustrator 14.0.0, SVG Export Plug-In . SVG Version: 6.00 Build 43363)  -->
<!DOCTYPE svg PUBLIC "-//W3C//DTD SVG 1.1//EN" "http://www.w3.org/Graphics/SVG/1.1/DTD/svg11.dtd">
<svg version="1.1" id="Layer_1" xmlns="http://www.w3.org/2000/svg" xmlns:xlink="http://www.w3.org/1999/xlink" x="0px" y="0px"
	 width="344.702px" height="108.263px" viewBox="227.651 245.32 344.702 108.263"
	 enable-background="new 227.651 245.32 344.702 108.263" xml:space="preserve">
<g>
	<path d="M290.561,248.68c0.586,0.422,0.566,1.447,0.239,2.16c0.333,0.553,0.058,1.083,0.24,1.92
		c0.043,0.201,0.228,0.235,0.239,0.48c0.027,0.488-0.346,1.035-0.239,1.92c0.076,0.636,0.226,0.488,0,1.439
		c-0.697,2.952-0.229,8.021-0.479,11.521c-0.026,0.356-0.195,0.774-0.24,1.2c-0.041,0.389,0.074,0.816,0,1.199
		c-0.006,0.035-0.229,0.043-0.24,0.24c-0.005,0.092,0.061,0.67,0,0.721c-0.266,0.217-0.122,0.328-0.24,0.72
		c-0.031,0.106-0.244,0.276-0.24,0.239c-0.056,0.496,0.236,1.199,0.24,1.681c0.003,0.387-0.188,0.709-0.24,1.2
		c-0.11,1.049-0.106,1.959-0.24,3.359c-0.016,0.172-0.295,0.266-0.239,0.48c0.019,0.072,0.252-0.001,0.239,0.24
		c-0.025,0.506-0.207,0.619-0.239,0.959c-0.021,0.218,0.062,0.514,0,0.721c-0.024,0.083-0.243,0.312-0.24,0.24
		c-0.015,0.428,0.3,0.51,0.24,0.959c-0.085,0.644-0.433,1.274-0.479,1.921c-0.152,2.049,0.088,4.004-0.24,6
		c-0.098,0.598-0.465,1.329-0.48,1.92c-0.018,0.698,0.298,1.465,0.24,2.159c-0.061,0.712-0.34,1.037-0.48,1.681
		c-0.066,0.306,0.055,0.651,0,0.96c-0.076,0.428-0.337,1.078-0.24,2.16c0.028,0.312,0.252,0.818,0.24,1.199
		c-0.018,0.564-0.414,1.115-0.479,1.681c-0.064,0.549,0.266,1.069,0.239,1.681c-0.012,0.281-0.447,0.688-0.239,1.439
		c0.405,0.537,0.599-0.559,0.96-0.721c0.122-0.057,0.371,0.074,0.48,0c0.276-0.188,0.476-0.528,0.719-0.722
		c0.084-0.063,0.416,0.08,0.48,0c0.059-0.069,0.171-0.438,0.24-0.479c0.088-0.054,0.418,0.073,0.48,0
		c0.022-0.028-0.031-0.228,0-0.24c0.086-0.041,0.422,0.069,0.479,0c0.022-0.026-0.028-0.228,0-0.24
		c0.336-0.153,0.623-0.063,0.96-0.237c0.139-0.072,0.125-0.396,0.24-0.48c0.085-0.062,0.414,0.08,0.48,0
		c0.107-0.133,0.475-0.311,0.959-0.479c0.67-0.011,0.898-1.399,1.68-1.44c0.545-0.029,1.246-1.188,2.16-1.2
		c0.551-0.329,0.771-0.988,1.201-1.439c0.346-0.14,0.616-0.07,0.959-0.24c0.252-0.125,0.295-0.358,0.48-0.48
		c1.049-0.688,2.32-1.419,3.119-2.64c1.35-0.157,2.395-0.992,3.361-1.681c0.238-0.17,0.49-0.289,0.719-0.479
		c0.072-0.06,0.175-0.45,0.24-0.479c0.118-0.054,0.377,0.074,0.48,0c0.082-0.061,0.167-0.447,0.24-0.48
		c0.123-0.055,0.369,0.074,0.479,0c0.089-0.059,0.163-0.445,0.24-0.48c0.454-0.205,0.782-0.18,1.2-0.479
		c0.083-0.06,0.166-0.446,0.24-0.479c0.111-0.051,0.387,0.075,0.479,0c0.429-0.351,0.763-0.856,1.2-1.201
		c0.441-0.346,0.902-0.635,1.439-0.959c0.096-0.059,0.158-0.443,0.24-0.48c0.364-0.164,0.791-0.247,1.439-0.24
		c0.332,0.336,0.302,0.969,0,1.44c-0.125,0.198-0.225,0.72-0.479,1.2c-0.065,0.123-0.226-0.029-0.239,0.24
		c-0.021,0.381-0.551,0.557-0.721,0.719c-0.447,0.431-1.265,1.293-1.92,1.921c-0.212,0.202-0.492,0.282-0.72,0.479
		c-0.194,0.168-0.279,0.572-0.48,0.721c-0.409,0.302-0.991,0.354-1.44,0.72c-0.4,0.327-0.752,0.817-1.199,1.2
		c-0.398,0.341-0.812,0.644-1.2,0.959c-1.696,1.38-3.321,2.879-5.04,4.32c-0.051,0.043-0.46,0.195-0.48,0.239
		c-0.043,0.101,0.074,0.406,0,0.479c-0.074,0.076-0.414-0.08-0.479,0c-0.071,0.088-0.153,0.418-0.239,0.479
		c-0.277,0.198-0.666,0.055-0.961,0.24c-0.154,0.098-0.296,0.35-0.48,0.479c-0.082,0.062-0.165,0.446-0.239,0.479
		c-0.113,0.051-0.386-0.076-0.479,0c-0.194,0.155-0.281,0.585-0.48,0.72c-0.284,0.193-0.664,0.053-0.96,0.24
		c-0.14,0.089-0.318,0.354-0.479,0.48c-0.552,0.43-0.834,0.942-1.44,1.438c-0.31,0.253-0.656,0.486-1.2,0.72
		c-0.202,0.087-0.457,0.12-0.721,0.24c-0.143,0.065-0.362,0.43-0.479,0.48c-0.133,0.057-0.339-0.035-0.479,0
		c-0.428,0.104-1.357,1.025-1.92,1.438c-0.127,0.094-0.361,0.13-0.48,0.24c-0.441,0.41-1.027,0.941-1.2,1.68
		c-0.454,0.506-1.381,0.539-1.68,1.2c-0.501,0.754,0.218,1.339-0.24,1.92c-0.116,0.916,0.068,1.532,0.479,1.92
		c0.031,0.53,1.019,0.104,1.44,0.24c1.22,0.877,3.441,0.479,5.04,0.96c0.074,0.021,0.01,0.229,0.24,0.24
		c0.339,0.018,0.682-0.069,0.72,0.238c0.668-0.564,1.488-0.117,2.16,0c0.306,0.056,0.663-0.077,0.96,0
		c0.49,0.132,0.768,0.392,1.2,0.479c0.155,0.032,0.405-0.297,0.72-0.24c-0.136-0.022,0.262,0.255,0.24,0.24
		c0.062,0.042,0.5,0.484,0.48,0.479c0.181,0.036,0.551-0.382,0.959-0.238c-0.066-0.023,0.226,0.229,0.24,0.238
		c0.232,0.154,0.379,0.154,0.721,0.239c0.379,0.096,0.959,0.609,1.439,0.961c1.034-0.363,2.156-0.346,3.12,0
		c0.091,0.032-0.003,0.229,0.239,0.239c0.494,0.026,1.185-0.075,1.681,0.24c0.22,0.139,0.153,0.385,0.479,0.479
		c0.318,0.093,1.062-0.105,1.44,0c0.068,0.021,0.015,0.229,0.24,0.239c0.245,0.014,0.856,0.36,1.68,0.24
		c0.444-0.064,0.621-0.387,1.2,0c0.294,0.195,0.542,0.086,0.96,0.239c0.683,0.25,1.202,0.622,1.681,0.96
		c0.965-0.165,1.369,0.229,2.159,0.239c0.704,0.018,0.892,0.549,1.2,0.96c0.68,0.04,1,0.439,1.68,0.479
		c0.055,0.315,0.463,0.376,0.48,0.72c0.017,0.329,0.691,0.383,0.96,0.722c0.198,0.25,0.298,0.641,0.479,0.96
		c0.155,0.271,0.578,0.57,0.48,0.96c-0.877,0.607-1.771-0.292-2.4,0.479c-1.039-0.202-1.945-0.665-2.64,0
		c-0.896,0.257-0.685-0.596-1.44-0.479c-0.717,0.037-1.068,0.283-1.68,0.239c-0.941-0.067-1.671-0.971-2.641-0.479
		c-0.233-0.245-0.475-0.485-0.719-0.722c-0.927,0.328-1.433-0.35-2.16-0.479c-0.49-0.088-0.918,0.021-1.44,0
		c0.039,0.002-0.099-0.232-0.239-0.239c-0.193-0.011-0.383,0.272-0.721,0.239c0.011,0.001-0.076-0.231-0.24-0.239
		c-0.21-0.012-0.375-0.244-0.72-0.24c-0.215,0.003-0.541,0.397-0.96,0.24c-0.294-0.365-0.573-0.285-0.96-0.479
		c-0.271-0.139-0.529-0.568-0.96-0.48c-0.957-0.206-1.773,0.359-2.16,0c-0.756,0.113-1.32-0.544-1.92-0.72
		c-0.582-0.171-1.271-0.123-1.92-0.24c0.029,0.006-0.126-0.211-0.24-0.239c-0.264-0.064-0.876,0.045-1.439,0
		c-0.271-0.37-0.689-0.591-0.961-0.96c-0.651,0.349-1.293,0.145-1.92,0c-0.047-0.011-0.031-0.229-0.24-0.238
		c-0.629-0.033-1.008-0.026-1.439-0.48c-0.447-0.229-0.802,0.719-0.96,0c-0.767,0.308-0.853-0.572-1.44-0.72
		c-0.158-0.039-0.865,0.113-0.959,0c-0.34-0.416-1.617-0.473-2.4-0.96c-0.674,1.167,0.093,2.27-0.24,3.6
		c-0.023,0.096-0.24,0.312-0.24,0.24c0,0.189,0.232,0.243,0.24,0.479c0.044,1.409-0.122,2.677-0.24,4.319
		c-0.011,0.15,0.036,0.335,0,0.479c-0.065,0.266-0.312,1.192-0.479,1.921c-0.066,0.286,0.106,0.688,0,0.96
		c-0.08,0.203-0.421,0.156-0.479,0.479c-0.027,0.148,0.197,1.277,0,1.439c-0.162,0.131-0.316,0.371-0.24,0.72
		c0.01,0.045,0.473,0.771,0.24,0.96c-0.029,0.023-0.227-0.029-0.24,0c-0.041,0.088,0.069,0.423,0,0.48
		c-0.402,0.328-0.373,2.472-0.48,3.358c-0.037,0.302-0.201,0.466-0.24,1.199c-0.021,0.398,0.016,0.801,0,1.2
		c-0.009,0.244-0.271,0.511-0.24,0.96c0-0.024,0.232,0.087,0.24,0.239c0.031,0.598-0.091,1.05-0.24,1.681
		c-0.203,0.858-0.037,2.198-0.239,3.601c-0.001,0.013-0.23,0.062-0.24,0.239c-0.044,0.841-0.339,2.186-1.2,2.4
		c-0.97,0.242-1.357-0.488-2.16-0.722c-0.25-0.396-0.373-0.771-0.479-1.199c-0.265-1.06-0.183-1.847,0-3.119
		c0.044-0.312-0.056-0.649,0-0.96c0.041-0.233,0.243-0.358,0.239-0.722c-0.006-0.729-0.396-1.422-0.479-2.159
		c-0.062-0.549-0.017-1.281,0-1.92c0.011-0.363,0.267-0.439,0.24-0.721c0.001,0.015-0.231-0.079-0.24-0.24
		c-0.004-0.077-0.003-0.161,0-0.238c0.063-1.413,0.082-3.193,0.479-4.32c0.021-0.054,0.195-0.062,0.24-0.239
		c0.103-0.408,0.077-0.762,0.24-1.438c0.251-1.042,0.127-3.39,0.48-4.801c0.191-0.771,0.396-0.983,0.479-2.159
		c0.011-0.149-0.036-0.335,0-0.479c0.025-0.101,0.241-0.303,0.24-0.24c0.01-0.568-0.274-1.054-0.24-1.681
		c0.04-0.7,0.188-1.44,0.24-2.159c0.049-0.695,0.166-0.539,0-1.199c-0.032-0.131-0.011-0.347,0-0.479
		c0.135-1.677,0.897-3.426,0.479-5.04c0.543-0.406,0.344-1.121,0.48-1.68c0.001-0.005,0.205-0.103,0.24-0.24
		c0.037-0.15-0.034-0.328,0-0.479c0.136-0.606,0.146-1.382,0.24-2.641c0.035-0.475,0.242-1.018,0.239-1.438
		c-0.006-0.93-0.258-1.712-0.239-2.642c0.015-0.759,0.17-1.451,0.239-2.158c0.039-0.396-0.057-0.81,0-1.201
		c0.121-0.83,0.378-2.68,0.72-3.838c0.09-0.306,0.211-0.465,0.24-0.721c0.061-0.541-0.26-1.186-0.24-1.68
		c0.022-0.549,0.399-1.157,0.48-1.68c0.088-0.568-0.052-1.066,0-1.681c0.146-1.703,0.232-4.657,0.48-6.72
		c0.009-0.072-0.049-0.439,0-0.48c0.509-0.416-0.064-1.154,0.24-2.16c0.062-0.211,0.162-0.896,0.239-1.68
		c0.069-0.693,0.134-0.795,0.24-1.68c0.009-0.072-0.05-0.439,0-0.48c1.047-0.855,0.386-6.266,0.96-7.92
		c0.031-0.088,0.229,0.001,0.24-0.24c0.014-0.275,0.01-0.43,0.24-0.479c-0.514-1.649,0.131-3.438,0.479-5.28
		c0.044-0.23-0.05-0.49,0-0.72c0.044-0.201,0.209-0.237,0.239-0.479c0.217-1.707,0.02-3.375,0.24-4.801
		c0.09-0.576,0.321-1.316,0.48-1.92c0.143-0.54,0.406-1.163,0.48-1.68c0.021-0.141,0.09-1.125,0-1.2c-0.226-0.185-0.066-0.362,0-1.2
		c0.016-0.201,0.239-0.234,0.239-0.479c0-0.197-0.263-0.235-0.239-0.48c-0.002,0.014,0.23-0.078,0.239-0.24
		c0.017-0.307-0.058-0.658,0-0.959c0.132-0.686,0.646-1.223,0.479-1.92c0.085-0.316,0.423-0.378,0.48-0.721
		C289.92,248.68,290.24,248.68,290.561,248.68z"/>
	<path d="M394.721,251.08c0.311,1.582,0.366,3.107,0.239,4.8c-0.067,0.911-0.397,1.897-0.479,2.88c-0.076,0.9,0.07,1.695,0,2.641
		c-0.201,2.65-0.48,7.252-0.24,10.56c0.064,0.897,0.39,1.501,0.24,2.64c-0.102,0.768-0.172,1.459,0,2.881
		c0.039,0.332,0.436,1.065,0.239,1.92c1.913-0.029,3.438,0.139,4.8-0.24c0.073-0.021,0.006-0.24,0.24-0.24
		c0.135,0,0.317,0.223,0.24,0.24c0.822-0.189,1.01-0.493,1.68-0.48c0.767,0.014,1.344,0.147,2.16,0.48c0.224-0.053,0.5,0.066,0.72,0
		c0.372-0.113,0.384-0.367,1.2-0.48c0.949-0.132,2.271-0.16,3.12,0c0.317,0.061,0.462,0.248,0.96,0.48
		c0.115,0.054-0.021,0.227,0.24,0.24c0.998,0.053,1.636,0.408,1.92,1.439c-0.512,0.528-1.517,0.562-2.4,0.721
		c-0.188,0.369-0.809,0.345-1.197,0.479c-0.09,0.03,0,0.228-0.24,0.24c-0.091,0.005-0.67-0.062-0.72,0
		c-0.362,0.442-0.466-0.044-1.44,0c0.037-0.001-0.096,0.231-0.24,0.239c-0.686,0.037-2.354,0.219-3.357,0
		c-0.188-0.041-0.246-0.256-0.48-0.239c-0.373,0.026-0.753,0.381-1.2,0.479c-0.304,0.068-0.654-0.07-0.96,0
		c-1.125,0.266-3.505,0.603-4.8,0.24c-0.737,0.666-0.585,1.643-0.72,2.641c-0.124,0.914-0.235,1.953-0.24,2.879
		c-0.005,0.892,0.213,1.772,0.24,2.641c0.02,0.607-0.232,1.068-0.24,1.68c-0.007,0.561,0.246,1.174,0.24,1.68
		c-0.012,1.067-0.479,1.912,0.24,2.881c-0.133,0.427-0.125,0.996-0.48,1.199c0.523,0.93,0.303,1.916,0.48,3.36
		c0.188,1.53,0.36,4.476,0.24,6.72c-0.017,0.303,0.067,0.669,0,0.96c-0.111,0.476-0.277,0.441,0,1.2
		c0.127,0.354,0.332,0.817,0.239,1.682c-0.024,0.229-0.226,0.171-0.239,0.238c-0.053,0.261,0.238,0.185,0.239,0.24
		c0.011,0.627,0.005,1.143,0,1.68c-0.004,0.362-0.239,1.074-0.239,1.44c0,0.604,0.297,1.037,0.239,1.438
		c-0.069,0.481-0.308,0.971-0.479,1.44c-0.162,0.438-0.225,0.86-0.48,1.2c0.051,0.784,0.289,1.219,0.48,1.92
		c0.067,0.25-0.033,0.45,0.24,0.479c-0.582,0.457,0.012,1.191,0,1.922c-0.008,0.366-0.199,0.817-0.24,1.198
		c-0.051,0.469,0.035,1.067,0,1.44c-0.084,0.896,0.026,1.858-0.48,2.397c0.104,0.619,0.589,1.417,0.721,2.16
		c-0.014-0.071-0.27,0.098-0.24,0.24c0.008,0.042,0.234,0.031,0.24,0.24c0.01,0.428-0.166,0.993-0.24,1.438
		c-0.197,1.185-0.225,2.385,0,4.08c0.045,0.345,0.244,0.449,0.24,0.723c-0.013,0.631-0.408,1.322-0.48,1.92
		c-0.127,1.036,0.326,2.275,0,3.357c-0.035,0.116-0.244,0.267-0.24,0.24c-0.025,0.184,0.301,0.249,0.24,0.479
		c-0.014,0.053-0.221,0.034-0.24,0.238c-0.052,0.519,0.044,0.991,0,1.44c-0.05,0.51-0.165,0.604-0.24,0.96
		c-0.113,0.541-0.189,1.035-0.479,1.438c-2.346,0.348-3.194-0.806-4.08-1.92c0.236-1.354-0.159-2.314,0-4.08
		c0.035-0.401,0.24-0.797,0.24-1.197c-0.002-0.944-0.289-1.912-0.24-2.881c0.02-0.391,0.117-0.712,0.24-1.199
		c0.05-0.2,0.216-0.236,0.24-0.48c0.024-0.249-0.24-0.483-0.24-0.479c0.136-0.791,0.468-1.411,0.479-2.16
		c0.022-1.416-0.848-3.029,0.24-4.32c-0.192-0.448-0.401-0.879-0.479-1.438c0.502-1.122,0.457-1.94,0.239-3.603
		c-0.114-0.873-0.414-1.688-0.239-2.88c0.047-0.325,0.256-0.469,0.239-0.72c-0.04-0.62-0.501-1.258-0.479-1.92
		c0.024-0.772,0.488-1.604,0.479-2.4c-0.008-0.789-0.413-1.607-0.479-2.398c-0.129-1.51,0.379-3.095,0.24-5.04
		c-0.179-2.484-0.23-6.62,0-10.081c0.049-0.744,0.233-1.414,0.239-2.16c0.007-0.83-0.229-1.612-0.239-2.4
		c-0.009-0.585,0.188-1.052,0.239-1.68c0.242-2.959-0.132-6.008,0.24-8.881c-0.126-0.457-0.392-0.039-0.479,0
		c-0.087,0.037-0.426-0.067-0.48,0c-0.286,0.35-0.559,0.312-1.44,0.48c-0.288,0.055-0.139-0.22-0.239-0.24
		c0.082,0.018-0.72,0.239-0.721,0.24c-0.285,0.35-0.814,0.062-1.68,0.24c-0.725,0.148-1.518,0.449-2.16,0.72
		c-0.35-0.131-1.24,0.28-1.2-0.239c-1.004,0.578-1.622,0.625-3.36,0.719c-0.211,0.013-0.519-0.061-0.719,0
		c-0.088,0.027-0.307,0.244-0.24,0.24c-0.521,0.026-0.617-0.231-0.961-0.24c-0.431-0.01-0.504,0.255-0.959,0.24
		c-0.662-0.021-1.236-0.381-1.92-0.479c0.082,0.012-0.373,0.233-0.48,0.239c-0.442,0.025-0.715-0.152-0.96-0.479
		c-0.854,0.373-0.146-0.815-0.72-0.72c0.281-0.839,0.511-1.729,1.92-1.439c0.105,0.348,0.211-0.024,0.479,0
		c1.688-0.822,3.623-0.068,5.521-0.721c0.386-0.132,0.793-0.331,1.199-0.48c0.094-0.033-0.004-0.227,0.24-0.239
		c0.289-0.015,0.684,0.079,0.96,0c0.763-0.222,1.481-0.628,2.16-0.72c0.845-0.115,1.618,0.141,2.399,0
		c0.727-0.131,0.945-0.189,1.44-0.721c1.29,0.17,2.052-0.189,2.88-0.48c-0.072-1.104-0.271-2.02-0.24-3.119
		c0.023-0.831,0.24-1.583,0.24-2.4c0-1.431-0.34-2.923-0.24-4.32c0.084-1.152,0.386-2.086,0.24-3.6c-0.097-1.006-0.187-1.761,0-3.12
		c0.09-0.649,0.182-1.28,0.24-1.92c0.176-1.905,0.076-3.549,0.48-5.28c0,0.002,0.207-0.104,0.24-0.24
		c0.039-0.158-0.115-0.866,0-0.959c0.439-0.36,0.291-1.908,0.479-2.881c0.006-0.033,0.229-0.041,0.239-0.24
		c0.016-0.275,0.011-0.428,0.24-0.479c0.127-0.192,0.25-0.39,0.24-0.72C393.625,250.734,394.145,250.936,394.721,251.08z"/>
	<path d="M270.641,279.641c0.086,0.443-0.137,0.916-0.48,1.199c-0.083,0.068-0.414-0.081-0.48,0c-0.022,0.028,0.03,0.227,0,0.24
		c-0.087,0.041-0.423-0.07-0.479,0c-0.023,0.027,0.028,0.227,0,0.24c-0.206,0.096-0.87,0.146-1.2,0.24
		c-0.533,0.149-0.842,0.119-1.2,0.239c-0.292,0.099-0.429,0.341-0.72,0.479c-0.469,0.226-0.521,0.072-1.2,0.24
		c-0.321,0.082-1.239,0.543-1.92,0.721c-0.149,0.039-0.33-0.038-0.479,0c-0.182,0.045-0.193,0.228-0.24,0.24
		c-0.723,0.18-1.822,0.037-2.4,0.479c-0.17,0.13-0.162,0.493-0.48,0.479c-1.082-0.476-2.658,0.814-3.84,0.24
		c-0.752-0.113-0.634,0.646-1.199,0.721c-0.381,0.074-0.826-0.1-1.2,0c-0.448,0.119-0.519,0.252-0.96,0.479
		c-0.123,0.063,0.027,0.226-0.24,0.24c-0.09,0.005-0.67-0.062-0.721,0c-0.229,0.28-0.355,0.067-0.719,0.239
		c-0.109,0.053-0.151,0.44-0.24,0.48c-0.363,0.165-0.676,0.129-0.961,0.24c-0.639,0.25-1.303,0.457-1.92,0.72
		c-0.086,0.037-0.424-0.067-0.479,0c-0.188,0.231-0.181,0.343-0.479,0.479c-0.547,0.253-1.17,0.305-1.681,0.721
		c-0.396,0.322-1.212,0.555-1.68,1.2c-0.427-0.144-0.997,0.702-1.2,0c-0.589-0.017-0.742,1.163-1.439,1.2
		c-0.049,0.002-0.201-0.025-0.24,0c-0.243,0.158-0.535,0.625-0.721,0.72c-0.375,0.19-0.662,0.056-0.959,0.239
		c-0.131,0.082,0.035,0.227-0.24,0.24c-0.293,0.016-0.818,0.688-1.2,0.961c-0.086,0.061-0.416-0.08-0.479,0
		c-0.188,0.229-0.24,0.295-0.48,0.479c-0.078,0.06-0.169,0.448-0.24,0.479c-0.501,0.227-0.542,0.162-0.96,0.721
		c-0.344,0.46-0.584,0.789-1.2,1.199c-0.121,0.082-0.291-0.002-0.24,0.24c-0.246,1.446,0.539,1.862,0.961,2.641
		c0.494-0.152,0.973,0.115,1.439,0.24c0.062,0.017,0.02,0.229,0.24,0.239c0.283,0.015,0.691-0.085,0.96,0
		c0.079,0.025,0.006,0.228,0.239,0.24c0.102,0.005,0.523,0.169,0.721,0.239c0.384,0.139,0.807,0.056,0.96,0.48c0.399,0,0.8,0,1.2,0
		c0.842-0.042,0.789,0.811,1.439,0.961c0.758,0.117,0.848-0.434,1.68-0.24c0.154,0.457,0.627,0.336,0.961,0.479
		c0.38,0.165,0.63,0.252,0.96,0.479c0.224,0.153,0.399,0.416,0.72,0.479c1.285-0.423,2.405-0.193,3.6,0.24
		c0.094,0.031-0.004,0.227,0.24,0.238c0.536,0.027,0.969,0.035,1.2,0.479c0.875-0.339,1.703-0.305,2.64,0
		c0.082,0.026,0.004,0.228,0.24,0.24c0.703,0.036,2.021,0.103,2.4,0.72c0.457-0.104,0.603-0.518,1.199-0.479
		c0.49,0.24,0.713,0.058,1.44,0.238c0.138,0.034,0.251,0.241,0.24,0.239c0.396,0.052,0.407-0.239,0.72-0.239
		c0.202,0,0.378,0.26,0.721,0.239c0.34-0.021,0.856-0.274,1.199-0.239c0.604,0.063,0.395,0.351,0.96,0.479
		c0.216,0.05,1.489-0.231,1.681,0c0.168,0.206,0.17,0.405,0.479,0.479c0.72,0.172,1.16-0.105,1.681,0.239
		c0.449,0.302,1.187,0.702,2.159,0.72c0.367,0.833,1.204,1.196,2.16,1.44c0.283,0.835,1.351,1.476,1.92,2.4
		c0.13,0.21,0.466,0.45,0.479,0.72c0.017,0.302,0.414,0.31,0.48,0.479c0.077,0.196-0.142,0.818,0,0.96
		c0.254,0.257,0.133,0.612,0.24,1.44c0.098,0.755,0.434,3.113,0.24,4.32c-0.153,0.947-0.799,1.697-0.961,2.64
		c-0.213,0.188-0.541,0.258-0.959,0.24c-0.118,0.642-0.725,1.153-1.2,1.68c-0.188,0.206-0.399,0.421-0.72,0.72
		c-0.055,0.053-0.457,0.189-0.48,0.24c-0.035,0.079,0.064,0.437,0,0.48c-0.193,0.139-0.523,0.153-0.72,0.237
		c-0.316,0.138-0.526,0.372-0.96,0.48c-0.398,0.1-0.531,0.195-0.961,0.24c-0.355,0.202-0.346,0.771-0.479,1.198
		c-1.071,0.186-1.792,0.577-2.64,0.96c-0.092,0.04-0.032,0.188-0.24,0.239c-0.479,0.12-0.615,0.075-0.96,0.24
		c-0.161,0.078-0.343,0.404-0.479,0.479c-0.088,0.05-0.42-0.073-0.48,0c-0.189,0.23-0.514,0.271-0.96,0.238
		c-0.046,0.272-0.241,0.134-0.24,0c-0.423,0.218-0.743,0.537-0.96,0.96c-1.017-0.407-0.904,0.123-1.68,0.48
		c-0.215,0.1-0.479-0.06-0.48,0.239c-0.479,0-0.959,0-1.439,0c-0.703,0.179-1.18,0.58-1.68,0.96c-0.707,0.14-1.408,0.08-2.16,0.239
		c-0.041,0.009-0.036,0.229-0.24,0.239c-0.652,0.034-0.906,0.055-1.68,0.24c-0.08,0.019-0.435-0.059-0.48,0
		c-0.378,0.462-0.236,0.363-1.2,0.479c-0.071,0.009-0.438-0.05-0.479,0c-0.09,0.108-0.784,0.452-1.2,0.479
		c0.071-0.005-0.124-0.386-0.24-0.24c-0.342,0.429-0.692-0.069-1.44,0c-0.637,0.061-1.28,0.479-1.92,0.48
		c-0.719,0.003-1.196-0.125-2.16-0.24c-0.071-0.009-0.438,0.049-0.479,0c-0.22-0.271-0.832-0.215-1.68-0.24
		c0.044,0.002-0.103-0.231-0.24-0.239c-0.183-0.01-0.394,0.251-0.72,0.239c-0.532-0.018-0.805-0.43-1.68-0.239
		c-0.201,0.043-0.235,0.226-0.48,0.239c-0.396,0.025-0.405-0.226-0.721-0.239c-0.187-0.009-0.948,0.548-1.199,0.239
		c-0.023-0.026,0.029-0.226,0-0.239c-0.087-0.042-0.424,0.069-0.48,0c-0.339-0.415-1.388,0.017-1.92-0.479
		c-0.047-0.044-0.201-0.467-0.24-0.479c-0.338-0.118-0.881,0.16-1.199,0c-0.12-0.061,0.027-0.227-0.24-0.238
		c-0.096-0.006-0.385-0.402-0.48-0.48c-0.353-0.291-1.037-0.495-1.439-0.96c-0.184-0.213-0.16-0.643-0.48-0.72
		c-0.244-0.831,1.174-0.154,1.44-0.48c0.022-0.025-0.03-0.226,0-0.238c0.087-0.042,0.423,0.068,0.479,0
		c0.176-0.215,1.45-0.604,2.4-0.479c0.652-0.309,1.17-0.75,1.92-0.96c0.596-0.035,1.165-0.045,1.2,0.479
		c0.739,0.18,0.461-0.658,1.2-0.479c0.766-0.206,0.742,0.378,1.199,0.479c0.563-0.076,0.901-0.381,1.681-0.239
		c0.737,0.062,1.079,0.521,1.68,0.72c1.29,0.255,2.149-0.451,3.601-0.24c0.324,0.048,0.47,0.257,0.72,0.24
		c0.339-0.022,0.769-0.462,1.2-0.479c0.365-0.017,0.447,0.286,0.72,0.238c0.521-0.09,0.458-0.426,0.96-0.479
		c0.381-0.041,1.023-0.18,1.439,0.239c0.451-0.234,0.541-0.479,1.201-0.722c-0.164,0.062,0.184,0.24,0.239,0.24
		c0.261,0,0.451-0.393,0.72-0.479c0.816-0.269,2.021-0.112,2.641-0.96c0.316,0.166,0.609,0.089,0.96,0
		c0.056-0.015,0.024-0.229,0.239-0.238c0.492-0.026,0.787,0.025,1.201-0.24c0.133-0.086-0.039-0.227,0.239-0.24
		c0.247-0.013,0.826-0.303,1.2-0.479c0.115-0.057-0.023-0.229,0.24-0.24c0.09-0.005,0.67,0.062,0.72,0
		c0.078-0.097,0.418-0.509,0.72-0.72c0.68-0.198,0.622,0.338,1.2,0.237c0.297-0.021,0.319-0.317,0.479-0.479
		c0.039-0.039,0.478-0.479,0.48-0.48c0.256-0.102,0.727,0.143,0.96,0c0.361-0.217,0.646-0.709,0.96-0.96
		c0.319-0.254,0.866-0.07,0.96-0.72c0.578,0.099,0.522-0.438,1.2-0.24c0.712-0.646,1.553-1.167,2.4-1.68
		c0.039-0.68,0.439-1,0.479-1.68c0.412-0.47,1.033-0.729,1.2-1.44c-0.275-0.491-0.083-1.063-0.24-1.438
		c-0.27-0.646-0.964-1.006-1.439-1.439c-0.238-0.217-0.485-0.479-0.721-0.72c-0.25-0.257-0.652-0.336-0.72-0.723
		c-1.241,0.121-1.478-0.763-2.88-0.479c0.044-0.204-0.094-0.229-0.24-0.24c-0.667,0.204-0.632-0.688-1.199-0.72
		c-0.277-0.016-0.431-0.011-0.48-0.24c-1.494,0.192-2.717-0.232-4.08-0.479c-0.698-0.128-1.542-0.113-2.16-0.24
		c-0.552-0.114-0.419-0.338-0.96-0.48c-0.679-0.179-1.655,0.261-2.16-0.479c-1.135,0.479-2.729,0.028-3.12-0.96
		c-0.68,0.04-1,0.438-1.68,0.479c-0.27-0.449-0.93-0.51-1.2-0.96c-1.021,0.628-1.942,0.035-3.12-0.239
		c-0.719-0.168-1.693-0.168-2.16-0.479c-0.412-0.275-1.56-0.52-2.64-0.48c-0.235-0.322-0.64-0.479-0.96-0.72c-0.561,0-1.12,0-1.68,0
		c-0.19-0.851-1.795-0.284-1.68-1.438c-0.684-0.051-1.561-0.155-2.16-0.479c-0.209-0.112-0.422-0.724-0.721-0.96
		c-0.082-0.064-0.414,0.08-0.479,0c-0.122-0.148-0.392-0.35-0.479-0.479c-0.06-0.088,0.077-0.416,0-0.479
		c-0.029-0.022-0.227,0.03-0.24,0c-0.043-0.087,0.069-0.423,0-0.479c-0.432-0.353-0.574-1.19-0.48-2.398
		c0.096-1.236,0.176-2.361,0.48-3.359c0.01-0.033,0.199-0.08,0.24-0.24c0.16-0.645,0.646-1.041,1.199-1.68
		c0.124-0.144-0.033-0.227,0.24-0.24c0.624-0.033,1.324-1.36,1.68-1.681c0.898,0.175,1.283-0.419,1.92-0.96
		c0.322-0.271,0.692-0.779,0.961-0.96c0.303-0.204,0.698-0.052,0.959-0.239c0.205-0.147,0.211-0.338,0.48-0.48
		s0.475-0.126,0.72-0.24c0.095-0.044,0.028-0.188,0.24-0.24c0.149-0.037,0.327,0.029,0.479,0c0.39,0.008,0.498-0.537,0.721-0.72
		c0.217-0.179,0.64-0.164,0.72-0.479c0.801,0.283,1.2-0.291,1.681-0.48c0.573-0.227,1.135-0.138,1.439-0.72c0.4,0,0.8,0,1.199,0
		c0.24-0.183,0.478-0.293,0.721-0.48c0.119-0.092,0.365-0.425,0.48-0.479c0.254-0.124,0.686,0.082,0.959,0
		c0.125-0.038,0.394-0.455,0.48-0.48c0.393-0.113,1.273-0.406,1.439,0c0.406-0.396,1.08-0.521,1.44-0.96
		c0.302-0.179,0.399,0.228,0.479,0.24c0.386,0.062,0.314-0.206,0.48-0.24c0.346-0.071,0.816-0.138,1.2-0.239
		c0.08-0.021,0.433,0.058,0.479,0c0.412-0.502,0.244-0.272,1.2-0.48c0.286-0.062,0.64-0.354,1.44-0.24
		c0.645,0.092,0.367,0.237,0.96,0c0.085-0.033,0.426,0.066,0.479,0c0.27-0.329,0.416-0.049,1.2-0.24
		c0.054-0.013,0.026-0.229,0.24-0.24c0.063-0.002,0.181,0.023,0.239,0c0.297-0.118,0.693-0.055,1.44-0.239
		c0.493-0.122,1.112-0.64,1.681-0.72c-0.082,0.012,0.129,0.379,0.24,0.24c0.68-0.852,3.323,0.117,3.84-1.201
		C267.791,280.355,269.48,278.956,270.641,279.641z"/>
	<path d="M434.56,293.32c-0.884,0.25-1.019-0.278-1.438-0.721c-0.125-0.131-0.382-0.351-0.48-0.479
		c-0.137-0.181-0.085-0.522-0.237-0.72c-0.241-0.309-0.681-0.613-0.96-0.961c-0.328-0.402-0.464-0.951-0.723-1.199
		c-0.26-0.25-0.801-0.436-1.199-0.721c-0.195-0.141-0.229-0.334-0.479-0.479c-0.362-0.209-0.708-0.474-1.2-0.72
		c-0.287-0.145-0.475-0.09-0.72-0.24c-0.256-0.157-0.508-0.586-0.96-0.721c-0.365-0.107-0.824,0.068-1.2,0
		c-0.229-0.041-0.371-0.211-0.72-0.239c-0.719-0.058-2.03-0.289-2.643,0c-0.076,0.037-0.186,0.464-0.237,0.479
		c-0.366,0.104-0.843-0.121-1.2,0c-0.282,0.096-0.446,0.334-0.72,0.48c-0.09,0.047-0.423-0.073-0.48,0
		c-0.236,0.289-0.523,0.584-0.96,0.96c-0.188,0.164-0.281,0.581-0.479,0.72c-0.229,0.161-0.531,0.055-0.721,0.24
		c-0.206,0.205-0.291,0.494-0.479,0.721c-0.062,0.07-0.45,0.174-0.48,0.239c-0.048,0.106,0.075,0.396,0,0.479
		c-0.356,0.396-0.785,0.61-1.2,0.961c-0.18,0.56-0.559,0.884-0.96,1.439c-0.06,0.083-0.444,0.166-0.479,0.24
		c-0.06,0.128,0.067,0.357,0,0.48c-0.131,0.229-0.364,0.303-0.48,0.479c-0.058,0.087,0.078,0.417,0,0.479
		c-0.328,0.27-0.385,0.447-0.72,0.961c-0.163,0.25-0.295,0.479-0.479,0.72c-0.077,0.102-0.441,0.388-0.479,0.479
		c-0.072,0.182-0.143,0.817-0.24,1.2c-0.214,0.837-0.142,1.445-0.239,2.88c-0.067,1.01-0.184,1.906-0.238,3.36
		c-0.007,0.171,0.113,1.106,0,1.2c-0.296,0.242,0.083,0.207,0,0.72c-0.004,0.021-0.23,0.054-0.24,0.24
		c-0.007,0.12,0.18,1.293,0,1.438c-0.303,0.248,0.023,0.621,0,1.44c-0.016,0.516-0.214,1.032-0.24,1.438
		c-0.039,0.608,0.062,1.153,0,1.683c-0.058,0.508-0.269,0.836-0.239,1.2c0.113,1.441,1.371,2.698,0.479,4.077
		c0.887,1.186,0.871,2.536,1.2,4.32c-0.005-0.026,0.211,0.124,0.239,0.24c0.177,0.703-0.055,1.246,0.238,1.92
		c0.049,0.109,0.229-0.019,0.24,0.24c0.02,0.346,0.457,0.519,0.48,0.96c0.016,0.309,0.395,0.302,0.479,0.479
		c0.093,0.197-0.09,0.522,0,0.723c0.052,0.11,0.229-0.021,0.24,0.237c0.001,0.026,0.179,0.621,0.24,0.723
		c0.48,0.787,1.351,1.635,2.157,2.397c0.854,0.809,1.777,1.672,2.4,1.92c0.085,0.034,0.426-0.063,0.479,0
		c0.015,0.02-0.018,0.237,0,0.24c0.826,0.146,2.483,0.035,3.841,0.24c0.014,0.002,0.057,0.229,0.237,0.239
		c1.432,0.074,2.323-0.439,3.36-1.439c1.214,0.174,1.815-0.265,2.4-0.72c0.599-0.463,0.984,0.364,1.438-0.24
		c0.525-0.151,0.496-0.063,1.2-0.24c0.15-0.037,0.233-0.239,0.24-0.24c0.561-0.091,1.083,0.073,1.68,0
		c0.941-0.112,1.851-0.847,2.4-0.479c-0.152,0.524-0.064,0.496-0.24,1.2c-0.109,0.438-0.917,0.775-1.2,1.199
		c-0.065,0.098,0.081,0.397,0,0.479c-0.073,0.073-0.418-0.08-0.479,0c-0.149,0.195-0.132,0.521-0.24,0.72
		c-0.194,0.35-0.448,0.728-0.48,1.2c-0.643-0.096-0.854,0.462-1.197,0.72c-0.146,0.108,0.019,0.178-0.24,0.24
		c-0.114,0.028-0.389-0.064-0.48,0c-0.158,0.113-0.105,0.636-0.239,0.72c-0.318,0.206-0.862,0.082-1.198,0.24
		c-0.109,0.052-0.151,0.44-0.24,0.48c-0.381,0.172-1.055,0.112-1.44,0.479c-0.197,0.189-0.02,0.789-0.479,0.722
		c-1.091-0.287-1.455,0.622-2.641,0.479c-0.071-0.009-0.439,0.049-0.479,0c-0.394-0.479-0.188,0.101-0.96,0
		c-0.544-0.071-1.166-0.288-1.68-0.479c-0.098-0.035,0.006-0.229-0.24-0.239c-0.063-0.004-0.183,0.021-0.24,0
		c-0.119-0.048-0.743-0.201-0.96-0.48c-0.988-0.188-1.229,0.368-2.16,0.24c0.006-0.354-0.495-0.104-0.72-0.24
		c-0.125-0.075-0.13-0.407-0.24-0.479c-0.312-0.203-0.941-0.173-0.96-0.723c-0.633-0.157-1.122-0.35-1.68-0.72
		c-0.134-0.089,0.038-0.226-0.24-0.24c-0.374-0.02-0.953-0.889-1.438-1.197c-0.272-0.176-0.501-0.271-0.723-0.48
		c-0.596-0.571-1.583-1.354-2.159-2.399c-0.118-0.218-0.462-0.605-0.479-0.96c-0.011-0.203-0.364-0.53-0.479-0.721
		c-0.099-0.159-0.133-0.311-0.238-0.479c-0.097-0.148-0.405-0.348-0.48-0.48c-0.049-0.088,0.074-0.42,0-0.479
		c-0.025-0.021-0.228,0.025-0.24,0c-0.16-0.375-0.072-1.108-0.237-1.683c-0.009-0.023-0.201-0.084-0.24-0.237
		c-0.097-0.389-0.11-0.569-0.24-0.962c-0.042-0.125-0.452-0.39-0.479-0.479c-0.181-0.586-0.027-0.976-0.24-1.68
		c-0.285-0.942-0.219-3.381-0.479-4.803c0.005,0.027-0.212-0.123-0.239-0.237c-0.095-0.374,0.057-0.817,0-1.2
		c-0.245-1.668-0.643-3.552-0.479-5.76c0.05-0.684,0.393-1.276,0.479-1.92c0.254-1.842-0.176-4.164,0.479-5.762
		c0.043-0.104,0.229,0.014,0.24-0.24c0.015-0.274,0.01-0.43,0.24-0.479c-0.518-1.623,0.15-3.982,0.72-5.76
		c0.142-0.443,0.178-0.967,0.479-1.44c0.04-0.062,0.242-0.247,0.239-0.239c0.146-0.349,0.45-0.91,0.48-1.44
		c0.007-0.136-0.049-0.354,0-0.479c0.043-0.117,0.438-0.149,0.479-0.24c0.132-0.293,0.048-0.705,0.24-0.961
		c0.178-0.236,0.909-0.629,1.2-0.959c0.069-0.082-0.081-0.414,0-0.48c0.32-0.264,0.771-0.848,1.438-0.96
		c0.126-0.754,0.421-1.339,0.723-1.92c0.486-0.608,1.327-0.72,1.92-1.2c0.554-0.451,0.938-1.143,1.438-1.68
		c0.452-0.487,1.012-0.926,1.44-1.44c0.799-0.28,1.432-0.502,2.397-0.72c0.671-0.15,0.83-0.58,1.44-0.96
		c1.299-0.153,2.333,0.114,3.359,0.239c0.624,0.078,0.984-0.062,1.438,0.24c0.109,0.073,0.177,0.201,0.24,0.24
		c0.393,0.245,1.312,0.518,1.92,0.721c0.07,0.488,0.648,0.471,0.72,0.959c0.036,0.444,0.812,0.147,0.96,0.48
		c0.572,0.948,1.255,1.785,2.16,2.4c0.211,0.83,0.505,1.576,1.2,1.92C433.26,290.3,434.801,290.919,434.56,293.32z"/>
	<path d="M563.2,284.439c-0.009,1.759-2.077,1.381-3.12,1.681c-0.081,0.022-0.432-0.06-0.48,0c-0.021,0.028,0.03,0.226,0,0.239
		c-0.087,0.043-0.422-0.069-0.479,0c-0.135,0.166-0.188,0.48-0.48,0.48c-0.176,0-0.262-0.305-0.479-0.24
		c-0.073,0.021-0.012,0.229-0.24,0.24c-0.249,0.014-1.195,0.414-1.68,0.48c-0.547,0.074-1.138-0.098-1.68,0
		c-0.537,0.096-0.899,0.34-1.44,0.479c-0.5,0.13-1.126,0.132-1.68,0.24c-0.949,0.185-2.072,0.069-2.88,0.72
		c-1.074-0.449-1.789,0.184-2.883,0.721c-0.087,0.043-0.422-0.071-0.479,0c-0.277,0.338-0.419,0.92-1.44,0.72
		c-0.387,0.089-0.321,0.702-0.72,0.96c-0.29,0.188-0.931,0.064-1.2,0.24c-0.299,0.195-0.417,0.482-0.72,0.72
		c-0.153,0.12-0.306,0.129-0.479,0.239c-0.396,0.252-1.114,0.98-1.682,1.44c-0.266,0.218-0.476,0.53-0.72,0.72
		c-0.084,0.066-0.415-0.08-0.48,0c-0.323,0.397-0.938,1.098-1.438,1.681c0.361,0.758,1.297,0.942,1.199,2.159
		c0.649,0.471,1.31,0.932,1.438,1.92c0.48,0,0.96,0,1.44,0c0.209,1.152,1.805,0.916,1.92,2.162c0.159,0.229,0.972-0.039,1.199,0.238
		c0.335,0.409,0.734,0.937,1.438,1.2c0.085,0.032,0.427-0.063,0.48,0c0.11,0.14,0.438,0.54,0.72,0.96
		c0.732-0.173,0.874,0.245,1.438,0.24c0.479,0.482,1.138,0.783,1.44,1.438c0.929-0.127,1.172,0.431,2.16,0.24
		c0.29,0.99,1.906,0.653,2.16,1.683c0.98-0.104,1.536,0.222,2.158,0.479c0.563-0.212,0.683,0.54,0.961,0.72
		c0.295,0.19,0.847,0.005,0.961,0.48c0.479,0,0.96,0,1.438,0c0.626,0.5,1.27,0.974,1.92,1.438c0.572,0.41,1.137,1.277,2.16,1.2
		c0.414,0.786,1.268,1.134,1.68,1.92c1.43-0.065,1.545,1.177,2.643,1.44c0.197,0.601,0.656,0.94,0.72,1.68
		c0.757,0.283,1.333,0.747,1.92,1.2c0.154,0.205,0.05,0.805,0.24,0.96c0.106,0.089,0.694,0.743,0.72,1.2
		c0.011,0.211,0.273,0.637,0.479,0.96c0.16,0.253,0.024,0.984,0.238,1.2c0.015,0.013,0.239-0.015,0.24,0
		c0.033,0.479-0.284,0.68-0.24,0.96c0.119,0.747,0.646,1.248,0.722,1.92c0.117,1.034-0.085,2.075,0,3.357
		c-0.009,0.497-0.493,0.646-0.722,0.96c-0.162,0.229-0.061,0.527-0.238,0.723c-0.102,0.105-0.396,0.13-0.479,0.239
		c-0.165,0.211-0.065,0.531-0.24,0.721c-0.229,0.245-0.744,0.604-1.198,0.96c-0.131,1.551-1.218,2.144-1.922,3.12
		c-0.397,0-0.8,0-1.197,0c-1.108,1.132-2.96,1.521-4.32,2.397c-0.583,0.053-1.175-0.067-1.68,0c-0.556,0.077-0.911,0.379-1.44,0.48
		c-0.43,0.082-0.938-0.058-1.438,0c-0.312,0.034-1.701,0.698-2.16,0.239c-0.02-0.02,0.02-0.235,0-0.239
		c-0.182-0.04-0.839,0.121-0.96,0c-0.441-0.44-0.168,0.132-0.96,0c-0.873-0.146-1.312-0.655-2.643-0.48
		c-0.529,0.07-1.492,0.438-2.397,0.48c-0.928,0.045-1.768-0.606-2.643,0c-0.716-0.004-0.813-0.624-1.438-0.721
		c-0.537,0.117-1.386,0.514-1.92,0c-0.414-0.396-1.562-0.021-2.16-0.479c-0.17-0.13-0.162-0.493-0.48-0.479
		c-0.397-0.013-0.8,0.015-1.198,0c0.06,0.002-0.116-0.396-0.239-0.239c-0.314,0.392-0.33,0.021-0.722,0
		c-0.134-0.008-0.479-0.177-0.721-0.24c-0.459-0.122-0.623-0.125-0.96-0.24c-0.083-0.027-0.429,0.062-0.479,0
		c-0.023-0.027,0.027-0.226,0-0.24c-0.089-0.04-0.424,0.07-0.48,0c-0.021-0.025,0.029-0.227,0-0.237
		c-0.271-0.125-0.731-0.05-0.96-0.24c-0.216-0.183-0.062-0.486-0.24-0.72c-0.081-0.109-0.413-0.139-0.479-0.24
		c-0.152-0.239-0.115-0.496-0.24-0.72c-0.069-0.127-0.226,0.029-0.24-0.24c0-0.003-0.107-1.293,0-1.68
		c0.009-0.026,0.227,0.022,0.24,0c0.158-0.249,0.074-0.505,0.24-0.723c0.13-0.17,0.493-0.161,0.479-0.479
		c1.657,0.021,2.756,0.604,3.603,1.438c0.563-0.455,1.301-0.506,2.159-0.479c0.543,0.017,0.922,0.312,1.438,0.479
		c0.526,0.172,1.271-0.162,1.2,0.48c0.859-0.123,1.176-0.298,2.16,0c0.566,0.172,0.688,0.035,1.68,0
		c0.486-0.02,0.95,0.254,1.439,0.24c0.419-0.014,0.521-0.191,0.961-0.24c0.567-0.064,1.35,0.146,2.159,0
		c0.232-0.043,0.355-0.25,0.721-0.24c-0.046-0.001,0.103,0.232,0.239,0.24c0.694,0.036,0.499,0.151,1.198,0
		c0.585-0.127,0.664,0.176,1.2,0.24c0.378,0.045,0.857-0.128,1.439,0c0.54,0.115,0.839,0.271,1.921,0
		c0.176-0.045,0.199-0.231,0.239-0.24c0.817-0.191,2.122,0,2.641-0.48c0.047-0.044,0.202-0.466,0.239-0.479
		c0.353-0.124,0.854,0.141,1.198,0c0.876-0.358,1.614-1.354,2.643-0.96c0.311-1.369,1.67-1.69,1.92-3.12
		c0.457-0.104,0.603-0.519,1.199-0.48c-0.518-1.429,0.29-2.32,0-3.357c-0.156-0.794-0.896-1.045-1.439-1.44
		c-0.135-0.099,0.04-0.226-0.24-0.24c-0.032-0.001-0.607-0.176-0.72-0.237c-0.099-0.06-0.156-0.442-0.24-0.48
		c-0.116-0.053-0.378,0.075-0.479,0c-0.209-0.151-0.279-0.562-0.48-0.72c-0.438-0.343-1.392-0.657-1.68-1.44
		c-1.504-0.175-2.151-1.208-3.601-1.438c-0.153-0.449-0.571-0.671-0.96-0.96c-0.179-0.133-0.328-0.375-0.479-0.48
		c-0.087-0.061-0.416,0.079-0.479,0c-0.023-0.027,0.03-0.224,0-0.24c-0.512-0.258-1.117-0.054-1.682-0.237
		c-0.083-0.028-0.003-0.229-0.238-0.24c-0.295-0.016-0.411-0.403-0.722-0.479c-0.532-0.134-1.168-0.109-1.2-0.961
		c-1.302-0.121-2.215-0.55-3.119-0.96c-0.337-0.15-0.259-0.025-0.479-0.237c-0.033-0.032-0.226-0.23-0.24-0.24
		c-0.222-0.152-0.433-0.098-0.72-0.24c-0.113-0.056-0.396-0.454-0.48-0.479c-0.293-0.089-0.658,0.066-0.96,0
		c-0.161-0.559-0.797-0.644-0.96-1.199c-0.842,0.285-1.186-0.306-1.68-0.48c-0.536-0.188-1.013-0.293-1.68-0.479
		c-0.179-0.543-0.915-0.525-0.96-1.2c-0.548-0.174-1.229-0.214-1.683-0.479c-0.104-0.296-0.307-0.491-0.72-0.479
		c-0.206-0.193-0.144-0.657-0.479-0.72c-0.229-0.652-0.957-0.567-1.439-0.961c-0.585-0.477-1.069-1.233-1.44-1.922
		c-0.601-0.197-0.94-0.655-1.68-0.719c-0.085-0.224-0.277-1.418-0.72-1.438c-0.031-0.002-0.469-0.456-0.48-0.479
		c-0.178-0.351-0.08-0.978-0.237-1.439c-0.03-0.088-0.229,0-0.24-0.24c-0.021-0.346-0.457-0.52-0.48-0.96
		c-0.021-0.453-0.501-1.006-0.479-1.92c0.021-1.015,0.432-1.752,0.96-2.399c0.104-0.129,0.417-0.375,0.479-0.48
		c0.054-0.088-0.073-0.418,0-0.48c0.521-0.426,1.021-1.501,1.44-2.4c0.586-0.133,0.512-0.928,1.438-0.719
		c0.636-0.846,1.41-1.599,2.399-2.4c0.24-0.195,0.56-0.626,0.72-0.721c0.372-0.213,1.203-0.176,1.683-0.479
		c0.35-0.224,1.443-0.655,2.159-0.96c0.105-0.045-0.018-0.227,0.238-0.24c0.524-0.027,0.974-0.247,1.683-0.48
		c0.083-0.027,0.003-0.228,0.238-0.239c0.28-0.015,0.693,0.086,0.96,0c0.081-0.027,0.005-0.228,0.239-0.24
		c0.179-0.01,0.267-0.202,0.48-0.239c2.051-0.358,4.917,0.242,6.96-0.48c0.054-0.02,0.061-0.195,0.238-0.24
		c0.387-0.097,0.427,0.299,0.722,0.24c-0.035,0.007,0.14-0.21,0.24-0.24c0.625-0.188,1.695-0.082,2.88-0.24
		c1.027-0.138,2.024-0.524,3.12-0.479C561.45,283.518,562.617,283.339,563.2,284.439z"/>
	<path d="M493.36,312.52c-0.231,3.514,0.591,5.971,1.197,8.643c-0.065,0.497,0.709,0.173,0.96,0.479
		c0.083,0.104,0.435,0.705,0.723,0.96c0.492,0.438,1.251,0.731,1.438,1.44c1.04,0.188,1.678,1.1,2.88,1.44
		c0.081,0.021,0.434-0.062,0.48,0c0.021,0.022-0.026,0.229,0,0.237c0.085,0.034,0.426-0.063,0.479,0c0.023,0.028-0.027,0.229,0,0.24
		c0.089,0.041,0.425-0.07,0.48,0c0.238,0.291,0.412,0.125,1.2,0.24c0.597,0.087,1.229,0.247,2.16,0.479
		c0.142,0.036,0.242,0.241,0.237,0.24c0.393,0.056,0.811-0.25,1.2-0.24c0.395,0.013,0.562,0.153,0.96,0.24
		c0.152,0.033,0.329-0.038,0.48,0c0.235,0.06,0.695,0.132,1.438,0.24c0.698,0.102,0.92,0.08,1.92,0c0.164-0.016,3.317-0.283,3.603,0
		c0.245,0.245,0.263,0.186,0.96,0c0.172-0.046,0.261-0.27,0.479-0.24c0.126,0.016,0.305,0.235,0.24,0.24
		c0.755-0.062,1.295,0.033,1.92-0.24c0.201,0.728-0.403,1.039-0.72,1.44c-0.073,0.092,0.082,0.396,0,0.479
		c-0.146,0.146-0.68,0.18-0.96,0.48c-0.073,0.076,0.081,0.413,0,0.479c-0.048,0.04-0.191-0.038-0.24,0
		c-0.352,0.279-0.688,0.782-1.2,1.2c-0.141,0.115-0.356,0.402-0.479,0.479c-0.171,0.108-0.536-0.088-0.721,0
		c-0.109,0.054-0.149,0.438-0.239,0.479c-0.996,0.454-2.189,0.499-3.12,1.2c-1.069-0.204-2.128-0.733-2.88,0
		c-0.644,0.082-0.939-0.741-1.44-0.24c0.125-0.125-1.635-0.149-2.16-0.24c-1.034-0.179-2.086-1.054-3.357-0.72
		c-0.236-0.324-0.643-0.479-0.96-0.72c-0.355,0.275-0.605,0.275-0.96,0c-0.603,0.04-0.752-0.369-0.96-0.723
		c-0.559,0.077-0.923-0.038-1.2-0.237c-0.342-0.459-0.912-0.688-0.96-1.44c-0.733,0.174-0.875-0.245-1.44-0.24
		c-0.187-0.229-0.288-0.487-0.479-0.72c-0.062-0.07-0.45-0.174-0.48-0.24c-0.045-0.1,0.074-0.402,0-0.479
		c-0.35-0.354-1.097-0.54-1.438-0.96c-0.068-0.083,0.08-0.414,0-0.48c-0.081-0.063-0.43-0.16-0.48-0.239
		c-0.058-0.088,0.078-0.417,0-0.479c-0.078-0.063-0.43-0.163-0.479-0.24c-0.06-0.087,0.076-0.417,0-0.479
		c-0.312-0.254-0.456-0.405-0.723-0.96c-0.07-0.153-0.14-0.323-0.237-0.48c-0.162-0.253-0.026-0.983-0.24-1.2
		c-0.104-0.101-0.315-0.483-0.48-0.96c-0.251-0.725-0.038-2.205-0.238-3.6c-0.075-0.522-0.438-0.975-0.479-1.44
		c-0.151-1.618-0.122-3.541,0-5.277c0.111-1.58,0.365-2.997,0.96-4.32c-0.064-0.905-0.219-1.688,0-2.642
		c0.011-0.047,0.229-0.029,0.24-0.238c0.023-0.492,0.231-0.688,0.479-1.2c0.095-0.19,0.111-0.479,0.24-0.721
		c0.068-0.128,0.439-0.375,0.48-0.479c0.286-0.744,0.199-1.662,0.479-2.4c0.036-0.096,0.229,0.008,0.24-0.239
		c0.018-0.347,0.457-0.519,0.479-0.96c0.023-0.447,0.447-0.596,0.723-0.96c0.062-0.085-0.08-0.415,0-0.479
		c0.027-0.024,0.224,0.03,0.237,0c0.151-0.296,0.045-0.691,0.24-0.961c0.269-0.365,0.876-0.851,1.44-1.199
		c0.009-0.355,0.127-0.457,0.238-0.721c0.178-0.41,0.42-0.709,0.722-1.199c0.092-0.149,0.131-0.328,0.24-0.48
		c0.233-0.328,0.644-0.598,0.96-0.96c0.378-0.435,0.597-0.959,1.197-1.2c0.086-0.034,0.428,0.066,0.48,0
		c0.162-0.198,0.279-0.697,0.72-0.721c0.203-0.01,0.884-0.276,1.2-0.479c0.132-0.084,0.123-0.392,0.24-0.479
		c0.085-0.064,0.415,0.08,0.479,0c0.191-0.233,0.326-0.192,0.722-0.24c0.07-0.01,0.438,0.049,0.479,0
		c0.217-0.266,0.329-0.122,0.72-0.24c0.196-0.059,0.239-0.218,0.48-0.24c0.199-0.019,0.539,0.287,0.96,0.24
		c0.224-0.025,0.364-0.246,0.72-0.24c0.526,0.01,0.662,0.435,1.44,0.24c0.363-0.091,0.34-0.242,0.72,0
		c0.564,0.361,0.136-0.07,0.96,0c0.173,0.016,0.266,0.297,0.479,0.24c0.072-0.02-0.008-0.264,0.238-0.24
		c0.577,0.055,0.475,0.48,0.96,0.48c0.206,0,0.492-0.426,1.2-0.24c0.031,0.583,0.885,0.24,1.2,0.48
		c0.355,0.271,0.184,0.633,0.479,0.959c0.578,0.099,0.521-0.438,1.199-0.239c0.133,0.583,0.837,0.715,1.2,1.2
		c0.12,0.16-0.074,0.521,0.24,0.479c0.298-0.014,0.318,0.368,0.479,0.479c0.219,0.151,0.446,0.094,0.723,0.24
		c0.166,0.09,0.335,0.389,0.479,0.48c0.702,0.439,1.521,0.891,2.4,1.439c0.146,0.092,0.348,0.41,0.479,0.48
		c0.266,0.143,0.521,0.052,0.722,0.24c0.538,0.505,0.87,1.246,1.198,1.92c0.32,0.24,0.727,0.396,0.96,0.72
		c1.167,1.052,1.123,2.554,0.48,3.841c-0.173,0.346-0.294,0.76-0.48,0.959c-0.188,0.203-0.485,0.066-0.72,0.24
		c-0.097,0.073-0.146,0.43-0.24,0.479c-0.317,0.18-0.595,0.121-0.96,0.24c-0.082,0.026-0.004,0.229-0.237,0.239
		c-0.239,0.013-0.481-0.01-0.723,0c-0.801,0.319-1.148,1.089-1.68,1.681c-0.48,0-0.96,0-1.44,0
		c-0.299-0.006-0.315,0.355-0.479,0.479c-0.217,0.165-0.588,0.387-0.96,0.479c-0.144,0.034-0.349-0.059-0.48,0
		c-0.128,0.055-0.381,0.444-0.479,0.479c-0.213,0.072-1.069-0.16-1.2,0c-0.19,0.232-0.326,0.191-0.72,0.238
		c-0.072,0.01-0.44-0.049-0.48,0c-0.239,0.293-0.529,0.269-1.199,0.479c-0.082,0.026-0.431-0.062-0.479,0
		c-0.176,0.216-0.17,0.388-0.479,0.479c-0.35,0.104-0.75,0.109-1.198,0.238c-0.071,0.021-0.016,0.229-0.24,0.24
		c-0.121,0.007-1.293-0.18-1.44,0c-0.147,0.186-0.473,0.749-0.96,0.722c-0.062-0.005-0.23-0.32-0.479-0.239
		c-0.301,0.098-0.278,0.339-0.48,0.479c-0.086,0.062-0.416-0.078-0.479,0c-0.244,0.298-0.738,0.237-1.44,0.48
		c-0.373,0.129-0.802,0.349-1.2,0.479c-0.427,0.144-0.873,0.117-1.198,0.24c-0.29,0.109-0.278,0.34-0.479,0.48
		c-0.087,0.06-0.416-0.079-0.479,0c-0.022,0.025,0.028,0.226,0,0.237c-0.372,0.18-1.272,0.369-1.682,0.48
		c-0.08,0.021-0.432-0.061-0.479,0c-0.188,0.227-0.176,0.356-0.48,0.479c-0.085,0.034-0.426-0.063-0.479,0
		c-0.229,0.28-0.356,0.068-0.723,0.24c-0.096,0.046-0.165,0.452-0.237,0.48c-0.356,0.135-0.857,0.095-1.2,0.237
		C494.555,311.866,493.985,312.086,493.36,312.52z M518.56,295.48c-1,0.121-1.058-0.703-2.157-0.48
		c0.05-0.242-0.119-0.159-0.24-0.24c-0.408-0.271-0.45-0.496-0.72-0.72c-0.415-0.345-0.573-0.306-0.96-0.479
		c-0.092-0.041-0.133-0.431-0.24-0.48c-0.285-0.131-1.061-0.153-1.44-0.24c-0.522-0.119-0.867-0.404-1.438-0.24
		c-0.318-0.363-0.701-0.636-1.2-0.72c-0.391-0.065-0.852,0.21-1.44,0.24c-0.454,0.022-0.526-0.25-0.96-0.24
		c-0.348,0.009-0.43,0.33-0.96,0.24c-0.49-0.084-0.68-0.565-1.2-0.479c-0.324,0.713-1.656,0.42-2.64,0.479
		c-0.508,0.612-1.27,0.97-2.16,1.2c-0.47,0.547-0.747,1.076-1.2,1.68c-0.183,0.244-0.522,0.447-0.72,0.721
		c-0.223,0.311-0.294,0.688-0.479,0.959c-0.187,0.269-0.558,0.475-0.723,0.721c-0.271,0.406-0.465,0.912-0.479,1.199
		c-0.023,0.441-0.522,0.559-0.72,0.721c-0.195,0.158-0.028,0.808-0.48,0.72c-0.023,0.543-0.088,1.188-0.24,1.681
		c-0.026,0.092-0.439,0.354-0.479,0.479c-0.089,0.289,0.103,0.676,0,0.96c-0.033,0.092-0.188,0.021-0.24,0.24
		c-0.077,0.308-0.188,0.508-0.24,0.72c-0.163,0.655-0.244,0.554-0.479,0.96c-0.44,0.761-0.098,1.908-0.24,2.88
		c-0.1,0.666-0.587,0.967-0.479,1.68c0.992-0.046,0.812-1.268,1.681-1.438c1.323-0.356,1.792-1.568,3.6-1.44
		c0.684-0.599,1.271-0.912,2.16-0.96c0.255-0.014,0.135-0.194,0.24-0.239c0.324-0.136,0.687-0.39,0.96-0.479
		c0.212-0.069,0.513,0.083,0.72,0c0.172-0.067,0.177-0.464,0.48-0.479c0.305-0.017,0.333,0.33,0.72,0.239
		c0.385-0.282,0.722-0.719,1.2-0.96c0.296-0.148,0.746-0.15,0.96-0.238c0.703-0.289,0.955-0.441,1.68-0.479
		c0.207-0.011,0.195-0.229,0.24-0.24c0.378-0.084,0.826-0.132,1.2-0.239c0.021-0.008-0.021-0.221,0-0.24
		c0.236-0.237,0.731,0.037,0.96-0.238c0.123-0.15,0.993,0.061,1.199,0c0.296-0.085,0.286-0.402,0.479-0.479
		c0.344-0.141,0.842,0.104,1.2,0c0.33-0.097,0.405-0.396,0.72-0.479c0.374-0.099,0.819,0.073,1.2,0
		c0.254-0.524,0.938-0.317,0.96-0.722c0.018-0.338,0.561-0.271,0.72-0.479c0.4,0,0.8,0,1.2,0c0.38-1.06,1.41-1.47,2.64-1.68
		C520.582,296.818,519.087,296.633,518.56,295.48z"/>
	<path d="M378.88,309.64c-0.51,0.033-0.998-0.043-1.44,0c-0.728,0.072-1.106,0.46-1.92,0.48c0.021-0.001-0.513-0.447-0.72-0.24
		c-0.632,0.633-3.112,0.019-4.319,0.96c-0.483-0.071-0.658-0.241-1.201-0.24c-0.193,0.001-0.656,0.499-0.719,0
		c-0.851-0.13-0.591,0.853-1.44,0.723c-0.67,0.13-1.271-0.214-1.92-0.24c-0.526-0.021-0.61,0.217-0.96,0.24
		c-0.074,0.005-0.545-0.415-0.721-0.24c-0.013,0.013,0.012,0.239,0,0.24c-1.265,0.08-2.463,0.042-3.6,0.238
		c-0.223,0.038-0.503-0.064-0.72,0c-0.099,0.029-0.29,0.244-0.24,0.239c-0.383,0.033-0.812-0.243-1.2-0.239
		c-0.484,0.006-0.812,0.148-1.68,0.239c-0.152,0.019-0.333-0.037-0.48,0c-0.117,0.029-0.279,0.243-0.24,0.24
		c-0.389,0.027-0.416-0.264-0.719-0.24c-0.551,0.044-1.095,0.186-1.681,0.24c-0.315,0.03-0.646-0.042-0.96,0
		c-0.623,0.082-1.207,0.401-1.92-0.24c-1.271,0.164-2.532,0.652-4.32,0.48c-0.479-0.046-0.764-0.229-1.199-0.24
		c-0.566-0.016-1.109,0.216-1.681,0.24c-0.521,0.021-0.619-0.232-0.96-0.24c-0.432-0.011-0.506,0.277-0.96,0.24
		c0.019,0.001-0.082-0.232-0.24-0.24c-0.278-0.015-1.298,0.207-1.44-0.24c-0.159,0.23-0.971-0.039-1.199,0.24
		c-0.203,0.248-0.098,0.062-0.96,0c-0.317-0.022-0.644,0.032-0.96,0c0.045,0.005-0.074,0.273-0.24,0.24
		c-0.061-0.015-0.427-0.584-0.96-0.48c-0.604,1.688-0.112,3.311,0,4.8c0.085,1.116-0.033,2.063,0.24,3.12
		c0.015,0.062,0.229,0.022,0.239,0.24c0.037,0.674,0.289,0.878,0.48,1.44c0.204,0.595,0.18,0.987,0.48,1.68
		c0.048,0.109,0.227-0.018,0.24,0.24c0.016,0.308,0.348,0.305,0.479,0.479c0.063,0.085-0.08,0.415,0,0.48
		c0.171,0.14,0.42,0.688,0.72,1.2c0.061,0.102,0.439,0.15,0.48,0.237c0.283,0.6-0.191,0.787,0.479,1.2
		c0.403,0.248,0.312,0.521,0.72,0.96c0.121,0.131,0.35,0.118,0.48,0.24c0.523,0.484,1.139,0.954,1.68,1.438
		c0.28,0.252,0.437,0.715,0.721,0.96c0.19,0.166,0.5,0.076,0.72,0.24c0.121,0.091,0.126,0.396,0.239,0.48
		c0.32,0.233,0.858,0.232,1.201,0.479c0.318,0.229,0.27,0.709,0.72,0.722c1.094,0.035,0.942,0.197,1.92,0
		c-0.074,0.445,0.796,0.038,0.96,0.238c0.41,0.501,2.289,0.701,3.12,0.48c-0.171,0.649,1.132-0.172,0.96,0.479
		c0.314,0.085,0.377,0.423,0.72,0.48c0.478-0.338,1.165-0.259,1.681-0.24c0.159,0.006,0.961,0.532,1.199,0.24
		c0.34-0.416,0.618-0.062,1.44,0c-0.144-0.012,0.206-0.231,0.239-0.24c0.395-0.099,0.528,0.277,0.961,0.24
		c0.59-0.051,1.263-0.342,1.92-0.48c0.638-0.134,1.345-0.082,1.92-0.238c0.748-0.204,1.281-0.948,2.16-0.722
		c0.582-0.378,1.062-0.856,1.439-1.438c0.926-0.036,1.336-0.583,1.92-0.96c0.553-0.356,0.887-1.15,1.92-0.96
		c0.186-0.695,0.594-1.167,1.68-0.96c-0.03,1.969-0.922,3.075-1.68,4.317c-0.933,0.269-1.902,0.498-1.92,1.683
		c-0.943-0.261-1.29,0.57-1.92,0.96c-0.163,0.1-0.303,0.133-0.48,0.237c-0.397,0.241-0.309,0.317-0.959,0.48
		c-0.227,0.057-0.936,0.535-1.2,0.96c-2.212-0.371-2.444,1.236-4.56,0.96c-1.312,0.616-2.172,1.247-4.32,1.2
		c0.061,0.001-0.118-0.395-0.24-0.24c-0.572,0.715-1.834-0.279-3.12,0c0.074-0.016-1.067,0.611-1.44,0.24
		c-0.011-0.011,0.008-0.24,0-0.24c-0.137,0.007-2.451,0.764-2.879,0.24c-0.023-0.028,0.029-0.228,0-0.24
		c-0.088-0.041-0.424,0.07-0.48,0c-0.227-0.277-0.721-0.001-0.96-0.24c-0.021-0.021,0.026-0.229,0-0.237
		c-0.653-0.219-1.384-0.222-1.921-0.48c-0.117-0.058,0.025-0.226-0.239-0.24c-0.31-0.016-0.302-0.355-0.479-0.479
		c-0.088-0.062-0.416,0.078-0.48,0c-0.162-0.198-0.279-0.697-0.721-0.723c-0.346-0.018-0.519-0.454-0.959-0.479
		c-0.713-0.038-2.037-1.456-2.16-2.4c-0.68-0.04-1-0.438-1.68-0.479c0.034-0.92-1.033-0.942-1.44-1.44
		c-0.165-0.2-0.069-0.536-0.24-0.72c-0.261-0.28-0.662-0.521-0.72-1.44c-0.359-0.272-0.866-0.814-1.44-1.197
		c0.025-0.583-0.267-1.208-0.479-1.683c-0.199-0.439-0.312-0.287-0.48-0.96c-0.087-0.351-0.439-1.284-0.72-1.92
		c-0.063-0.144-0.431-0.36-0.479-0.479c-0.121-0.28,0.146-0.729-0.24-0.723c0-0.72,0-1.438,0-2.157
		c-0.053-0.907-0.754-1.166-0.961-1.923c0.119-1.711-0.16-3.479,0-5.037c0.051-0.489,0.365-0.904,0.48-1.44
		c0.227-1.049,0.012-2.257,0.24-3.12c0.016-0.062,0.229-0.021,0.24-0.24c0.026-0.51,0.322-1.031,0.72-1.438
		c-0.085-0.849-0.19-1.757,0.239-2.399c0.127-0.189,0.248-0.58,0.48-0.961c0.145-0.232,0.338-0.294,0.48-0.479
		c0.162-0.211,0.084-0.459,0.24-0.721c0.088-0.148,0.407-0.348,0.479-0.479c0.147-0.274,0.099-0.479,0.239-0.722
		c0.137-0.229,0.355-0.301,0.48-0.479c0.061-0.087-0.078-0.416,0-0.479c0.329-0.27,0.631-1.547,0.961-2.161
		c0.633-1.181,1.562-2.032,2.639-3.12c0.425-0.43,0.759-1.118,1.201-1.439c0.226-0.164,0.953-0.201,1.439-0.48
		c0.163-0.094,0.271-0.352,0.48-0.48c0.254-0.156,0.771-0.23,1.199-0.48c0.363-0.209,0.623-0.502,1.2-0.719
		c0.085-0.033,0.427,0.063,0.479,0c0.398-0.487,3.91-0.3,5.281-0.24c-0.099-0.004,0.174,0.224,0.239,0.24
		c0.388,0.097,0.534-0.267,0.96-0.24c0.417,0.025,0.989,0.142,1.44,0.24c0.474,0.103,0.903,0.265,1.44,0.479
		c0.16,0.063,0.258,0.01,0.239,0.239c1.614-0.014,3.213-0.012,3.84,0.961c0.733,0.173,0.875-0.245,1.44-0.24
		c0.238,0.32,0.648,0.471,0.72,0.96c0.349-0.371,1.229-0.211,1.92-0.239c0.611-0.127,0.941,0.594,1.44,0.719
		c0.377,0.095,0.585,0.1,0.96,0.24c0.405,0.152,0.749,0.324,1.2,0.48c0.385,0.133,0.994-0.071,1.199,0.48
		c0.733,0.172,0.875-0.246,1.44-0.24c0.08,0.812,0.897,0.522,1.44,0.72c0.093,0.034-0.004,0.228,0.24,0.239
		c0.229,0.013,0.687,0.44,1.439,0.24c0.084,0.463,0.617,0.519,0.96,0.721c0.329,0.195,0.514,0.771,1.2,0.479
		c0.347,0.373,0.505,0.937,0.72,1.44c0.716,0.193,1.354,0.369,2.16,0.72c0.108,0.048-0.019,0.228,0.239,0.24
		c0.113,0.006,0.67,0.437,0.961,0.72c0.203,0.199,0.562,0.234,0.479,0.721c0.82,0.213,1.388,0.904,1.92,1.439
		c0.163,0.163,0.062,0.57,0.24,0.72c0.083,0.068,0.414-0.081,0.479,0c0.082,0.101,0.494,0.614,0.721,0.96
		c0.248,0.002,0.168,0.303,0.24,0.48c0.179,0.445,0.274,0.746,0,1.68c-0.024,0.081,0.06,0.431,0,0.48
		c-0.028,0.021-0.227-0.03-0.24,0c-0.041,0.087,0.07,0.422,0,0.479C380.049,308.182,379.316,309.124,378.88,309.64z M371.92,304.12
		c-0.352-0.325-0.012-0.632-0.48-0.96c-0.228-0.16-0.976-0.076-1.199-0.24c-0.146-0.105-0.317-0.347-0.48-0.479
		c-0.074-0.062,0.078-0.426,0-0.48c-0.269-0.189-0.9-0.07-1.199-0.24c-0.07-0.039-0.178-0.41-0.24-0.479
		c-0.147-0.162-0.467-0.182-0.48-0.48c-1.73,0.051-2.459-0.9-4.08-0.96c-0.238-0.319-0.648-0.471-0.72-0.96
		c-1.302,0.262-1.597-0.484-2.64-0.48c-0.479-0.24-0.379-1.061-1.2-0.959c-0.89-0.17-1.03,0.41-1.921,0.24
		c-0.688-0.433-1.69-0.549-2.159-1.201c-1.083-0.041-3.269-0.074-3.601-0.479c-0.053-0.065-0.396,0.032-0.479,0
		c-0.353-0.133-0.442-0.213-0.96-0.239c-0.271-0.016-0.113-0.171-0.24-0.24c-0.734-0.408-1.273-0.073-2.16,0
		c-0.795,0.064-2.092,0.119-2.88,0c-0.414-0.062-0.379-0.34-0.72,0c-0.424,0.422-1.648-0.151-1.92,0.24
		c-0.311,0.607-0.641,1.198-0.961,1.439c-0.229,0.173-0.529,0.043-0.719,0.24c-0.592,0.613-0.818,1.578-1.681,1.92
		c0.179,0.751-0.653,1.412-0.72,1.68c-0.035,0.143,0.057,0.348,0,0.48c-0.049,0.113-0.406,0.346-0.48,0.479
		c-0.152,0.275-0.074,0.504-0.24,0.721c-0.142,0.188-0.336,0.245-0.479,0.479c-0.231,0.379-0.353,0.771-0.479,0.96
		c-0.451,0.675-0.291,1.453-0.48,2.397c-0.125,0.632-0.652,1.164-0.48,1.923c0.488,0.021,0.953-0.03,1.44,0
		c0.851,0.052,1.217,0.271,1.44,0c0.33-0.403,2.174,0.237,1.92,0.237c-0.07,0,0.145-0.216,0.24-0.237
		c0.445-0.112,0.725,0.237,0.959,0.237c0.233,0,0.295-0.251,0.48-0.237c0.52,0.03,0.943,0.216,1.439,0.237
		c0.24,0.014,0.48-0.01,0.721,0c0.931,0.041,0.662,0.127,1.199,0c1.056-0.248,1.645,0.274,2.4,0.24
		c0.643-0.029,1.28-0.397,1.92-0.479c0.346-0.046,0.518,0.242,0.721,0.237c-0.06,0.002,0.138-0.214,0.24-0.237
		c0.861-0.218,1.823,0.026,2.639,0c0.451-0.019,0.533-0.24,0.961-0.24c0.447,0,0.537,0.271,0.96,0.24
		c-0.037,0.002,0.122-0.212,0.239-0.24c0.151-0.038,0.328,0.033,0.48,0c0.385-0.083,0.585-0.254,0.96-0.24
		c0.427,0.017,0.562,0.295,0.96,0.24c-0.006,0.001,0.1-0.205,0.24-0.24c0.309-0.077,0.508-0.188,0.72-0.24
		c1.058-0.264,1.397,0.347,1.681,0c0.041-0.049,0.407,0.011,0.479,0c0.995-0.119,1.255-0.335,1.92-0.479
		c0.826-0.181,1.166,0.095,1.44-0.24c0.123-0.151,1.062,0.062,0.959,0.24c0.851,0.13,0.591-0.853,1.44-0.722
		c0.804,0.573,1.505-0.104,2.16-0.238c0.298-0.062,0.656,0.016,0.96,0c0.191-0.012,0.215-0.235,0.24-0.24
		c0.505-0.089,0.896-0.1,1.439-0.24c0.883-0.229,2-0.266,2.4-0.96C373.165,304.636,372.855,304.064,371.92,304.12z"/>
	<path d="M449.92,245.32c0.198,0.434,0.61,0.668,0.72,1.199c0.081,0.392-0.259,0.412-0.237,0.721
		c0.012,0.199,0.232,0.236,0.237,0.48c0.013,0.463-0.456,0.842-0.479,1.439c0.005-0.133,0.229,0.197,0.24,0.24
		c0.209,0.839-0.214,1.969-0.24,2.88c-0.012,0.38,0.267,0.427,0.24,0.72c0.001-0.014-0.231,0.078-0.24,0.24
		c-0.039,0.749,0.054,2.617,0,3.84c-0.022,0.498-0.201,1.167-0.24,1.68c-0.083,1.08,0.037,1.771-0.24,2.881
		c-0.033,0.143-0.238,0.242-0.237,0.239c-0.214,1.488-0.111,3.384-0.24,5.04c-0.091,1.17-0.113,2.278-0.24,3.359
		c-0.053,0.453-0.135,1.162-0.24,1.681c-0.1,0.49-0.443,1.013-0.479,1.44c-0.048,0.597,0.259,1.349,0.24,2.399
		c-0.012,0.524-0.188,0.603-0.24,0.96c-0.059,0.391,0.064,0.812,0,1.2c-0.11,0.642-0.422,1.259-0.48,1.92
		c-0.188,2.13,0.388,4.194-0.96,5.521c0.267,0.906,0.087,1.752,0,2.64c-0.048,0.489,0.095,1.006,0,1.44
		c-0.009,0.041-0.229,0.035-0.238,0.24c-0.021,0.381-0.228,0.413-0.239,0.719c-0.019,0.348,0.204,0.808,0.239,1.201
		c0.103,1.137,0.004,2.555,0,4.08c0.001-0.059-0.232,0.111-0.239,0.239c-0.009,0.153,0.218,0.431,0.239,0.72
		c0.09,1.176,0.229,2.543,0.238,3.84c0.012,1.114-0.234,2.213-0.238,3.358c-0.003,1.435,0.276,2.912,0.238,4.32
		c-0.018,0.678-0.191,1.308-0.238,1.92c-0.171,2.229,0.166,4.281,0.238,6.479c0.137,0.695,0.375-0.366,0.722-0.237
		c0.017-0.651,0.426-1.159,0.721-1.683c0.072-0.127,0.226,0.033,0.24-0.237c0.011-0.213,0.271-0.64,0.479-0.962
		c0.146-0.229,0.514-0.516,0.721-0.961c0.149-0.318,0.055-0.649,0.239-0.96c0.127-0.209,0.583-0.282,0.721-0.479
		c0.136-0.192-0.01-0.996,0.239-1.2c0.063-0.052,0.446-0.179,0.48-0.24c0.246-0.445,0.159-0.937,0.479-1.438
		c0.056-0.084,0.229-0.217,0.24-0.24c0.159-0.327,0.061-0.634,0.24-0.96c0.067-0.126,0.226,0.031,0.238-0.24
		c0.005-0.063,0.188-0.404,0.239-0.479c0.062-0.083,0.447-0.166,0.48-0.24c0.282-0.626,0.317-1.169,0.96-1.68
		c0.248-0.633,0.951-0.809,1.2-1.44c0.629-0.171,0.229-1.37,0.96-1.438c0.132-0.52,0.609-0.541,0.96-0.961
		c0.275-0.334,0.404-0.875,0.72-1.2c0.154-0.16,0.571-0.07,0.72-0.24c0.165-0.188,0.062-0.554,0.24-0.72
		c0.314-0.291,0.857-0.391,1.2-0.721c0.312-0.302,0.653-0.647,0.96-0.959c0.079-0.082-0.08-0.4,0-0.48
		c0.081-0.082,0.393,0.077,0.479,0c0.619-0.542,1.444-1.594,2.16-2.4c1.254,0.055,1.814-0.584,2.4-1.199
		c0.615,0,1.646-0.35,2.397-0.48c0.53-0.092,0.528-0.148,1.2,0c0.113,0.025,0.65-0.08,0.72,0c0.261,0.294-0.01,0.628,0.48,0.72
		c0.098,0.019,0.408-0.061,0.479,0c0.911,0.781,0.931,2.24,1.923,3.12c0.005,0.782-0.106,1.641,0.237,2.16
		c0.345,0.514,0.158,1.895,0.48,2.88c0.014,0.043,0.197,0.069,0.24,0.24c0.507,2.03-0.115,5.921,0.237,8.88
		c0.011,0.071-0.049,0.438,0,0.479c0.404,0.331,0.014,1.646,0,2.643c0.001-0.064,0.233,0.116,0.24,0.24
		c0.047,0.881-0.194,1.16-0.24,2.157c-0.081,1.783-0.081,3.735,0,5.763c0.057,1.36,0.449,2.469,0.24,4.079
		c-0.053,0.408-0.262,0.522-0.24,0.961c0.038,0.737,0.469,1.479,0.48,2.157c0.01,0.484-0.159,0.764-0.24,1.2
		c-0.014,0.076,0.054,0.438,0,0.48c-0.293,0.237,0.011,0.107,0,0.479c-0.022,0.841-0.062,1.825,0,2.643
		c0.062,0.79,0.116,1.646,0.24,2.397c0.108,0.673,0.429,1.278,0.479,1.92c0.08,0.994-0.157,1.922,0,2.88
		c0.134,0.787,0.664,1.764,0.96,2.643c0.632,1.863,0.752,3.149,1.922,4.56c0.293,0.354,0.863,0.514,1.198,0.96
		c0.064,0.085-0.079,0.415,0,0.48c0.028,0.021,0.229-0.03,0.24,0c0.041,0.087-0.069,0.423,0,0.479c0.028,0.023,0.226-0.027,0.24,0
		c0.041,0.089-0.07,0.424,0,0.48c0.825,0.675-0.167,2.461-0.722,3.358c-1.412,0.164-2.782-0.517-3.841-1.198
		c-0.133-0.088,0.038-0.228-0.237-0.24c-0.412-0.021-0.325-0.391-0.723-0.96c-0.06-0.086-0.443-0.164-0.479-0.24
		c-0.057-0.121,0.074-0.372,0-0.479c-0.199-0.288-0.508-0.408-0.722-0.723c-0.106-0.157-0.13-0.307-0.238-0.479
		c-0.059-0.089-0.227-0.21-0.24-0.24c-0.15-0.299-0.321-1.283-0.479-1.68c-0.061-0.149-0.223-0.192-0.238-0.24
		c-0.139-0.374-0.092-0.768-0.24-1.2c-0.03-0.088-0.229,0.001-0.24-0.239c-0.003-0.062,0.023-0.182,0-0.238
		c-0.161-0.405-0.203-1.583-0.479-2.643c-0.018-0.061-0.229-0.021-0.24-0.239c-0.013-0.248-0.402-1.193-0.48-1.681
		c-0.135-0.844,0.108-1.847,0-2.88c-0.019-0.18-0.191-0.266-0.237-0.479c-0.05-0.229,0.045-0.49,0-0.723
		c-0.205-1.041,0.023-2.109,0-3.84c-0.015-0.83-0.238-1.761-0.24-2.64c-0.002-0.864,0.223-1.753,0.24-2.643
		c0.015-0.771-0.229-1.625-0.24-2.397c-0.011-0.646,0.195-1.231,0.24-1.92c0.042-0.651-0.027-1.476,0-2.16
		c0.053-1.327,0.237-2.773,0.237-4.08c0-1.792-0.332-3.602-0.237-5.28c0.038-0.688,0.152-1.259,0.237-1.92
		c0.084-0.65,0.24-1.306,0.24-1.92c0-0.706-0.037-1.229-0.24-2.16c-0.043-0.199-0.22-0.234-0.237-0.479
		c-0.039-0.473,0.265-0.965,0.237-1.439c-0.019-0.367-0.211-0.867-0.237-1.199c-0.075-0.883-0.082-2.02-0.24-2.881
		c-0.146-0.785-0.229-1.75-0.96-2.16c0.035-0.595,0.045-1.164-0.48-1.199c-0.287-0.187-0.416,0.236-0.479,0.24
		c-0.422,0.024-0.355-0.393-0.96,0c-0.134,0.086,0.037,0.225-0.24,0.239c-0.308,0.017-0.306,0.349-0.479,0.479
		c-0.086,0.064-0.415-0.079-0.48,0c-0.024,0.031,0.031,0.225,0,0.24c-0.633,0.326-1.377,0.273-1.92,0.961
		c-0.196,0.248-0.15,0.631-0.48,0.959c-0.265,0.266-0.677,0.483-0.96,0.721c-0.426,0.357-0.688,0.779-1.197,1.201
		c-0.138,0.111,0.04,0.226-0.24,0.238c-0.297,0.017-0.445,0.678-0.72,0.961c-0.467,0.479-0.947,1.149-1.683,1.199
		c0.074,0.775-0.414,1.373-0.72,1.92c-0.284,0.508-0.458,1.319-1.2,1.44c-0.011,0.362-0.055,0.844-0.24,1.2
		c-0.054,0.104-0.438,0.15-0.479,0.237c-0.312,0.688-0.325,1.495-1.44,1.683c0.062,0.521,0.001,0.838-0.237,1.198
		c-0.022,0.032-0.258,0.284-0.24,0.239c-0.181,0.526-0.18,1.229-0.48,1.682c-0.208,0.312-0.605,0.51-0.72,0.961
		c-0.031,0.125,0.065,0.37,0,0.479c-0.058,0.096-0.443,0.158-0.479,0.24c-0.09,0.198,0.147,0.812,0,0.96s-0.686,0.826-0.721,1.438
		c-0.025,0.495-0.168,0.975-0.479,1.44c-0.209,0.312-0.607,0.51-0.723,0.96c-0.029,0.125,0.065,0.371,0,0.479
		c-0.07,0.119-0.414,0.134-0.479,0.238c-0.423,0.69-0.445,1.565-1.2,1.92c-0.146,0.221,0.196,1.04,0,1.2
		c-0.296,0.242-0.449-0.061-0.479,0.48c-0.025,0.446-0.459,0.79-0.48,1.199c-0.017,0.317-0.103,0.505-0.24,0.721
		c-0.18,0.282-0.312,1.222-0.479,2.16c-0.031,0.174,0.115,0.844,0,0.96c-0.177,0.177-0.164,0.175-0.24,0.479
		c-0.038,0.154-0.238,0.229-0.24,0.24c-0.107,0.628,0.106,1.504,0,2.16c-0.096,0.591-0.438,0.975-0.479,1.438
		c-0.263,2.902-0.016,5.816-0.24,8.88c-0.054,0.725-0.146,1.101,0,1.683c0.207,0.827-0.221,1.906-0.479,2.64
		c0.254,0.25,0.494,1.714,0,1.92c0.102,0.821-0.721,0.723-0.961,1.2c-1.688-0.231-2.56-1.585-3.119-3.12
		c-0.155-0.425-0.107-1.083-0.479-1.438c-0.079-0.881,0.269-1.334,0.479-1.92c-0.268-0.734-0.47-1.245-0.479-1.923
		c-0.016-0.846,0.456-1.618,0.479-2.397c0.039-1.246-0.413-2.646-0.479-4.08c-0.058-1.235,0.033-2.649,0.24-3.6
		c0.166-0.767-0.594-1.474-0.24-2.643c0.062-0.201,0.411-0.624,0.479-1.2c0.069-0.595-0.261-1.341-0.239-1.92
		c-0.004,0.104,0.225-0.178,0.239-0.237c0.17-0.679,0.21-1.673,0.238-2.4c0.051-1.159-0.148-2.208-0.238-3.36
		c-0.05-0.629,0.063-1.266,0-1.92c-0.056-0.548-0.241-0.911-0.239-1.438c0.002-0.904,0.239-1.952,0.239-2.88
		c0-1.397-0.207-2.744-0.239-4.08c-0.062-2.607,0.037-5.177,0.479-7.44c0.083-0.423,0.222-0.682,0.24-0.96
		c0.01-0.135,0.033-0.351,0-0.479c-0.031-0.125-0.242-0.267-0.24-0.239c-0.024-0.28,0.243-0.445,0.24-0.479
		c-0.07-0.744-0.171-0.754,0-1.44c0.228-0.901-0.231-1.404-0.24-2.4c-0.003-0.411-0.133-0.905,0-1.44
		c0.026-0.104,0.242-0.297,0.24-0.239c0.02-0.623-0.239-1.112-0.24-1.681c-0.001-0.502,0.25-1.123,0.24-1.68
		c0.002,0.109-0.226-0.183-0.24-0.24c-0.133-0.529,0.136-1.889,0.24-2.399c0.047-0.224-0.064-0.501,0-0.72
		c0.139-0.457,0.532-2.463,0.72-3.36c0.037-0.178-0.117-0.84,0-0.96c0.09-0.087,0.362-0.516,0.48-0.96
		c0.326-1.235-0.042-3.776,0.479-5.28c0.03-0.088,0.229,0.002,0.239-0.24c0.004-0.062-0.021-0.181,0-0.239
		c0.047-0.118,0.238-0.234,0.24-0.24c0.108-0.396-0.146-0.929,0-1.44c0.02-0.067,0.228-0.015,0.24-0.24
		c0.009-0.178,0.202-0.262,0.237-0.479c0.205-1.19,0.026-2.583,0.24-4.08c0.011-0.073-0.051-0.438,0-0.479
		c0.306-0.25,0.129-0.489,0.24-0.961c0.246-1.045,0.643-3.442,0.72-5.039c0.057-1.11-0.029-2.04,0.24-3.12
		c0.036-0.146,0.24-0.239,0.24-0.24c0.092-0.601-0.114-1.354,0-1.92c0.007-0.037,0.229-0.039,0.237-0.24
		c0.006-0.063-0.021-0.181,0-0.239c0.125-0.312,0.065-0.486,0.24-1.201c0.117-0.478,0.422-0.957,0.48-1.439
		c0.21-1.729-0.04-3.365,0.238-5.04c0.031-0.19,0.19-0.256,0.239-0.479c0.124-0.569,0.068-0.92,0.24-1.68
		c0.011-0.047,0.229-0.033,0.24-0.24c0.027-0.562-0.107-1.394,0.479-1.681c0.136-0.346,0.375-0.585,0.723-0.72
		C449.6,245.32,449.76,245.32,449.92,245.32z"/>
</g>
</svg>
