<?xml version="1.0" encoding="utf-8"?>
<!-- Generator: Adobe Illustrator 14.0.0, SVG Export Plug-In . SVG Version: 6.00 Build 43363)  -->
<!DOCTYPE svg PUBLIC "-//W3C//DTD SVG 1.1//EN" "http://www.w3.org/Graphics/SVG/1.1/DTD/svg11.dtd">
<svg version="1.1" id="Layer_1" xmlns="http://www.w3.org/2000/svg" xmlns:xlink="http://www.w3.org/1999/xlink" x="0px" y="0px"
	 width="348.975px" height="99.114px" viewBox="223.6 250.32 348.975 99.114" enable-background="new 223.6 250.32 348.975 99.114"
	 xml:space="preserve">
<g>
	<g>
		<path d="M531.76,261.84c-0.089,0.739-1.299,1.137-2.16,1.439c-0.393,0.14-0.904,0.08-1.438,0.24
			c-0.358,0.108-0.914,0.438-1.2,0.48c-0.836,0.127-1.733-0.048-2.64,0c-1.041,0.055-3.278,0.32-4.562,0
			c-0.515-0.128-0.639,0.284-0.96,0.24c-0.008-0.002-0.062-0.231-0.24-0.24c-0.383-0.02-0.416-0.16-0.72-0.24
			c-0.646-1.412,0.143-2.121,0.96-2.88c0.062-0.058,0.183-0.453,0.24-0.479c0.244-0.11,0.757-0.043,1.2-0.24
			c0.111-0.051-0.021-0.227,0.24-0.24c0.243-0.013,0.756-0.404,1.197-0.48c0.404-0.067,0.721,0.205,1.2,0.24
			c0.394,0.028,0.414-0.259,0.72-0.24c0.195,0.013,0.24,0.272,0.48,0.24c0.189-0.025,0.612-0.156,0.96-0.24
			c0.785-0.188,1.312-0.224,2.64,0c0.706,0.119,0.914,0.721,2.16,0.48c0.216,0.424,0.579,0.701,0.72,1.2
			C530.919,261.4,531.542,261.418,531.76,261.84z"/>
		<path d="M501.04,268.08c0.528,1.973,0.509,4.129,0.24,6.24c-0.146,1.152-0.668,1.799-0.24,3.119
			c0.026,0.082,0.228,0.004,0.24,0.24c0.023,0.485-0.114,1.381,0,2.16c0.039,0.268,0.233,0.502,0.237,0.96
			c0.014,1.173-0.357,2.458-0.237,4.08c0.034,0.464,0.237,0.946,0.237,1.44c0.001,0.367-0.204,0.785-0.237,1.199
			c-0.059,0.699,0.082,1.476,0,2.4c-0.041,0.458-0.241,0.669-0.24,0.96c0.004,0.896,0.285,1.613,0.24,2.399
			c-0.033,0.57-0.149,0.94-0.24,1.44c-0.218,1.2-0.046,2.331,0,3.841c0.02,0.652-0.227,1.301-0.24,1.92
			c-0.012,0.582,0.161,1.252,0.24,1.92c0.116,0.984,0.364,2.012,0.24,3.357c-0.021,0.194-0.271,0.24-0.24,0.479
			c0.019,0.154,0.24,0.265,0.24,0.24c0.015,2.175-0.206,5.381,0,7.682c0.076,0.855,0.361,1.726,0.479,2.64
			c0.01,0.072-0.05,0.439,0,0.48c0.019,0.014,0.238-0.018,0.24,0c0.089,0.562-0.414,0.398-0.24,1.198
			c0.124,0.568,0.201,1.174,0,2.399c-0.091,0.56-0.158,1.159-0.479,1.68c0.747,1.74,0.454,4.918,0.479,7.921
			c0.022,2.568,0.268,4.62-0.24,6.722c-0.012,0.052-0.229,0.025-0.237,0.239c-0.005,0.078,0,0.159,0,0.238
			c0,0.187,0.227,0.546,0.237,0.48c-0.188,0.906-0.56,1.325-0.72,1.92c-1.229,0.041-1.573-1.395-1.92-2.16
			c-0.396-0.88-0.808-2.017-0.96-2.88c-0.121-0.688,0.095-1.414,0-2.16c-0.094-0.745-0.581-1.421-0.72-2.16
			c-0.091-0.479,0.213-1.455,0-2.16c-0.277-0.917-0.494-3.062-0.722-4.56c-0.173-1.139-0.19-2.209-0.479-3.36
			c-0.048-0.188-0.415-1.202-0.48-1.68c-0.086-0.634,0.05-1.222,0-1.92c-0.122-1.812-0.375-4.68-0.237-7.2
			c0.016-0.3-0.069-0.668,0-0.96c0.143-0.605,0.146-1.137,0-2.399c-0.162-1.388-0.261-3.508-0.24-5.521
			c0.009-0.886,0.163-1.269,0-1.92c-0.195-0.782,0.161-2.159,0.24-3.12c0.15-1.864,0.061-3.639,0.237-5.52
			c0.084-0.881,0.297-1.858,0.24-2.641c-0.053-0.754-0.45-1.641-0.479-2.4c-0.018-0.389-0.035-0.812,0-1.199
			c0.045-0.51,0.176-0.608,0.237-0.961c0.099-0.528-0.049-1.23,0.48-1.68c-0.45-1.3-0.117-2.688,0-4.08
			c-0.176-0.427-0.438-0.035-0.72,0c-0.271,0.438-0.679,0.812-0.96,1.201c-0.294,0.4-0.442,0.844-0.723,1.199
			c-0.589,0.752-1.352,1.379-1.92,2.16c-0.299,0.684-0.355,1.33-0.72,2.16c-0.048,0.109-0.228-0.018-0.24,0.24
			c-0.005,0.09-0.525,0.949-0.72,0.959c-0.087,0.006-0.708,0.732-0.72,0.961c-0.013,0.205-0.364,0.531-0.48,0.72
			c-0.185,0.301-0.452,0.362-0.72,0.72c-0.064,0.085,0.08,0.415,0,0.48c-0.031,0.025-0.223-0.033-0.24,0
			c-0.049,0.088,0.074,0.419,0,0.479c-0.028,0.023-0.226-0.03-0.24,0c-0.041,0.087,0.07,0.423,0,0.48
			c-0.161,0.132-0.251,0.478-0.479,0.96c-0.254,0.535-0.684,1.119-0.96,1.68c-0.179,0.357-0.043,0.78-0.24,1.2
			c-0.051,0.108-0.438,0.151-0.479,0.239c-0.062,0.134,0.06,0.349,0,0.48c-0.054,0.114-0.438,0.146-0.48,0.24
			c-0.188,0.396,0.028,1.111-0.24,1.68c-0.055,0.116-0.226-0.023-0.237,0.24c-0.019,0.312-0.38,0.299-0.48,0.48
			c-0.177,0.312-0.058,0.64-0.24,0.959c-0.07,0.129-0.226-0.032-0.238,0.24c-0.024,0.479-0.841,1.336-1.199,1.92
			c-0.101,0.159-0.132,0.311-0.24,0.48c-0.204,0.32-0.441,1.361-1.2,1.68c0.05,0.918-0.745,1.78-0.96,2.641
			c-0.114,0.457-0.202,0.48-0.479,0.961c-0.223,0.381-0.234,0.818-0.48,1.438c-0.028,0.071-0.191,0.048-0.24,0.24
			c-0.032,0.139,0.062,0.351,0,0.479c-0.071,0.159-0.405,0.346-0.479,0.479c-0.146,0.269-0.12,0.477-0.24,0.72
			c-0.056,0.113-0.454,0.396-0.479,0.48c-0.217,0.708-0.03,0.891-0.479,1.438c-0.156,0.191-0.329,0.312-0.479,0.48
			c-0.164,0.187-0.058,0.559-0.239,0.72c-0.091,0.079-0.63,0.231-0.722,0.24c-1.287,0.123-1.369-0.833-2.158-1.68
			c-0.271-0.289-0.673-0.639-0.96-0.96c-0.54-0.607-0.77-0.936-1.2-1.683c-0.245-0.422-0.783-1.071-1.2-1.68
			c-0.265-0.386-0.487-0.892-0.72-1.2c-0.147-0.195-0.33-0.234-0.48-0.479c-0.093-0.152-0.131-0.324-0.239-0.48
			c-0.104-0.15-0.393-0.338-0.479-0.479c-0.229-0.367-0.373-0.746-0.72-1.201c-0.336-0.438-0.973-0.873-1.44-1.439
			c-0.165-0.197-0.069-0.538-0.24-0.72c-0.103-0.11-0.389-0.127-0.479-0.24c-0.271-0.332-0.41-0.771-0.721-1.2
			c-0.229-0.316-0.733-0.623-0.96-0.96c-0.146-0.216-0.096-0.448-0.239-0.72c-0.085-0.157-0.405-0.344-0.48-0.48
			c-0.146-0.269-0.104-0.479-0.239-0.72c-0.069-0.127-0.227,0.032-0.238-0.239c-0.014-0.228-0.193-0.687-0.48-0.961
			c-0.083-0.078-0.397,0.082-0.479,0c-0.082-0.082,0.073-0.39,0-0.479c-0.313-0.376-0.675-0.791-0.96-1.2
			c-0.291-0.416-0.421-1.031-0.723-1.439c-0.059-0.08-0.406,0.071-0.479,0c-0.082-0.082,0.067-0.385,0-0.48
			c-0.112-0.157-0.381-0.332-0.48-0.48c-0.059-0.086,0.078-0.416,0-0.479c-0.083-0.068-0.424-0.158-0.479-0.24
			c-0.22-0.321-0.484-0.728-0.722-1.2c-0.188-0.375-0.229-0.939-0.479-1.199c-0.031-0.033-0.229-0.226-0.24-0.24
			c-0.13-0.19-0.089-0.502-0.239-0.721c-0.055-0.078-0.409,0.069-0.479,0c-0.235-0.234-0.167-0.662-0.24-1.199
			c-0.455,0.51-0.516,1.105-0.479,1.68c0.04,0.652,0.466,1.037,0.479,1.68c0.009,0.391-0.188,0.717-0.239,1.2
			c-0.021,0.188,0.262,1.899,0,2.16c-0.021,0.021-0.232-0.022-0.238,0c-0.062,0.211,0.085,0.521,0,0.72
			c-0.046,0.107-0.223-0.012-0.24,0.24c-0.038,0.502,0.247,0.771,0.24,1.68c-0.006,0.631-0.159,1.352-0.24,2.4
			c-0.087,1.117-0.143,1.966-0.24,3.359c-0.004,0.061-0.333,0.237-0.239,0.479c0.038,0.099,0.266-0.022,0.239,0.239
			c-0.019,0.21-0.184,0.576-0.239,0.961c-0.023,0.169,0.111,0.849,0,0.96c-0.271,0.271-0.065,0.37,0,1.2
			c0.229,2.831-0.007,7.232-0.238,10.08c-0.263,3.188,0.343,6.545,0,9.6c-0.068,0.604-0.056,1.145-0.48,1.681
			c0.798,2.521,0.474,4.677,0.722,7.682c-0.684,0.438-0.7,1.54-1.439,1.92c-1.21,0.082-1.851-0.001-2.399-0.722
			c-0.334-0.437-0.515-1.095-0.721-1.92c-0.064-0.267-0.146-0.479-0.239-1.199c-0.05-0.366-0.214-0.424-0.239-0.721
			c-0.049-0.529,0.227-0.994,0.239-1.681c0.009-0.371-0.197-0.805-0.239-1.2c-0.073-0.693,0.112-1.48,0-2.398
			c-0.052-0.419-0.239-0.517-0.239-0.96c-0.001-0.688,0.209-1.451,0.239-2.159c0.032-0.78-0.009-1.381,0-2.16
			c0.005-0.432,0.257-0.505,0.239-0.96c0.002,0.041-0.231-0.102-0.239-0.24c-0.029-0.563-0.091-2.104,0-2.88
			c0.077-0.666,0.452-1.31,0.479-1.92c0.048-1.092-0.312-2.131-0.239-3.12c0.03-0.428,0.107-0.977,0.239-1.439
			c0.123-0.435,0.442-0.812,0.479-1.198c0.024-0.271-0.215-0.91-0.239-1.2c-0.046-0.505-0.021-1.003,0-1.44
			c0.079-1.768,1.005-3.385,0.72-5.76c-0.009-0.071,0.05-0.439,0-0.48c-0.299-0.244-0.071-0.392,0-1.199
			c0.097-1.068,0.067-2.221,0.24-3.36c0.002-0.015,0.229-0.058,0.239-0.24c0.079-1.495,0.104-3.534,0.479-5.04
			c0.028-0.111,0.242-0.285,0.24-0.24c0.028-0.533-0.336-0.74-0.24-1.68c0.064-0.636,0.063-0.734,0.24-1.439
			c0.036-0.146,0.239-0.239,0.239-0.24c0.091-0.59-0.104-1.424,0-1.92c0.068-0.332,0.314-0.708,0.479-1.2
			c0.253-0.759,0.213-1.356,0.479-2.16c0.026-0.084,0.228-0.002,0.239-0.239c0.014-0.229,0.624-0.951,1.199-0.721
			c0.818-0.018,0.711,0.889,0.722,1.68c0.046,0.272,0.239,0.133,0.238,0c0.779-0.139,1.116,0.164,1.682,0.24
			c0.362,0.598,0.822,1.098,1.681,1.2c0.461,0.794,0.927,1.456,1.439,2.16c0.416,0.571,1.519,0.92,1.198,2.159
			c0.48-0.032,0.737,0.697,1.2,0.721c0.181,0.01,0.717,0.825,0.96,1.2c0.149,0.229,0.188,0.629,0.479,0.72
			c0.472,0.379,0.782,0.995,1.199,1.439c0.186,0.197,0.757,0.156,0.96,0.48c0.196,0.312-0.062,0.778,0.239,0.96
			c0.731,0.39,1.035,1.205,1.92,1.44c0.264,1.025,0.687,1.666,1.44,2.4c0.389,0.377,0.718,0.717,1.199,1.199
			c0.172,0.171,0.589,0.287,0.721,0.48c0.11,0.162-0.085,0.539,0,0.72c0.055,0.116,0.434,0.146,0.479,0.239
			c0.315,0.644,0.399,1.588,0.721,2.16c0.674,1.215,1.359,2.035,2.64,2.641c0.686-0.799,0.63-1.695,0.96-2.88
			c0.021-0.065,0.229-0.017,0.24-0.24c0.027-0.532,0.031-0.744,0.239-1.2c0.053-0.113,0.227,0.021,0.239-0.24
			c0.039-0.734,1.255-1.643,1.682-2.399c0.233-0.455,0.257-0.744,0.479-1.2c0.067-0.139,0.122-0.562,0.24-0.72
			c0.19-0.255,0.512-0.408,0.721-0.96c0.031-0.086-0.063-0.428,0-0.48c0.028-0.023,0.226,0.031,0.239,0
			c0.044-0.087-0.07-0.422,0-0.48c0.233-0.19,0.333-0.187,0.479-0.479c0.092-0.182,0.436-0.368,0.479-0.479
			c0.193-0.483,0.024-0.795,0.24-1.44c0.027-0.084,0.228-0.002,0.239-0.239c0.004-0.06-0.024-0.188,0-0.24
			c0.076-0.162,0.402-0.344,0.479-0.48c0.049-0.088-0.074-0.42,0-0.48c0.103-0.082,0.479-0.521,0.721-0.959
			c0.374-0.24,0.249-1.112,0.479-1.681c0.042-0.104,0.227,0.013,0.24-0.239c0.015-0.293,0.4-0.412,0.479-0.721
			c0.105-0.421,0.156-0.537,0.48-0.96c0.309-0.403,0.781-1.112,1.199-1.68c0.279-0.382,0.722-0.616,0.96-0.96
			c0.15-0.219,0.122-0.508,0.238-0.721c0.07-0.125,0.228,0.032,0.24-0.24c0.011-0.213,0.364-0.521,0.479-0.719
			c0.219-0.377,0.402-0.724,0.721-1.201c0.089-0.133,0.226,0.039,0.239-0.239c0.02-0.354,1.117-1.156,1.438-1.681
			c0.089-0.145,0.131-0.336,0.24-0.479c0.143-0.188,0.354-0.315,0.479-0.479c0.246-0.321,0.416-0.742,0.723-1.201
			c0.088-0.133,0.225,0.039,0.239-0.239c0.014-0.261,0.647-0.761,0.96-1.2c0.128-0.18,0.09-0.52,0.238-0.72
			c0.09-0.119,0.399-0.127,0.48-0.24c0.156-0.218,0.091-0.444,0.239-0.72c0.096-0.178,0.366-0.329,0.479-0.48
			c0.271-0.367,0.483-0.654,0.72-0.96c0.321-0.413,0.678-0.559,0.96-0.96c0.162-0.229,0.062-0.525,0.24-0.72
			c0.241-0.259,0.719-0.581,1.2-0.96C499.46,268.116,500.042,267.662,501.04,268.08z"/>
		<path d="M270.16,270.24c0.204-0.045,0.227,0.093,0.24,0.24c0.529,0.221,0.486,1.227,0.72,2.16c0.09,0.358,0.715,0.92,0.479,1.92
			c-0.091,0.385-0.168,0.84,0,1.92c0.108,0.689,0.584,1.305,0.721,1.92c0.121,0.549-0.077,1.051,0,1.68
			c0.037,0.309,0.218,0.457,0.24,1.2c0.022,0.8-0.203,1.594-0.24,2.399c-0.021,0.43,0.25,0.506,0.24,0.961
			c-0.006,0.235-0.265,0.518-0.24,0.959c0.052,0.974,0.402,1.943,0.479,2.881c0.149,1.824-0.073,3.58,0.24,5.279
			c-0.005-0.027,0.211,0.125,0.239,0.24c0.095,0.376-0.092,0.823,0,1.2c0.154,0.62,0.496,1.127,0.721,1.92
			c0.023,0.081-0.059,0.433,0,0.479c0.461,0.377-0.098,0.541,0,1.44c0.051,0.476,0.469,0.856,0.48,1.2
			c0.022,0.734-0.244,1.652-0.24,2.398c0.003,0.77,0.25,1.416,0.24,2.159c-0.01,0.703-0.242,1.435-0.24,2.16
			c0.002,0.807,0.23,1.567,0.24,2.4c0.004,0.441-0.198,0.944-0.24,1.438c-0.053,0.618,0.037,1.062,0,1.683
			c-0.088,1.43-0.348,2.656-0.24,4.317c0.016,0.229-0.048,0.499,0,0.72c0.105,0.485,0.256,0.521,0,1.2
			c-0.032,0.085,0.064,0.429,0,0.48c-0.316,0.258-0.13,0.814-0.24,1.68c-0.082,0.66-0.095,1.39-0.24,2.4
			c-0.01,0.071,0.052,0.438,0,0.479c-0.195,0.161-0.166,0.186-0.239,0.48c-0.011,0.043-0.405,0.585-0.24,0.72
			c0.749,0.613-0.153,1.338-0.239,2.16c-0.144,1.358,0.199,3.076-0.721,4.08c0.098,1.713-0.218,2.968-0.48,4.56
			c-0.033,0.199-0.205,0.242-0.24,0.48c0.013-0.082,0.38,0.129,0.24,0.238c-0.304,0.243-0.035,0.067,0,0.239
			c0.015,0.07-0.211,0.669-0.24,0.96c-0.028,0.307,0.07,0.663,0,0.96c-0.047,0.201-0.209,0.238-0.239,0.48
			c-0.121,0.941,0.005,1.975-0.24,2.88c-0.198,0.729-0.671,1.143-0.96,1.92c-0.283,0.084,0.223,1.292-0.24,1.92
			c-0.701,0.179-0.463,1.296-1.439,1.2c0.013,0.366-0.482,0.459-0.721,0.72c-0.071,0.079,0.082,0.414,0,0.48
			c-0.047,0.039-0.19-0.039-0.239,0c-0.214,0.169-0.843,0.17-1.44,0.479c-0.104,0.057-0.152,0.441-0.24,0.48
			c-0.131,0.059-0.957-0.085-1.439,0c-0.23,0.041-0.357,0.267-0.721,0.24c-1.032-0.077-2.659-1.368-3.84-1.923
			c-0.498-0.23-1.162-0.276-1.439-0.479c-0.551-0.398-1.366-1.604-1.92-2.4c-0.172-0.246-0.294-0.478-0.48-0.72
			c-0.098-0.128-0.414-0.354-0.479-0.479c-0.228-0.43-0.196-0.96-0.479-1.44c-0.058-0.098-0.443-0.157-0.48-0.24
			c-0.053-0.118,0.074-0.376,0-0.479c-0.146-0.201-0.334-0.222-0.48-0.48c-0.088-0.157-0.134-0.312-0.24-0.479
			c-0.149-0.235-0.153-0.377-0.239-0.723c-0.064-0.256-0.171-0.104-0.24-0.237c-0.231-0.449-0.491-0.99-0.72-1.44
			c-0.102-0.197-0.107-0.474-0.24-0.72c-0.068-0.129-0.438-0.373-0.48-0.48c-0.19-0.479-0.074-0.775-0.24-1.438
			c-0.096-0.385-0.487-1.229-0.719-1.92c-0.029-0.085-0.229-0.002-0.24-0.24c-0.004-0.063,0.022-0.182,0-0.24
			c-0.205-0.509-0.449-1.878-0.721-2.64c-0.699,0.597-0.463,1.604-0.72,2.397c-0.026,0.082-0.228,0.005-0.239,0.24
			c-0.02,0.36-0.752,0.938-0.48,1.92c-0.596,0.524-0.844,1.396-1.44,1.92c-0.036,0.917-0.161,1.896-0.479,2.643
			c-0.206,0.479-0.143,0.424-0.48,0.72c-0.324,0.284-0.576,0.702-0.96,1.2c-0.112,0.146-0.388,0.338-0.479,0.479
			c-0.143,0.223-0.1,0.438-0.24,0.723c-0.215,0.429-0.312,0.293-0.48,0.96c-0.224,0.896-1.654,1.854-2.16,2.88
			c-0.299,0.066-0.666-0.09-0.959,0c-0.121,0.036-0.396,0.456-0.48,0.479c-0.298,0.082-0.659-0.068-0.96,0
			c-0.519,0.122-1.03,0.229-2.16,0c0.019,0.004-0.118-0.209-0.239-0.238c-0.361-0.092-0.855,0.135-1.201,0
			c-0.099-0.038,0.01-0.229-0.24-0.239c-0.309-0.019-0.303-0.355-0.479-0.48c-0.086-0.061-0.416,0.079-0.479,0
			c-0.075-0.091-0.15-0.413-0.24-0.479c-0.583-0.436-1.123-0.593-1.439-0.96c-0.176-0.202-0.078-0.477-0.24-0.723
			c-0.131-0.194-0.342-0.223-0.48-0.479c-0.146-0.272-0.105-0.479-0.24-0.72c-0.07-0.127-0.226,0.029-0.24-0.24
			c-0.021-0.408-0.479-0.773-0.719-1.2c-0.369-0.653-0.592-1.596-0.961-2.4c-0.053-0.114-0.453-0.394-0.48-0.479
			c-0.172-0.571-0.01-0.755-0.239-1.44c-0.028-0.084-0.228-0.002-0.24-0.237c-0.052-0.982-0.59-2.407-0.96-3.36
			c-0.038-0.099-0.227,0.009-0.24-0.24c-0.002-0.062,0.023-0.182,0-0.238c-0.228-0.567-0.266-1.929-0.72-2.642
			c-0.161-0.253-0.026-0.985-0.239-1.2c-0.178-0.177-0.164-0.175-0.24-0.479c-0.4-1.604-0.942-4.323-1.44-6.24
			c-0.129-0.498-0.394-1.172-0.479-1.68c-0.226-1.32-0.08-2.761-0.24-4.08c-0.084-0.679-0.418-1.446-0.48-2.16
			c-0.195-2.229,0.327-4.965,0-7.439c-0.046-0.35-0.238-0.441-0.24-0.721c0-0.728,0.215-1.699,0.24-2.398
			c0.061-1.69-0.123-2.893,0.24-4.562c0.043-0.2,0.223-0.235,0.24-0.479c0.019-0.25-0.66-1.74-0.24-2.16
			c0.445-0.446-0.021-1.211,0-2.16c0.014-0.639,0.246-1.307,0.24-1.92c-0.006-0.686-0.266-1.469-0.24-2.16
			c0.023-0.656,0.422-1.325,0.48-1.92c0.049-0.514-0.244-1.159-0.24-1.68c0.002-0.369,0.166-0.996,0.24-1.44
			c0.201-1.214,0.485-2.774,0.72-4.319c-0.007,0.043,0.214-0.138,0.239-0.24c0.196-0.782,0.078-1.76,0.24-2.641
			c0.157-0.846,0.18-1.781,0.721-2.4c1.004,0.771,0.847,2.248,0.959,3.361c0.049,0.475,0.22,0.644,0.24,0.959
			c0.01,0.137,0.033,0.35,0,0.48c-0.05,0.199-0.322,0.388-0.24,0.72c0.026,0.103,0.242,0.3,0.24,0.24
			c0.004,0.19-0.25,0.389-0.24,0.72c0.015,0.497,0.205,0.999,0.24,1.439c0.043,0.546-0.027,0.918,0,1.441
			c0.022,0.437-0.295,0.799-0.24,1.199c0.002,0.01,0.23,0.061,0.24,0.24c0.01,0.199,0.34,0.385,0.24,0.72
			c-0.053,0.224,0.066,0.5,0,0.72c-0.023,0.077-0.236,0.965-0.48,1.2c0.518,1.722,0.711,4.388,0.48,6.96
			c-0.033,0.369-0.244,0.791-0.24,1.2c0.004,0.417,0.191,0.524,0.24,0.96c0.036,0.316-0.033,0.645,0,0.96
			c0.072,0.687,0.208,1.255,0.24,1.92c0.023,0.519-0.239,0.623-0.24,0.96c-0.001,0.393,0.229,0.408,0.24,0.721
			c0.128,3.567-0.034,8.555,0.24,12c0.121,1.53,0.084,2.878,0.479,4.319c0.271,0.991,0.647,1.854,0.96,3.12
			c0.014,0.055,0.229,0.025,0.24,0.24c0.032,0.604,0.042,0.941,0.24,1.438c0.033,0.086-0.066,0.428,0,0.48
			c0.324,0.266,0.058,0.414,0.24,1.2c0.074,0.314,0.359,0.604,0.479,0.96c0.177,0.521,0.142,1.091,0.24,1.92
			c0.009,0.07-0.05,0.438,0,0.479c0.276,0.229,0.001,0.723,0.239,0.96c0.02,0.021,0.234-0.021,0.24,0
			c0.096,0.375,0.11,0.814,0.24,1.2c-0.004-0.013,0.217,0.94,0.24,0.96c0.39,0.319,0.277,2.188,0.72,2.88
			c0.147,0.231,0.531,1.207,0.72,1.683c0.088,0.217,0.234,0.719,0.48,1.197c0.072,0.146,0.118,0.56,0.24,0.723
			c0.09,0.12,0.396,0.126,0.479,0.237c0.134,0.185,0.087,0.519,0.24,0.723c0.09,0.12,0.397,0.126,0.479,0.239
			c0.22,0.301,0.207,0.881,0.48,1.198c0.391,0.457,0.63,0.239,0.96,0.722c0.636-0.243,0.649-1.109,1.2-1.439
			c0.268-0.379,0.67-0.57,0.96-0.96c0.162-0.218,0.09-0.442,0.239-0.72c0.097-0.179,0.369-0.329,0.48-0.48
			c0.438-0.591,0.766-0.93,1.2-1.68c0.116-0.201,0.397-0.331,0.479-0.48c0.354-0.633,0.131-1.586,0.961-1.92
			c0.301-0.916-0.213-1.153,0.24-1.92c-0.121-0.562,0.572-0.976,0.719-1.438c0.177-0.559-0.086-1.119,0.24-1.683
			c0.194-0.206,0.658-0.143,0.721-0.479c0.459-0.46-0.271-2.609,0.24-3.12c0.141-0.142,0.405-0.363,0.479-0.96
			c0.106-0.855-0.079-1.758,0-2.641c0.071-0.812,0.414-1.591,0.479-2.399c0.111-1.374-0.115-2.903,0-4.32
			c0.1-1.215,0.526-2.062,0.48-3.84c0,0.032-0.24-0.084-0.24-0.24c0-0.211,0.236-0.546,0.24-0.96c0.01-1.071-0.08-2.121,0-3.119
			c0.059-0.732,0.375-1.467,0.48-2.16c0.064-0.428-0.054-1.032,0-1.438c0.054-0.421,0.19-0.519,0.239-0.96
			c0.183-1.639,0.101-3.398,0.24-5.04c0.086-1.017,0.403-1.897,0.479-2.88c0.106-1.382-0.172-2.749,0-4.08
			c0.1-0.764,0.385-1.625,0.721-2.4c0.195-0.545,0.048-1.207,0.24-1.92c0.184-0.682,0.375-1.399,0.959-1.68
			c0.445-0.023,0.711,0.061,0.961,0.24c0.273,0.197,0.586,0.605,0.72,1.199c0.034,0.152-0.038,0.33,0,0.48
			c0.119,0.479,0.388,2.805,0.239,4.08c-0.092,0.793-0.451,1.562-0.479,2.16c-0.063,1.367,0.3,3.13,0.479,4.561
			c0.023,0.185-0.127,1.096,0,1.199c0.271,0.221,0.055,0.557,0,1.44c-0.03,0.517,0.003,0.989,0,1.44
			c-0.002,0.409,0.246,0.76,0.24,1.198c-0.004,0.287-0.297,0.455-0.24,1.2c0.074,0.934,0.377,1.822,0.48,2.641
			c0.114,0.9,0.202,1.788,0.24,2.641c0.021,0.472,0.046,0.971,0,1.438c-0.048,0.483-0.211,0.635-0.24,0.96
			c0.004-0.039,0.24,0.33,0.24,0.479c0,0.062,0.042,0.444,0,0.479c-0.203,0.166-0.449,0.621-0.48,0.96
			c-0.049,0.528,0.231,0.612,0.24,0.96c0.01,0.434-0.26,0.505-0.24,0.96c0.039,0.898,0.398,1.71,0.48,2.642
			c0.049,0.562-0.245,1.124-0.24,1.681c-0.001-0.113,0.227,0.188,0.24,0.24c0.107,0.429,0.098,1.864,0.24,2.397
			c0.213,0.807,0.037,2.37,0.24,3.603c0.078,0.474,0.316,0.952,0.479,1.438c0.162,0.486,0.34,1.004,0.479,1.44
			c0.166,0.517-0.049,0.767,0.24,1.199c0.113,0.17,0.33,0.562,0.48,0.961c0.031,0.084-0.064,0.427,0,0.479
			c0.554,0.453,0.547,2.713,0.96,3.36c0.174,0.271,0.271,0.5,0.479,0.72c0.203,0.211,0.318,0.466,0.48,0.72
			c0.072,0.113,0.203,0.181,0.24,0.24c0.113,0.192,0.098,0.49,0.24,0.721c0.058,0.096,0.442,0.158,0.479,0.239
			c0.058,0.128-0.069,0.358,0,0.48c0.114,0.199,0.399,0.333,0.479,0.479c0.176,0.322,0.068,0.624,0.24,0.96
			c0.084,0.164,0.397,0.339,0.48,0.48c0.254,0.432,0.415,0.917,0.72,1.438c0.075,0.13,0.226-0.031,0.24,0.24
			c0.016,0.294,0.403,0.412,0.479,0.72c0.135,0.537,0.193,0.557,0.721,0.96c0.132,0.104,0.353,0.41,0.479,0.48
			c0.323,0.179,0.597,0.111,0.96,0.24c0.055,0.019,0.061,0.193,0.24,0.238c0.613,0.152,1.675-0.27,2.16-0.721
			c0.133-0.124-0.039-0.226,0.24-0.24c0.438-0.021,0.19-0.769,0.479-1.198c0.06-0.089,0.445-0.162,0.479-0.239
			c0.058-0.128-0.069-0.36,0-0.48c0.088-0.147,0.41-0.348,0.48-0.479c0.174-0.325,0.066-0.623,0.24-0.96
			c0.059-0.115,0.451-0.395,0.48-0.48c0.092-0.29-0.07-0.662,0-0.96c0.047-0.2,0.199-0.241,0.239-0.479
			c0.052-0.31-0.071-0.657,0-0.96c0.048-0.201,0.202-0.241,0.24-0.48c0.094-0.582-0.11-1.102,0-1.68
			c0.083-0.431,0.428-0.796,0.479-1.2c0.145-1.123,0.094-2.312,0.24-3.601c0.021-0.2,0.198-0.401,0.24-0.722
			c0.068-0.519-0.17-1.194,0-1.92c0.164-0.696,0.337-2.484,0.48-3.84c0-0.005,0.239-0.056,0.239-0.24
			c0-0.229-0.337-0.462-0.239-1.199c0.049-0.38,0.457-0.816,0.479-1.198c0.028-0.515-0.253-0.766-0.24-1.683
			c0.007-0.504,0.204-1.084,0.24-1.68c0.044-0.73,0.162-0.312,0-0.96c-0.134-0.534,0.215-1.312,0.24-1.92
			c0.093-2.306-0.046-4.646,0.239-6.96c0.084-0.675,0.42-1.434,0.48-2.16c0.036-0.436-0.139-0.883,0-1.439
			c0.007-0.026,0.405-0.869,0-1.199c-0.289-0.236-0.15-0.615-0.24-1.439c-0.328-3.039-0.05-7.781-0.479-11.04
			c-0.033-0.251-0.21-0.524-0.24-0.96c-0.022-0.318,0.024-0.643,0-0.96c-0.015-0.174-0.297-0.264-0.24-0.479
			c0.019-0.068,0.24-0.008,0.24-0.24c0-0.146,0.093-0.866,0-0.96c-0.379-0.378,0.028-0.948,0-1.921
			c-0.021-0.672-0.206-1.243-0.24-1.92c-0.034-0.658,0.031-1.287,0-1.92c-0.058-1.184-0.251-2.289-0.239-3.359
			c0.006-0.582,0.187-1.078,0.239-1.68c0.054-0.6-0.089-1.18,0-1.681C269.206,272.453,269.843,271.327,270.16,270.24z"/>
		<path d="M522.64,270.721c0.866,1.359,0.232,2.905,0.24,4.319c0.006,1.088,0.237,2.251,0.24,3.36
			c0.003,1.05-0.189,2.024-0.24,3.119c-0.104,2.285-0.094,4.104-0.24,6.48c-0.06,0.979-0.241,1.938-0.237,2.88
			c0.003,0.868,0.26,1.774,0.237,2.64c-0.021,1.008-0.391,2.01-0.479,3.121c-0.15,1.875,0.159,3.801-0.24,5.52
			c-0.111,0.479-0.42,0.887-0.479,1.439c-0.176,1.596,0.136,3.382,0,5.038c-0.075,0.907-0.446,1.802-0.48,2.643
			c-0.034,0.845,0.234,1.788,0.24,2.64c0.006,0.864-0.194,1.734-0.24,2.64c-0.096,1.879-0.168,3.612-0.24,5.521
			c-0.066,1.827,0.332,3.422-0.72,4.56c0.067,0.813,0.382,1.379,0.24,2.4c-0.49,0.55-0.676,1.404-0.96,2.16
			c-0.362,0.678-1.492,0.588-2.16,0.96c-0.026-0.453-0.794-0.167-0.72-0.72c-0.523-0.484-0.414-1.133-0.48-1.683
			c0,0.003-0.454-0.505-0.24-0.72c0.438-0.436,0.225-1.09,0-1.68c-0.029-0.085,0.065-0.43,0-0.48
			c-0.312-0.256-0.104-0.612-0.237-1.438c-0.14-0.84-0.42-1.8-0.48-2.643c-0.011-0.15-0.1-1.118,0-1.2
			c0.393-0.317-0.105-1.445,0-2.64c0.054-0.591,0.416-0.977,0.24-1.68c-0.053-0.212-0.163-0.412-0.24-0.723
			c-0.067-0.273-0.236-1.032-0.239-1.92c-0.002-1.006,0.387-2.055,0.479-3.12c0.252-2.843-0.225-6.151,0.479-8.64
			c0.073-0.262,0.201-0.83,0.479-0.96c-0.58-1.81-0.062-3.397,0-5.28c0.035-1.082-0.079-2.023,0.24-3.119
			c0.127-0.438,0.438-0.742,0.479-1.201c0.074-0.856-0.26-1.752-0.239-2.64c0.011-0.422,0.168-0.78,0.239-1.2
			c0.039-0.223-0.063-0.502,0-0.72c0.07-0.231,0.195-0.868,0.24-1.68c0.012-0.211-0.061-0.519,0-0.72
			c0.069-0.229,0.161-0.885,0.24-1.681c0.06-0.604,0.011-0.921,0.237-1.68c0.025-0.082,0.423-0.827,0.48-1.2
			c0.109-0.688-0.068-1.562,0-2.16c0.062-0.549,0.366-1.178,0.479-1.68c0.209-0.925,0.136-1.641,0.48-2.16
			c0.058-0.087,0.155-0.65,0.24-0.72c0.194-0.161,0.165-0.183,0.237-0.479c0.065-0.259,0.34-0.481,0.48-0.721
			c0.431-0.721,0.888-1.372,1.44-1.92c0.176-0.225,0.436-0.364,0.72-0.48C522.354,270.525,522.399,270.721,522.64,270.721z"/>
		<path d="M569.44,288.96c-1.174,0.341-1.376-0.812-1.923-1.44c-0.121-0.143,0.033-0.226-0.237-0.24
			c-0.11-0.004-1.657-1.239-1.683-1.68c-0.012-0.235-1.062-1.361-1.438-1.68c-0.149-0.125-1.184-0.359-1.2-0.72
			c-0.016-0.291-0.307-0.114-0.479-0.24c-0.443-0.323-0.904-0.628-1.199-1.2c-1.146,0.186-1.581-0.339-1.92-0.96
			c-0.894-0.069-1.649-0.271-1.92-0.96c-1.157,0.512-2.091-0.128-3.12-0.24c-0.396-0.043-0.411,0.26-0.723,0.24
			c-0.196-0.012-0.233-0.262-0.479-0.24c-0.441,0.041-0.862,0.319-1.44,0.48c-0.465,0.129-1.135,0.129-1.438,0.24
			c-0.376,0.137-0.787,0.525-1.2,0.72c-0.455,0.215-0.808,0.271-1.2,0.479c-0.156,0.084-0.343,0.404-0.479,0.48
			c-0.089,0.049-0.42-0.074-0.48,0c-0.188,0.23-0.616,0.62-1.2,0.721c-0.541,0.082-0.43,0.625-0.72,0.959
			c-0.231,0.27-0.69,0.409-0.96,0.721c-0.164,0.19-0.075,0.5-0.24,0.72c-0.189,0.255-0.865,0.544-1.199,0.96
			c-0.149,0.188-0.08,0.507-0.238,0.72c-0.092,0.121-0.397,0.128-0.48,0.24c-0.133,0.183-0.087,0.517-0.239,0.72
			c-0.086,0.115-0.404,0.131-0.479,0.24c-0.151,0.223-0.121,0.505-0.24,0.721c-0.069,0.125-0.226-0.033-0.239,0.239
			c-0.017,0.308-0.35,0.306-0.479,0.479c-0.063,0.086,0.079,0.416,0,0.48c-0.423,0.346-0.294,0.455-0.479,1.2
			c-0.056,0.222-0.203,0.144-0.238,0.239c-0.153,0.412-0.274,1.061-0.479,1.44c-0.084,0.155-0.407,0.347-0.479,0.48
			c-0.147,0.274-0.066,0.497-0.24,0.72c-0.297,0.379-0.828,0.411-0.96,0.96c0,0.72,0,1.44,0,2.16
			c-0.78,0.75-0.852,2.429-1.439,3.601c-0.062,0.12-0.227-0.027-0.24,0.239c-0.021,0.39-0.192,0.407-0.238,0.72
			c-0.064,0.439,0.795,2.808,0.238,3.36c-0.146,0.147-0.396,0.362-0.479,0.96c-0.221,1.546-0.211,3.739,0,5.28
			c0.089,0.651,0.446,1.434,0.721,2.16c0.031,0.084-0.063,0.427,0,0.479c0.291,0.238,0.233,1.536,0.479,2.16
			c0.146,0.367,0.271,0.718,0.479,0.96c0.157,0.185,0.593,0.284,0.72,0.479c0.193,0.3,0.079,0.631,0.24,0.963
			c0.059,0.115,0.228-0.025,0.239,0.237c0.012,0.196,0.271,0.238,0.24,0.48c0.369,0.521,0.832,0.975,1.2,1.438
			c0.136,0.172,0.699,0.6,0.72,0.96c0.036,0.699,2.201,2.087,2.88,2.643c0.222,0.18,0.548,0.608,0.721,0.72
			c0.664,0.421,1.438,0.676,2.159,0.96c0.417,0.164,0.792,0.358,1.2,0.48c0.339,0.101,0.83,0.074,1.2,0.237
			c0.163,0.072,0.344,0.404,0.479,0.48c0.088,0.049,0.42-0.074,0.479,0c0.123,0.148,0.438,0.646,0.96,0.72
			c1.002,0.093,1.958-0.125,2.88,0c0.666,0.091,1.138,0.443,1.681,0.48c0.696,0.047,1.291-0.172,1.92-0.24
			c0.074-0.008,0.544,0.417,0.721,0.24c0.199-0.2,0.419-0.382,0.721-0.48c0.778-0.139,1.116,0.164,1.68,0.24
			c0.296-0.104,0.493-0.309,0.48-0.72c0.224-0.056,0.5,0.064,0.72,0c0.247-0.075,0.531-0.083,1.2-0.24
			c0.51-0.12,1.809-0.26,3.119-0.24c0.432,0.007,0.506,0.257,0.961,0.24c-0.042,0.001,0.1-0.232,0.239-0.24
			c0.652-0.034,1.354,0.176,2.159,0.24c1.255,0.101,2.742-0.042,3.841,0.479c0.055,0.566-0.748,0.779-1.2,0.96
			c-0.086,0.034-0.427-0.063-0.479,0c-0.022,0.029,0.03,0.228,0,0.24c-0.087,0.042-0.422-0.07-0.479,0
			c-0.253,0.311-0.777,0.916-1.681,0.72c-0.071,0.489-0.479,0.642-0.721,0.962c-0.858,0.021-1.387,0.372-2.16,0.479
			c-0.288-0.072-0.115,0.393-0.239,0.48c-0.105,0.073-0.371-0.074-0.479,0c-0.146,0.099-0.346,0.401-0.479,0.479
			c-0.316,0.18-0.625,0.068-0.96,0.24c-0.12,0.062-0.386,0.445-0.479,0.479c-0.655,0.229-2.151,0.02-2.88,0.48
			c-0.218,0.137-0.144,0.412-0.479,0.479c-0.381,0.076-0.812-0.033-1.2,0c-0.874,0.078-0.986,0.171-1.92,0
			c-0.371-0.065-0.922,0.152-0.96-0.237c-0.457,0.103-0.604,0.517-1.199,0.479c-1.246-0.354-2.468-0.73-4.08-0.72
			c-0.784-0.773-1.822-0.802-2.881-1.2c-0.084-0.032-0.427,0.063-0.479,0c-0.021-0.023,0.023-0.23,0-0.24
			c-0.662-0.239-1.162-0.227-1.92-0.479c-0.085-0.028-0.003-0.229-0.24-0.24c0.003,0-0.655-0.191-0.72-0.24
			c-0.087-0.062-0.16-0.438-0.239-0.479c-0.089-0.043-0.423,0.068-0.479,0c-0.022-0.028,0.029-0.229,0-0.24
			c-0.088-0.041-0.423,0.07-0.479,0c-0.053-0.064-0.609-0.462-1.199-0.48c-0.202-0.876-1.117-0.746-1.681-1.197
			c-0.338-0.271-0.585-0.585-0.96-0.96c-0.327-0.327-0.623-0.641-0.96-0.96c-0.187-0.179-0.067-0.523-0.239-0.723
			c-0.307-0.349-1.228-0.445-1.681-0.96c-0.301-1.06-1.11-1.607-1.439-2.64c-0.329-0.551-0.987-0.771-1.438-1.2
			c0.045-0.501-0.284-0.68-0.479-1.2c-0.032-0.084,0.063-0.427,0-0.479c-0.022-0.021-0.229,0.022-0.24,0
			c-0.111-0.312-0.104-0.82-0.238-1.2c-0.045-0.124-0.453-0.391-0.479-0.48c-0.13-0.429-0.07-0.772-0.24-1.197
			c-0.033-0.086,0.066-0.428,0-0.48c-0.25-0.205-0.194-0.421-0.239-1.2c-0.011-0.176-0.298-0.261-0.239-0.479
			c0.02-0.073,0.28,0.011,0.239-0.24c-0.124-0.772-0.661-1.551-0.721-2.16c-0.056-0.579-0.188-1.843,0-2.64
			c0.045-0.189,0.251-0.244,0.24-0.48c-0.034-0.768-0.495-1.499-0.479-2.158c0.018-0.729,0.387-1.463,0.479-2.16
			c0.211-1.572-0.048-3.262,0.239-4.799c-0.005,0.025,0.211-0.125,0.239-0.24c0.232-0.934,0.53-2.273,0.961-3.36
			c0.026-0.071,0.19-0.047,0.238-0.239c0.124-0.496,0.339-0.871,0.479-1.44c0.114-0.458,0.202-0.481,0.479-0.96
			c0.157-0.271,0.38-0.553,0.479-0.96c0.035-0.142-0.057-0.347,0-0.48c0.068-0.159,0.409-0.347,0.479-0.479
			c0.189-0.357,0.262-1.125,0.479-1.44c0.26-0.372,0.66-0.472,0.96-0.72c0.191-1.488,0.887-2.475,1.681-3.36
			c0.234-0.725,0.49-1.43,0.722-2.159c0.457-0.104,0.604-0.518,1.198-0.48c0.062-0.738,0.521-1.08,0.722-1.68
			c1.12-0.414,1.421-1.512,2.398-2.16c0.134-0.088-0.038-0.225,0.239-0.24c0.214-0.012,0.76-0.545,0.961-0.96
			c0.301,0.178,0.398-0.228,0.479-0.24c0.229-0.036,0.518,0.229,0.479,0.24c0.484-0.14,0.525-0.636,0.96-0.96
			c0.085-0.064,0.415,0.08,0.479,0c0.107-0.133,0.475-0.311,0.96-0.48c0.346-0.135,0.585-0.375,0.72-0.72
			c0.598,0.312,1.003-0.34,1.439-0.479c0.518-0.166,0.768,0.047,1.199-0.24c0.146-0.098,0.275-0.209,0.479-0.24
			c0.354-0.052,0.355,0.232,0.479,0.24c0.192,0.012,0.237-0.266,0.479-0.24c0.419,0.045,0.517,0.251,0.96,0.24
			c0.864-0.021,1.473-0.473,2.398-0.24c0.365,0.091,0.299,0.324,0.962,0.48c-0.095-0.022,0.11-0.267,0.238-0.24
			c-0.007-0.001,0.102,0.211,0.239,0.24c0.152,0.031,0.329-0.039,0.48,0c0.211,0.053,0.41,0.162,0.72,0.24
			c0.245,0.062,0.116,0.183,0.239,0.239c0.382,0.177,0.842,0.22,1.438,0.479c0.109,0.049-0.018,0.228,0.24,0.24
			c0.205,0.012,0.531,0.364,0.72,0.48c0.182,0.111,0.783,0.938,1.2,0.96c0.377,0.021,0.602,0.698,0.96,0.96
			c0.378,0.275,0.784,0.21,1.2,0.48c0.748,1.011,1.531,1.987,2.64,2.64c0.03,1.009,0.931,1.149,0.961,2.159
			c0.039,0.529,0.849,0.49,1.199,0.961c0.063,0.085-0.079,0.414,0,0.48c0.196,0.16,0.166,0.182,0.24,0.479
			C569.306,286.742,570.188,287.959,569.44,288.96z"/>
		<path d="M289.6,313.68c-0.276,4.197,0.991,6.851,0.721,11.04c0.253,0.868,0.91,1.329,1.439,1.92
			c0.166,1.275,0.691,2.189,1.44,2.88c-0.171,0.893,0.409,1.03,0.239,1.923c0.065,0.492,1.063,0.057,0.961,0.72
			c0.555,0.249,0.723,0.797,1.199,1.2c0.082,0.067,0.414-0.081,0.48,0c0.209,0.256,0.439,0.529,0.72,0.96
			c0.526,0.149,0.496,0.062,1.2,0.237c0.387,0.099,0.327,0.446,0.721,0.723c0.086,0.06,0.416-0.079,0.479,0
			c0.144,0.176,0.698,0.402,1.2,0.72c0.172,0.108,0.326,0.367,0.479,0.48c0.148,0.106,0.276,0.188,0.479,0.237
			c1.546,0.278,2.738-0.227,3.841,0.723c0.45-0.246,0.917-0.081,1.44-0.24c0.383-0.117,0.513-0.414,0.959-0.48
			c0.668-0.098,1.5,0.132,2.16,0c1.023-0.198,1.848-1.05,2.881-0.72c0.291-0.101,0.273-0.536,0.479-0.72
			c0.171-0.154,0.539-0.08,0.72-0.24c0.354-0.312,0.606-0.653,0.961-0.96c0.155-0.135,0.336-0.37,0.479-0.479
			c0.14-0.106,0.588-0.107,0.72-0.239c0.148-0.148,0.114-0.559,0.24-0.723c0.242-0.313,0.75-0.376,1.199-0.72
			c0.197-0.148,0.233-0.328,0.48-0.479c0.213-0.13,0.456-0.101,0.721-0.24c0.17-0.092,0.332-0.383,0.479-0.48
			c0.808-0.529,1.463-1.19,2.399-1.438c0.274,0.935-0.133,1.933-0.239,3.12c-0.035,0.389,0.071,0.814,0,1.198
			c-0.179,0.961-1.063,1.892-0.72,2.882c-0.279,0.315-0.403,0.454-0.721,0.72c-0.227,0.188-0.443,0.343-0.72,0.479
			c0.158,0.88-0.521,0.923-0.479,1.683c-0.367,0.354-0.804,0.198-1.201,0.479c-0.482,0.343-0.668,1.069-1.199,1.44
			c-0.087,0.06-0.416-0.079-0.48,0c-0.027,0.034,0.036,0.217,0,0.239c-0.087,0.057-0.416-0.076-0.479,0
			c-0.183,0.225-0.173,0.361-0.48,0.479c-0.95,0.362-2.153,0.409-3.6,0.48c-0.679,0.122-1.021,0.58-1.681,0.72
			c-0.709,0.286-1.117-0.276-1.92-0.24c-0.586,0.026-1.107,0.474-1.68,0.48c-0.557,0.008-1.652-0.188-2.4-0.24
			c-0.228-0.017-0.498,0.048-0.72,0c-0.196-0.043-0.237-0.24-0.479-0.24c-0.42,0.001-0.52,0.309-0.961,0.24
			c-0.014-0.002-0.057-0.23-0.239-0.24c-0.063-0.003-0.183,0.023-0.24,0c-0.1-0.04-0.257-0.244-0.239-0.24
			c-0.285-0.062-0.692,0.11-0.961,0c-0.104-0.042,0.014-0.227-0.24-0.237c-0.318-0.02-0.375-0.462-0.719-0.48
			c-0.426-0.021-1.043-0.979-1.44-1.438c-1.835,0.234-1.804-1.396-3.36-1.439c-0.404-0.875-1.168-1.392-1.92-1.92
			c-0.04-0.68-0.439-1-0.48-1.681c-0.332-0.708-1.107-0.973-1.439-1.682c-0.202-0.276-0.316-0.644-0.24-1.198
			c0.008-0.391-0.537-0.498-0.72-0.722c-0.179-0.217-0.164-0.64-0.479-0.72c0.004-0.565-0.414-0.707-0.24-1.44
			c0.008-0.575-0.618-0.742-0.961-1.198c-0.063-0.085,0.08-0.414,0-0.479c-0.195-0.16-0.166-0.184-0.239-0.479
			c-0.054-0.211-0.163-0.411-0.24-0.722c-0.075-0.306-0.419-1.289-0.239-2.397c-0.062-0.738-0.521-1.08-0.721-1.683
			c-0.402-0.334,0.516-2.218,0-2.64c-0.281-0.229-0.166-0.618-0.24-1.44c-0.037-0.424-0.217-0.819-0.24-1.198
			c-0.06-0.993,0.265-1.93,0-2.881c0.231-0.869-1.078-0.2-0.959-0.96c-0.133-0.466-0.469-0.812-0.48-1.198
			c-0.033-1.062,0.841-1.555,1.439-2.16c0.078-0.638,0.062-0.731,0.24-1.44c0.037-0.146,0.24-0.237,0.24-0.238
			c0.1-0.647-0.099-1.317,0-1.922c0.191-1.168,0.669-2.192,0.721-3.357c0.045-1.061,0.475-2.631,0.719-3.84
			c0.193-0.952,0.209-1.747,0.48-2.641c0.01-0.033,0.2-0.078,0.24-0.24c0.135-0.541,0.207-0.445,0.24-1.199
			c0.027-0.653,0.234-0.908,0.479-1.44c0.095-0.206,0.116-0.454,0.24-0.72c0.065-0.143,0.431-0.363,0.479-0.48
			c0.058-0.133-0.035-0.338,0-0.479c0.052-0.203,0.267-0.59,0.48-0.96c0.219-0.376,0.854-1.163,0.721-2.16
			c0.85-0.709,0.854-1.402,1.199-2.641c0.02-0.066,0.229-0.016,0.24-0.239c0.033-0.654,0.232-0.905,0.48-1.44
			c0.112-0.246,0.459-0.586,0.479-0.959c0.006-0.111,0.179-0.35,0.239-0.48c0.182-0.391,0.377-0.75,0.721-1.2
			c0.302-0.396,1.042-0.95,1.439-1.44c0.162-0.197,0.093-0.526,0.24-0.72c0.131-0.17,0.332-0.287,0.48-0.479
			c0.668-0.871,1.511-1.531,2.64-2.4c0.136-0.104,0.349-0.404,0.48-0.48c0.088-0.051,0.419,0.074,0.479,0
			c0.268-0.326,0.213-0.354,0.721-0.479c0.211-0.054,0.412-0.163,0.72-0.24c0.211-0.053,0.411-0.163,0.72-0.239
			c0.2-0.051,0.241-0.201,0.48-0.24c0.392-0.065,0.41,0.236,0.72,0.24c0.39,0.004,0.88-0.211,1.2-0.24
			c0.894-0.081,1.539,0.006,2.16,0.24c0.084,0.031,0.427-0.064,0.479,0c0.179,0.217,0.433,0.371,0.72,0.479
			c0.086,0.032,0.428-0.065,0.48,0c0.242,0.296,1.525,0.211,2.16,0.479c0.107,0.045-0.016,0.227,0.24,0.24
			c0.299,0.016,1.029,0.322,0.959,0.961c0.849,0.111,0.845,1.075,1.92,0.959c-0.024,0.596,0.652,0.645,0.961,0.961
			c0.158,0.161,0.08,0.557,0.24,0.719c0.073,0.076,0.414-0.08,0.479,0c0.196,0.24,0.44,0.318,0.72,0.48
			c0.422,0.244,0.795,0.947,1.2,1.439c1.992-0.071,2.007,1.834,3.84,1.921c0.191,0.448,0.401,0.879,0.48,1.44
			c0.673,0.021,0.907,0.791,1.44,1.199c0.092,0.071,0.41,0.15,0.479,0.24c0.181,0.234,0.11,0.743,0.239,0.96
			c0.059,0.097,0.442,0.157,0.48,0.239c0.059,0.132-0.064,0.354,0,0.48c0.146,0.287,0.338,0.417,0.48,0.721
			c0.152,0.326,0.057,0.642,0.24,0.959c0.119,0.209,0.59,0.287,0.719,0.48c0.184,0.273,0.041,0.693,0.24,0.96
			c0.061,0.08,0.448,0.168,0.48,0.24c0.203,0.45,0.095,0.53,0.72,0.72c0.112,0.167,0.157,0.271,0.24,0.48
			c0.034,0.084-0.065,0.426,0,0.479c0.208,0.171,0.298,0.298,0.479,0.48c0.231,0.231,0.715,0.461,0.48,1.44
			c0.686-0.146,0.625,0.735,0.721,0.959c0.149,0.357,0.25,0.77,0.479,1.2c0.08,0.149,0.114,0.554,0.239,0.72
			c0.149,0.199,0.717,0.371,0.961,0.721c0.06,0.086-0.079,0.416,0,0.479c0.438,0.358,1.07,1.552,0.959,2.64
			c-0.074,0.731-0.518,1.216-0.959,1.92c-0.172,0.201-0.418,0.156-0.721,0.24c-0.08,0.023-0.432-0.059-0.479,0
			c-0.161,0.196-0.183,0.166-0.479,0.24c0.008-0.002-0.703,0.221-0.721,0.24c-0.016,0.02,0.02,0.234,0,0.238
			c-0.75,0.184-1.708,0.021-2.4,0.24c-0.682,0.215-1.285,0.494-1.68,0.959c-0.734,0.177-0.706-0.412-1.439-0.238
			c-0.158,0.312-0.616,0.09-0.961,0.238c-0.073,0.033-0.449,0.479-0.479,0.48c-0.606,0.067-0.951-0.453-1.681,0
			c-0.116,0.072-0.381,0.442-0.479,0.479c-0.456,0.177-1.204,0.119-1.68,0.24c-0.614,0.155-1.183,0.091-1.681,0.24
			c-0.47,0.141-0.782,0.336-1.199,0.479c-0.143,0.052-0.334-0.034-0.48,0c-0.199,0.052-0.388,0.323-0.72,0.24
			c-0.2-0.05-0.388-0.322-0.72-0.24c-0.104,0.026-0.297,0.242-0.24,0.24c-0.674,0.021-1.286-0.102-1.92,0
			c-0.752,0.121-1.443,0.483-2.16,0.721c-0.38,0.127-0.827,0.101-1.2,0.239c-0.097,0.037,0.007,0.229-0.239,0.24
			c-0.39,0.021-0.408,0.191-0.721,0.24c-0.385,0.06-2.382-0.316-2.641,0c-0.022,0.025,0.031,0.226,0,0.237
			c-0.086,0.043-0.422-0.067-0.479,0c-0.245,0.303-0.571,0.274-1.2,0.48c-0.082,0.027-0.429-0.062-0.479,0
			c-0.022,0.028,0.03,0.226,0,0.24c-0.087,0.041-0.423-0.07-0.479,0c-0.02,0.021,0.023,0.229,0,0.238
			c-0.348,0.116-0.94-0.188-0.961,0.239c-0.678,0.198-0.621-0.338-1.199-0.239c-0.797,0.13-1.482,1.225-2.4,0.479
			c-0.367,0.356-0.905,0.544-1.439,0.72c-0.191,0.063-0.826-0.135-0.961,0C293.221,313.419,291.002,313.13,289.6,313.68z
			 M325.12,299.04c-0.438-0.552-0.868-1.021-1.2-1.44c-0.186-0.232-0.55-0.498-0.72-0.72c-0.417-0.542-0.595-1.169-0.96-1.68
			c-0.145-0.201-0.571-0.276-0.721-0.479c-0.115-0.16,0.107-0.556,0-0.721c-0.08-0.123-0.559,0.049-0.479-0.24
			c-0.399-0.32-0.08-1.359-0.479-1.68c-0.519-0.441-1.183-0.738-1.681-1.2c-0.534-1.866-2.714-2.085-3.12-4.08
			c-0.732,0.175-0.875-0.245-1.439-0.239c0.109-0.75-0.514-0.768-1.2-0.721c-0.202-0.678-1.099-0.66-1.2-1.439
			c-1.025-0.198-1.486-1.103-2.16-1.68c-0.729-0.627-1.554-1.171-2.16-1.921c-0.815,0.124-2.074-0.35-2.399-0.479
			c-0.06-0.023-0.177,0.003-0.24,0c-0.253-0.014-0.136-0.197-0.24-0.24c-0.907-0.372-2.194-0.247-3.12-0.48
			c-0.246-0.062-0.156,0.137-0.24,0.24c-0.053,0.064-0.395-0.031-0.479,0c-0.739,0.279-0.97,0.865-1.68,0.96
			c0.028,0.243-0.23,0.284-0.24,0.479c-0.015,0.266-0.183,0.123-0.239,0.24c-0.16,0.326-0.043,0.674-0.24,0.961
			c-0.244,0.352-0.877,0.619-1.201,0.959c-0.543,0.576-0.979,1.397-1.199,2.16c-0.184,0.635-0.352,1.238-0.48,1.44
			c-0.384,0.603-0.931,1.606-0.959,2.16c-0.023,0.44-0.463,0.614-0.48,0.96c-0.014,0.242-0.209,0.15-0.24,0.24
			c-0.268,0.763,0.12,0.906-0.24,1.199c-0.066,0.055,0.034,0.396,0,0.48c-0.351,0.877-0.623,1.684-1.199,2.4
			c0.279,1.432-0.662,2.535-0.961,3.84c-0.108,0.479,0.09,1.111,0,1.68c-0.066,0.43-0.424,1.012-0.479,1.439
			c-0.08,0.604-0.101,1.313,0,1.92c-0.429,0.021-0.123,0.613-0.24,0.961c-0.008,0.021-0.217-0.021-0.239,0
			c-0.07,0.057,0.041,0.393,0,0.479c-0.015,0.03-0.213-0.021-0.24,0c-0.055,0.045,0.016,0.403,0,0.48
			c-0.28,1.387-0.217,3.106-0.48,4.56c0.242,0.113,0.404-0.215,0.48-0.24c0.934-0.311,1.674-0.041,2.64-0.237
			c0.063-0.016,0.375-0.447,0.479-0.48c0.365-0.113,0.828,0.086,1.201,0c0.526-0.271,0.797-0.803,1.439-0.96
			c0.277,0.201,0.645,0.316,1.2,0.24c0.862-1.102,2.151-0.769,3.6-0.96c0.226-0.03,0.294-0.23,0.479-0.24
			c0.199-0.011,0.207-0.233,0.24-0.24c0.408-0.079,0.787,0.273,0.961,0.24c0.34-0.062,0.404-0.393,0.72-0.479
			c0.802-0.225,1.418-0.135,1.68-0.239c0.06-0.023,0.177,0.003,0.24,0c0.243-0.013,0.147-0.208,0.239-0.24
			c0.738-0.265,1.262-0.153,1.92-0.239c0.337-0.045,0.5-0.199,0.721-0.24c0.677-0.129,1.333-0.104,1.92-0.238
			c0.561-0.131,0.943-0.59,1.439-0.723c0.258-0.066,0.158,0.209,0.24,0.24c0.252,0.098,0.404-0.228,0.48-0.24
			c1.093-0.179,1.779-0.285,2.641,0c0.153-0.457,0.625-0.334,0.959-0.479c1.076-0.466,2.266-0.743,3.6-0.96
			c0.679-0.11,0.931-0.2,1.201-0.24c0.24-0.034,0.287,0.255,0.479,0.24c0.026-0.002,0.401-0.47,0.479-0.479
			c0.787-0.11,0.865,0.408,1.201,0c0.053-0.063,0.395,0.031,0.479,0c0.341-0.129,0.46-0.324,0.72,0
			c0.129,0.162,0.285-0.248,0.24-0.24c1.029-0.161,1.363,0.018,1.92-0.479C325.866,300.686,325.604,299.648,325.12,299.04z"/>
		<path d="M411.04,292.08c-1.276-0.004-1.475-1.085-1.68-2.16c-0.349-0.293-0.364-0.916-0.723-1.2
			c-0.498-0.062-0.063-1.055-0.479-1.2c-0.06-0.422-0.413-0.547-0.96-0.479c-0.333-0.147-0.036-0.925-0.48-0.96
			c-0.356-0.275-0.863-0.816-1.438-1.2c0.022-0.745-0.755-0.685-0.48-1.68c-0.139-0.235-0.46-0.11-0.72-0.24
			c-0.482-0.241-0.683-1-1.68-0.96c-0.487-0.553-0.861-1.219-1.44-1.68c-1.612-0.396-4.749-1.129-5.279,0.72
			c-0.636,0.226-1.279,0.524-1.681,0.96c-0.194,0.21-0.087,0.438-0.239,0.72c-0.084,0.157-0.404,0.343-0.479,0.48
			c-0.148,0.268-0.106,0.479-0.24,0.72c-0.069,0.126-0.226-0.031-0.239,0.24c-0.025,0.473-0.91,0.604-1.44,0.96
			c-0.376,1.864-1.476,3.004-2.4,4.319c-0.288,2.74-1.173,5.605-1.92,8.641c-0.342,1.388-0.774,2.922-0.96,4.32
			c-0.062,0.479,0.062,0.957,0,1.438c-0.172,1.327-0.375,3.335-0.48,5.28c-0.017,0.31,0.055,0.655,0,0.96
			c-0.041,0.23-0.254,0.354-0.239,0.72c0.026,0.637,0.395,1.334,0.479,1.92c0.168,1.138-0.015,2.314,0.24,3.36
			c0.128,0.521,0.299,1.125,0.48,1.68c0.113,0.35,0.371,0.769,0.479,1.2c0.056,0.221,0.011,1.022,0.24,1.44
			c0.126,0.229,0.694,0.23,0.72,0.72c0.012,0.231,0.35,0.772,0.48,1.2c0.305,0.812,1.33,0.906,1.439,1.92
			c1.49,0.188,2.252,1.105,3.36,1.68c0.403,0.343,1.167,0.074,2.159,0.24c0.38,0.062,0.82,0.439,1.201,0.479
			c-0.152-0.016,0.212-0.23,0.239-0.237c0.721-0.183,1.095,0.169,1.682,0.237c0.232,0.028,0.485-0.04,0.72,0
			c0.461,0.08,0.798,0.375,1.2,0.48c0.3,0.078,0.656-0.071,0.96,0c0.2,0.047,0.235,0.211,0.479,0.24
			c0.729,0.088,1.652-0.565,2.16,0.237c0.488-0.437,1.946-0.759,2.64-0.237c0.785,0,0.608-0.62,1.44-0.723
			c0.207-0.022,0.525,0.073,0.72,0c0.119-0.044,0.146-0.436,0.24-0.479c0.429-0.203,1.06,0.021,1.68-0.24
			c0.287-0.121,0.277-0.325,0.48-0.479c0.209-0.16,0.462-0.087,0.72-0.24c0.227-0.137,0.304-0.357,0.48-0.48
			c0.086-0.06,0.415,0.079,0.479,0c0.023-0.026-0.03-0.226,0-0.238c0.401-0.192,0.822-0.384,1.2-0.479
			c0.01-0.003,0.096-0.204,0.24-0.24c0.412-0.103,0.52,0.351,0.96,0.24c-0.11,0.442,0.144,0.865,0,1.44
			c-0.056,0.211-0.163,0.409-0.24,0.72c-0.075,0.299-0.36,0.417-0.48,0.72c-0.296,0.746-0.727,1.479-0.96,2.4
			c-1.072,0.285-1.665,1.054-1.92,2.16c-1.168-0.131-1.123,0.954-1.92,1.197c-0.598,0.202-1.285,0.314-2.16,0.24
			c-0.049,0.662-0.533,0.313-1.197,0.48c-0.142,0.032-0.249,0.239-0.24,0.237c-0.484,0.064-0.933-0.234-1.44-0.237
			c-0.475-0.005-1.306,0.307-1.92,0.479c-0.865-0.014-1.161-0.598-1.92-0.72c-1.105,0.155-1.878,0.525-2.88,0.479
			c-1.465-0.067-2.819-1.375-4.319-0.72c-0.818-0.702-2.113-0.928-2.881-1.68c-0.519-0.541-0.818,0.196-1.68,0
			c-0.415-0.467-0.809-0.749-1.2-1.2c-0.114-0.131-0.705-0.678-0.72-0.96c-0.003-0.046-0.195-0.432-0.24-0.48
			c-0.684-0.758-1.536-1.323-2.4-1.92c-0.459-1.795-1.92-2.476-1.92-5.04c-0.3-0.881-1.01-1.688-1.199-2.88
			c-0.094-0.585,0.257-1.308,0.24-1.92c-0.018-0.63-0.396-1.225-0.48-1.92c-0.164-1.344-0.15-3.256,0-5.04
			c0.246-2.914,0.497-7.065,0.96-10.08c0.032-0.212,0.196-0.392,0.239-0.72c0.09-0.676,0-0.955,0.24-1.68
			c0.028-0.084,0.228-0.002,0.24-0.24c0.004-0.086,0.48-0.782,0.721-0.961c0.101-1.084,0.183-2.172,0.479-3.359
			c0.06-0.24,0.263-1.387,0.479-2.16c0.006-0.021,0.203-0.087,0.24-0.24c0.121-0.483,0.008-0.572,0.24-1.199
			c0.035-0.096,0.227,0.006,0.24-0.24c0.011-0.198,0.305-0.82,0.479-1.2c0.087-0.187,0.113-0.483,0.24-0.72
			c0.085-0.158,0.403-0.344,0.479-0.48c0.088-0.158,0.135-0.313,0.24-0.479c0.072-0.113,0.204-0.179,0.24-0.24
			c0.117-0.196,0.098-0.481,0.24-0.72c0.097-0.162,0.39-0.336,0.479-0.48c0.27-0.433,0.441-0.921,0.961-1.439
			c0.442-0.443,0.94-0.812,1.439-1.44c0.183-0.229,0.287-0.494,0.48-0.72c0.408-0.479,0.942-0.896,1.439-1.44
			c0.422-0.462,0.825-1.177,1.2-1.44c0.086-0.061,0.415,0.08,0.479,0c0.19-0.231,0.185-0.338,0.48-0.479
			c0.251-0.121,0.883-0.06,0.96-0.479c0.553,0.072,0.267-0.693,0.72-0.721c0.966-0.697,2.977-0.766,4.561-0.479
			c0.501,0.091,0.764,0.313,1.199,0.479c0.401,0.152,1.035,0.1,1.2,0.48c0.508-0.178,0.323,0.303,0.48,0.48
			c0.105,0.121,0.375,0.121,0.479,0.239c0.139,0.156,0.09,0.565,0.24,0.72c0.074,0.076,0.414-0.08,0.479,0
			c0.259,0.314,0.589,0.604,0.96,0.961c0.205,0.195,0.215,0.315,0.48,0.479c0.09,0.056,0.414,0.159,0.479,0.239
			c0.066,0.084-0.08,0.414,0,0.48c0.233,0.192,0.323,0.193,0.479,0.48c0.048,0.088-0.073,0.42,0,0.48
			c0.235,0.191,0.309,0.211,0.479,0.479c0.062,0.096,0.439,0.155,0.479,0.239c0.087,0.185-0.109,0.55,0,0.721
			c0.191,0.299,0.932,0.417,0.96,0.96c0.023,0.446,0.447,0.596,0.72,0.96c0.064,0.085-0.079,0.415,0,0.48
			c0.291,0.237,0.56,1.274,1.2,1.68c0.205,0.531,0.049,1.154,0.24,1.92c0.079,0.316,0.427,0.376,0.479,0.72
			C411.67,290.646,412.232,291.55,411.04,292.08z"/>
		<path d="M438.4,279.12c0.562-0.29,0.688,0.299,0.96,0.479c0.145,0.096,0.347,0.406,0.479,0.48c0.088,0.049,0.42-0.074,0.48,0
			c0.127,0.156,0.72,0.333,1.197,0.72c0.277,0.19,0.141,0.574,0.24,0.96c0.031,0.117-0.084,0.646,0,0.721
			c0.061,0.052,0.449-0.064,0.48,0c0.114,0.244,0.08,0.631,0.238,0.959c0.054,0.108,0.439,0.152,0.479,0.24
			c0.18,0.398,0.032,0.831,0.24,1.44c0.174,0.509,0.68,0.485,0.72,1.2c0.02,0.339,0.109,0.634,0.24,0.959
			c0.036,0.091,0.246,0.273,0.238,0.24c0.114,0.596-0.438,0.412-0.238,1.201c0.05,0.198,0.322,0.387,0.238,0.719
			c-0.022,0.096-0.238,0.311-0.238,0.24c0,0.357,0.411,0.543,0.479,1.2c0.119,1.125,0.354,2.541,0.24,4.08
			c-0.038,0.517-0.239,0.962-0.24,1.44c-0.001,1.193,0.351,2.242,0.24,3.359c-0.037,0.391-0.133,0.567-0.24,0.96
			c-0.109,0.41-0.071,1.05-0.239,1.44c-0.05,0.115-0.378,0.312-0.479,0.479c-0.105,0.172-0.174,0.266-0.24,0.48
			c-0.568,1.871-0.56,3.822-1.199,5.52c-0.03,0.085,0.064,0.43,0,0.48c-0.194,0.16-0.166,0.183-0.238,0.479
			c-0.055,0.212-0.163,0.412-0.24,0.723c-0.062,0.242-0.187,0.117-0.24,0.237c-0.348,0.767-0.574,1.64-0.96,2.643
			c-0.023,0.064-0.19,0.051-0.24,0.24c-0.104,0.427-0.461,0.844-0.479,1.197c-0.022,0.425-0.57,0.415-0.72,0.96
			c-0.248,0.001-0.169,0.303-0.24,0.48c-0.125,0.312-0.46,0.297-0.48,0.96c-0.7-0.062-0.735,0.543-1.438,0.479
			c-0.384,0.337-0.613,0.827-0.72,1.44c-0.521,0.059-0.604,0.734-0.963,0.96c-0.17,0.107-0.531-0.08-0.72,0
			c-0.046,0.02-0.098,0.184-0.24,0.24c-0.267,0.104-0.569,0.459-0.96,0.479c-0.241,0.015-0.76,0.38-1.197,0.48
			c-2.04,0.467-4.467-0.147-6.96-0.24c-0.196-0.174-0.414-0.445-0.723-0.72c-0.271-0.244-0.507-0.574-0.72-0.722
			c-0.301-0.207-0.896-0.069-1.2-0.238c-0.202-0.113-0.229-0.652-0.72-0.722c-0.103-0.538-1.273-0.007-1.44-0.479
			c-0.215-1.129-1.278-1.571-1.92-2.4c-0.251-0.324-0.429-1.037-0.72-1.438c-0.11-0.152-0.343-0.312-0.48-0.48
			c-0.093-0.114-0.425-0.369-0.479-0.479c-0.154-0.314-0.076-0.953-0.24-1.44c-0.027-0.085-0.228-0.001-0.24-0.24
			c-0.037-0.748-0.61-1.529-0.96-2.397c-0.032-0.086,0.066-0.426,0-0.48c-0.28-0.229-0.178-0.487-0.237-0.96
			c-0.251-1.894-0.214-5.448,0-7.92c0.083-0.958,0.081-2.007,0.237-2.88c0.008-0.027,0.23-0.046,0.24-0.24
			c0.045-0.848,0.445-2,0.72-2.88c0.024-0.077,0.229-0.007,0.24-0.239c0.037-0.701,0.313-1.015,0.48-1.681
			c0.108-0.44-0.018-0.639,0.237-1.2c0.054-0.113,0.229,0.021,0.24-0.24c0.019-0.31,0.355-0.303,0.48-0.479
			c0.061-0.086-0.079-0.416,0-0.479c0.077-0.063,0.431-0.164,0.479-0.24c0.059-0.088-0.077-0.417,0-0.48
			c0.363-0.297,0.392-0.441,0.723-0.96c0.052-0.081,0.158-0.655,0.237-0.72c0.363-0.297,0.392-0.441,0.723-0.96
			c0.062-0.103,0.214-0.192,0.237-0.24c0.177-0.317,0.062-0.634,0.24-0.96c0.056-0.102,0.441-0.154,0.48-0.24
			c0.053-0.117-0.075-0.377,0-0.479c0.275-0.375,0.86-0.63,1.197-0.96c0.353-0.344,0.637-0.654,0.96-0.96
			c0.062-0.058,0.184-0.454,0.24-0.48c0.296-0.133,0.623-0.131,0.96-0.479c0.346-0.356,0.503-0.766,0.722-1.2
			c0.76,0.039,0.803-0.638,1.681-0.479c0.158-0.433,0.766-0.947,1.438-1.201c0.085-0.031,0.43,0.065,0.48,0
			c0.025-0.031-0.034-0.22,0-0.239c0.159-0.093,0.543-0.107,0.72-0.24c0.09-0.067,0.157-0.438,0.24-0.479
			c0.353-0.18,0.842-0.084,1.2-0.24c0.13-0.057,0.379-0.444,0.479-0.48c0.364-0.129,3.166-0.143,3.84,0
			c-0.013-0.003,0.114,0.208,0.24,0.24c0.396,0.1,0.707-0.027,1.2,0.24c0.197,0.105,0.091,0.628,0.24,0.72
			c0.143,0.088,0.604-0.117,0.72,0C438.218,278.227,438.396,278.921,438.4,279.12z M431.2,281.279
			c-0.12,0.055-0.339,0.408-0.48,0.48c-0.331,0.17-0.648,0.055-0.96,0.24c-0.136,0.083-0.339,0.372-0.479,0.48
			c-0.348,0.266-0.851,0.612-0.96,0.72c-0.222,0.21-0.448,0.306-0.723,0.479c-0.171,0.109-0.341,0.106-0.479,0.24
			c-0.688,1.155-1.604,2.078-2.64,2.88c0.1,0.335-0.23,0.521-0.24,0.72c-0.023,0.441-0.462,0.614-0.48,0.961
			c-0.015,0.278-0.146,0.104-0.238,0.24c-0.434,0.62-1.406,1.279-1.439,1.92c-0.018,0.324-0.396,0.905-0.48,1.199
			c-0.114,0.405-0.104,0.781-0.237,1.2c-0.095,0.291-0.368,0.655-0.48,0.96c-0.247,0.67-0.303,1.023-0.479,1.2
			c-0.239,0.239,0.036,0.733-0.24,0.96c-0.021,0.018-0.246,0.977-0.24,0.96c-0.196,0.604-0.328,1.075-0.479,1.2
			c-0.406,0.332-0.01,1.172,0,1.199c0.139,0.556-0.033,1.008,0,1.44c0.065,0.888,0.234,1.181,0.237,1.681
			c0.002,0.361-0.196,0.486-0.237,0.722c-0.444,2.513,0.323,4.141,0.96,5.52c0.184,0.4,0.208,0.769,0.479,1.2
			c0.104,0.167,0.354,0.262,0.48,0.479c0.113,0.199,0.088,0.521,0.237,0.721c0.345,0.451,1.04,0.8,1.44,1.2
			c0.512,0.511,0.818,0.956,1.2,1.438c0.561,0.033,1.113,0.223,1.438,0.24c0.277,0.015,0.107,0.153,0.24,0.24
			c0.493,0.316,1.136,0.244,1.68,0.479c0.635,0.274,0.651,0.509,1.2,0.48c0.149-0.008,0.271-0.242,0.24-0.24
			c0.246-0.015,0.28,0.233,0.479,0.24c0.529,0.018,0.89-0.016,1.439,0c0.602,0.04,0.751-0.369,0.96-0.723c0.562,0,1.12,0,1.68,0
			c0.291-0.589,1.119-0.642,1.2-1.438c0.61-0.271,1.171-0.59,1.683-0.96c0.045-1.235,1.308-1.252,1.197-2.643
			c0.623-0.459,1.186-0.793,1.683-1.438c0.046-0.062,0.238-0.728,0.237-0.72c0.017-0.277,0.154-0.107,0.24-0.24
			c0.237-0.366,0.421-0.732,0.72-0.96c-0.104-0.95,0.361-2.347,0.723-2.642c0.158-0.129,0.233-1.107,0.238-1.199
			c0.014-0.237,0.214-0.155,0.239-0.239c0.242-0.726,0.151-1.004,0.24-1.681c0.043-0.328,0.207-0.506,0.24-0.719
			c0.292-1.904,0.412-4.172,0.239-6.24c-0.134-1.592-0.828-3.203-0.722-4.801c-0.195-0.055-0.469-0.262-0.479-0.479
			c-0.017-0.274-0.71-1.476-0.723-1.681c-0.021-0.44-0.521-0.558-0.72-0.719c-0.069-0.058,0.04-0.394,0-0.48
			c-0.109-0.238-0.467-0.479-0.479-0.721c-0.023-0.44-0.522-0.558-0.723-0.72c-0.081-0.065,0.07-0.399,0-0.479
			c-0.068-0.082-0.401,0.076-0.479,0c-0.082-0.082,0.071-0.387,0-0.48c-0.38-0.484-1.09-1.451-1.44-1.68
			c-0.347-0.227-1.016-0.137-1.438-0.24c-0.027-0.007-0.086-0.193-0.24-0.24c-0.378-0.113-0.713-0.164-0.96-0.24
			c-0.22-0.065-0.496,0.054-0.72,0c0-0.133-0.194-0.271-0.24,0C432.528,281.029,431.884,280.973,431.2,281.279z"/>
		<path d="M334.96,250.32c0.735,0.976,0.174,2.068,0.24,3.119c0.026,0.416,0.167,0.783,0.239,1.201c0.039,0.223-0.064,0.502,0,0.719
			c0.03,0.099,0.244,0.291,0.24,0.24c0.043,0.51-0.271,0.762-0.24,1.68c0.02,0.546,0.222,1.125,0.24,1.681
			c0.01,0.301-0.354,3.069,0,3.36c0.367,0.301-0.213,0.349,0,1.199c0.066,0.267,0.146,0.48,0.24,1.201
			c0.096,0.717,0.158,0.329,0,0.959c-0.111,0.449,0.168,0.784,0.24,1.2c0.176,1.027,0.32,1.636,0,2.64
			c-0.115,0.359-0.186,0.729-0.48,0.961c0.237,0.791,0.619,1.678,0.721,2.64c0.06,0.571-0.227,1.112-0.24,1.68
			c-0.012,0.433,0.199,0.925,0.24,1.44c0.019,0.229-0.227,1.734,0,1.92c0.271,0.221,0.027,0.122,0,0.48
			c-0.024,0.307,0.238,0.993-0.24,1.199c0.293,0.907,0.853,2.557,0.24,3.6c0.271,0.943,0.889,1.863,0.959,3.121
			c0.063,1.115-0.265,2.088-0.479,3.119c-0.006,0.827,0.588,1.517,0.72,2.4c0.17,1.141,0.115,2.545,0,3.84
			c-0.039,0.447-0.25,0.684-0.24,0.96c0.027,0.792,0.401,1.57,0.48,2.4c0.219,2.306-0.079,4.739,0.24,7.2
			c0.125,0.962,0.189,2.604,0,4.078c0.105,0.352,0.211-0.022,0.48,0c0.088-0.789,0.561-1.197,0.959-1.68
			c0.209-0.352,0.359-0.761,0.961-0.72c-0.037-0.598,0.377-0.743,0.479-1.2c0.731-0.304,1.312-0.679,1.92-1.2
			c0.078-0.065-0.079-0.413,0-0.479c0.185-0.15,0.517-0.08,0.72-0.24c0.223-0.174,0.491-0.526,0.721-0.722
			c1.09-0.91,2.311-1.688,3.119-2.879c1.621-0.221,2.062-1.617,3.84-1.682c0.8-0.355,1.365-1.029,2.16-1.439
			c0.278-0.145,0.474-0.113,0.721-0.24c0.181-0.094,0.271-0.152,0.48-0.24c0.344-0.145,0.864-0.383,1.199-0.48
			c-0.109,0.033,0.125,0.264,0.24,0.24c-0.089,0.019,0.21-0.226,0.24-0.24c0.365-0.176,0.621-0.123,1.439-0.239
			c0.073-0.011,0.439,0.05,0.48,0c0.152-0.187,0.729-0.234,1.439-0.479c0.789-0.273,1.434-0.842,2.881-0.48
			c0.432,0.107,0.993,0.133,2.159,0c0.718-0.082,1.464-0.121,2.16-0.48c0.808,0.152,1.231,0.689,2.399,0.48
			c0.359,0.273,0.867,0.816,1.44,1.199c0.906-0.105,1.126,0.475,1.681,0.721c0.23,0.16-0.039,0.972,0.24,1.199
			c0.195,0.162,0.166,0.185,0.239,0.48c-0.002-0.009,0.22,0.704,0.24,0.721c0.366,0.299,0.261,0.6,0.479,1.439
			c0.107,0.411,0.405,0.784,0.48,1.2c0.068,0.385-0.035,0.81,0,1.2c0.072,0.81,0.326,1.982,0.24,3.357
			c-0.03,0.483-0.381,1.016-0.48,1.683c-0.086,0.583,0.102,1.339,0,1.92c-0.143,0.826-0.464,1.729-0.72,2.88
			c-0.119,0.531-0.063,0.497-0.24,1.2c-0.038,0.147-0.239,0.231-0.239,0.238c-0.096,0.579,0.127,1.191,0,1.682
			c-0.017,0.061-0.229,0.021-0.24,0.239c-0.021,0.368-0.137,0.436-0.24,0.721c-0.188,0.515-0.492,1.29-0.721,1.92
			c-0.061,0.167-0.103,0.721-0.239,0.96c-0.058,0.1-0.442,0.156-0.48,0.24c-0.169,0.374-0.12,0.567-0.479,0.96
			c-0.071,0.077-0.415-0.081-0.48,0c-0.039,0.048,0.039,0.189,0,0.239c-0.162,0.203-0.482,0.394-0.72,0.721
			c-0.202,0.276-0.069,0.646-0.24,0.96c-0.056,0.102-0.44,0.154-0.479,0.24c-0.059,0.129,0.067,0.354,0,0.479
			c-0.055,0.104-0.441,0.154-0.48,0.24c-0.171,0.38-0.006,0.68-0.24,1.2c-0.429,0.269-0.804,0.635-1.199,0.96
			c-0.146,0.12-0.582,0.101-0.721,0.237c-0.158,0.159-0.084,0.561-0.24,0.723c-0.621,0.646-1.445,1.155-1.68,2.16
			c-0.279-0.061-0.343,0.425-0.48,0.479c-0.161,0.064-0.588-0.105-0.719,0c-0.293,0.239-0.227,0.719-0.48,0.96
			c-0.078,0.073-0.414-0.081-0.48,0c-0.301,0.368-0.445,0.97-0.959,1.44c-0.179,0.162-0.548,0.079-0.721,0.238
			c-0.122,0.112-0.452,0.935-0.96,0.96c-0.38,0.021-0.757,0.867-1.2,1.199c-0.085,0.064-0.415-0.079-0.48,0
			c-0.269,0.329-0.506,0.062-0.959,0.24c-0.178,0.07-0.209,0.387-0.48,0.48c-0.574,0.194-1.048,0.08-1.439,0.237
			c-0.662,0.27-1.545,0.812-2.16,1.44c-1.409,0.109-2.631,0.41-3.36,1.2c-0.624-0.035-1.224-0.052-1.681,0.238
			c-0.336,0.216-0.613,0.119-1.439,0.239c-0.652,0.097-0.796,0.312-1.68,0c-0.055-0.02-0.061-0.194-0.24-0.239
			c-0.504-0.127-1.535-0.262-2.16-0.479c-0.404-0.143-0.455-0.594-0.96-0.72c-0.489-0.122-1.457,0.062-1.92-0.48
			c0.134-0.751,0.957-1.104,1.44-1.438c0.127-0.09,0.123-0.396,0.24-0.48c0.084-0.062,0.414,0.08,0.479,0
			c0.137-0.167,0.578-0.229,1.2-0.479c0.208-0.353,0.359-0.762,0.96-0.722c0.5,0.167,0.638-0.25,0.96-0.239
			c0.207,0.008,0.376,0.249,0.72,0.239c0.201-0.005,0.384-0.239,0.72-0.239c0.635,0,0.565,0.404,1.2,0
			c0.235-0.148,0.378-0.153,0.72-0.238c0.295-0.074,0.529-0.298,0.721-0.48c0.324-0.312,0.521,0.047,1.199-0.239
			c0.377-0.158,0.472-0.599,0.961-0.721c0.466-0.116,1.311-0.142,1.68-0.72c0.561,0,1.12,0,1.68,0c0.68-0.361,1.109-0.971,2.16-0.96
			c0.48-0.561,0.719-1.362,1.92-1.2c-0.064-0.658,0.659-1.066,0.96-1.439c0.181-0.225,0.284-0.507,0.48-0.721
			c0.151-0.165,0.321-0.318,0.479-0.479c0.075-0.076,0.414,0.081,0.48,0c0.039-0.05-0.039-0.191,0-0.24
			c0.15-0.189,0.404-0.624,0.72-0.96c0.072-0.077,0.414,0.08,0.479,0c0.207-0.251,0.373-0.606,0.48-1.2
			c0.938-0.062,1.309-1.172,1.92-1.92c0.139-0.17,0.364-0.327,0.48-0.479c0.121-0.156,0.096-0.561,0.24-0.721
			c0.141-0.157,0.58-0.071,0.72-0.239c0.067-0.082-0.081-0.412,0-0.479c0.599-0.49,1.132-1.542,1.68-2.4
			c0.093-0.145,0.409-0.348,0.479-0.479c0.148-0.275,0.099-0.479,0.24-0.721c0.09-0.152,0.404-0.346,0.48-0.479
			c0.049-0.088-0.074-0.42,0-0.479c0.379-0.311,0.443-1.479,0.72-2.641c0.191-0.805,0.599-1.653,0.72-2.398
			c0.148-0.903,0.137-1.854,0.24-2.642c0.109-0.828-0.072-1.666-0.24-2.64c-0.094-0.547-0.1-1.247-0.239-1.682
			c-0.097-0.301-0.339-0.276-0.48-0.479c-0.06-0.087,0.079-0.416,0-0.479c-0.28-0.229-0.067-0.355-0.239-0.722
			c-0.063-0.134-0.408-0.129-0.48-0.239c-0.158-0.24-0.057-0.521-0.24-0.721c-0.182-0.193-1.043-0.536-0.96-1.199
			c-0.766,0.176-1.062-0.461-1.68-0.721c-0.134-0.057-0.339,0.036-0.479,0c-0.154-0.038-0.23-0.238-0.24-0.24
			c-1.409-0.24-3.028,0.695-4.08-0.24c-1.215,0.771-2.291,0.545-3.84,0.961c-0.062,0.017-0.021,0.228-0.24,0.24
			c-0.275,0.016-0.702-0.091-0.961,0c-0.094,0.032-0.596,0.146-0.719,0.239c-0.099,0.073-0.147,0.429-0.24,0.479
			c-0.184,0.104-0.529-0.092-0.721,0c-0.125,0.061-0.135,0.418-0.24,0.479c-0.502,0.29-1.135,0.462-1.68,0.722
			c-0.115,0.056,0.023,0.227-0.24,0.238c-0.401,0.021-0.78,0.477-1.199,0.721c-0.395,0.23-0.903,0.506-1.44,0.722
			c-0.085,0.034-0.426-0.066-0.479,0c-0.162,0.196-0.279,0.696-0.721,0.72c-0.355,0.02-0.57,0.33-0.959,0.721
			c-0.259,0.258-0.48,0.518-0.721,0.721c-0.236,0.201-0.46,0.539-0.72,0.721c-0.374,0.262-0.661,0.062-0.96,0.479
			c-0.121,0.293-0.256,0.526-0.48,0.723c-0.205,0.178-0.521,0.299-0.72,0.479c-0.396,0.36-0.812,0.793-1.2,1.2
			c-0.314,0.33-0.861,0.799-1.199,1.2c-0.07,0.082,0.08,0.413,0,0.479c-0.162,0.133-0.765,0.396-0.961,0.723
			c-0.188,0.312-0.043,0.78-0.24,1.197c-0.051,0.109-0.439,0.151-0.479,0.24c-0.203,0.45,0.03,1.78-0.96,1.92
			c0.339,2.517,0.001,5.42-0.24,8.16c-0.195,2.226,0.539,3.994,0.24,6.48c-0.009,0.069,0.049,0.438,0,0.479
			c-0.285,0.233,0.139,0.639,0.24,1.44c0.193,1.528,0.109,3.396,0.24,5.04c0.162,2.032,0.781,4.245-0.48,6
			c-0.16-0.231-0.973,0.039-1.2-0.24c-0.118-0.146-0.661-0.704-0.96-0.72c-0.398-0.021-0.589-0.913-0.72-1.44
			c-0.113-0.454-0.144-0.913-0.24-1.438c0.015,0.074,0.269-0.099,0.24-0.239c-0.003-0.019-0.218-0.069-0.24-0.24
			c-0.082-0.616-0.035-0.761-0.239-1.439c-0.238-0.781-0.199-2.714-0.48-3.841c-0.047-0.188-0.419-1.205-0.48-1.68
			c-0.062-0.489,0.264-0.904,0.24-1.44s-0.389-1.067-0.48-1.68c-0.08-0.529,0.158-1.047,0-1.68c-0.052-0.207-0.379-0.673-0.239-1.44
			c0.098-0.536,0.294-0.475,0-1.438c-0.011-0.033-0.199-0.079-0.24-0.24c-0.062-0.248-0.077-1.325,0-1.92
			c0.094-0.723,0.219-0.992,0-1.92c-0.112-0.479,0.022-0.457-0.24-0.722c0.046,0.047,0.232-0.576,0.24-0.721
			c0.042-0.741-0.315-2.285,0.479-2.88c-0.396-0.545-0.195-0.996-0.239-1.68c0.001,0.014-0.24-0.07-0.24-0.24
			c0-0.22,0.271-0.476,0.24-1.2c-0.023-0.566-0.222-1.104-0.24-1.68c-0.047-1.482,0.177-2.943,0-4.562
			c-0.042-0.386-0.255-0.822-0.239-1.199c0.039-0.967,0.483-1.942,0.479-2.881c-0.005-1.328-0.581-2.203-0.479-4.08
			c-0.002,0.033,0.231-0.092,0.239-0.239c0.021-0.396-0.237-0.407-0.239-0.72c-0.027-2.838,0.25-6.213,0-9.36
			c-0.066-0.834-0.391-1.615-0.48-2.399c-0.078-0.686,0.046-1.451,0-2.16c-0.069-1.056-0.422-1.963-0.24-3.36
			c0.055-0.419,0.23-0.515,0.24-0.96c0.009-0.426-0.225-0.512-0.24-0.96c-0.018-0.502,0.253-0.642,0.24-0.96
			c0.002,0.037-0.232-0.098-0.24-0.24c-0.087-1.652,0.008-4.202,0-6.24c-0.001-0.201,0.059-0.527,0-0.72
			c-0.141-0.462-0.016-0.25,0-1.2c0.029-1.91-0.084-4.255,0-6.48c0.073-1.928,0.381-3.75,0.48-5.52
			c0.143-2.553-0.092-4.465,1.199-6.24c0.061-0.26,0.479-0.162,0.48-0.479C334.48,250.32,334.721,250.32,334.96,250.32z"/>
	</g>
</g>
</svg>
